M48
;Layer_Color=9474304
;FILE_FORMAT=2:5
INCH,LZ
;TYPE=PLATED
T1F00S00C0.01575
T2F00S00C0.02800
T3F00S00C0.03000
T4F00S00C0.03800
T5F00S00C0.04000
T6F00S00C0.04331
T7F00S00C0.13780
%
T01
X1134Y10311
X11313Y10406
X1138Y10426
X1135Y10465
X11349Y10587
X11361Y10651
X11394Y10756
X11446Y10731
X1157Y1071
X11516Y10852
X1144036Y10912
X11344Y10923
X113255Y107815
X11257Y10753
X11275Y10705
X11101Y10683
X11061Y10657
X1115Y10575
X11195Y1052
X11154Y108214
X11685Y10882
X11725Y104
X1175Y1036
X11715Y10265
X1165Y10235
X1164Y1031
X1159Y10415
X121Y10533
X12169Y10545
X121925Y106025
X1224Y10645
X12485Y10825
X12462Y10893
X12635Y1065
X13095Y10766
X125Y1107
X1378Y11105
X1373Y115
X1227Y11195
X11679Y11012
X11625Y1101
X11555Y11035
X11475Y1109
X1145386Y1115761
X11345Y11135
X1134Y1098
X11395Y10964
X1118081Y1107981
X11084Y1101
X10978Y11153
X11305Y1132
X11285Y11395
X12285Y1221
T02
X11999Y10343
X12017Y10497
X11886Y1048
X11971Y10688
X12309Y10867
X12429Y10449
X12509Y11468
X12372Y11466
X12351Y11061
X12091Y11255
X11658Y11232
X11499Y11315
X11395Y11917
X11863Y12043
X11917Y12257
X12062Y1247655
X12229Y12467
T03
X12597Y11506
X1236155Y1202345
X1138834Y1212004
X12122Y12634
T04
X12855Y1088
Y1098
Y1108
X116Y11535
Y11635
X115
Y11535
X114
X113
X112
Y11635
X113
X114
X111
X11
Y11535
X111
T05
X11736Y11354
T06
X1273258Y1004658
X1266187Y1011729
X1273258Y10188
X12874
X1280329Y1011729
X1280329Y1025871
X1294471
X1301542Y1032942
X12874
X1294471Y1040013
X13475Y111
X13575
Y112
Y113
Y114
Y115
X13475
Y114
Y113
Y112
T07
X1228244Y0987902
X1350988Y12005
X11055
M30
