%FSLAX25Y25*%
%MOIN*%
G70*
G01*
G75*
G04 Layer_Color=8388736*
G04:AMPARAMS|DCode=10|XSize=11.81mil|YSize=70.87mil|CornerRadius=0mil|HoleSize=0mil|Usage=FLASHONLY|Rotation=225.000|XOffset=0mil|YOffset=0mil|HoleType=Round|Shape=Round|*
%AMOVALD10*
21,1,0.05906,0.01181,0.00000,0.00000,315.0*
1,1,0.01181,-0.02088,0.02088*
1,1,0.01181,0.02088,-0.02088*
%
%ADD10OVALD10*%

G04:AMPARAMS|DCode=11|XSize=11.81mil|YSize=70.87mil|CornerRadius=0mil|HoleSize=0mil|Usage=FLASHONLY|Rotation=135.000|XOffset=0mil|YOffset=0mil|HoleType=Round|Shape=Round|*
%AMOVALD11*
21,1,0.05906,0.01181,0.00000,0.00000,225.0*
1,1,0.01181,0.02088,0.02088*
1,1,0.01181,-0.02088,-0.02088*
%
%ADD11OVALD11*%

G04:AMPARAMS|DCode=12|XSize=47.24mil|YSize=59.06mil|CornerRadius=11.81mil|HoleSize=0mil|Usage=FLASHONLY|Rotation=270.000|XOffset=0mil|YOffset=0mil|HoleType=Round|Shape=RoundedRectangle|*
%AMROUNDEDRECTD12*
21,1,0.04724,0.03543,0,0,270.0*
21,1,0.02362,0.05906,0,0,270.0*
1,1,0.02362,-0.01772,-0.01181*
1,1,0.02362,-0.01772,0.01181*
1,1,0.02362,0.01772,0.01181*
1,1,0.02362,0.01772,-0.01181*
%
%ADD12ROUNDEDRECTD12*%
G04:AMPARAMS|DCode=13|XSize=47.24mil|YSize=59.06mil|CornerRadius=11.81mil|HoleSize=0mil|Usage=FLASHONLY|Rotation=180.000|XOffset=0mil|YOffset=0mil|HoleType=Round|Shape=RoundedRectangle|*
%AMROUNDEDRECTD13*
21,1,0.04724,0.03543,0,0,180.0*
21,1,0.02362,0.05906,0,0,180.0*
1,1,0.02362,-0.01181,0.01772*
1,1,0.02362,0.01181,0.01772*
1,1,0.02362,0.01181,-0.01772*
1,1,0.02362,-0.01181,-0.01772*
%
%ADD13ROUNDEDRECTD13*%
%ADD14O,0.08661X0.02362*%
%ADD15R,0.03740X0.03543*%
%ADD16R,0.03740X0.03543*%
%ADD17R,0.06299X0.03937*%
%ADD18R,0.03543X0.03740*%
%ADD19R,0.03543X0.03740*%
%ADD20R,0.02362X0.05118*%
%ADD21R,0.10236X0.09449*%
%ADD22R,0.09449X0.10236*%
%ADD23R,0.07480X0.13386*%
%ADD24R,0.07874X0.05906*%
%ADD25R,0.02559X0.04331*%
%ADD26R,0.13386X0.07480*%
%ADD27C,0.01000*%
%ADD28C,0.03000*%
%ADD29C,0.02000*%
%ADD30R,0.06000X0.06000*%
%ADD31C,0.06000*%
%ADD32C,0.06299*%
%ADD33R,0.06299X0.06299*%
%ADD34R,0.06000X0.06000*%
%ADD35C,0.20000*%
%ADD36P,0.08908X4X270.0*%
%ADD37C,0.03543*%
%ADD38C,0.05000*%
%ADD39C,0.00984*%
%ADD40C,0.02362*%
%ADD41C,0.00787*%
%ADD42C,0.00500*%
%ADD43C,0.00800*%
%ADD44R,0.07874X0.01968*%
G04:AMPARAMS|DCode=45|XSize=19.81mil|YSize=78.87mil|CornerRadius=0mil|HoleSize=0mil|Usage=FLASHONLY|Rotation=225.000|XOffset=0mil|YOffset=0mil|HoleType=Round|Shape=Round|*
%AMOVALD45*
21,1,0.05906,0.01981,0.00000,0.00000,315.0*
1,1,0.01981,-0.02088,0.02088*
1,1,0.01981,0.02088,-0.02088*
%
%ADD45OVALD45*%

G04:AMPARAMS|DCode=46|XSize=19.81mil|YSize=78.87mil|CornerRadius=0mil|HoleSize=0mil|Usage=FLASHONLY|Rotation=135.000|XOffset=0mil|YOffset=0mil|HoleType=Round|Shape=Round|*
%AMOVALD46*
21,1,0.05906,0.01981,0.00000,0.00000,225.0*
1,1,0.01981,0.02088,0.02088*
1,1,0.01981,-0.02088,-0.02088*
%
%ADD46OVALD46*%

G04:AMPARAMS|DCode=47|XSize=55.24mil|YSize=67.06mil|CornerRadius=13.81mil|HoleSize=0mil|Usage=FLASHONLY|Rotation=270.000|XOffset=0mil|YOffset=0mil|HoleType=Round|Shape=RoundedRectangle|*
%AMROUNDEDRECTD47*
21,1,0.05524,0.03943,0,0,270.0*
21,1,0.02762,0.06706,0,0,270.0*
1,1,0.02762,-0.01972,-0.01381*
1,1,0.02762,-0.01972,0.01381*
1,1,0.02762,0.01972,0.01381*
1,1,0.02762,0.01972,-0.01381*
%
%ADD47ROUNDEDRECTD47*%
G04:AMPARAMS|DCode=48|XSize=55.24mil|YSize=67.06mil|CornerRadius=13.81mil|HoleSize=0mil|Usage=FLASHONLY|Rotation=180.000|XOffset=0mil|YOffset=0mil|HoleType=Round|Shape=RoundedRectangle|*
%AMROUNDEDRECTD48*
21,1,0.05524,0.03943,0,0,180.0*
21,1,0.02762,0.06706,0,0,180.0*
1,1,0.02762,-0.01381,0.01972*
1,1,0.02762,0.01381,0.01972*
1,1,0.02762,0.01381,-0.01972*
1,1,0.02762,-0.01381,-0.01972*
%
%ADD48ROUNDEDRECTD48*%
%ADD49O,0.09461X0.03162*%
%ADD50R,0.04540X0.04343*%
%ADD51R,0.04540X0.04343*%
%ADD52R,0.07099X0.04737*%
%ADD53R,0.04343X0.04540*%
%ADD54R,0.04343X0.04540*%
%ADD55R,0.03162X0.05918*%
%ADD56R,0.11036X0.10249*%
%ADD57R,0.10249X0.11036*%
%ADD58R,0.08280X0.14186*%
%ADD59R,0.08674X0.06706*%
%ADD60R,0.03359X0.05131*%
%ADD61R,0.14186X0.08280*%
%ADD62R,0.06800X0.06800*%
%ADD63C,0.06800*%
%ADD64C,0.07099*%
%ADD65R,0.07099X0.07099*%
%ADD66R,0.06800X0.06800*%
%ADD67C,0.20800*%
%ADD68P,0.10040X4X270.0*%
%ADD69C,0.04343*%
%ADD70C,0.05800*%
D45*
X1138315Y1032778D02*
D03*
X1139707Y1034170D02*
D03*
X1141099Y1035562D02*
D03*
X1142491Y1036954D02*
D03*
X1143883Y1038346D02*
D03*
X1145275Y1039738D02*
D03*
X1146667Y1041130D02*
D03*
X1148059Y1042522D02*
D03*
X1149451Y1043914D02*
D03*
X1150842Y1045306D02*
D03*
X1152234Y1046698D02*
D03*
X1153626Y1048090D02*
D03*
X1155018Y1049482D02*
D03*
X1156410Y1050874D02*
D03*
X1157802Y1052266D02*
D03*
X1159194Y1053658D02*
D03*
X1160586Y1055049D02*
D03*
X1161978Y1056441D02*
D03*
X1163370Y1057833D02*
D03*
X1164762Y1059225D02*
D03*
X1166154Y1060617D02*
D03*
X1167546Y1062009D02*
D03*
X1168938Y1063401D02*
D03*
X1170330Y1064793D02*
D03*
X1171722Y1066185D02*
D03*
X1129685Y1108222D02*
D03*
X1128293Y1106830D02*
D03*
X1126901Y1105438D02*
D03*
X1125509Y1104046D02*
D03*
X1124117Y1102654D02*
D03*
X1122725Y1101262D02*
D03*
X1121333Y1099870D02*
D03*
X1119941Y1098478D02*
D03*
X1118549Y1097086D02*
D03*
X1117157Y1095694D02*
D03*
X1115766Y1094302D02*
D03*
X1114374Y1092910D02*
D03*
X1112982Y1091518D02*
D03*
X1111590Y1090126D02*
D03*
X1110198Y1088734D02*
D03*
X1108806Y1087342D02*
D03*
X1107414Y1085951D02*
D03*
X1106022Y1084559D02*
D03*
X1104630Y1083167D02*
D03*
X1103238Y1081775D02*
D03*
X1101846Y1080383D02*
D03*
X1100454Y1078991D02*
D03*
X1099062Y1077599D02*
D03*
X1097670Y1076207D02*
D03*
X1096278Y1074815D02*
D03*
X1138119Y1051070D02*
D03*
X1139511Y1052461D02*
D03*
X1140903Y1053853D02*
D03*
X1142295Y1055245D02*
D03*
X1143687Y1056637D02*
D03*
X1145079Y1058029D02*
D03*
X1146471Y1059421D02*
D03*
X1147863Y1060813D02*
D03*
X1149255Y1062205D02*
D03*
X1150646Y1063597D02*
D03*
X1152038Y1064989D02*
D03*
X1153430Y1066381D02*
D03*
X1130881Y1088930D02*
D03*
X1129489Y1087538D02*
D03*
X1128097Y1086146D02*
D03*
X1126705Y1084754D02*
D03*
X1125313Y1083362D02*
D03*
X1123921Y1081971D02*
D03*
X1122529Y1080579D02*
D03*
X1121137Y1079187D02*
D03*
X1119745Y1077795D02*
D03*
X1118353Y1076403D02*
D03*
X1116961Y1075011D02*
D03*
X1115570Y1073619D02*
D03*
D46*
X1171722Y1074815D02*
D03*
X1170330Y1076207D02*
D03*
X1168938Y1077599D02*
D03*
X1167546Y1078991D02*
D03*
X1166154Y1080383D02*
D03*
X1164762Y1081775D02*
D03*
X1163370Y1083167D02*
D03*
X1161978Y1084559D02*
D03*
X1160586Y1085951D02*
D03*
X1159194Y1087342D02*
D03*
X1157802Y1088734D02*
D03*
X1156410Y1090126D02*
D03*
X1155018Y1091518D02*
D03*
X1153626Y1092910D02*
D03*
X1152234Y1094302D02*
D03*
X1150842Y1095694D02*
D03*
X1149451Y1097086D02*
D03*
X1148059Y1098478D02*
D03*
X1146667Y1099870D02*
D03*
X1145275Y1101262D02*
D03*
X1143883Y1102654D02*
D03*
X1142491Y1104046D02*
D03*
X1141099Y1105438D02*
D03*
X1139707Y1106830D02*
D03*
X1138315Y1108222D02*
D03*
X1096278Y1066185D02*
D03*
X1097670Y1064793D02*
D03*
X1099062Y1063401D02*
D03*
X1100454Y1062009D02*
D03*
X1101846Y1060617D02*
D03*
X1103238Y1059225D02*
D03*
X1104630Y1057833D02*
D03*
X1106022Y1056441D02*
D03*
X1107414Y1055049D02*
D03*
X1108806Y1053658D02*
D03*
X1110198Y1052266D02*
D03*
X1111590Y1050874D02*
D03*
X1112982Y1049482D02*
D03*
X1114374Y1048090D02*
D03*
X1115766Y1046698D02*
D03*
X1117157Y1045306D02*
D03*
X1118549Y1043914D02*
D03*
X1119941Y1042522D02*
D03*
X1121333Y1041130D02*
D03*
X1122725Y1039738D02*
D03*
X1124117Y1038346D02*
D03*
X1125509Y1036954D02*
D03*
X1126901Y1035562D02*
D03*
X1128293Y1034170D02*
D03*
X1129685Y1032778D02*
D03*
X1115569Y1066381D02*
D03*
X1116961Y1064989D02*
D03*
X1118353Y1063597D02*
D03*
X1119745Y1062205D02*
D03*
X1121137Y1060813D02*
D03*
X1122529Y1059421D02*
D03*
X1123921Y1058029D02*
D03*
X1125313Y1056637D02*
D03*
X1126705Y1055245D02*
D03*
X1128097Y1053853D02*
D03*
X1129489Y1052461D02*
D03*
X1130881Y1051070D02*
D03*
X1153430Y1073619D02*
D03*
X1152038Y1075011D02*
D03*
X1150646Y1076403D02*
D03*
X1149255Y1077795D02*
D03*
X1147863Y1079187D02*
D03*
X1146471Y1080579D02*
D03*
X1145079Y1081971D02*
D03*
X1143687Y1083363D02*
D03*
X1142295Y1084754D02*
D03*
X1140903Y1086147D02*
D03*
X1139511Y1087538D02*
D03*
X1138119Y1088930D02*
D03*
D47*
X1214700Y1246794D02*
D03*
Y1256006D02*
D03*
X1097000Y1101306D02*
D03*
Y1092094D02*
D03*
X1155500Y1119106D02*
D03*
Y1109894D02*
D03*
X1205500Y1077106D02*
D03*
Y1067894D02*
D03*
X1173000Y1104394D02*
D03*
Y1113606D02*
D03*
X1205500Y1104394D02*
D03*
Y1113606D02*
D03*
X1204075Y1140898D02*
D03*
Y1131685D02*
D03*
X1205500Y1095106D02*
D03*
Y1085894D02*
D03*
X1194500Y1095106D02*
D03*
Y1085894D02*
D03*
X1258000Y1105394D02*
D03*
Y1114606D02*
D03*
X1214400Y1131794D02*
D03*
Y1141006D02*
D03*
X1194000Y1121394D02*
D03*
Y1130606D02*
D03*
X1227000Y1113606D02*
D03*
Y1104394D02*
D03*
X1216000Y1104394D02*
D03*
Y1113606D02*
D03*
X1194500Y1104394D02*
D03*
Y1113606D02*
D03*
X1261000Y1123394D02*
D03*
Y1132606D02*
D03*
X1184000Y1113606D02*
D03*
Y1104394D02*
D03*
X1272500Y1132606D02*
D03*
Y1123394D02*
D03*
X1216500Y1168606D02*
D03*
Y1159394D02*
D03*
X1260000Y1158394D02*
D03*
Y1167606D02*
D03*
X1166500Y1219894D02*
D03*
Y1229106D02*
D03*
X1276200Y1068806D02*
D03*
Y1059594D02*
D03*
X1286307Y1062882D02*
D03*
Y1053669D02*
D03*
X1265800Y1054406D02*
D03*
Y1045194D02*
D03*
D48*
X1180894Y1058000D02*
D03*
X1190106D02*
D03*
X1356606Y1083000D02*
D03*
X1347394D02*
D03*
X1355606Y1178500D02*
D03*
X1346394D02*
D03*
X1140906Y1021900D02*
D03*
X1131694D02*
D03*
X1259394Y1142000D02*
D03*
X1268606D02*
D03*
X1246106Y1114500D02*
D03*
X1236894D02*
D03*
X1206394Y1232000D02*
D03*
X1215606D02*
D03*
X1183106Y1047000D02*
D03*
X1173894D02*
D03*
X1191606Y1035000D02*
D03*
X1182394D02*
D03*
X1175894Y1220000D02*
D03*
X1185106D02*
D03*
X1184606Y1240500D02*
D03*
X1175394D02*
D03*
X1175894Y1230000D02*
D03*
X1185106D02*
D03*
X1189106Y1067700D02*
D03*
X1179894D02*
D03*
D49*
X1235051Y1064500D02*
D03*
Y1059500D02*
D03*
Y1054500D02*
D03*
Y1049500D02*
D03*
X1253949Y1064500D02*
D03*
Y1059500D02*
D03*
Y1054500D02*
D03*
Y1049500D02*
D03*
X1229051Y1140000D02*
D03*
Y1135000D02*
D03*
Y1130000D02*
D03*
Y1125000D02*
D03*
X1247949Y1140000D02*
D03*
Y1135000D02*
D03*
Y1130000D02*
D03*
Y1125000D02*
D03*
X1197051Y1221000D02*
D03*
Y1216000D02*
D03*
Y1211000D02*
D03*
Y1206000D02*
D03*
X1215949Y1221000D02*
D03*
Y1216000D02*
D03*
Y1211000D02*
D03*
Y1206000D02*
D03*
X1247949Y1158500D02*
D03*
Y1163500D02*
D03*
Y1168500D02*
D03*
Y1173500D02*
D03*
X1229051Y1158500D02*
D03*
Y1163500D02*
D03*
Y1168500D02*
D03*
Y1173500D02*
D03*
D50*
X1369874Y1122000D02*
D03*
X1379126Y1118260D02*
D03*
X1369874Y1140500D02*
D03*
X1379126Y1136760D02*
D03*
D51*
Y1125740D02*
D03*
Y1144240D02*
D03*
D52*
X1371500Y1094000D02*
D03*
Y1106598D02*
D03*
Y1171098D02*
D03*
Y1158500D02*
D03*
D53*
X1216260Y1077874D02*
D03*
X1220000Y1087126D02*
D03*
X1177260Y1086874D02*
D03*
X1181000Y1096126D02*
D03*
D54*
X1223740Y1077874D02*
D03*
X1184740Y1086874D02*
D03*
D55*
X1241500Y1102634D02*
D03*
X1245240Y1094366D02*
D03*
X1237760D02*
D03*
X1193000Y1184366D02*
D03*
X1189260Y1192634D02*
D03*
X1196740D02*
D03*
X1153500Y1228134D02*
D03*
X1157240Y1219866D02*
D03*
X1149760D02*
D03*
D56*
X1150402Y1203000D02*
D03*
X1175598D02*
D03*
D57*
X1240000Y1239098D02*
D03*
Y1213902D02*
D03*
D58*
X1208823Y1190500D02*
D03*
X1224177D02*
D03*
D59*
X1196500Y1250000D02*
D03*
Y1262500D02*
D03*
D60*
X1175760Y1262724D02*
D03*
X1183240D02*
D03*
Y1253276D02*
D03*
X1179500D02*
D03*
X1175760D02*
D03*
D61*
X1159500Y1257177D02*
D03*
Y1241823D02*
D03*
D62*
X1160000Y1163500D02*
D03*
D63*
Y1153500D02*
D03*
X1150000Y1163500D02*
D03*
Y1153500D02*
D03*
X1120000D02*
D03*
Y1163500D02*
D03*
X1130000Y1153500D02*
D03*
Y1163500D02*
D03*
X1100000Y1153500D02*
D03*
Y1163500D02*
D03*
X1110000Y1153500D02*
D03*
Y1163500D02*
D03*
X1140000D02*
D03*
Y1153500D02*
D03*
X1138834Y1212004D02*
D03*
X1212200Y1263400D02*
D03*
X1259700Y1150600D02*
D03*
X1236155Y1202345D02*
D03*
X1285500Y1098000D02*
D03*
Y1108000D02*
D03*
X1173600Y1135400D02*
D03*
D64*
X1357500Y1140000D02*
D03*
Y1110000D02*
D03*
Y1130000D02*
D03*
Y1120000D02*
D03*
Y1150000D02*
D03*
X1347500Y1140000D02*
D03*
Y1130000D02*
D03*
Y1120000D02*
D03*
Y1150000D02*
D03*
X1273258Y1004658D02*
D03*
X1294471Y1025871D02*
D03*
X1287400Y1018800D02*
D03*
X1280329Y1011729D02*
D03*
X1266187D02*
D03*
X1287400Y1032942D02*
D03*
X1280329Y1025871D02*
D03*
X1294471Y1040013D02*
D03*
X1273258Y1018800D02*
D03*
D65*
X1347500Y1110000D02*
D03*
D66*
X1285500Y1088000D02*
D03*
D67*
X1228244Y987902D02*
D03*
X1350988Y1200500D02*
D03*
X1105500D02*
D03*
D68*
X1301542Y1032942D02*
D03*
D69*
X1144600Y1073100D02*
D03*
X1167900Y1101200D02*
D03*
X1139500Y1096400D02*
D03*
X1139400Y1075600D02*
D03*
X1106100Y1065700D02*
D03*
X1246200Y1089300D02*
D03*
X1168500Y1088200D02*
D03*
X1151600Y1085200D02*
D03*
X1145386Y1115761D02*
D03*
X1127500Y1070500D02*
D03*
X1134400Y1092300D02*
D03*
X1157000Y1071000D02*
D03*
X1115000Y1057500D02*
D03*
X1164000Y1031000D02*
D03*
X1165000Y1023500D02*
D03*
X1159000Y1041500D02*
D03*
X1172500Y1040000D02*
D03*
X1119500Y1052000D02*
D03*
X1134500Y1113500D02*
D03*
X1097800Y1115300D02*
D03*
X1134000Y1031100D02*
D03*
X1110100Y1068300D02*
D03*
X1171500Y1026500D02*
D03*
X1378000Y1110500D02*
D03*
X1162500Y1101000D02*
D03*
X1155500Y1103500D02*
D03*
X1373000Y1150000D02*
D03*
X1134000Y1098000D02*
D03*
X1248500Y1082500D02*
D03*
X1147500Y1109000D02*
D03*
X1263500Y1065000D02*
D03*
X1227000Y1119500D02*
D03*
X1228500Y1221000D02*
D03*
X1250000Y1107000D02*
D03*
X1128500Y1139500D02*
D03*
X1130500Y1132000D02*
D03*
X1219250Y1060250D02*
D03*
X1224000Y1064500D02*
D03*
X1135000Y1046500D02*
D03*
X1132550Y1078150D02*
D03*
X1138000Y1042600D02*
D03*
X1134900Y1058700D02*
D03*
X1136100Y1065100D02*
D03*
X1131300Y1040600D02*
D03*
X1125700Y1075300D02*
D03*
X1115400Y1082140D02*
D03*
X1144036Y1091200D02*
D03*
X1309500Y1076600D02*
D03*
X1216900Y1054500D02*
D03*
X1210000Y1053300D02*
D03*
X1175000Y1036000D02*
D03*
X1118081Y1107981D02*
D03*
X1108400Y1101000D02*
D03*
D70*
X1230900Y1086700D02*
D03*
X1197100Y1068800D02*
D03*
X1201700Y1049700D02*
D03*
X1237200Y1146600D02*
D03*
X1250900Y1146800D02*
D03*
X1209100Y1125500D02*
D03*
X1165800Y1123200D02*
D03*
X1149900Y1131500D02*
D03*
X1242900Y1044900D02*
D03*
X1191700Y1225700D02*
D03*
X1139500Y1191700D02*
D03*
X1186300Y1204300D02*
D03*
X1235100Y1106100D02*
D03*
X1206200Y1247655D02*
D03*
X1222900Y1246700D02*
D03*
X1199900Y1034300D02*
D03*
X1188600Y1048000D02*
D03*
M02*
