%FSLAX25Y25*%
%MOIN*%
G70*
G01*
G75*
G04 Layer_Color=65535*
G04:AMPARAMS|DCode=10|XSize=11.81mil|YSize=70.87mil|CornerRadius=0mil|HoleSize=0mil|Usage=FLASHONLY|Rotation=225.000|XOffset=0mil|YOffset=0mil|HoleType=Round|Shape=Round|*
%AMOVALD10*
21,1,0.05906,0.01181,0.00000,0.00000,315.0*
1,1,0.01181,-0.02088,0.02088*
1,1,0.01181,0.02088,-0.02088*
%
%ADD10OVALD10*%

G04:AMPARAMS|DCode=11|XSize=11.81mil|YSize=70.87mil|CornerRadius=0mil|HoleSize=0mil|Usage=FLASHONLY|Rotation=135.000|XOffset=0mil|YOffset=0mil|HoleType=Round|Shape=Round|*
%AMOVALD11*
21,1,0.05906,0.01181,0.00000,0.00000,225.0*
1,1,0.01181,0.02088,0.02088*
1,1,0.01181,-0.02088,-0.02088*
%
%ADD11OVALD11*%

G04:AMPARAMS|DCode=12|XSize=47.24mil|YSize=59.06mil|CornerRadius=11.81mil|HoleSize=0mil|Usage=FLASHONLY|Rotation=270.000|XOffset=0mil|YOffset=0mil|HoleType=Round|Shape=RoundedRectangle|*
%AMROUNDEDRECTD12*
21,1,0.04724,0.03543,0,0,270.0*
21,1,0.02362,0.05906,0,0,270.0*
1,1,0.02362,-0.01772,-0.01181*
1,1,0.02362,-0.01772,0.01181*
1,1,0.02362,0.01772,0.01181*
1,1,0.02362,0.01772,-0.01181*
%
%ADD12ROUNDEDRECTD12*%
G04:AMPARAMS|DCode=13|XSize=47.24mil|YSize=59.06mil|CornerRadius=11.81mil|HoleSize=0mil|Usage=FLASHONLY|Rotation=180.000|XOffset=0mil|YOffset=0mil|HoleType=Round|Shape=RoundedRectangle|*
%AMROUNDEDRECTD13*
21,1,0.04724,0.03543,0,0,180.0*
21,1,0.02362,0.05906,0,0,180.0*
1,1,0.02362,-0.01181,0.01772*
1,1,0.02362,0.01181,0.01772*
1,1,0.02362,0.01181,-0.01772*
1,1,0.02362,-0.01181,-0.01772*
%
%ADD13ROUNDEDRECTD13*%
%ADD14O,0.08661X0.02362*%
%ADD15R,0.03740X0.03543*%
%ADD16R,0.03740X0.03543*%
%ADD17R,0.06299X0.03937*%
%ADD18R,0.03543X0.03740*%
%ADD19R,0.03543X0.03740*%
%ADD20R,0.02362X0.05118*%
%ADD21R,0.10236X0.09449*%
%ADD22R,0.09449X0.10236*%
%ADD23R,0.07480X0.13386*%
%ADD24R,0.07874X0.05906*%
%ADD25R,0.02559X0.04331*%
%ADD26R,0.13386X0.07480*%
%ADD27C,0.01000*%
%ADD28C,0.03000*%
%ADD29C,0.02000*%
%ADD30R,0.06000X0.06000*%
%ADD31C,0.06000*%
%ADD32C,0.06299*%
%ADD33R,0.06299X0.06299*%
%ADD34R,0.06000X0.06000*%
%ADD35C,0.20000*%
%ADD36P,0.08908X4X270.0*%
%ADD37C,0.03543*%
%ADD38C,0.05000*%
%ADD39C,0.00984*%
%ADD40C,0.02362*%
%ADD41C,0.00787*%
%ADD42C,0.00500*%
%ADD43C,0.00800*%
%ADD44R,0.07874X0.01968*%
D27*
X1120000Y1171000D02*
Y1173500D01*
X1180000Y1143500D02*
Y1173500D01*
X1120000Y1171000D02*
X1140000D01*
Y1173500D01*
X1180000D01*
X1080000Y1143500D02*
Y1173500D01*
X1120000D01*
X1080000Y1143500D02*
X1180000D01*
X1290500Y1083000D02*
Y1113000D01*
X1280500Y1083000D02*
Y1113000D01*
Y1083000D02*
Y1113000D01*
X1290500D01*
X1280500Y1083000D02*
X1290500D01*
X1287899Y1125098D02*
X1283900D01*
Y1119100D01*
X1287899D01*
X1283900Y1122099D02*
X1285899D01*
X1289898Y1119100D02*
Y1125098D01*
X1291897Y1123099D01*
X1293897Y1125098D01*
Y1119100D01*
X1295896Y1125098D02*
Y1120100D01*
X1296896Y1119100D01*
X1298895D01*
X1299895Y1120100D01*
Y1125098D01*
X1301894Y1122099D02*
X1305893D01*
X1289599Y1075498D02*
X1285600D01*
Y1069500D01*
X1289599D01*
X1285600Y1072499D02*
X1287599D01*
X1291598Y1069500D02*
Y1075498D01*
X1293597Y1073499D01*
X1295597Y1075498D01*
Y1069500D01*
X1297596Y1075498D02*
Y1070500D01*
X1298596Y1069500D01*
X1300595D01*
X1301595Y1070500D01*
Y1075498D01*
X1303594Y1072499D02*
X1307593D01*
X1305593Y1074498D02*
Y1070500D01*
X1243200Y1198999D02*
X1247199D01*
X1245199Y1200998D02*
Y1197000D01*
X1249198Y1200998D02*
X1250198Y1201998D01*
X1252197D01*
X1253197Y1200998D01*
Y1199999D01*
X1252197Y1198999D01*
X1251197D01*
X1252197D01*
X1253197Y1197999D01*
Y1197000D01*
X1252197Y1196000D01*
X1250198D01*
X1249198Y1197000D01*
X1255196Y1196000D02*
Y1197000D01*
X1256196D01*
Y1196000D01*
X1255196D01*
X1260194Y1200998D02*
X1261194Y1201998D01*
X1263194D01*
X1264193Y1200998D01*
Y1199999D01*
X1263194Y1198999D01*
X1262194D01*
X1263194D01*
X1264193Y1197999D01*
Y1197000D01*
X1263194Y1196000D01*
X1261194D01*
X1260194Y1197000D01*
X1266193Y1201998D02*
Y1197999D01*
X1268192Y1196000D01*
X1270191Y1197999D01*
Y1201998D01*
X1216000Y1268199D02*
X1219999D01*
X1217999Y1270198D02*
Y1266200D01*
X1225997Y1271198D02*
X1221998D01*
Y1265200D01*
X1225997D01*
X1221998Y1268199D02*
X1223997D01*
X1231995Y1270198D02*
X1230995Y1271198D01*
X1228996D01*
X1227996Y1270198D01*
Y1266200D01*
X1228996Y1265200D01*
X1230995D01*
X1231995Y1266200D01*
Y1268199D01*
X1229996D01*
X1233994Y1271198D02*
Y1265200D01*
X1236993D01*
X1237993Y1266200D01*
Y1267199D01*
X1236993Y1268199D01*
X1233994D01*
X1236993D01*
X1237993Y1269199D01*
Y1270198D01*
X1236993Y1271198D01*
X1233994D01*
X1110300Y1221799D02*
X1114299D01*
X1112299Y1223798D02*
Y1219800D01*
X1116298Y1218800D02*
X1118297D01*
X1117298D01*
Y1224798D01*
X1116298Y1223798D01*
X1125295Y1218800D02*
X1121296D01*
X1125295Y1222799D01*
Y1223798D01*
X1124296Y1224798D01*
X1122296D01*
X1121296Y1223798D01*
X1127295Y1218800D02*
Y1219800D01*
X1128294D01*
Y1218800D01*
X1127295D01*
X1136292Y1224798D02*
X1134292Y1223798D01*
X1132293Y1221799D01*
Y1219800D01*
X1133293Y1218800D01*
X1135292D01*
X1136292Y1219800D01*
Y1220799D01*
X1135292Y1221799D01*
X1132293D01*
X1138291Y1224798D02*
Y1220799D01*
X1140290Y1218800D01*
X1142290Y1220799D01*
Y1224798D01*
X1265500Y1151599D02*
X1269499D01*
X1271498Y1153598D02*
X1272498Y1154598D01*
X1274497D01*
X1275497Y1153598D01*
Y1152599D01*
X1274497Y1151599D01*
X1273497D01*
X1274497D01*
X1275497Y1150599D01*
Y1149600D01*
X1274497Y1148600D01*
X1272498D01*
X1271498Y1149600D01*
X1277496Y1148600D02*
Y1149600D01*
X1278496D01*
Y1148600D01*
X1277496D01*
X1282495Y1153598D02*
X1283494Y1154598D01*
X1285493D01*
X1286493Y1153598D01*
Y1152599D01*
X1285493Y1151599D01*
X1284494D01*
X1285493D01*
X1286493Y1150599D01*
Y1149600D01*
X1285493Y1148600D01*
X1283494D01*
X1282495Y1149600D01*
X1288493Y1154598D02*
Y1150599D01*
X1290492Y1148600D01*
X1292491Y1150599D01*
Y1154598D01*
X1155900Y1137198D02*
X1159899Y1131200D01*
Y1137198D02*
X1155900Y1131200D01*
X1165897Y1137198D02*
X1161898D01*
Y1134199D01*
X1163897Y1135199D01*
X1164897D01*
X1165897Y1134199D01*
Y1132200D01*
X1164897Y1131200D01*
X1162898D01*
X1161898Y1132200D01*
D39*
X1136858Y1030830D02*
G03*
X1136858Y1030830I-492J0D01*
G01*
X1235543Y1067846D02*
G03*
X1235543Y1067846I-492J0D01*
G01*
X1379618Y1114323D02*
G03*
X1379618Y1114323I-492J0D01*
G01*
Y1132823D02*
G03*
X1379618Y1132823I-492J0D01*
G01*
X1212815Y1077874D02*
G03*
X1212815Y1077874I-492J0D01*
G01*
X1248441Y1121653D02*
G03*
X1248441Y1121653I-492J0D01*
G01*
X1173815Y1086874D02*
G03*
X1173815Y1086874I-492J0D01*
G01*
X1234906Y1094366D02*
G03*
X1234906Y1094366I-492J0D01*
G01*
X1114113Y1068330D02*
G03*
X1114113Y1068330I-492J0D01*
G01*
X1200579Y1192634D02*
G03*
X1200579Y1192634I-492J0D01*
G01*
X1181012Y1193945D02*
G03*
X1181012Y1193945I-492J0D01*
G01*
X1231437Y1208980D02*
G03*
X1231437Y1208980I-492J0D01*
G01*
X1216441Y1202654D02*
G03*
X1216441Y1202654I-492J0D01*
G01*
X1229543Y1176847D02*
G03*
X1229543Y1176847I-492J0D01*
G01*
X1172807Y1253276D02*
G03*
X1172807Y1253276I-492J0D01*
G01*
X1146906Y1219866D02*
G03*
X1146906Y1219866I-492J0D01*
G01*
X1201500Y1245000D02*
Y1267500D01*
X1191500Y1245000D02*
Y1267500D01*
Y1245000D02*
X1201500D01*
X1191500Y1267500D02*
X1201500D01*
D40*
X1135181Y1041269D02*
G03*
X1135181Y1041269I-1181J0D01*
G01*
X1125937Y1070000D02*
G03*
X1125937Y1070000I-1181J0D01*
G01*
D41*
X1134000Y1035701D02*
X1168799Y1070500D01*
X1099201D02*
X1134000Y1105299D01*
X1099201Y1070500D02*
X1134000Y1035701D01*
Y1105299D02*
X1168799Y1070500D01*
X1218401Y1243920D02*
Y1258880D01*
X1210921Y1243920D02*
Y1258880D01*
Y1243920D02*
X1218401D01*
X1210921Y1258880D02*
X1218401D01*
X1178020Y1054299D02*
X1192980D01*
X1178020Y1061779D02*
X1192980D01*
X1178020Y1054299D02*
Y1061779D01*
X1192980Y1054299D02*
Y1061779D01*
X1240957Y1047157D02*
Y1066843D01*
X1248043Y1047157D02*
Y1066843D01*
X1240957D02*
X1248043D01*
X1240957Y1047157D02*
X1248043D01*
X1369874Y1127118D02*
X1375681D01*
X1369874Y1116882D02*
X1375681D01*
X1369874D02*
Y1118654D01*
Y1125346D02*
Y1127118D01*
X1367563Y1109551D02*
X1375437D01*
X1367563Y1090850D02*
Y1109551D01*
Y1090850D02*
X1375437D01*
Y1109551D01*
X1369874Y1145618D02*
X1375681D01*
X1369874Y1135382D02*
X1375681D01*
X1369874D02*
Y1137154D01*
Y1143846D02*
Y1145618D01*
X1367563Y1155547D02*
X1375437D01*
Y1174248D01*
X1367563D02*
X1375437D01*
X1367563Y1155547D02*
Y1174248D01*
X1093220Y1104180D02*
X1100701D01*
X1093220Y1089220D02*
X1100701D01*
X1093220D02*
Y1104180D01*
X1100701Y1089220D02*
Y1104180D01*
X1359480Y1079299D02*
Y1086780D01*
X1344520Y1079299D02*
Y1086780D01*
X1359480D01*
X1344520Y1079299D02*
X1359480D01*
X1358480Y1174799D02*
Y1182280D01*
X1343520Y1174799D02*
Y1182280D01*
X1358480D01*
X1343520Y1174799D02*
X1358480D01*
X1143780Y1018199D02*
Y1025680D01*
X1128820Y1018199D02*
Y1025680D01*
X1143780D01*
X1128820Y1018199D02*
X1143780D01*
X1151720Y1121980D02*
X1159201D01*
X1151720Y1107020D02*
X1159201D01*
X1151720D02*
Y1121980D01*
X1159201Y1107020D02*
Y1121980D01*
X1201721Y1079980D02*
X1209201D01*
X1201721Y1065020D02*
X1209201D01*
X1201721D02*
Y1079980D01*
X1209201Y1065020D02*
Y1079980D01*
X1169299Y1101520D02*
X1176779D01*
X1169299Y1116480D02*
X1176779D01*
Y1101520D02*
Y1116480D01*
X1169299Y1101520D02*
Y1116480D01*
X1223347Y1087126D02*
X1225118D01*
X1214882D02*
X1216654D01*
X1214882Y1081319D02*
Y1087126D01*
X1225118Y1081319D02*
Y1087126D01*
X1234957Y1142343D02*
X1242043D01*
X1234957Y1122657D02*
X1242043D01*
X1234957D02*
Y1142343D01*
X1242043Y1122657D02*
Y1142343D01*
X1184347Y1096126D02*
X1186118D01*
X1175882D02*
X1177654D01*
X1175882Y1090319D02*
Y1096126D01*
X1186118Y1090319D02*
Y1096126D01*
X1256520Y1138221D02*
Y1145701D01*
X1271480Y1138221D02*
Y1145701D01*
X1256520Y1138221D02*
X1271480D01*
X1256520Y1145701D02*
X1271480D01*
X1201799Y1101520D02*
X1209279D01*
X1201799Y1116480D02*
X1209279D01*
Y1101520D02*
Y1116480D01*
X1201799Y1101520D02*
Y1116480D01*
X1200295Y1143772D02*
X1207775D01*
X1200295Y1128811D02*
X1207775D01*
X1200295D02*
Y1143772D01*
X1207775Y1128811D02*
Y1143772D01*
X1201720Y1097980D02*
X1209201D01*
X1201720Y1083020D02*
X1209201D01*
X1201720D02*
Y1097980D01*
X1209201Y1083020D02*
Y1097980D01*
X1190721Y1097980D02*
X1198201D01*
X1190721Y1083020D02*
X1198201D01*
X1190721D02*
Y1097980D01*
X1198201Y1083020D02*
Y1097980D01*
X1254299Y1102520D02*
X1261780D01*
X1254299Y1117480D02*
X1261780D01*
Y1102520D02*
Y1117480D01*
X1254299Y1102520D02*
Y1117480D01*
X1210699Y1128920D02*
X1218179D01*
X1210699Y1143880D02*
X1218179D01*
Y1128920D02*
Y1143880D01*
X1210699Y1128920D02*
Y1143880D01*
X1190299Y1118520D02*
X1197779D01*
X1190299Y1133480D02*
X1197779D01*
Y1118520D02*
Y1133480D01*
X1190299Y1118520D02*
Y1133480D01*
X1248980Y1110799D02*
Y1118280D01*
X1234020Y1110799D02*
Y1118280D01*
X1248980D01*
X1234020Y1110799D02*
X1248980D01*
X1203520Y1228220D02*
Y1235701D01*
X1218480Y1228220D02*
Y1235701D01*
X1203520Y1228220D02*
X1218480D01*
X1203520Y1235701D02*
X1218480D01*
X1223220Y1116480D02*
X1230701D01*
X1223220Y1101520D02*
X1230701D01*
X1223220D02*
Y1116480D01*
X1230701Y1101520D02*
Y1116480D01*
X1185980Y1043299D02*
Y1050780D01*
X1171020Y1043299D02*
Y1050780D01*
X1185980D01*
X1171020Y1043299D02*
X1185980D01*
X1212299Y1101520D02*
X1219780D01*
X1212299Y1116480D02*
X1219780D01*
Y1101520D02*
Y1116480D01*
X1212299Y1101520D02*
Y1116480D01*
X1190799Y1101520D02*
X1198279D01*
X1190799Y1116480D02*
X1198279D01*
Y1101520D02*
Y1116480D01*
X1190799Y1101520D02*
Y1116480D01*
X1257299Y1120520D02*
X1264780D01*
X1257299Y1135480D02*
X1264780D01*
Y1120520D02*
Y1135480D01*
X1257299Y1120520D02*
Y1135480D01*
X1180220Y1116480D02*
X1187701D01*
X1180220Y1101520D02*
X1187701D01*
X1180220D02*
Y1116480D01*
X1187701Y1101520D02*
Y1116480D01*
X1244256Y1101256D02*
X1247406D01*
Y1098500D02*
Y1101256D01*
X1235595D02*
X1238744D01*
X1235595Y1098500D02*
Y1101256D01*
X1268720Y1135480D02*
X1276201D01*
X1268720Y1120520D02*
X1276201D01*
X1268720D02*
Y1135480D01*
X1276201Y1120520D02*
Y1135480D01*
X1194480Y1031299D02*
Y1038779D01*
X1179520Y1031299D02*
Y1038779D01*
X1194480D01*
X1179520Y1031299D02*
X1194480D01*
X1119189Y1070000D02*
X1134500Y1054689D01*
X1134500Y1085311D02*
X1149811Y1070000D01*
X1119189Y1070000D02*
X1134500Y1085311D01*
X1134500Y1054689D02*
X1149811Y1070000D01*
X1212720Y1171480D02*
X1220201D01*
X1212720Y1156520D02*
X1220201D01*
X1212720D02*
Y1171480D01*
X1220201Y1156520D02*
Y1171480D01*
X1187094Y1185744D02*
X1190244D01*
X1187094D02*
Y1188500D01*
X1195756Y1185744D02*
X1198906D01*
Y1188500D01*
X1256299Y1155520D02*
X1263780D01*
X1256299Y1170480D02*
X1263780D01*
Y1155520D02*
Y1170480D01*
X1256299Y1155520D02*
Y1170480D01*
X1148039Y1193945D02*
Y1194142D01*
Y1211858D02*
Y1212055D01*
X1177961D01*
X1148039Y1193945D02*
X1177961D01*
Y1211858D02*
Y1212055D01*
Y1193945D02*
Y1194142D01*
X1168906Y1193945D02*
Y1212055D01*
X1230945Y1241461D02*
X1231142D01*
X1248858D02*
X1249055D01*
Y1211539D02*
Y1241461D01*
X1230945Y1211539D02*
Y1241461D01*
X1248858Y1211539D02*
X1249055D01*
X1230945D02*
X1231142D01*
X1230945Y1220594D02*
X1249055D01*
X1202957Y1223343D02*
X1210043D01*
X1202957Y1203657D02*
X1210043D01*
X1202957D02*
Y1223343D01*
X1210043Y1203657D02*
Y1223343D01*
X1234957Y1156157D02*
X1242043D01*
X1234957Y1175843D02*
X1242043D01*
Y1156157D02*
Y1175843D01*
X1234957Y1156157D02*
Y1175843D01*
X1213744Y1196799D02*
X1219256D01*
X1213744Y1184201D02*
X1219256D01*
X1213744D02*
Y1196799D01*
X1214492Y1184201D02*
Y1196799D01*
X1173020Y1216220D02*
Y1223701D01*
X1187980Y1216220D02*
Y1223701D01*
X1173020Y1216220D02*
X1187980D01*
X1173020Y1223701D02*
X1187980D01*
X1187480Y1236799D02*
Y1244280D01*
X1172520Y1236799D02*
Y1244280D01*
X1187480D01*
X1172520Y1236799D02*
X1187480D01*
X1162799Y1217020D02*
X1170280D01*
X1162799Y1231980D02*
X1170280D01*
Y1217020D02*
Y1231980D01*
X1162799Y1217020D02*
Y1231980D01*
X1173020Y1226220D02*
Y1233701D01*
X1187980Y1226220D02*
Y1233701D01*
X1173020Y1226220D02*
X1187980D01*
X1173020Y1233701D02*
X1187980D01*
X1173398Y1258984D02*
X1185602D01*
X1173398Y1257016D02*
X1185602D01*
Y1258984D01*
X1173398Y1257016D02*
Y1258984D01*
X1156256Y1226756D02*
X1159406D01*
Y1224000D02*
Y1226756D01*
X1147594D02*
X1150744D01*
X1147594Y1224000D02*
Y1226756D01*
X1165799Y1246744D02*
Y1252256D01*
X1153201Y1246744D02*
Y1252256D01*
X1165799D01*
X1153201Y1251508D02*
X1165799D01*
X1191980Y1063999D02*
Y1071480D01*
X1177020Y1063999D02*
Y1071480D01*
X1191980D01*
X1177020Y1063999D02*
X1191980D01*
X1272421Y1071680D02*
X1279901D01*
X1272421Y1056720D02*
X1279901D01*
X1272421D02*
Y1071680D01*
X1279901Y1056720D02*
Y1071680D01*
X1282528Y1065756D02*
X1290008D01*
X1282528Y1050795D02*
X1290008D01*
X1282528D02*
Y1065756D01*
X1290008Y1050795D02*
Y1065756D01*
X1262020Y1057280D02*
X1269501D01*
X1262020Y1042320D02*
X1269501D01*
X1262020D02*
Y1057280D01*
X1269501Y1042320D02*
Y1057280D01*
D42*
X1184000Y1265000D02*
X1189000D01*
X1186500Y1262500D02*
Y1267500D01*
D43*
X1220700Y1255700D02*
Y1258099D01*
X1221900D01*
X1222299Y1257699D01*
Y1256900D01*
X1221900Y1256500D01*
X1220700D01*
X1221500D02*
X1222299Y1255700D01*
X1223099Y1257699D02*
X1223499Y1258099D01*
X1224299D01*
X1224699Y1257699D01*
Y1257300D01*
X1224299Y1256900D01*
X1223899D01*
X1224299D01*
X1224699Y1256500D01*
Y1256100D01*
X1224299Y1255700D01*
X1223499D01*
X1223099Y1256100D01*
X1118700Y1028199D02*
Y1025800D01*
X1119900D01*
X1120300Y1026200D01*
Y1027799D01*
X1119900Y1028199D01*
X1118700D01*
X1121099D02*
Y1025800D01*
X1122299D01*
X1122699Y1026200D01*
Y1027799D01*
X1122299Y1028199D01*
X1121099D01*
X1123498Y1025800D02*
X1124298D01*
X1123898D01*
Y1028199D01*
X1123498Y1027799D01*
X1197400Y1058099D02*
X1197000Y1058499D01*
X1196200D01*
X1195800Y1058099D01*
Y1056500D01*
X1196200Y1056100D01*
X1197000D01*
X1197400Y1056500D01*
X1198199Y1056100D02*
X1198999D01*
X1198599D01*
Y1058499D01*
X1198199Y1058099D01*
X1200199Y1056500D02*
X1200598Y1056100D01*
X1201398D01*
X1201798Y1056500D01*
Y1058099D01*
X1201398Y1058499D01*
X1200598D01*
X1200199Y1058099D01*
Y1057699D01*
X1200598Y1057300D01*
X1201798D01*
X1130500Y1178099D02*
X1132100Y1175700D01*
Y1178099D02*
X1130500Y1175700D01*
X1134499Y1178099D02*
X1132899D01*
Y1176900D01*
X1133699Y1177299D01*
X1134099D01*
X1134499Y1176900D01*
Y1176100D01*
X1134099Y1175700D01*
X1133299D01*
X1132899Y1176100D01*
X1328800Y1133099D02*
X1330400Y1130700D01*
Y1133099D02*
X1328800Y1130700D01*
X1332399D02*
Y1133099D01*
X1331199Y1131900D01*
X1332799D01*
X1270200Y1100599D02*
X1271799Y1098200D01*
Y1100599D02*
X1270200Y1098200D01*
X1272599Y1100199D02*
X1272999Y1100599D01*
X1273799D01*
X1274199Y1100199D01*
Y1099800D01*
X1273799Y1099400D01*
X1273399D01*
X1273799D01*
X1274199Y1099000D01*
Y1098600D01*
X1273799Y1098200D01*
X1272999D01*
X1272599Y1098600D01*
X1368400Y1132699D02*
Y1131100D01*
X1369200Y1130300D01*
X1370000Y1131100D01*
Y1132699D01*
X1370799D02*
X1372399D01*
X1371599D01*
Y1130300D01*
X1374398D02*
Y1132699D01*
X1373198Y1131500D01*
X1374798D01*
X1367800Y1114999D02*
Y1113400D01*
X1368600Y1112600D01*
X1369400Y1113400D01*
Y1114999D01*
X1370199D02*
X1371799D01*
X1370999D01*
Y1112600D01*
X1372598Y1114599D02*
X1372998Y1114999D01*
X1373798D01*
X1374198Y1114599D01*
Y1114200D01*
X1373798Y1113800D01*
X1373398D01*
X1373798D01*
X1374198Y1113400D01*
Y1113000D01*
X1373798Y1112600D01*
X1372998D01*
X1372598Y1113000D01*
X1357500Y1098499D02*
Y1096100D01*
Y1097300D01*
X1359099D01*
Y1098499D01*
Y1096100D01*
X1359899Y1098499D02*
Y1096100D01*
X1361499D01*
X1363898D02*
X1362298D01*
X1363898Y1097700D01*
Y1098099D01*
X1363498Y1098499D01*
X1362698D01*
X1362298Y1098099D01*
X1357900Y1168099D02*
Y1165700D01*
Y1166900D01*
X1359499D01*
Y1168099D01*
Y1165700D01*
X1360299Y1168099D02*
Y1165700D01*
X1361899D01*
X1362698D02*
X1363498D01*
X1363098D01*
Y1168099D01*
X1362698Y1167699D01*
X1242300Y1072799D02*
Y1070400D01*
X1243500D01*
X1243900Y1070800D01*
Y1072399D01*
X1243500Y1072799D01*
X1242300D01*
X1244699Y1070400D02*
Y1071999D01*
X1245499Y1072799D01*
X1246299Y1071999D01*
Y1070400D01*
Y1071600D01*
X1244699D01*
X1248698Y1072799D02*
X1247898Y1072399D01*
X1247098Y1071600D01*
Y1070800D01*
X1247498Y1070400D01*
X1248298D01*
X1248698Y1070800D01*
Y1071200D01*
X1248298Y1071600D01*
X1247098D01*
X1206549Y1268949D02*
X1206150Y1269349D01*
X1205350D01*
X1204950Y1268949D01*
Y1267350D01*
X1205350Y1266950D01*
X1206150D01*
X1206549Y1267350D01*
X1207349Y1266950D02*
X1208149D01*
X1207749D01*
Y1269349D01*
X1207349Y1268949D01*
X1186100Y1212799D02*
X1185700Y1213199D01*
X1184900D01*
X1184500Y1212799D01*
Y1211200D01*
X1184900Y1210800D01*
X1185700D01*
X1186100Y1211200D01*
X1188499Y1210800D02*
X1186899D01*
X1188499Y1212399D01*
Y1212799D01*
X1188099Y1213199D01*
X1187299D01*
X1186899Y1212799D01*
X1165199Y1235599D02*
X1164800Y1235999D01*
X1164000D01*
X1163600Y1235599D01*
Y1234000D01*
X1164000Y1233600D01*
X1164800D01*
X1165199Y1234000D01*
X1165999Y1235599D02*
X1166399Y1235999D01*
X1167199D01*
X1167599Y1235599D01*
Y1235200D01*
X1167199Y1234800D01*
X1166799D01*
X1167199D01*
X1167599Y1234400D01*
Y1234000D01*
X1167199Y1233600D01*
X1166399D01*
X1165999Y1234000D01*
X1143449Y1195949D02*
X1143050Y1196349D01*
X1142250D01*
X1141850Y1195949D01*
Y1194350D01*
X1142250Y1193950D01*
X1143050D01*
X1143449Y1194350D01*
X1145449Y1193950D02*
Y1196349D01*
X1144249Y1195150D01*
X1145849D01*
X1232549Y1249649D02*
X1232150Y1250049D01*
X1231350D01*
X1230950Y1249649D01*
Y1248050D01*
X1231350Y1247650D01*
X1232150D01*
X1232549Y1248050D01*
X1234949Y1250049D02*
X1233349D01*
Y1248850D01*
X1234149Y1249249D01*
X1234549D01*
X1234949Y1248850D01*
Y1248050D01*
X1234549Y1247650D01*
X1233749D01*
X1233349Y1248050D01*
X1205000Y1165199D02*
X1204600Y1165599D01*
X1203800D01*
X1203400Y1165199D01*
Y1163600D01*
X1203800Y1163200D01*
X1204600D01*
X1205000Y1163600D01*
X1207399Y1165599D02*
X1206599Y1165199D01*
X1205799Y1164400D01*
Y1163600D01*
X1206199Y1163200D01*
X1206999D01*
X1207399Y1163600D01*
Y1164000D01*
X1206999Y1164400D01*
X1205799D01*
X1268999Y1167299D02*
X1268600Y1167699D01*
X1267800D01*
X1267400Y1167299D01*
Y1165700D01*
X1267800Y1165300D01*
X1268600D01*
X1268999Y1165700D01*
X1269799Y1167699D02*
X1271399D01*
Y1167299D01*
X1269799Y1165700D01*
Y1165300D01*
X1214299Y1148899D02*
X1213900Y1149299D01*
X1213100D01*
X1212700Y1148899D01*
Y1147300D01*
X1213100Y1146900D01*
X1213900D01*
X1214299Y1147300D01*
X1215099Y1148899D02*
X1215499Y1149299D01*
X1216299D01*
X1216699Y1148899D01*
Y1148499D01*
X1216299Y1148100D01*
X1216699Y1147700D01*
Y1147300D01*
X1216299Y1146900D01*
X1215499D01*
X1215099Y1147300D01*
Y1147700D01*
X1215499Y1148100D01*
X1215099Y1148499D01*
Y1148899D01*
X1215499Y1148100D02*
X1216299D01*
X1184200Y1121799D02*
X1183800Y1122199D01*
X1183000D01*
X1182600Y1121799D01*
Y1120200D01*
X1183000Y1119800D01*
X1183800D01*
X1184200Y1120200D01*
X1184999D02*
X1185399Y1119800D01*
X1186199D01*
X1186599Y1120200D01*
Y1121799D01*
X1186199Y1122199D01*
X1185399D01*
X1184999Y1121799D01*
Y1121399D01*
X1185399Y1121000D01*
X1186599D01*
X1225700Y1098399D02*
X1225300Y1098799D01*
X1224500D01*
X1224100Y1098399D01*
Y1096800D01*
X1224500Y1096400D01*
X1225300D01*
X1225700Y1096800D01*
X1226499Y1096400D02*
X1227299D01*
X1226899D01*
Y1098799D01*
X1226499Y1098399D01*
X1228499D02*
X1228898Y1098799D01*
X1229698D01*
X1230098Y1098399D01*
Y1096800D01*
X1229698Y1096400D01*
X1228898D01*
X1228499Y1096800D01*
Y1098399D01*
X1276999Y1142199D02*
X1276600Y1142599D01*
X1275800D01*
X1275400Y1142199D01*
Y1140600D01*
X1275800Y1140200D01*
X1276600D01*
X1276999Y1140600D01*
X1277799Y1140200D02*
X1278599D01*
X1278199D01*
Y1142599D01*
X1277799Y1142199D01*
X1279799Y1140200D02*
X1280598D01*
X1280198D01*
Y1142599D01*
X1279799Y1142199D01*
X1186699Y1028399D02*
X1186300Y1028799D01*
X1185500D01*
X1185100Y1028399D01*
Y1026800D01*
X1185500Y1026400D01*
X1186300D01*
X1186699Y1026800D01*
X1187499Y1026400D02*
X1188299D01*
X1187899D01*
Y1028799D01*
X1187499Y1028399D01*
X1191098Y1026400D02*
X1189499D01*
X1191098Y1027999D01*
Y1028399D01*
X1190698Y1028799D01*
X1189898D01*
X1189499Y1028399D01*
X1281149Y1136849D02*
X1280750Y1137249D01*
X1279950D01*
X1279550Y1136849D01*
Y1135250D01*
X1279950Y1134850D01*
X1280750D01*
X1281149Y1135250D01*
X1281949Y1134850D02*
X1282749D01*
X1282349D01*
Y1137249D01*
X1281949Y1136849D01*
X1283949D02*
X1284348Y1137249D01*
X1285148D01*
X1285548Y1136849D01*
Y1136450D01*
X1285148Y1136050D01*
X1284748D01*
X1285148D01*
X1285548Y1135650D01*
Y1135250D01*
X1285148Y1134850D01*
X1284348D01*
X1283949Y1135250D01*
X1190699Y1046699D02*
X1190300Y1047099D01*
X1189500D01*
X1189100Y1046699D01*
Y1045100D01*
X1189500Y1044700D01*
X1190300D01*
X1190699Y1045100D01*
X1191499Y1044700D02*
X1192299D01*
X1191899D01*
Y1047099D01*
X1191499Y1046699D01*
X1194698Y1044700D02*
Y1047099D01*
X1193499Y1045900D01*
X1195098D01*
X1205750Y1241049D02*
X1205350Y1241449D01*
X1204550D01*
X1204150Y1241049D01*
Y1239450D01*
X1204550Y1239050D01*
X1205350D01*
X1205750Y1239450D01*
X1206549Y1239050D02*
X1207349D01*
X1206949D01*
Y1241449D01*
X1206549Y1241049D01*
X1210148Y1241449D02*
X1208549D01*
Y1240250D01*
X1209348Y1240650D01*
X1209748D01*
X1210148Y1240250D01*
Y1239450D01*
X1209748Y1239050D01*
X1208948D01*
X1208549Y1239450D01*
X1154399Y1127399D02*
X1154000Y1127799D01*
X1153200D01*
X1152800Y1127399D01*
Y1125800D01*
X1153200Y1125400D01*
X1154000D01*
X1154399Y1125800D01*
X1155199Y1125400D02*
X1155999D01*
X1155599D01*
Y1127799D01*
X1155199Y1127399D01*
X1158798Y1127799D02*
X1157998Y1127399D01*
X1157199Y1126600D01*
Y1125800D01*
X1157598Y1125400D01*
X1158398D01*
X1158798Y1125800D01*
Y1126200D01*
X1158398Y1126600D01*
X1157199D01*
X1150000Y1022999D02*
X1149600Y1023399D01*
X1148800D01*
X1148400Y1022999D01*
Y1021400D01*
X1148800Y1021000D01*
X1149600D01*
X1150000Y1021400D01*
X1150799Y1021000D02*
X1151599D01*
X1151199D01*
Y1023399D01*
X1150799Y1022999D01*
X1152799Y1023399D02*
X1154398D01*
Y1022999D01*
X1152799Y1021400D01*
Y1021000D01*
X1096700Y1110699D02*
X1096300Y1111099D01*
X1095500D01*
X1095100Y1110699D01*
Y1109100D01*
X1095500Y1108700D01*
X1096300D01*
X1096700Y1109100D01*
X1097499Y1108700D02*
X1098299D01*
X1097899D01*
Y1111099D01*
X1097499Y1110699D01*
X1099499D02*
X1099898Y1111099D01*
X1100698D01*
X1101098Y1110699D01*
Y1110299D01*
X1100698Y1109900D01*
X1101098Y1109500D01*
Y1109100D01*
X1100698Y1108700D01*
X1099898D01*
X1099499Y1109100D01*
Y1109500D01*
X1099898Y1109900D01*
X1099499Y1110299D01*
Y1110699D01*
X1099898Y1109900D02*
X1100698D01*
X1177100Y1271099D02*
Y1268700D01*
X1178300D01*
X1178699Y1269100D01*
Y1270699D01*
X1178300Y1271099D01*
X1177100D01*
X1179499Y1268700D02*
Y1270300D01*
X1180299Y1271099D01*
X1181099Y1270300D01*
Y1268700D01*
Y1269900D01*
X1179499D01*
X1181898Y1268700D02*
X1182698D01*
X1182298D01*
Y1271099D01*
X1181898Y1270699D01*
X1202500Y1201199D02*
Y1198800D01*
X1203700D01*
X1204099Y1199200D01*
Y1200799D01*
X1203700Y1201199D01*
X1202500D01*
X1204899Y1198800D02*
Y1200399D01*
X1205699Y1201199D01*
X1206499Y1200399D01*
Y1198800D01*
Y1200000D01*
X1204899D01*
X1208898Y1198800D02*
X1207298D01*
X1208898Y1200399D01*
Y1200799D01*
X1208498Y1201199D01*
X1207698D01*
X1207298Y1200799D01*
X1235700Y1181999D02*
Y1179600D01*
X1236900D01*
X1237300Y1180000D01*
Y1181599D01*
X1236900Y1181999D01*
X1235700D01*
X1238099Y1179600D02*
Y1181199D01*
X1238899Y1181999D01*
X1239699Y1181199D01*
Y1179600D01*
Y1180800D01*
X1238099D01*
X1240498Y1181599D02*
X1240898Y1181999D01*
X1241698D01*
X1242098Y1181599D01*
Y1181199D01*
X1241698Y1180800D01*
X1241298D01*
X1241698D01*
X1242098Y1180400D01*
Y1180000D01*
X1241698Y1179600D01*
X1240898D01*
X1240498Y1180000D01*
X1226100Y1148799D02*
Y1146400D01*
X1227300D01*
X1227699Y1146800D01*
Y1148399D01*
X1227300Y1148799D01*
X1226100D01*
X1228499Y1146400D02*
Y1147999D01*
X1229299Y1148799D01*
X1230099Y1147999D01*
Y1146400D01*
Y1147600D01*
X1228499D01*
X1232098Y1146400D02*
Y1148799D01*
X1230898Y1147600D01*
X1232498D01*
X1214900Y1180399D02*
Y1178000D01*
X1216500D01*
X1217299D02*
X1218099D01*
X1217699D01*
Y1180399D01*
X1217299Y1179999D01*
X1143700Y1251199D02*
Y1248800D01*
X1145300D01*
X1147699D02*
X1146099D01*
X1147699Y1250399D01*
Y1250799D01*
X1147299Y1251199D01*
X1146499D01*
X1146099Y1250799D01*
X1190100Y1230900D02*
Y1233299D01*
X1191300D01*
X1191700Y1232899D01*
Y1232100D01*
X1191300Y1231700D01*
X1190100D01*
X1190900D02*
X1191700Y1230900D01*
X1192499D02*
X1193299D01*
X1192899D01*
Y1233299D01*
X1192499Y1232899D01*
X1191200Y1239200D02*
Y1241599D01*
X1192400D01*
X1192799Y1241199D01*
Y1240400D01*
X1192400Y1240000D01*
X1191200D01*
X1192000D02*
X1192799Y1239200D01*
X1195199D02*
X1193599D01*
X1195199Y1240800D01*
Y1241199D01*
X1194799Y1241599D01*
X1193999D01*
X1193599Y1241199D01*
X1184500Y1129300D02*
Y1131699D01*
X1185700D01*
X1186100Y1131299D01*
Y1130500D01*
X1185700Y1130100D01*
X1184500D01*
X1185300D02*
X1186100Y1129300D01*
X1188099D02*
Y1131699D01*
X1186899Y1130500D01*
X1188499D01*
X1202303Y1146296D02*
Y1148695D01*
X1203503D01*
X1203903Y1148295D01*
Y1147496D01*
X1203503Y1147096D01*
X1202303D01*
X1203103D02*
X1203903Y1146296D01*
X1206302Y1148695D02*
X1204702D01*
Y1147496D01*
X1205502Y1147896D01*
X1205902D01*
X1206302Y1147496D01*
Y1146696D01*
X1205902Y1146296D01*
X1205102D01*
X1204702Y1146696D01*
X1185200Y1097600D02*
Y1099999D01*
X1186400D01*
X1186800Y1099599D01*
Y1098800D01*
X1186400Y1098400D01*
X1185200D01*
X1186000D02*
X1186800Y1097600D01*
X1189199Y1099999D02*
X1188399Y1099599D01*
X1187599Y1098800D01*
Y1098000D01*
X1187999Y1097600D01*
X1188799D01*
X1189199Y1098000D01*
Y1098400D01*
X1188799Y1098800D01*
X1187599D01*
X1214300Y1119700D02*
Y1122099D01*
X1215500D01*
X1215899Y1121699D01*
Y1120900D01*
X1215500Y1120500D01*
X1214300D01*
X1215100D02*
X1215899Y1119700D01*
X1216699Y1122099D02*
X1218299D01*
Y1121699D01*
X1216699Y1120100D01*
Y1119700D01*
X1203500Y1118800D02*
Y1121199D01*
X1204700D01*
X1205099Y1120799D01*
Y1120000D01*
X1204700Y1119600D01*
X1203500D01*
X1204300D02*
X1205099Y1118800D01*
X1205899Y1120799D02*
X1206299Y1121199D01*
X1207099D01*
X1207499Y1120799D01*
Y1120399D01*
X1207099Y1120000D01*
X1207499Y1119600D01*
Y1119200D01*
X1207099Y1118800D01*
X1206299D01*
X1205899Y1119200D01*
Y1119600D01*
X1206299Y1120000D01*
X1205899Y1120399D01*
Y1120799D01*
X1206299Y1120000D02*
X1207099D01*
X1212600Y1068300D02*
Y1070699D01*
X1213800D01*
X1214200Y1070299D01*
Y1069500D01*
X1213800Y1069100D01*
X1212600D01*
X1213400D02*
X1214200Y1068300D01*
X1214999Y1068700D02*
X1215399Y1068300D01*
X1216199D01*
X1216599Y1068700D01*
Y1070299D01*
X1216199Y1070699D01*
X1215399D01*
X1214999Y1070299D01*
Y1069899D01*
X1215399Y1069500D01*
X1216599D01*
X1171000Y1119600D02*
Y1121999D01*
X1172200D01*
X1172600Y1121599D01*
Y1120800D01*
X1172200Y1120400D01*
X1171000D01*
X1171800D02*
X1172600Y1119600D01*
X1173399D02*
X1174199D01*
X1173799D01*
Y1121999D01*
X1173399Y1121599D01*
X1175399D02*
X1175798Y1121999D01*
X1176598D01*
X1176998Y1121599D01*
Y1120000D01*
X1176598Y1119600D01*
X1175798D01*
X1175399Y1120000D01*
Y1121599D01*
X1212550Y1097350D02*
Y1099749D01*
X1213750D01*
X1214149Y1099349D01*
Y1098550D01*
X1213750Y1098150D01*
X1212550D01*
X1213350D02*
X1214149Y1097350D01*
X1214949D02*
X1215749D01*
X1215349D01*
Y1099749D01*
X1214949Y1099349D01*
X1216949Y1097350D02*
X1217748D01*
X1217348D01*
Y1099749D01*
X1216949Y1099349D01*
X1192500Y1077900D02*
Y1080299D01*
X1193700D01*
X1194100Y1079899D01*
Y1079100D01*
X1193700Y1078700D01*
X1192500D01*
X1193300D02*
X1194100Y1077900D01*
X1194899D02*
X1195699D01*
X1195299D01*
Y1080299D01*
X1194899Y1079899D01*
X1198498Y1077900D02*
X1196899D01*
X1198498Y1079500D01*
Y1079899D01*
X1198098Y1080299D01*
X1197298D01*
X1196899Y1079899D01*
X1240000Y1106700D02*
Y1109099D01*
X1241200D01*
X1241599Y1108699D01*
Y1107900D01*
X1241200Y1107500D01*
X1240000D01*
X1240800D02*
X1241599Y1106700D01*
X1242399D02*
X1243199D01*
X1242799D01*
Y1109099D01*
X1242399Y1108699D01*
X1244399D02*
X1244798Y1109099D01*
X1245598D01*
X1245998Y1108699D01*
Y1108300D01*
X1245598Y1107900D01*
X1245198D01*
X1245598D01*
X1245998Y1107500D01*
Y1107100D01*
X1245598Y1106700D01*
X1244798D01*
X1244399Y1107100D01*
X1265100Y1115800D02*
Y1118199D01*
X1266300D01*
X1266700Y1117799D01*
Y1117000D01*
X1266300Y1116600D01*
X1265100D01*
X1265900D02*
X1266700Y1115800D01*
X1267499D02*
X1268299D01*
X1267899D01*
Y1118199D01*
X1267499Y1117799D01*
X1270698Y1115800D02*
Y1118199D01*
X1269499Y1117000D01*
X1271098D01*
X1265300Y1109400D02*
Y1111799D01*
X1266500D01*
X1266899Y1111399D01*
Y1110600D01*
X1266500Y1110200D01*
X1265300D01*
X1266100D02*
X1266899Y1109400D01*
X1267699D02*
X1268499D01*
X1268099D01*
Y1111799D01*
X1267699Y1111399D01*
X1271298Y1111799D02*
X1269699D01*
Y1110600D01*
X1270498Y1110999D01*
X1270898D01*
X1271298Y1110600D01*
Y1109800D01*
X1270898Y1109400D01*
X1270098D01*
X1269699Y1109800D01*
X1348200Y1169900D02*
Y1172299D01*
X1349400D01*
X1349800Y1171899D01*
Y1171100D01*
X1349400Y1170700D01*
X1348200D01*
X1349000D02*
X1349800Y1169900D01*
X1350599D02*
X1351399D01*
X1350999D01*
Y1172299D01*
X1350599Y1171899D01*
X1354198Y1172299D02*
X1353398Y1171899D01*
X1352599Y1171100D01*
Y1170300D01*
X1352998Y1169900D01*
X1353798D01*
X1354198Y1170300D01*
Y1170700D01*
X1353798Y1171100D01*
X1352599D01*
X1348800Y1073000D02*
Y1075399D01*
X1350000D01*
X1350399Y1074999D01*
Y1074200D01*
X1350000Y1073800D01*
X1348800D01*
X1349600D02*
X1350399Y1073000D01*
X1351199D02*
X1351999D01*
X1351599D01*
Y1075399D01*
X1351199Y1074999D01*
X1353199Y1075399D02*
X1354798D01*
Y1074999D01*
X1353199Y1073400D01*
Y1073000D01*
X1142600Y1232699D02*
Y1231100D01*
X1143400Y1230300D01*
X1144199Y1231100D01*
Y1232699D01*
X1144999D02*
Y1230300D01*
X1146199D01*
X1146599Y1230700D01*
Y1232299D01*
X1146199Y1232699D01*
X1144999D01*
X1147398Y1230300D02*
X1148198D01*
X1147798D01*
Y1232699D01*
X1147398Y1232299D01*
X1190100Y1177999D02*
Y1176400D01*
X1190900Y1175600D01*
X1191700Y1176400D01*
Y1177999D01*
X1192499D02*
Y1175600D01*
X1193699D01*
X1194099Y1176000D01*
Y1177599D01*
X1193699Y1177999D01*
X1192499D01*
X1196498Y1175600D02*
X1194898D01*
X1196498Y1177199D01*
Y1177599D01*
X1196098Y1177999D01*
X1195298D01*
X1194898Y1177599D01*
X1253700Y1092499D02*
Y1090900D01*
X1254500Y1090100D01*
X1255299Y1090900D01*
Y1092499D01*
X1256099D02*
Y1090100D01*
X1257299D01*
X1257699Y1090500D01*
Y1092099D01*
X1257299Y1092499D01*
X1256099D01*
X1258498Y1092099D02*
X1258898Y1092499D01*
X1259698D01*
X1260098Y1092099D01*
Y1091700D01*
X1259698Y1091300D01*
X1259298D01*
X1259698D01*
X1260098Y1090900D01*
Y1090500D01*
X1259698Y1090100D01*
X1258898D01*
X1258498Y1090500D01*
X1212350Y1094749D02*
Y1093150D01*
X1213150Y1092350D01*
X1213949Y1093150D01*
Y1094749D01*
X1214749D02*
X1216349D01*
X1215549D01*
Y1092350D01*
X1217148D02*
X1217948D01*
X1217548D01*
Y1094749D01*
X1217148Y1094349D01*
X1177000Y1082599D02*
Y1081000D01*
X1177800Y1080200D01*
X1178599Y1081000D01*
Y1082599D01*
X1179399D02*
X1180999D01*
X1180199D01*
Y1080200D01*
X1183398D02*
X1181798D01*
X1183398Y1081800D01*
Y1082199D01*
X1182998Y1082599D01*
X1182198D01*
X1181798Y1082199D01*
X1181400Y1074700D02*
Y1077099D01*
X1182600D01*
X1183000Y1076699D01*
Y1075900D01*
X1182600Y1075500D01*
X1181400D01*
X1182200D02*
X1183000Y1074700D01*
X1183799D02*
X1184599D01*
X1184199D01*
Y1077099D01*
X1183799Y1076699D01*
X1185799D02*
X1186198Y1077099D01*
X1186998D01*
X1187398Y1076699D01*
Y1076299D01*
X1186998Y1075900D01*
X1187398Y1075500D01*
Y1075100D01*
X1186998Y1074700D01*
X1186198D01*
X1185799Y1075100D01*
Y1075500D01*
X1186198Y1075900D01*
X1185799Y1076299D01*
Y1076699D01*
X1186198Y1075900D02*
X1186998D01*
X1262300Y1037400D02*
Y1039799D01*
X1263500D01*
X1263900Y1039399D01*
Y1038600D01*
X1263500Y1038200D01*
X1262300D01*
X1263100D02*
X1263900Y1037400D01*
X1264699D02*
X1265499D01*
X1265099D01*
Y1039799D01*
X1264699Y1039399D01*
X1266699Y1037800D02*
X1267098Y1037400D01*
X1267898D01*
X1268298Y1037800D01*
Y1039399D01*
X1267898Y1039799D01*
X1267098D01*
X1266699Y1039399D01*
Y1038999D01*
X1267098Y1038600D01*
X1268298D01*
X1293400Y1061900D02*
Y1064299D01*
X1294600D01*
X1295000Y1063899D01*
Y1063100D01*
X1294600Y1062700D01*
X1293400D01*
X1294200D02*
X1295000Y1061900D01*
X1297399D02*
X1295799D01*
X1297399Y1063500D01*
Y1063899D01*
X1296999Y1064299D01*
X1296199D01*
X1295799Y1063899D01*
X1298198D02*
X1298598Y1064299D01*
X1299398D01*
X1299798Y1063899D01*
Y1062300D01*
X1299398Y1061900D01*
X1298598D01*
X1298198Y1062300D01*
Y1063899D01*
X1273500Y1073700D02*
Y1076099D01*
X1274700D01*
X1275099Y1075699D01*
Y1074900D01*
X1274700Y1074500D01*
X1273500D01*
X1274300D02*
X1275099Y1073700D01*
X1277499D02*
X1275899D01*
X1277499Y1075299D01*
Y1075699D01*
X1277099Y1076099D01*
X1276299D01*
X1275899Y1075699D01*
X1278298Y1073700D02*
X1279098D01*
X1278698D01*
Y1076099D01*
X1278298Y1075699D01*
D44*
X1371500Y1103646D02*
D03*
Y1161453D02*
D03*
M02*
