%FSLAX25Y25*%
%MOIN*%
G70*
G01*
G75*
G04 Layer_Physical_Order=2*
G04 Layer_Color=16711680*
G04:AMPARAMS|DCode=10|XSize=11.81mil|YSize=70.87mil|CornerRadius=0mil|HoleSize=0mil|Usage=FLASHONLY|Rotation=225.000|XOffset=0mil|YOffset=0mil|HoleType=Round|Shape=Round|*
%AMOVALD10*
21,1,0.05906,0.01181,0.00000,0.00000,315.0*
1,1,0.01181,-0.02088,0.02088*
1,1,0.01181,0.02088,-0.02088*
%
%ADD10OVALD10*%

G04:AMPARAMS|DCode=11|XSize=11.81mil|YSize=70.87mil|CornerRadius=0mil|HoleSize=0mil|Usage=FLASHONLY|Rotation=135.000|XOffset=0mil|YOffset=0mil|HoleType=Round|Shape=Round|*
%AMOVALD11*
21,1,0.05906,0.01181,0.00000,0.00000,225.0*
1,1,0.01181,0.02088,0.02088*
1,1,0.01181,-0.02088,-0.02088*
%
%ADD11OVALD11*%

G04:AMPARAMS|DCode=12|XSize=47.24mil|YSize=59.06mil|CornerRadius=11.81mil|HoleSize=0mil|Usage=FLASHONLY|Rotation=270.000|XOffset=0mil|YOffset=0mil|HoleType=Round|Shape=RoundedRectangle|*
%AMROUNDEDRECTD12*
21,1,0.04724,0.03543,0,0,270.0*
21,1,0.02362,0.05906,0,0,270.0*
1,1,0.02362,-0.01772,-0.01181*
1,1,0.02362,-0.01772,0.01181*
1,1,0.02362,0.01772,0.01181*
1,1,0.02362,0.01772,-0.01181*
%
%ADD12ROUNDEDRECTD12*%
G04:AMPARAMS|DCode=13|XSize=47.24mil|YSize=59.06mil|CornerRadius=11.81mil|HoleSize=0mil|Usage=FLASHONLY|Rotation=180.000|XOffset=0mil|YOffset=0mil|HoleType=Round|Shape=RoundedRectangle|*
%AMROUNDEDRECTD13*
21,1,0.04724,0.03543,0,0,180.0*
21,1,0.02362,0.05906,0,0,180.0*
1,1,0.02362,-0.01181,0.01772*
1,1,0.02362,0.01181,0.01772*
1,1,0.02362,0.01181,-0.01772*
1,1,0.02362,-0.01181,-0.01772*
%
%ADD13ROUNDEDRECTD13*%
%ADD14O,0.08661X0.02362*%
%ADD15R,0.03740X0.03543*%
%ADD16R,0.03740X0.03543*%
%ADD17R,0.06299X0.03937*%
%ADD18R,0.03543X0.03740*%
%ADD19R,0.03543X0.03740*%
%ADD20R,0.02362X0.05118*%
%ADD21R,0.10236X0.09449*%
%ADD22R,0.09449X0.10236*%
%ADD23R,0.07480X0.13386*%
%ADD24R,0.07874X0.05906*%
%ADD25R,0.02559X0.04331*%
%ADD26R,0.13386X0.07480*%
%ADD27C,0.01000*%
%ADD28C,0.03000*%
%ADD29C,0.02000*%
%ADD30R,0.06000X0.06000*%
%ADD31C,0.06000*%
%ADD32C,0.06299*%
%ADD33R,0.06299X0.06299*%
%ADD34R,0.06000X0.06000*%
%ADD35C,0.20000*%
%ADD36P,0.08908X4X270.0*%
%ADD37C,0.03543*%
%ADD38C,0.05000*%
G36*
X1222377Y1218193D02*
X1213842Y1209658D01*
X1213334Y1208897D01*
X1213155Y1208000D01*
Y1164471D01*
X1154590Y1105907D01*
X1154203Y1105746D01*
X1153666Y1105334D01*
X1153624Y1105280D01*
X1153151Y1105441D01*
Y1107775D01*
X1153050Y1108282D01*
X1152763Y1108712D01*
X1150937Y1110537D01*
X1150507Y1110825D01*
X1150000Y1110925D01*
X1149215D01*
X1148797Y1111246D01*
X1148171Y1111506D01*
X1148123Y1111648D01*
X1163537Y1127063D01*
X1163825Y1127493D01*
X1163925Y1128000D01*
Y1147351D01*
X1167137Y1150563D01*
X1167425Y1150993D01*
X1167525Y1151500D01*
X1167525Y1151500D01*
X1167525Y1151500D01*
Y1151500D01*
Y1157300D01*
X1167425Y1157807D01*
X1167137Y1158237D01*
X1163800Y1161574D01*
Y1167300D01*
X1156200D01*
Y1159828D01*
X1155738Y1159636D01*
X1153457Y1161917D01*
X1153702Y1162508D01*
X1153833Y1163500D01*
X1153702Y1164492D01*
X1153319Y1165416D01*
X1152710Y1166210D01*
X1151916Y1166819D01*
X1150992Y1167202D01*
X1150000Y1167333D01*
X1149008Y1167202D01*
X1148084Y1166819D01*
X1147290Y1166210D01*
X1146681Y1165416D01*
X1146298Y1164492D01*
X1146167Y1163500D01*
X1146298Y1162508D01*
X1146681Y1161584D01*
X1147290Y1160790D01*
X1148084Y1160181D01*
X1149008Y1159798D01*
X1150000Y1159667D01*
X1150992Y1159798D01*
X1151583Y1160043D01*
X1153675Y1157951D01*
Y1155731D01*
X1153201Y1155571D01*
X1152710Y1156210D01*
X1151916Y1156819D01*
X1150992Y1157202D01*
X1150500Y1157267D01*
Y1153499D01*
Y1149733D01*
X1150948Y1149792D01*
X1151169Y1149344D01*
X1133533Y1131707D01*
X1133084Y1131929D01*
X1133094Y1132000D01*
X1133010Y1132636D01*
X1145937Y1145563D01*
X1146225Y1145993D01*
X1146325Y1146500D01*
X1146325Y1146500D01*
X1146325Y1146500D01*
Y1146500D01*
Y1151269D01*
X1146799Y1151429D01*
X1147290Y1150790D01*
X1148084Y1150181D01*
X1149008Y1149798D01*
X1149500Y1149733D01*
Y1153499D01*
Y1157267D01*
X1149008Y1157202D01*
X1148084Y1156819D01*
X1147290Y1156210D01*
X1146799Y1155571D01*
X1146325Y1155731D01*
Y1158500D01*
X1146225Y1159007D01*
X1145937Y1159437D01*
X1143457Y1161917D01*
X1143702Y1162508D01*
X1143833Y1163500D01*
X1143702Y1164492D01*
X1143319Y1165416D01*
X1142710Y1166210D01*
X1141916Y1166819D01*
X1140992Y1167202D01*
X1140000Y1167333D01*
X1139008Y1167202D01*
X1138084Y1166819D01*
X1137290Y1166210D01*
X1136681Y1165416D01*
X1136298Y1164492D01*
X1136167Y1163500D01*
X1136298Y1162508D01*
X1136681Y1161584D01*
X1137290Y1160790D01*
X1138084Y1160181D01*
X1139008Y1159798D01*
X1140000Y1159667D01*
X1140992Y1159798D01*
X1141583Y1160043D01*
X1143674Y1157951D01*
Y1155731D01*
X1143201Y1155571D01*
X1142710Y1156210D01*
X1141916Y1156819D01*
X1140992Y1157202D01*
X1140500Y1157267D01*
Y1153499D01*
Y1149733D01*
X1140992Y1149798D01*
X1141916Y1150181D01*
X1142710Y1150790D01*
X1143201Y1151429D01*
X1143674Y1151269D01*
Y1147049D01*
X1131136Y1134510D01*
X1130500Y1134594D01*
X1129829Y1134505D01*
X1129203Y1134246D01*
X1128666Y1133834D01*
X1128254Y1133297D01*
X1127995Y1132671D01*
X1127906Y1132000D01*
X1127995Y1131329D01*
X1128254Y1130703D01*
X1128666Y1130166D01*
X1129203Y1129754D01*
X1129829Y1129494D01*
X1130500Y1129406D01*
X1130571Y1129416D01*
X1130793Y1128967D01*
X1113187Y1111362D01*
X1112726Y1111553D01*
Y1143751D01*
X1115937Y1146963D01*
X1116225Y1147393D01*
X1116325Y1147900D01*
X1116325Y1147900D01*
X1116325Y1147900D01*
Y1147900D01*
Y1151269D01*
X1116799Y1151429D01*
X1117290Y1150790D01*
X1118084Y1150181D01*
X1119008Y1149798D01*
X1120000Y1149667D01*
X1120992Y1149798D01*
X1121916Y1150181D01*
X1122710Y1150790D01*
X1123319Y1151584D01*
X1123702Y1152508D01*
X1123833Y1153500D01*
X1123702Y1154492D01*
X1123457Y1155083D01*
X1125437Y1157063D01*
X1125437Y1157063D01*
X1125437Y1157063D01*
X1125725Y1157493D01*
X1125826Y1158000D01*
Y1162367D01*
X1126316Y1162464D01*
X1126681Y1161584D01*
X1127290Y1160790D01*
X1128084Y1160181D01*
X1129008Y1159798D01*
X1130000Y1159667D01*
X1130992Y1159798D01*
X1131583Y1160043D01*
X1133675Y1157951D01*
Y1155731D01*
X1133201Y1155571D01*
X1132710Y1156210D01*
X1131916Y1156819D01*
X1130992Y1157202D01*
X1130500Y1157267D01*
Y1153499D01*
Y1149733D01*
X1130992Y1149798D01*
X1131916Y1150181D01*
X1132710Y1150790D01*
X1133201Y1151429D01*
X1133675Y1151269D01*
Y1146549D01*
X1129136Y1142010D01*
X1128500Y1142094D01*
X1127829Y1142006D01*
X1127203Y1141746D01*
X1126666Y1141334D01*
X1126254Y1140797D01*
X1125994Y1140171D01*
X1125906Y1139500D01*
X1125994Y1138829D01*
X1126254Y1138203D01*
X1126666Y1137666D01*
X1127203Y1137254D01*
X1127829Y1136994D01*
X1128500Y1136906D01*
X1129171Y1136994D01*
X1129797Y1137254D01*
X1130334Y1137666D01*
X1130746Y1138203D01*
X1131005Y1138829D01*
X1131094Y1139500D01*
X1131010Y1140136D01*
X1135937Y1145063D01*
X1136225Y1145493D01*
X1136325Y1146000D01*
Y1151269D01*
X1136799Y1151429D01*
X1137290Y1150790D01*
X1138084Y1150181D01*
X1139008Y1149798D01*
X1139500Y1149733D01*
Y1153499D01*
Y1157267D01*
X1139008Y1157202D01*
X1138084Y1156819D01*
X1137290Y1156210D01*
X1136799Y1155571D01*
X1136325Y1155731D01*
Y1158500D01*
X1136225Y1159007D01*
X1135937Y1159437D01*
X1133457Y1161917D01*
X1133702Y1162508D01*
X1133833Y1163500D01*
X1133702Y1164492D01*
X1133319Y1165416D01*
X1132710Y1166210D01*
X1131916Y1166819D01*
X1130992Y1167202D01*
X1130000Y1167333D01*
X1129008Y1167202D01*
X1128084Y1166819D01*
X1127290Y1166210D01*
X1126681Y1165416D01*
X1126316Y1164536D01*
X1125826Y1164633D01*
Y1166451D01*
X1133107Y1173733D01*
X1133500Y1173655D01*
X1171000D01*
X1171897Y1173833D01*
X1172658Y1174342D01*
X1216971Y1218655D01*
X1222185D01*
X1222377Y1218193D01*
D02*
G37*
G36*
X1248000Y1280656D02*
X1274000Y1276656D01*
X1295000Y1266656D01*
X1319500Y1254156D01*
X1342000Y1231656D01*
X1358500Y1209656D01*
X1364000Y1202156D01*
X1373000Y1186656D01*
X1377500Y1165156D01*
X1381000Y1141656D01*
Y1117156D01*
X1380361Y1112406D01*
X1379877Y1112278D01*
X1379834Y1112334D01*
X1379297Y1112746D01*
X1378671Y1113006D01*
X1378000Y1113094D01*
X1377329Y1113006D01*
X1376703Y1112746D01*
X1376166Y1112334D01*
X1375754Y1111797D01*
X1375494Y1111171D01*
X1375406Y1110500D01*
X1375494Y1109829D01*
X1375754Y1109203D01*
X1376166Y1108666D01*
X1376674Y1108276D01*
Y1105049D01*
X1326951Y1055326D01*
X1320695D01*
X1320550Y1055804D01*
X1320937Y1056063D01*
X1366549Y1101674D01*
X1366800D01*
X1367307Y1101775D01*
X1367737Y1102063D01*
X1367737Y1102063D01*
X1367737Y1102063D01*
X1373037Y1107363D01*
X1373325Y1107793D01*
X1373425Y1108300D01*
Y1147462D01*
X1373671Y1147495D01*
X1374297Y1147754D01*
X1374834Y1148166D01*
X1375246Y1148703D01*
X1375506Y1149329D01*
X1375594Y1150000D01*
X1375506Y1150671D01*
X1375246Y1151297D01*
X1374834Y1151834D01*
X1374297Y1152246D01*
X1373671Y1152505D01*
X1373000Y1152594D01*
X1372329Y1152505D01*
X1371703Y1152246D01*
X1371166Y1151834D01*
X1370754Y1151297D01*
X1370494Y1150671D01*
X1370406Y1150000D01*
X1370494Y1149329D01*
X1370754Y1148703D01*
X1370774Y1148676D01*
Y1108849D01*
X1366251Y1104325D01*
X1366000D01*
X1365493Y1104225D01*
X1365063Y1103937D01*
X1319451Y1058325D01*
X1266049D01*
X1262115Y1062259D01*
X1262393Y1062675D01*
X1262829Y1062494D01*
X1263500Y1062406D01*
X1264171Y1062494D01*
X1264797Y1062754D01*
X1265334Y1063166D01*
X1265746Y1063703D01*
X1266006Y1064329D01*
X1266094Y1065000D01*
X1266006Y1065671D01*
X1265845Y1066059D01*
Y1086000D01*
X1265666Y1086897D01*
X1265158Y1087658D01*
X1265158Y1087658D01*
X1248516Y1104300D01*
X1248794Y1104716D01*
X1249329Y1104494D01*
X1250000Y1104406D01*
X1250671Y1104494D01*
X1251059Y1104655D01*
X1283646D01*
X1284508Y1104298D01*
X1285500Y1104167D01*
X1286492Y1104298D01*
X1287416Y1104681D01*
X1288210Y1105290D01*
X1288819Y1106084D01*
X1289202Y1107008D01*
X1289333Y1108000D01*
X1289202Y1108992D01*
X1288819Y1109916D01*
X1288210Y1110710D01*
X1287416Y1111319D01*
X1286492Y1111702D01*
X1285500Y1111833D01*
X1284508Y1111702D01*
X1283584Y1111319D01*
X1282790Y1110710D01*
X1282181Y1109916D01*
X1281944Y1109345D01*
X1251059D01*
X1250671Y1109505D01*
X1250000Y1109594D01*
X1249329Y1109505D01*
X1248703Y1109246D01*
X1248166Y1108834D01*
X1247754Y1108297D01*
X1247495Y1107671D01*
X1247406Y1107000D01*
X1247495Y1106329D01*
X1247716Y1105794D01*
X1247300Y1105516D01*
X1244845Y1107971D01*
Y1207000D01*
X1244666Y1207897D01*
X1244158Y1208658D01*
X1230907Y1221910D01*
X1230746Y1222297D01*
X1230334Y1222834D01*
X1229797Y1223246D01*
X1229171Y1223505D01*
X1228500Y1223594D01*
X1227829Y1223505D01*
X1227441Y1223345D01*
X1216000D01*
X1215103Y1223166D01*
X1214342Y1222658D01*
X1170029Y1178345D01*
X1133500D01*
X1132603Y1178166D01*
X1131842Y1177658D01*
X1131334Y1176897D01*
X1131155Y1176000D01*
X1131233Y1175607D01*
X1123563Y1167937D01*
X1123275Y1167507D01*
X1123174Y1167000D01*
Y1166368D01*
X1122710Y1166210D01*
X1121916Y1166819D01*
X1120992Y1167202D01*
X1120000Y1167333D01*
X1119008Y1167202D01*
X1118084Y1166819D01*
X1117290Y1166210D01*
X1116681Y1165416D01*
X1116298Y1164492D01*
X1116167Y1163500D01*
X1116298Y1162508D01*
X1116543Y1161917D01*
X1114063Y1159437D01*
X1113775Y1159007D01*
X1113675Y1158500D01*
Y1155731D01*
X1113201Y1155571D01*
X1112710Y1156210D01*
X1111916Y1156819D01*
X1110992Y1157202D01*
X1110000Y1157333D01*
X1109008Y1157202D01*
X1108084Y1156819D01*
X1107290Y1156210D01*
X1106681Y1155416D01*
X1106298Y1154492D01*
X1106167Y1153500D01*
X1106298Y1152508D01*
X1106681Y1151584D01*
X1107290Y1150790D01*
X1108084Y1150181D01*
X1109008Y1149798D01*
X1110000Y1149667D01*
X1110992Y1149798D01*
X1111916Y1150181D01*
X1112710Y1150790D01*
X1113201Y1151429D01*
X1113675Y1151269D01*
Y1148449D01*
X1110463Y1145237D01*
X1110175Y1144807D01*
X1110075Y1144300D01*
Y1105400D01*
X1110175Y1104893D01*
X1110463Y1104463D01*
X1118775Y1096151D01*
Y1068700D01*
X1118875Y1068193D01*
X1119163Y1067763D01*
X1119163Y1067763D01*
X1119163Y1067763D01*
X1130274Y1056651D01*
Y1045100D01*
X1130375Y1044593D01*
X1130663Y1044163D01*
X1131193Y1043632D01*
X1131033Y1043159D01*
X1131300Y1043194D01*
X1131681Y1043144D01*
X1131800Y1043025D01*
Y1041100D01*
X1133828D01*
X1133844Y1040979D01*
X1134100Y1041275D01*
D01*
D01*
X1134100D01*
Y1041275D01*
D01*
D01*
X1135776D01*
X1136166Y1040766D01*
X1136703Y1040354D01*
X1137329Y1040094D01*
X1138000Y1040006D01*
X1138671Y1040094D01*
X1139297Y1040354D01*
X1139834Y1040766D01*
X1140246Y1041303D01*
X1140506Y1041929D01*
X1140594Y1042600D01*
X1140506Y1043271D01*
X1140246Y1043897D01*
X1139834Y1044434D01*
X1139297Y1044846D01*
X1138671Y1045105D01*
X1138000Y1045194D01*
X1137694Y1045154D01*
X1137390Y1045550D01*
X1137506Y1045829D01*
X1137594Y1046500D01*
X1137506Y1047171D01*
X1137246Y1047797D01*
X1136834Y1048334D01*
X1136325Y1048724D01*
Y1053051D01*
X1139937Y1056663D01*
X1140225Y1057093D01*
X1140326Y1057600D01*
Y1059600D01*
X1140225Y1060107D01*
X1139937Y1060537D01*
X1137637Y1062837D01*
X1137631Y1063033D01*
X1137934Y1063266D01*
X1138346Y1063803D01*
X1138605Y1064429D01*
X1138624Y1064568D01*
X1139097Y1064728D01*
X1159293Y1044533D01*
X1159072Y1044084D01*
X1159000Y1044094D01*
X1158329Y1044005D01*
X1157703Y1043746D01*
X1157166Y1043334D01*
X1156776Y1042826D01*
X1156000D01*
X1155493Y1042725D01*
X1155063Y1042437D01*
X1140951Y1028325D01*
X1135303D01*
X1135206Y1028816D01*
X1135297Y1028854D01*
X1135834Y1029266D01*
X1136246Y1029803D01*
X1136506Y1030429D01*
X1136528Y1030600D01*
X1131472D01*
X1131495Y1030429D01*
X1131746Y1029822D01*
X1131330Y1029545D01*
X1113826Y1047049D01*
Y1053951D01*
X1114806Y1054932D01*
X1115000Y1054906D01*
X1115671Y1054994D01*
X1116297Y1055254D01*
X1116834Y1055666D01*
X1117246Y1056203D01*
X1117505Y1056829D01*
X1117594Y1057500D01*
X1117505Y1058171D01*
X1117246Y1058797D01*
X1116834Y1059334D01*
X1116297Y1059746D01*
X1115671Y1060005D01*
X1115000Y1060094D01*
X1114329Y1060005D01*
X1113703Y1059746D01*
X1113166Y1059334D01*
X1112754Y1058797D01*
X1112494Y1058171D01*
X1112406Y1057500D01*
X1112494Y1056829D01*
X1112629Y1056504D01*
X1111563Y1055437D01*
X1111275Y1055007D01*
X1111174Y1054500D01*
Y1046500D01*
X1111275Y1045993D01*
X1111563Y1045563D01*
X1131063Y1026063D01*
X1131493Y1025775D01*
X1132000Y1025675D01*
X1141500D01*
X1142007Y1025775D01*
X1142437Y1026063D01*
X1156409Y1040035D01*
X1156908Y1040002D01*
X1157166Y1039666D01*
X1157703Y1039254D01*
X1158329Y1038995D01*
X1159000Y1038906D01*
X1159671Y1038995D01*
X1160297Y1039254D01*
X1160834Y1039666D01*
X1161246Y1040203D01*
X1161506Y1040829D01*
X1161594Y1041500D01*
X1161584Y1041572D01*
X1162033Y1041793D01*
X1162675Y1041151D01*
Y1033224D01*
X1162166Y1032834D01*
X1161754Y1032297D01*
X1161495Y1031671D01*
X1161406Y1031000D01*
X1161495Y1030329D01*
X1161754Y1029703D01*
X1162166Y1029166D01*
X1162703Y1028754D01*
X1163329Y1028494D01*
X1164000Y1028406D01*
X1164671Y1028494D01*
X1165297Y1028754D01*
X1165834Y1029166D01*
X1166201Y1029644D01*
X1166675Y1029483D01*
Y1027049D01*
X1165636Y1026010D01*
X1165000Y1026094D01*
X1164329Y1026005D01*
X1163703Y1025746D01*
X1163166Y1025334D01*
X1162754Y1024797D01*
X1162494Y1024171D01*
X1162406Y1023500D01*
X1162494Y1022829D01*
X1162754Y1022203D01*
X1163166Y1021666D01*
X1163703Y1021254D01*
X1164329Y1020994D01*
X1165000Y1020906D01*
X1165671Y1020994D01*
X1166297Y1021254D01*
X1166622Y1021503D01*
X1166863Y1021263D01*
X1167293Y1020975D01*
X1167800Y1020875D01*
X1269309D01*
X1269686Y1020497D01*
X1269410Y1019831D01*
X1269274Y1018800D01*
X1269410Y1017769D01*
X1269808Y1016808D01*
X1270441Y1015983D01*
X1271266Y1015350D01*
X1272227Y1014952D01*
X1273258Y1014816D01*
X1274289Y1014952D01*
X1275250Y1015350D01*
X1276075Y1015983D01*
X1276708Y1016808D01*
X1277106Y1017769D01*
X1277242Y1018800D01*
X1277106Y1019831D01*
X1276708Y1020792D01*
X1276075Y1021617D01*
X1275250Y1022250D01*
X1274289Y1022648D01*
X1273258Y1022784D01*
X1272227Y1022648D01*
X1271560Y1022372D01*
X1270795Y1023137D01*
X1270365Y1023425D01*
X1269858Y1023526D01*
X1172320D01*
X1172223Y1024016D01*
X1172797Y1024254D01*
X1173334Y1024666D01*
X1173494Y1024874D01*
X1262700D01*
X1263207Y1024975D01*
X1263637Y1025263D01*
X1263637Y1025263D01*
X1263637Y1025263D01*
X1277062Y1038688D01*
X1290745D01*
X1291021Y1038021D01*
X1291654Y1037196D01*
X1292479Y1036563D01*
X1293440Y1036165D01*
X1294471Y1036030D01*
X1295502Y1036165D01*
X1296463Y1036563D01*
X1297288Y1037196D01*
X1297921Y1038021D01*
X1298319Y1038982D01*
X1298455Y1040013D01*
X1298319Y1041044D01*
X1297921Y1042005D01*
X1297288Y1042830D01*
X1296463Y1043463D01*
X1295502Y1043861D01*
X1294471Y1043997D01*
X1293440Y1043861D01*
X1292479Y1043463D01*
X1291654Y1042830D01*
X1291021Y1042005D01*
X1290745Y1041339D01*
X1276513D01*
X1276006Y1041238D01*
X1275576Y1040950D01*
X1262151Y1027526D01*
X1173859D01*
X1173746Y1027797D01*
X1173334Y1028334D01*
X1172797Y1028746D01*
X1172396Y1028912D01*
Y1032429D01*
X1172296Y1032936D01*
X1172008Y1033366D01*
X1169326Y1036049D01*
Y1043200D01*
X1169225Y1043707D01*
X1168937Y1044137D01*
X1140326Y1072749D01*
Y1073200D01*
X1140697Y1073354D01*
X1141234Y1073766D01*
X1141646Y1074303D01*
X1141905Y1074929D01*
X1141994Y1075600D01*
X1141905Y1076271D01*
X1141646Y1076897D01*
X1141234Y1077434D01*
X1140697Y1077846D01*
X1140071Y1078106D01*
X1139400Y1078194D01*
X1138729Y1078106D01*
X1138103Y1077846D01*
X1137566Y1077434D01*
X1137154Y1076897D01*
X1136895Y1076271D01*
X1136806Y1075600D01*
X1136895Y1074929D01*
X1137154Y1074303D01*
X1137566Y1073766D01*
X1137675Y1073353D01*
X1137213Y1073162D01*
X1134364Y1076010D01*
X1134384Y1076316D01*
X1134796Y1076853D01*
X1135056Y1077479D01*
X1135144Y1078150D01*
X1135056Y1078821D01*
X1134796Y1079447D01*
X1134384Y1079984D01*
X1133847Y1080396D01*
X1133221Y1080655D01*
X1132550Y1080744D01*
X1131879Y1080655D01*
X1131253Y1080396D01*
X1130716Y1079984D01*
X1130599Y1079832D01*
X1130126Y1079992D01*
Y1086151D01*
X1133764Y1089790D01*
X1134400Y1089706D01*
X1135071Y1089795D01*
X1135697Y1090054D01*
X1136234Y1090466D01*
X1136646Y1091003D01*
X1136905Y1091629D01*
X1136994Y1092300D01*
X1136905Y1092971D01*
X1136646Y1093597D01*
X1136234Y1094134D01*
X1135697Y1094546D01*
X1135071Y1094806D01*
X1134400Y1094894D01*
X1133729Y1094806D01*
X1133103Y1094546D01*
X1132566Y1094134D01*
X1132154Y1093597D01*
X1131894Y1092971D01*
X1131806Y1092300D01*
X1131890Y1091664D01*
X1127863Y1087637D01*
X1127575Y1087207D01*
X1127474Y1086700D01*
Y1077745D01*
X1127026Y1077524D01*
X1126997Y1077546D01*
X1126371Y1077806D01*
X1126200Y1077828D01*
Y1075299D01*
X1125200D01*
Y1077828D01*
X1125029Y1077806D01*
X1124403Y1077546D01*
X1123866Y1077134D01*
X1123799Y1077047D01*
X1123326Y1077208D01*
Y1097900D01*
X1123225Y1098407D01*
X1122937Y1098837D01*
X1116291Y1105484D01*
X1116620Y1105860D01*
X1116784Y1105734D01*
X1117409Y1105475D01*
X1118081Y1105387D01*
X1118752Y1105475D01*
X1119378Y1105734D01*
X1119915Y1106147D01*
X1120327Y1106684D01*
X1120406Y1106874D01*
X1130651D01*
X1135176Y1102350D01*
X1133331Y1100506D01*
X1133329Y1100506D01*
X1132703Y1100246D01*
X1132166Y1099834D01*
X1131754Y1099297D01*
X1131495Y1098671D01*
X1131406Y1098000D01*
X1131495Y1097329D01*
X1131754Y1096703D01*
X1132166Y1096166D01*
X1132703Y1095754D01*
X1133329Y1095494D01*
X1134000Y1095406D01*
X1134671Y1095494D01*
X1135297Y1095754D01*
X1135834Y1096166D01*
X1136246Y1096703D01*
X1136506Y1097329D01*
X1136594Y1098000D01*
X1136506Y1098671D01*
X1136246Y1099297D01*
X1136084Y1099509D01*
X1137987Y1101413D01*
X1138275Y1101843D01*
X1138375Y1102350D01*
X1138275Y1102857D01*
X1137987Y1103287D01*
X1144539Y1109839D01*
X1144987Y1109618D01*
X1144906Y1109000D01*
X1144995Y1108329D01*
X1145254Y1107703D01*
X1145666Y1107166D01*
X1146203Y1106754D01*
X1146829Y1106495D01*
X1147500Y1106406D01*
X1148171Y1106495D01*
X1148797Y1106754D01*
X1149334Y1107166D01*
X1149635Y1107559D01*
X1150134Y1107591D01*
X1150500Y1107226D01*
Y1088375D01*
X1149563Y1087437D01*
X1149275Y1087007D01*
X1149174Y1086500D01*
X1149222Y1086263D01*
X1149233Y1086206D01*
X1149094Y1085871D01*
X1149006Y1085200D01*
X1149094Y1084529D01*
X1149354Y1083903D01*
X1149766Y1083366D01*
X1150303Y1082954D01*
X1150929Y1082695D01*
X1151600Y1082606D01*
X1152271Y1082695D01*
X1152897Y1082954D01*
X1153434Y1083366D01*
X1153846Y1083903D01*
X1154105Y1084529D01*
X1154194Y1085200D01*
X1154180Y1085306D01*
X1161049Y1092175D01*
X1194451D01*
X1221490Y1065136D01*
X1221406Y1064500D01*
X1221494Y1063829D01*
X1221754Y1063203D01*
X1222166Y1062666D01*
X1222703Y1062254D01*
X1223329Y1061994D01*
X1224000Y1061906D01*
X1224671Y1061994D01*
X1225297Y1062254D01*
X1225834Y1062666D01*
X1226246Y1063203D01*
X1226505Y1063829D01*
X1226594Y1064500D01*
X1226505Y1065171D01*
X1226246Y1065797D01*
X1225834Y1066334D01*
X1225297Y1066746D01*
X1224671Y1067006D01*
X1224000Y1067094D01*
X1223364Y1067010D01*
X1195937Y1094437D01*
X1195507Y1094725D01*
X1195000Y1094825D01*
X1160500D01*
X1159993Y1094725D01*
X1159563Y1094437D01*
X1153613Y1088487D01*
X1153151Y1088679D01*
Y1101559D01*
X1153624Y1101720D01*
X1153666Y1101666D01*
X1154203Y1101254D01*
X1154829Y1100994D01*
X1155500Y1100906D01*
X1156171Y1100994D01*
X1156797Y1101254D01*
X1157334Y1101666D01*
X1157746Y1102203D01*
X1157907Y1102590D01*
X1217158Y1161842D01*
X1217158Y1161842D01*
X1217158Y1161842D01*
X1217667Y1162603D01*
X1217845Y1163500D01*
Y1207029D01*
X1225693Y1214877D01*
X1226155Y1214685D01*
Y1121971D01*
X1226090Y1121907D01*
X1225703Y1121746D01*
X1225166Y1121334D01*
X1224754Y1120797D01*
X1224494Y1120171D01*
X1224406Y1119500D01*
X1224494Y1118829D01*
X1224754Y1118203D01*
X1225166Y1117666D01*
X1225703Y1117254D01*
X1226329Y1116994D01*
X1227000Y1116906D01*
X1227671Y1116994D01*
X1228297Y1117254D01*
X1228834Y1117666D01*
X1229246Y1118203D01*
X1229407Y1118590D01*
X1230158Y1119342D01*
X1230667Y1120103D01*
X1230845Y1121000D01*
Y1214685D01*
X1231307Y1214877D01*
X1240155Y1206029D01*
Y1203900D01*
X1239664Y1203802D01*
X1239474Y1204261D01*
X1238865Y1205055D01*
X1238071Y1205664D01*
X1237147Y1206047D01*
X1236155Y1206178D01*
X1235163Y1206047D01*
X1234239Y1205664D01*
X1233445Y1205055D01*
X1232836Y1204261D01*
X1232453Y1203337D01*
X1232322Y1202345D01*
X1232453Y1201353D01*
X1232836Y1200429D01*
X1233445Y1199635D01*
X1234239Y1199026D01*
X1235163Y1198643D01*
X1236155Y1198512D01*
X1237147Y1198643D01*
X1238071Y1199026D01*
X1238865Y1199635D01*
X1239474Y1200429D01*
X1239664Y1200888D01*
X1240155Y1200791D01*
Y1148948D01*
X1239682Y1148787D01*
X1239554Y1148954D01*
X1238864Y1149483D01*
X1238062Y1149815D01*
X1237700Y1149863D01*
Y1146599D01*
Y1143337D01*
X1238062Y1143385D01*
X1238864Y1143717D01*
X1239554Y1144246D01*
X1239682Y1144413D01*
X1240155Y1144252D01*
Y1107000D01*
X1240333Y1106103D01*
X1240842Y1105342D01*
X1261155Y1085029D01*
Y1066059D01*
X1260995Y1065671D01*
X1260906Y1065000D01*
X1260995Y1064329D01*
X1261175Y1063893D01*
X1260759Y1063615D01*
X1258525Y1065849D01*
Y1085900D01*
X1258425Y1086407D01*
X1258137Y1086837D01*
X1243837Y1101137D01*
X1243407Y1101425D01*
X1242900Y1101525D01*
X1170451D01*
X1170405Y1101871D01*
X1170146Y1102497D01*
X1169734Y1103034D01*
X1169197Y1103446D01*
X1168571Y1103706D01*
X1167900Y1103794D01*
X1167229Y1103706D01*
X1166603Y1103446D01*
X1166066Y1103034D01*
X1165654Y1102497D01*
X1165409Y1101905D01*
X1165137D01*
X1164895Y1101937D01*
X1164746Y1102297D01*
X1164334Y1102834D01*
X1163797Y1103246D01*
X1163171Y1103506D01*
X1162500Y1103594D01*
X1161829Y1103506D01*
X1161203Y1103246D01*
X1160666Y1102834D01*
X1160254Y1102297D01*
X1159995Y1101671D01*
X1159906Y1101000D01*
X1159995Y1100329D01*
X1160254Y1099703D01*
X1160666Y1099166D01*
X1161203Y1098754D01*
X1161829Y1098495D01*
X1162292Y1098433D01*
X1164063Y1096663D01*
X1164063Y1096663D01*
X1164063D01*
X1164063Y1096663D01*
X1164063D01*
X1164063Y1096663D01*
Y1096663D01*
Y1096663D01*
D01*
D01*
X1164063D01*
Y1096663D01*
X1164493Y1096375D01*
X1165000Y1096274D01*
X1242151D01*
X1246093Y1092332D01*
X1245933Y1091859D01*
X1245529Y1091805D01*
X1244903Y1091546D01*
X1244366Y1091134D01*
X1243954Y1090597D01*
X1243694Y1089971D01*
X1243606Y1089300D01*
X1243678Y1088753D01*
X1232563Y1077637D01*
X1232275Y1077207D01*
X1232174Y1076700D01*
Y1063549D01*
X1213251Y1044625D01*
X1190358D01*
X1190260Y1045116D01*
X1190264Y1045117D01*
X1190954Y1045646D01*
X1191483Y1046336D01*
X1191815Y1047139D01*
X1191863Y1047500D01*
X1185337D01*
X1185385Y1047139D01*
X1185717Y1046336D01*
X1186246Y1045646D01*
X1186936Y1045117D01*
X1186940Y1045116D01*
X1186842Y1044625D01*
X1175400D01*
X1174893Y1044525D01*
X1174463Y1044237D01*
X1172782Y1042557D01*
X1172500Y1042594D01*
X1171829Y1042505D01*
X1171203Y1042246D01*
X1170666Y1041834D01*
X1170254Y1041297D01*
X1169995Y1040671D01*
X1169906Y1040000D01*
X1169995Y1039329D01*
X1170254Y1038703D01*
X1170666Y1038166D01*
X1171203Y1037754D01*
X1171829Y1037494D01*
X1172376Y1037422D01*
X1172534Y1037150D01*
X1172572Y1036858D01*
X1172495Y1036671D01*
X1172406Y1036000D01*
X1172495Y1035329D01*
X1172754Y1034703D01*
X1173166Y1034166D01*
X1173703Y1033754D01*
X1174329Y1033494D01*
X1175000Y1033406D01*
X1175671Y1033494D01*
X1176297Y1033754D01*
X1176834Y1034166D01*
X1177246Y1034703D01*
X1177505Y1035329D01*
X1177594Y1036000D01*
X1177510Y1036636D01*
X1179049Y1038175D01*
X1217000D01*
X1217507Y1038275D01*
X1217937Y1038563D01*
X1240437Y1061063D01*
X1240725Y1061493D01*
X1240825Y1062000D01*
X1240825Y1062000D01*
Y1072951D01*
X1247864Y1079990D01*
X1248500Y1079906D01*
X1249171Y1079994D01*
X1249797Y1080254D01*
X1250334Y1080666D01*
X1250746Y1081203D01*
X1251005Y1081829D01*
X1251094Y1082500D01*
X1251005Y1083171D01*
X1250746Y1083797D01*
X1250334Y1084334D01*
X1249797Y1084746D01*
X1249171Y1085005D01*
X1248500Y1085094D01*
X1247829Y1085005D01*
X1247203Y1084746D01*
X1246666Y1084334D01*
X1246254Y1083797D01*
X1245994Y1083171D01*
X1245906Y1082500D01*
X1245990Y1081864D01*
X1238563Y1074437D01*
X1238275Y1074007D01*
X1238175Y1073500D01*
Y1062549D01*
X1216451Y1040825D01*
X1178500D01*
X1177993Y1040725D01*
X1177563Y1040437D01*
X1175636Y1038510D01*
X1175000Y1038594D01*
X1174928Y1039141D01*
X1175006Y1039329D01*
X1175094Y1040000D01*
X1175006Y1040671D01*
X1174900Y1040926D01*
X1175949Y1041975D01*
X1213800D01*
X1214307Y1042075D01*
X1214737Y1042363D01*
X1234437Y1062063D01*
X1234725Y1062493D01*
X1234826Y1063000D01*
X1234826Y1063000D01*
X1234826Y1063000D01*
Y1063000D01*
Y1076151D01*
X1245487Y1086812D01*
X1245529Y1086794D01*
X1246200Y1086706D01*
X1246871Y1086794D01*
X1247497Y1087054D01*
X1248034Y1087466D01*
X1248446Y1088003D01*
X1248705Y1088629D01*
X1248759Y1089033D01*
X1249232Y1089193D01*
X1252674Y1085751D01*
Y1063000D01*
X1252775Y1062493D01*
X1253063Y1062063D01*
X1253063Y1062063D01*
X1253063Y1062063D01*
X1262063Y1053063D01*
X1262493Y1052775D01*
X1263000Y1052674D01*
X1327500D01*
X1328007Y1052775D01*
X1328437Y1053063D01*
X1378654Y1103279D01*
X1379102Y1103058D01*
X1377500Y1091156D01*
X1369500Y1067156D01*
X1357000Y1046656D01*
X1343500Y1028156D01*
X1323500Y1008656D01*
X1299000Y994156D01*
X1282500Y985656D01*
X1264000Y979156D01*
X1243000Y975156D01*
X1217000Y974656D01*
X1186500Y981156D01*
X1166740Y989156D01*
X1147000Y998156D01*
X1129500Y1011156D01*
X1110000Y1030656D01*
X1095000Y1051656D01*
X1085500Y1070656D01*
X1077500Y1096656D01*
X1075000Y1121156D01*
X1073900Y1141600D01*
X1077000Y1159656D01*
X1084000Y1189656D01*
X1103500Y1221656D01*
X1130500Y1249156D01*
X1157528Y1266656D01*
X1198000Y1280656D01*
X1223606Y1284156D01*
X1248000Y1280656D01*
D02*
G37*
G36*
X1157290Y1150790D02*
X1158084Y1150181D01*
X1158675Y1149936D01*
Y1130923D01*
X1146022Y1118271D01*
X1145386Y1118355D01*
X1144715Y1118266D01*
X1144089Y1118007D01*
X1143552Y1117595D01*
X1143140Y1117058D01*
X1142881Y1116432D01*
X1142792Y1115761D01*
X1142881Y1115089D01*
X1143140Y1114464D01*
X1143552Y1113927D01*
X1144001Y1113582D01*
X1144034Y1113083D01*
X1136113Y1105162D01*
X1132137Y1109137D01*
X1131707Y1109425D01*
X1131200Y1109525D01*
X1120137D01*
X1119915Y1109815D01*
X1119378Y1110227D01*
X1118752Y1110486D01*
X1118081Y1110575D01*
X1117409Y1110486D01*
X1116784Y1110227D01*
X1116247Y1109815D01*
X1115834Y1109278D01*
X1115575Y1108652D01*
X1115487Y1107981D01*
X1115575Y1107309D01*
X1115834Y1106684D01*
X1115960Y1106520D01*
X1115584Y1106191D01*
X1114826Y1106949D01*
Y1109251D01*
X1155937Y1150363D01*
X1155937Y1150363D01*
X1155937Y1150363D01*
X1156225Y1150793D01*
X1156325Y1151299D01*
X1156331Y1151300D01*
X1156898Y1151300D01*
X1157290Y1150790D01*
D02*
G37*
%LPC*%
G36*
X1157000Y1073594D02*
X1156329Y1073505D01*
X1155703Y1073246D01*
X1155166Y1072834D01*
X1154754Y1072297D01*
X1154494Y1071671D01*
X1154406Y1071000D01*
X1154494Y1070329D01*
X1154754Y1069703D01*
X1155166Y1069166D01*
X1155703Y1068754D01*
X1156329Y1068495D01*
X1157000Y1068406D01*
X1157636Y1068490D01*
X1168563Y1057563D01*
X1168993Y1057275D01*
X1169500Y1057174D01*
X1212251D01*
X1214378Y1055047D01*
X1214306Y1054500D01*
X1214394Y1053829D01*
X1214654Y1053203D01*
X1215066Y1052666D01*
X1215603Y1052254D01*
X1216229Y1051995D01*
X1216900Y1051906D01*
X1217571Y1051995D01*
X1218197Y1052254D01*
X1218734Y1052666D01*
X1219146Y1053203D01*
X1219405Y1053829D01*
X1219494Y1054500D01*
X1219405Y1055171D01*
X1219146Y1055797D01*
X1218734Y1056334D01*
X1218197Y1056746D01*
X1217571Y1057006D01*
X1216900Y1057094D01*
X1216229Y1057006D01*
X1216187Y1056988D01*
X1213737Y1059437D01*
X1213307Y1059725D01*
X1212800Y1059826D01*
X1170049D01*
X1159510Y1070364D01*
X1159594Y1071000D01*
X1159505Y1071671D01*
X1159246Y1072297D01*
X1158834Y1072834D01*
X1158297Y1073246D01*
X1157671Y1073505D01*
X1157000Y1073594D01*
D02*
G37*
G36*
X1119000Y1054528D02*
X1118829Y1054506D01*
X1118203Y1054246D01*
X1117666Y1053834D01*
X1117254Y1053297D01*
X1116994Y1052671D01*
X1116972Y1052500D01*
X1119000D01*
Y1054528D01*
D02*
G37*
G36*
X1120000D02*
Y1052500D01*
X1122028D01*
X1122005Y1052671D01*
X1121746Y1053297D01*
X1121334Y1053834D01*
X1120797Y1054246D01*
X1120171Y1054506D01*
X1120000Y1054528D01*
D02*
G37*
G36*
X1200363Y1068300D02*
X1197600D01*
Y1065537D01*
X1197962Y1065585D01*
X1198764Y1065917D01*
X1199454Y1066446D01*
X1199983Y1067136D01*
X1200315Y1067939D01*
X1200363Y1068300D01*
D02*
G37*
G36*
X1196600D02*
X1193837D01*
X1193885Y1067939D01*
X1194217Y1067136D01*
X1194746Y1066446D01*
X1195436Y1065917D01*
X1196239Y1065585D01*
X1196600Y1065537D01*
Y1068300D01*
D02*
G37*
G36*
X1168500Y1090794D02*
X1167829Y1090705D01*
X1167203Y1090446D01*
X1166666Y1090034D01*
X1166254Y1089497D01*
X1165994Y1088871D01*
X1165906Y1088200D01*
X1165994Y1087529D01*
X1166254Y1086903D01*
X1166666Y1086366D01*
X1167203Y1085954D01*
X1167829Y1085695D01*
X1168500Y1085606D01*
X1169171Y1085695D01*
X1169797Y1085954D01*
X1170334Y1086366D01*
X1170746Y1086903D01*
X1170859Y1087175D01*
X1190451D01*
X1216740Y1060886D01*
X1216656Y1060250D01*
X1216745Y1059579D01*
X1217004Y1058953D01*
X1217416Y1058416D01*
X1217953Y1058004D01*
X1218579Y1057745D01*
X1219250Y1057656D01*
X1219921Y1057745D01*
X1220547Y1058004D01*
X1221084Y1058416D01*
X1221496Y1058953D01*
X1221756Y1059579D01*
X1221844Y1060250D01*
X1221756Y1060921D01*
X1221496Y1061547D01*
X1221084Y1062084D01*
X1220547Y1062496D01*
X1219921Y1062755D01*
X1219250Y1062844D01*
X1218614Y1062760D01*
X1191937Y1089437D01*
X1191507Y1089725D01*
X1191000Y1089826D01*
X1170494D01*
X1170334Y1090034D01*
X1169797Y1090446D01*
X1169171Y1090705D01*
X1168500Y1090794D01*
D02*
G37*
G36*
X1188100Y1051263D02*
X1187739Y1051215D01*
X1186936Y1050883D01*
X1186246Y1050354D01*
X1185717Y1049664D01*
X1185385Y1048862D01*
X1185337Y1048500D01*
X1188100D01*
Y1051263D01*
D02*
G37*
G36*
X1189100D02*
Y1048500D01*
X1191863D01*
X1191815Y1048862D01*
X1191483Y1049664D01*
X1190954Y1050354D01*
X1190264Y1050883D01*
X1189462Y1051215D01*
X1189100Y1051263D01*
D02*
G37*
G36*
X1201200Y1049200D02*
X1198437D01*
X1198485Y1048839D01*
X1198817Y1048036D01*
X1199346Y1047346D01*
X1200036Y1046817D01*
X1200838Y1046485D01*
X1201200Y1046437D01*
Y1049200D01*
D02*
G37*
G36*
X1204963D02*
X1202200D01*
Y1046437D01*
X1202561Y1046485D01*
X1203364Y1046817D01*
X1204054Y1047346D01*
X1204583Y1048036D01*
X1204915Y1048839D01*
X1204963Y1049200D01*
D02*
G37*
G36*
X1119000Y1051500D02*
X1116972D01*
X1116994Y1051329D01*
X1117254Y1050703D01*
X1117666Y1050166D01*
X1118203Y1049754D01*
X1118829Y1049494D01*
X1119000Y1049472D01*
Y1051500D01*
D02*
G37*
G36*
X1202200Y1052963D02*
Y1050200D01*
X1204963D01*
X1204915Y1050562D01*
X1204583Y1051364D01*
X1204054Y1052054D01*
X1203364Y1052583D01*
X1202561Y1052915D01*
X1202200Y1052963D01*
D02*
G37*
G36*
X1139500Y1098994D02*
X1138829Y1098905D01*
X1138203Y1098646D01*
X1137666Y1098234D01*
X1137254Y1097697D01*
X1136994Y1097071D01*
X1136906Y1096400D01*
X1136994Y1095729D01*
X1137254Y1095103D01*
X1137666Y1094566D01*
X1138175Y1094176D01*
Y1085100D01*
X1138275Y1084593D01*
X1138563Y1084163D01*
X1138563Y1084163D01*
X1138563Y1084163D01*
X1143674Y1079051D01*
Y1075500D01*
X1143303Y1075346D01*
X1142766Y1074934D01*
X1142354Y1074397D01*
X1142095Y1073771D01*
X1142006Y1073100D01*
X1142095Y1072429D01*
X1142354Y1071803D01*
X1142766Y1071266D01*
X1143303Y1070854D01*
X1143929Y1070595D01*
X1144600Y1070506D01*
X1145059Y1070567D01*
X1161563Y1054063D01*
X1161993Y1053775D01*
X1162500Y1053675D01*
X1207078D01*
X1207406Y1053300D01*
X1207495Y1052629D01*
X1207754Y1052003D01*
X1208166Y1051466D01*
X1208703Y1051054D01*
X1209329Y1050795D01*
X1210000Y1050706D01*
X1210671Y1050795D01*
X1211297Y1051054D01*
X1211834Y1051466D01*
X1212246Y1052003D01*
X1212506Y1052629D01*
X1212594Y1053300D01*
X1212506Y1053971D01*
X1212246Y1054597D01*
X1211834Y1055134D01*
X1211297Y1055546D01*
X1210671Y1055805D01*
X1210000Y1055894D01*
X1209364Y1055810D01*
X1209237Y1055937D01*
X1208807Y1056225D01*
X1208300Y1056326D01*
X1163049D01*
X1147059Y1072316D01*
X1147106Y1072429D01*
X1147194Y1073100D01*
X1147106Y1073771D01*
X1146846Y1074397D01*
X1146434Y1074934D01*
X1146325Y1075018D01*
Y1079600D01*
X1146225Y1080107D01*
X1145937Y1080537D01*
X1140825Y1085649D01*
Y1094176D01*
X1141334Y1094566D01*
X1141746Y1095103D01*
X1142006Y1095729D01*
X1142094Y1096400D01*
X1142006Y1097071D01*
X1141746Y1097697D01*
X1141334Y1098234D01*
X1140797Y1098646D01*
X1140171Y1098905D01*
X1139500Y1098994D01*
D02*
G37*
G36*
X1122028Y1051500D02*
X1120000D01*
Y1049472D01*
X1120171Y1049494D01*
X1120797Y1049754D01*
X1121334Y1050166D01*
X1121746Y1050703D01*
X1122005Y1051329D01*
X1122028Y1051500D01*
D02*
G37*
G36*
X1201200Y1052963D02*
X1200838Y1052915D01*
X1200036Y1052583D01*
X1199346Y1052054D01*
X1198817Y1051364D01*
X1198485Y1050562D01*
X1198437Y1050200D01*
X1201200D01*
Y1052963D01*
D02*
G37*
G36*
X1234163Y1086200D02*
X1231400D01*
Y1083437D01*
X1231761Y1083485D01*
X1232564Y1083817D01*
X1233254Y1084346D01*
X1233783Y1085036D01*
X1234115Y1085839D01*
X1234163Y1086200D01*
D02*
G37*
G36*
X1230400D02*
X1227637D01*
X1227685Y1085839D01*
X1228017Y1085036D01*
X1228546Y1084346D01*
X1229236Y1083817D01*
X1230039Y1083485D01*
X1230400Y1083437D01*
Y1086200D01*
D02*
G37*
G36*
X1108400Y1103594D02*
X1107729Y1103506D01*
X1107103Y1103246D01*
X1106566Y1102834D01*
X1106154Y1102297D01*
X1105894Y1101671D01*
X1105806Y1101000D01*
X1105894Y1100329D01*
X1106154Y1099703D01*
X1106566Y1099166D01*
X1107075Y1098776D01*
Y1089140D01*
X1107175Y1088633D01*
X1107463Y1088203D01*
X1108895Y1086770D01*
X1105163Y1083037D01*
X1104875Y1082607D01*
X1104774Y1082100D01*
Y1067924D01*
X1104266Y1067534D01*
X1103854Y1066997D01*
X1103594Y1066371D01*
X1103506Y1065700D01*
X1103594Y1065029D01*
X1103854Y1064403D01*
X1104266Y1063866D01*
X1104803Y1063454D01*
X1105429Y1063194D01*
X1106100Y1063106D01*
X1106771Y1063194D01*
X1107397Y1063454D01*
X1107934Y1063866D01*
X1108346Y1064403D01*
X1108605Y1065029D01*
X1108690Y1065671D01*
X1108754Y1065708D01*
X1109425Y1065796D01*
X1109429Y1065794D01*
X1109600Y1065772D01*
Y1068299D01*
Y1070828D01*
X1109429Y1070805D01*
X1108803Y1070546D01*
X1108266Y1070134D01*
X1107899Y1069656D01*
X1107425Y1069817D01*
Y1081551D01*
X1110770Y1084896D01*
X1112890Y1082776D01*
X1112806Y1082140D01*
X1112895Y1081469D01*
X1113154Y1080843D01*
X1113566Y1080306D01*
X1114103Y1079894D01*
X1114729Y1079635D01*
X1115400Y1079546D01*
X1116071Y1079635D01*
X1116697Y1079894D01*
X1117234Y1080306D01*
X1117646Y1080843D01*
X1117906Y1081469D01*
X1117994Y1082140D01*
X1117906Y1082811D01*
X1117646Y1083437D01*
X1117234Y1083974D01*
X1116697Y1084386D01*
X1116071Y1084646D01*
X1115400Y1084734D01*
X1114764Y1084650D01*
X1111707Y1087707D01*
X1109725Y1089689D01*
Y1098776D01*
X1110234Y1099166D01*
X1110646Y1099703D01*
X1110905Y1100329D01*
X1110994Y1101000D01*
X1110905Y1101671D01*
X1110646Y1102297D01*
X1110234Y1102834D01*
X1109697Y1103246D01*
X1109071Y1103506D01*
X1108400Y1103594D01*
D02*
G37*
G36*
X1289300Y1091800D02*
X1281700D01*
Y1084200D01*
X1289300D01*
Y1091800D01*
D02*
G37*
G36*
X1143536Y1090700D02*
X1141508D01*
X1141531Y1090529D01*
X1141790Y1089903D01*
X1142202Y1089366D01*
X1142739Y1088954D01*
X1143365Y1088694D01*
X1143536Y1088672D01*
Y1090700D01*
D02*
G37*
G36*
X1231400Y1089963D02*
Y1087200D01*
X1234163D01*
X1234115Y1087562D01*
X1233783Y1088364D01*
X1233254Y1089054D01*
X1232564Y1089583D01*
X1231761Y1089915D01*
X1231400Y1089963D01*
D02*
G37*
G36*
X1230400D02*
X1230039Y1089915D01*
X1229236Y1089583D01*
X1228546Y1089054D01*
X1228017Y1088364D01*
X1227685Y1087562D01*
X1227637Y1087200D01*
X1230400D01*
Y1089963D01*
D02*
G37*
G36*
X1310000Y1079128D02*
Y1077100D01*
X1312028D01*
X1312006Y1077271D01*
X1311746Y1077897D01*
X1311334Y1078434D01*
X1310797Y1078846D01*
X1310171Y1079105D01*
X1310000Y1079128D01*
D02*
G37*
G36*
X1196600Y1072063D02*
X1196239Y1072015D01*
X1195436Y1071683D01*
X1194746Y1071154D01*
X1194217Y1070464D01*
X1193885Y1069662D01*
X1193837Y1069300D01*
X1196600D01*
Y1072063D01*
D02*
G37*
G36*
X1110600Y1070828D02*
Y1068800D01*
X1112628D01*
X1112605Y1068971D01*
X1112346Y1069597D01*
X1111934Y1070134D01*
X1111397Y1070546D01*
X1110771Y1070805D01*
X1110600Y1070828D01*
D02*
G37*
G36*
X1112628Y1067800D02*
X1110600D01*
Y1065772D01*
X1110771Y1065794D01*
X1111397Y1066054D01*
X1111934Y1066466D01*
X1112346Y1067003D01*
X1112605Y1067629D01*
X1112628Y1067800D01*
D02*
G37*
G36*
X1197600Y1072063D02*
Y1069300D01*
X1200363D01*
X1200315Y1069662D01*
X1199983Y1070464D01*
X1199454Y1071154D01*
X1198764Y1071683D01*
X1197962Y1072015D01*
X1197600Y1072063D01*
D02*
G37*
G36*
X1309000Y1079128D02*
X1308829Y1079105D01*
X1308203Y1078846D01*
X1307666Y1078434D01*
X1307254Y1077897D01*
X1306995Y1077271D01*
X1306972Y1077100D01*
X1309000D01*
Y1079128D01*
D02*
G37*
G36*
X1312028Y1076100D02*
X1310000D01*
Y1074072D01*
X1310171Y1074094D01*
X1310797Y1074354D01*
X1311334Y1074766D01*
X1311746Y1075303D01*
X1312006Y1075929D01*
X1312028Y1076100D01*
D02*
G37*
G36*
X1309000D02*
X1306972D01*
X1306995Y1075929D01*
X1307254Y1075303D01*
X1307666Y1074766D01*
X1308203Y1074354D01*
X1308829Y1074094D01*
X1309000Y1074072D01*
Y1076100D01*
D02*
G37*
G36*
X1287400Y1022784D02*
X1286369Y1022648D01*
X1285408Y1022250D01*
X1284983Y1021924D01*
X1287400Y1019507D01*
X1289817Y1021924D01*
X1289392Y1022250D01*
X1288431Y1022648D01*
X1287400Y1022784D01*
D02*
G37*
G36*
X1290524Y1021217D02*
X1288107Y1018800D01*
X1290524Y1016383D01*
X1290850Y1016808D01*
X1291248Y1017769D01*
X1291384Y1018800D01*
X1291248Y1019831D01*
X1290850Y1020792D01*
X1290524Y1021217D01*
D02*
G37*
G36*
X1284276D02*
X1283950Y1020792D01*
X1283552Y1019831D01*
X1283416Y1018800D01*
X1283552Y1017769D01*
X1283950Y1016808D01*
X1284276Y1016383D01*
X1286693Y1018800D01*
X1284276Y1021217D01*
D02*
G37*
G36*
X1280329Y1029855D02*
X1279298Y1029719D01*
X1278337Y1029321D01*
X1277512Y1028688D01*
X1276879Y1027863D01*
X1276481Y1026902D01*
X1276345Y1025871D01*
X1276481Y1024840D01*
X1276879Y1023879D01*
X1277512Y1023054D01*
X1278337Y1022421D01*
X1279298Y1022023D01*
X1280329Y1021887D01*
X1281360Y1022023D01*
X1282321Y1022421D01*
X1283146Y1023054D01*
X1283779Y1023879D01*
X1284177Y1024840D01*
X1284313Y1025871D01*
X1284177Y1026902D01*
X1283779Y1027863D01*
X1283146Y1028688D01*
X1282321Y1029321D01*
X1281360Y1029719D01*
X1280329Y1029855D01*
D02*
G37*
G36*
X1297595Y1028288D02*
X1295178Y1025871D01*
X1297595Y1023454D01*
X1297921Y1023879D01*
X1298319Y1024840D01*
X1298455Y1025871D01*
X1298319Y1026902D01*
X1297921Y1027863D01*
X1297595Y1028288D01*
D02*
G37*
G36*
X1291347D02*
X1291021Y1027863D01*
X1290623Y1026902D01*
X1290487Y1025871D01*
X1290623Y1024840D01*
X1291021Y1023879D01*
X1291347Y1023454D01*
X1293764Y1025871D01*
X1291347Y1028288D01*
D02*
G37*
G36*
X1294471Y1025164D02*
X1292054Y1022747D01*
X1292479Y1022421D01*
X1293440Y1022023D01*
X1294471Y1021887D01*
X1295502Y1022023D01*
X1296463Y1022421D01*
X1296888Y1022747D01*
X1294471Y1025164D01*
D02*
G37*
G36*
X1287400Y1018093D02*
X1284983Y1015676D01*
X1285408Y1015350D01*
X1286369Y1014952D01*
X1287400Y1014816D01*
X1288431Y1014952D01*
X1289392Y1015350D01*
X1289817Y1015676D01*
X1287400Y1018093D01*
D02*
G37*
G36*
X1270134Y1007075D02*
X1269808Y1006650D01*
X1269410Y1005689D01*
X1269274Y1004658D01*
X1269410Y1003627D01*
X1269808Y1002666D01*
X1270134Y1002241D01*
X1272551Y1004658D01*
X1270134Y1007075D01*
D02*
G37*
G36*
X1273258Y1003951D02*
X1270841Y1001534D01*
X1271266Y1001208D01*
X1272227Y1000810D01*
X1273258Y1000674D01*
X1274289Y1000810D01*
X1275250Y1001208D01*
X1275675Y1001534D01*
X1273258Y1003951D01*
D02*
G37*
G36*
X1228244Y998735D02*
X1226549Y998602D01*
X1224896Y998205D01*
X1223326Y997554D01*
X1221876Y996666D01*
X1220583Y995562D01*
X1219479Y994269D01*
X1218591Y992820D01*
X1217941Y991249D01*
X1217544Y989596D01*
X1217410Y987902D01*
X1217544Y986207D01*
X1217941Y984554D01*
X1218591Y982983D01*
X1219479Y981534D01*
X1220583Y980241D01*
X1221876Y979137D01*
X1223326Y978249D01*
X1224896Y977598D01*
X1226549Y977202D01*
X1228244Y977068D01*
X1229939Y977202D01*
X1231592Y977598D01*
X1233162Y978249D01*
X1234612Y979137D01*
X1235904Y980241D01*
X1237008Y981534D01*
X1237896Y982983D01*
X1238547Y984554D01*
X1238944Y986207D01*
X1239077Y987902D01*
X1238944Y989596D01*
X1238547Y991249D01*
X1237896Y992820D01*
X1237008Y994269D01*
X1235904Y995562D01*
X1234612Y996666D01*
X1233162Y997554D01*
X1231592Y998205D01*
X1229939Y998602D01*
X1228244Y998735D01*
D02*
G37*
G36*
X1276382Y1007075D02*
X1273965Y1004658D01*
X1276382Y1002241D01*
X1276708Y1002666D01*
X1277106Y1003627D01*
X1277242Y1004658D01*
X1277106Y1005689D01*
X1276708Y1006650D01*
X1276382Y1007075D01*
D02*
G37*
G36*
X1280329Y1015713D02*
X1279298Y1015577D01*
X1278337Y1015179D01*
X1277512Y1014546D01*
X1276879Y1013721D01*
X1276481Y1012760D01*
X1276345Y1011729D01*
X1276481Y1010698D01*
X1276879Y1009737D01*
X1277512Y1008912D01*
X1278337Y1008279D01*
X1279298Y1007881D01*
X1280329Y1007745D01*
X1281360Y1007881D01*
X1282321Y1008279D01*
X1283146Y1008912D01*
X1283779Y1009737D01*
X1284177Y1010698D01*
X1284313Y1011729D01*
X1284177Y1012760D01*
X1283779Y1013721D01*
X1283146Y1014546D01*
X1282321Y1015179D01*
X1281360Y1015577D01*
X1280329Y1015713D01*
D02*
G37*
G36*
X1266187D02*
X1265156Y1015577D01*
X1264195Y1015179D01*
X1263370Y1014546D01*
X1262737Y1013721D01*
X1262339Y1012760D01*
X1262203Y1011729D01*
X1262339Y1010698D01*
X1262737Y1009737D01*
X1263370Y1008912D01*
X1264195Y1008279D01*
X1265156Y1007881D01*
X1266187Y1007745D01*
X1267218Y1007881D01*
X1268179Y1008279D01*
X1269004Y1008912D01*
X1269637Y1009737D01*
X1270035Y1010698D01*
X1270170Y1011729D01*
X1270035Y1012760D01*
X1269637Y1013721D01*
X1269004Y1014546D01*
X1268179Y1015179D01*
X1267218Y1015577D01*
X1266187Y1015713D01*
D02*
G37*
G36*
X1273258Y1008642D02*
X1272227Y1008506D01*
X1271266Y1008108D01*
X1270841Y1007782D01*
X1273258Y1005365D01*
X1275675Y1007782D01*
X1275250Y1008108D01*
X1274289Y1008506D01*
X1273258Y1008642D01*
D02*
G37*
G36*
X1294471Y1029855D02*
X1293440Y1029719D01*
X1292479Y1029321D01*
X1292054Y1028995D01*
X1294471Y1026578D01*
X1296888Y1028995D01*
X1296463Y1029321D01*
X1295502Y1029719D01*
X1294471Y1029855D01*
D02*
G37*
G36*
X1130800Y1043128D02*
X1130629Y1043106D01*
X1130003Y1042846D01*
X1129466Y1042434D01*
X1129054Y1041897D01*
X1128794Y1041271D01*
X1128772Y1041100D01*
X1130800D01*
Y1043128D01*
D02*
G37*
G36*
X1133828Y1040100D02*
X1131800D01*
Y1038072D01*
X1131971Y1038095D01*
X1132597Y1038354D01*
X1133134Y1038766D01*
X1133546Y1039303D01*
X1133805Y1039929D01*
X1133828Y1040100D01*
D02*
G37*
G36*
X1130800D02*
X1128772D01*
X1128794Y1039929D01*
X1129054Y1039303D01*
X1129466Y1038766D01*
X1130003Y1038354D01*
X1130629Y1038095D01*
X1130800Y1038072D01*
Y1040100D01*
D02*
G37*
G36*
X1242400Y1044400D02*
X1239637D01*
X1239685Y1044038D01*
X1240017Y1043236D01*
X1240546Y1042546D01*
X1241236Y1042017D01*
X1242039Y1041685D01*
X1242400Y1041637D01*
Y1044400D01*
D02*
G37*
G36*
X1243400Y1048163D02*
Y1045400D01*
X1246163D01*
X1246115Y1045761D01*
X1245783Y1046564D01*
X1245254Y1047254D01*
X1244564Y1047783D01*
X1243762Y1048115D01*
X1243400Y1048163D01*
D02*
G37*
G36*
X1242400D02*
X1242039Y1048115D01*
X1241236Y1047783D01*
X1240546Y1047254D01*
X1240017Y1046564D01*
X1239685Y1045761D01*
X1239637Y1045400D01*
X1242400D01*
Y1048163D01*
D02*
G37*
G36*
X1246163Y1044400D02*
X1243400D01*
Y1041637D01*
X1243762Y1041685D01*
X1244564Y1042017D01*
X1245254Y1042546D01*
X1245783Y1043236D01*
X1246115Y1044038D01*
X1246163Y1044400D01*
D02*
G37*
G36*
X1200400Y1037563D02*
Y1034800D01*
X1203163D01*
X1203115Y1035161D01*
X1202783Y1035964D01*
X1202254Y1036654D01*
X1201564Y1037183D01*
X1200762Y1037515D01*
X1200400Y1037563D01*
D02*
G37*
G36*
X1199400Y1033800D02*
X1196637D01*
X1196685Y1033438D01*
X1197017Y1032636D01*
X1197546Y1031946D01*
X1198236Y1031417D01*
X1199039Y1031085D01*
X1199400Y1031037D01*
Y1033800D01*
D02*
G37*
G36*
X1287400Y1036926D02*
X1286369Y1036790D01*
X1285408Y1036392D01*
X1284583Y1035759D01*
X1283950Y1034934D01*
X1283552Y1033973D01*
X1283416Y1032942D01*
X1283552Y1031911D01*
X1283950Y1030950D01*
X1284583Y1030125D01*
X1285408Y1029492D01*
X1286369Y1029094D01*
X1287400Y1028959D01*
X1288431Y1029094D01*
X1289392Y1029492D01*
X1290217Y1030125D01*
X1290850Y1030950D01*
X1291248Y1031911D01*
X1291384Y1032942D01*
X1291248Y1033973D01*
X1290850Y1034934D01*
X1290217Y1035759D01*
X1289392Y1036392D01*
X1288431Y1036790D01*
X1287400Y1036926D01*
D02*
G37*
G36*
X1301542Y1038528D02*
X1295957Y1032942D01*
X1301542Y1027357D01*
X1307128Y1032942D01*
X1301542Y1038528D01*
D02*
G37*
G36*
X1203163Y1033800D02*
X1200400D01*
Y1031037D01*
X1200762Y1031085D01*
X1201564Y1031417D01*
X1202254Y1031946D01*
X1202783Y1032636D01*
X1203115Y1033438D01*
X1203163Y1033800D01*
D02*
G37*
G36*
X1199400Y1037563D02*
X1199039Y1037515D01*
X1198236Y1037183D01*
X1197546Y1036654D01*
X1197017Y1035964D01*
X1196685Y1035161D01*
X1196637Y1034800D01*
X1199400D01*
Y1037563D01*
D02*
G37*
G36*
X1134500Y1033628D02*
Y1031600D01*
X1136528D01*
X1136506Y1031771D01*
X1136246Y1032397D01*
X1135834Y1032934D01*
X1135297Y1033346D01*
X1134671Y1033605D01*
X1134500Y1033628D01*
D02*
G37*
G36*
X1133500D02*
X1133329Y1033605D01*
X1132703Y1033346D01*
X1132166Y1032934D01*
X1131754Y1032397D01*
X1131495Y1031771D01*
X1131472Y1031600D01*
X1133500D01*
Y1033628D01*
D02*
G37*
G36*
X1236700Y1149863D02*
X1236339Y1149815D01*
X1235536Y1149483D01*
X1234846Y1148954D01*
X1234317Y1148264D01*
X1233985Y1147462D01*
X1233937Y1147100D01*
X1236700D01*
Y1149863D01*
D02*
G37*
G36*
X1259700Y1154433D02*
X1258708Y1154302D01*
X1257784Y1153919D01*
X1256990Y1153310D01*
X1256381Y1152516D01*
X1255998Y1151592D01*
X1255867Y1150600D01*
X1255998Y1149608D01*
X1256381Y1148684D01*
X1256990Y1147890D01*
X1257784Y1147281D01*
X1258708Y1146898D01*
X1259700Y1146767D01*
X1260692Y1146898D01*
X1261616Y1147281D01*
X1262410Y1147890D01*
X1263019Y1148684D01*
X1263402Y1149608D01*
X1263533Y1150600D01*
X1263402Y1151592D01*
X1263019Y1152516D01*
X1262410Y1153310D01*
X1261616Y1153919D01*
X1260692Y1154302D01*
X1259700Y1154433D01*
D02*
G37*
G36*
X1233500Y1238345D02*
X1172500D01*
X1171603Y1238167D01*
X1170842Y1237658D01*
X1108342Y1175158D01*
X1107833Y1174397D01*
X1107655Y1173500D01*
Y1166490D01*
X1107290Y1166210D01*
X1106681Y1165416D01*
X1106298Y1164492D01*
X1106167Y1163500D01*
X1106298Y1162508D01*
X1106681Y1161584D01*
X1107290Y1160790D01*
X1108084Y1160181D01*
X1109008Y1159798D01*
X1110000Y1159667D01*
X1110992Y1159798D01*
X1111916Y1160181D01*
X1112710Y1160790D01*
X1113319Y1161584D01*
X1113702Y1162508D01*
X1113833Y1163500D01*
X1113702Y1164492D01*
X1113319Y1165416D01*
X1112710Y1166210D01*
X1112345Y1166490D01*
Y1172529D01*
X1173471Y1233655D01*
X1232529D01*
X1305342Y1160842D01*
X1306103Y1160333D01*
X1307000Y1160155D01*
X1307000Y1160155D01*
X1344829D01*
X1353740Y1151243D01*
X1353652Y1151031D01*
X1353516Y1150000D01*
X1353652Y1148969D01*
X1354050Y1148008D01*
X1354683Y1147183D01*
X1355508Y1146550D01*
X1356469Y1146152D01*
X1357500Y1146016D01*
X1358531Y1146152D01*
X1359492Y1146550D01*
X1360317Y1147183D01*
X1360950Y1148008D01*
X1361348Y1148969D01*
X1361484Y1150000D01*
X1361348Y1151031D01*
X1360950Y1151992D01*
X1360317Y1152817D01*
X1359492Y1153450D01*
X1358531Y1153848D01*
X1357653Y1153964D01*
X1347458Y1164158D01*
X1346697Y1164666D01*
X1345800Y1164845D01*
X1307971D01*
X1235158Y1237658D01*
X1234397Y1238167D01*
X1233500Y1238345D01*
D02*
G37*
G36*
X1250400Y1150063D02*
X1250039Y1150015D01*
X1249236Y1149683D01*
X1248546Y1149154D01*
X1248017Y1148464D01*
X1247685Y1147661D01*
X1247637Y1147300D01*
X1250400D01*
Y1150063D01*
D02*
G37*
G36*
X1129500Y1157267D02*
X1129008Y1157202D01*
X1128084Y1156819D01*
X1127290Y1156210D01*
X1126681Y1155416D01*
X1126298Y1154492D01*
X1126233Y1154000D01*
X1129500D01*
Y1157267D01*
D02*
G37*
G36*
Y1153000D02*
X1126233D01*
X1126298Y1152508D01*
X1126681Y1151584D01*
X1127290Y1150790D01*
X1128084Y1150181D01*
X1129008Y1149798D01*
X1129500Y1149733D01*
Y1153000D01*
D02*
G37*
G36*
X1251400Y1150063D02*
Y1147300D01*
X1254163D01*
X1254115Y1147661D01*
X1253783Y1148464D01*
X1253254Y1149154D01*
X1252564Y1149683D01*
X1251762Y1150015D01*
X1251400Y1150063D01*
D02*
G37*
G36*
X1347500Y1153984D02*
X1346469Y1153848D01*
X1345508Y1153450D01*
X1344683Y1152817D01*
X1344050Y1151992D01*
X1343652Y1151031D01*
X1343516Y1150000D01*
X1343652Y1148969D01*
X1344050Y1148008D01*
X1344683Y1147183D01*
X1345508Y1146550D01*
X1346469Y1146152D01*
X1347500Y1146016D01*
X1348531Y1146152D01*
X1349492Y1146550D01*
X1350317Y1147183D01*
X1350950Y1148008D01*
X1351348Y1148969D01*
X1351484Y1150000D01*
X1351348Y1151031D01*
X1350950Y1151992D01*
X1350317Y1152817D01*
X1349492Y1153450D01*
X1348531Y1153848D01*
X1347500Y1153984D01*
D02*
G37*
G36*
Y1143984D02*
X1346469Y1143848D01*
X1345508Y1143450D01*
X1344683Y1142817D01*
X1344050Y1141992D01*
X1343652Y1141031D01*
X1343516Y1140000D01*
X1343652Y1138969D01*
X1344050Y1138008D01*
X1344683Y1137183D01*
X1345508Y1136550D01*
X1346469Y1136152D01*
X1347500Y1136016D01*
X1348531Y1136152D01*
X1349492Y1136550D01*
X1350317Y1137183D01*
X1350950Y1138008D01*
X1351348Y1138969D01*
X1351484Y1140000D01*
X1351348Y1141031D01*
X1350950Y1141992D01*
X1350317Y1142817D01*
X1349492Y1143450D01*
X1348531Y1143848D01*
X1347500Y1143984D01*
D02*
G37*
G36*
X1150400Y1134763D02*
Y1132000D01*
X1153163D01*
X1153115Y1132362D01*
X1152783Y1133164D01*
X1152254Y1133854D01*
X1151564Y1134383D01*
X1150762Y1134715D01*
X1150400Y1134763D01*
D02*
G37*
G36*
X1149400D02*
X1149039Y1134715D01*
X1148236Y1134383D01*
X1147546Y1133854D01*
X1147017Y1133164D01*
X1146685Y1132362D01*
X1146637Y1132000D01*
X1149400D01*
Y1134763D01*
D02*
G37*
G36*
X1357500Y1143984D02*
X1356469Y1143848D01*
X1355508Y1143450D01*
X1354683Y1142817D01*
X1354050Y1141992D01*
X1353652Y1141031D01*
X1353516Y1140000D01*
X1353652Y1138969D01*
X1354050Y1138008D01*
X1354683Y1137183D01*
X1355508Y1136550D01*
X1356469Y1136152D01*
X1357500Y1136016D01*
X1358531Y1136152D01*
X1359492Y1136550D01*
X1360317Y1137183D01*
X1360950Y1138008D01*
X1361348Y1138969D01*
X1361484Y1140000D01*
X1361348Y1141031D01*
X1360950Y1141992D01*
X1360317Y1142817D01*
X1359492Y1143450D01*
X1358531Y1143848D01*
X1357500Y1143984D01*
D02*
G37*
G36*
X1254163Y1146300D02*
X1251400D01*
Y1143537D01*
X1251762Y1143585D01*
X1252564Y1143917D01*
X1253254Y1144446D01*
X1253783Y1145136D01*
X1254115Y1145938D01*
X1254163Y1146300D01*
D02*
G37*
G36*
X1250400D02*
X1247637D01*
X1247685Y1145938D01*
X1248017Y1145136D01*
X1248546Y1144446D01*
X1249236Y1143917D01*
X1250039Y1143585D01*
X1250400Y1143537D01*
Y1146300D01*
D02*
G37*
G36*
X1236700Y1146100D02*
X1233937D01*
X1233985Y1145739D01*
X1234317Y1144936D01*
X1234846Y1144246D01*
X1235536Y1143717D01*
X1236339Y1143385D01*
X1236700Y1143337D01*
Y1146100D01*
D02*
G37*
G36*
X1191200Y1225200D02*
X1188437D01*
X1188485Y1224839D01*
X1188817Y1224036D01*
X1189346Y1223346D01*
X1190036Y1222817D01*
X1190839Y1222485D01*
X1191200Y1222437D01*
Y1225200D01*
D02*
G37*
G36*
X1138834Y1215837D02*
X1137842Y1215706D01*
X1136917Y1215323D01*
X1136123Y1214714D01*
X1135514Y1213920D01*
X1135131Y1212996D01*
X1135001Y1212004D01*
X1135131Y1211012D01*
X1135514Y1210087D01*
X1136123Y1209294D01*
X1136917Y1208685D01*
X1137842Y1208302D01*
X1138834Y1208171D01*
X1139825Y1208302D01*
X1140750Y1208685D01*
X1141544Y1209294D01*
X1142153Y1210087D01*
X1142536Y1211012D01*
X1142666Y1212004D01*
X1142536Y1212996D01*
X1142153Y1213920D01*
X1141544Y1214714D01*
X1140750Y1215323D01*
X1139825Y1215706D01*
X1138834Y1215837D01*
D02*
G37*
G36*
X1186800Y1207563D02*
Y1204800D01*
X1189563D01*
X1189515Y1205161D01*
X1189183Y1205964D01*
X1188654Y1206654D01*
X1187964Y1207183D01*
X1187162Y1207515D01*
X1186800Y1207563D01*
D02*
G37*
G36*
X1194963Y1225200D02*
X1192200D01*
Y1222437D01*
X1192562Y1222485D01*
X1193364Y1222817D01*
X1194054Y1223346D01*
X1194583Y1224036D01*
X1194915Y1224839D01*
X1194963Y1225200D01*
D02*
G37*
G36*
X1212200Y1267233D02*
X1211208Y1267102D01*
X1210284Y1266719D01*
X1209490Y1266110D01*
X1208881Y1265316D01*
X1208498Y1264392D01*
X1208367Y1263400D01*
X1208498Y1262408D01*
X1208881Y1261484D01*
X1209490Y1260690D01*
X1210284Y1260081D01*
X1211208Y1259698D01*
X1212200Y1259567D01*
X1213192Y1259698D01*
X1214116Y1260081D01*
X1214910Y1260690D01*
X1215519Y1261484D01*
X1215902Y1262408D01*
X1216033Y1263400D01*
X1215902Y1264392D01*
X1215519Y1265316D01*
X1214910Y1266110D01*
X1214116Y1266719D01*
X1213192Y1267102D01*
X1212200Y1267233D01*
D02*
G37*
G36*
X1192200Y1228963D02*
Y1226200D01*
X1194963D01*
X1194915Y1226562D01*
X1194583Y1227364D01*
X1194054Y1228054D01*
X1193364Y1228583D01*
X1192562Y1228915D01*
X1192200Y1228963D01*
D02*
G37*
G36*
X1191200D02*
X1190839Y1228915D01*
X1190036Y1228583D01*
X1189346Y1228054D01*
X1188817Y1227364D01*
X1188485Y1226562D01*
X1188437Y1226200D01*
X1191200D01*
Y1228963D01*
D02*
G37*
G36*
X1185800Y1207563D02*
X1185439Y1207515D01*
X1184636Y1207183D01*
X1183946Y1206654D01*
X1183417Y1205964D01*
X1183085Y1205161D01*
X1183037Y1204800D01*
X1185800D01*
Y1207563D01*
D02*
G37*
G36*
X1142763Y1191200D02*
X1140000D01*
Y1188437D01*
X1140361Y1188485D01*
X1141164Y1188817D01*
X1141854Y1189346D01*
X1142383Y1190036D01*
X1142715Y1190839D01*
X1142763Y1191200D01*
D02*
G37*
G36*
X1139000D02*
X1136237D01*
X1136285Y1190839D01*
X1136617Y1190036D01*
X1137146Y1189346D01*
X1137836Y1188817D01*
X1138638Y1188485D01*
X1139000Y1188437D01*
Y1191200D01*
D02*
G37*
G36*
X1100000Y1167333D02*
X1099008Y1167202D01*
X1098084Y1166819D01*
X1097290Y1166210D01*
X1096681Y1165416D01*
X1096298Y1164492D01*
X1096167Y1163500D01*
X1096298Y1162508D01*
X1096681Y1161584D01*
X1097290Y1160790D01*
X1098084Y1160181D01*
X1099008Y1159798D01*
X1100000Y1159667D01*
X1100992Y1159798D01*
X1101916Y1160181D01*
X1102710Y1160790D01*
X1103319Y1161584D01*
X1103702Y1162508D01*
X1103833Y1163500D01*
X1103702Y1164492D01*
X1103319Y1165416D01*
X1102710Y1166210D01*
X1101916Y1166819D01*
X1100992Y1167202D01*
X1100000Y1167333D01*
D02*
G37*
G36*
X1139000Y1194963D02*
X1138638Y1194915D01*
X1137836Y1194583D01*
X1137146Y1194054D01*
X1136617Y1193364D01*
X1136285Y1192562D01*
X1136237Y1192200D01*
X1139000D01*
Y1194963D01*
D02*
G37*
G36*
X1189563Y1203800D02*
X1186800D01*
Y1201037D01*
X1187162Y1201085D01*
X1187964Y1201417D01*
X1188654Y1201946D01*
X1189183Y1202636D01*
X1189515Y1203438D01*
X1189563Y1203800D01*
D02*
G37*
G36*
X1185800D02*
X1183037D01*
X1183085Y1203438D01*
X1183417Y1202636D01*
X1183946Y1201946D01*
X1184636Y1201417D01*
X1185439Y1201085D01*
X1185800Y1201037D01*
Y1203800D01*
D02*
G37*
G36*
X1140000Y1194963D02*
Y1192200D01*
X1142763D01*
X1142715Y1192562D01*
X1142383Y1193364D01*
X1141854Y1194054D01*
X1141164Y1194583D01*
X1140361Y1194915D01*
X1140000Y1194963D01*
D02*
G37*
G36*
X1173600Y1141429D02*
X1172424Y1141313D01*
X1171293Y1140970D01*
X1170250Y1140413D01*
X1169337Y1139663D01*
X1168587Y1138750D01*
X1168030Y1137707D01*
X1167687Y1136576D01*
X1167571Y1135400D01*
X1167687Y1134224D01*
X1168030Y1133093D01*
X1168587Y1132050D01*
X1169337Y1131137D01*
X1170250Y1130387D01*
X1171293Y1129830D01*
X1172424Y1129487D01*
X1173600Y1129371D01*
X1174776Y1129487D01*
X1175907Y1129830D01*
X1176950Y1130387D01*
X1177863Y1131137D01*
X1178613Y1132050D01*
X1179170Y1133093D01*
X1179513Y1134224D01*
X1179629Y1135400D01*
X1179513Y1136576D01*
X1179170Y1137707D01*
X1178613Y1138750D01*
X1177863Y1139663D01*
X1176950Y1140413D01*
X1175907Y1140970D01*
X1174776Y1141313D01*
X1173600Y1141429D01*
D02*
G37*
G36*
X1137028Y1113000D02*
X1135000D01*
Y1110972D01*
X1135171Y1110995D01*
X1135797Y1111254D01*
X1136334Y1111666D01*
X1136746Y1112203D01*
X1137006Y1112829D01*
X1137028Y1113000D01*
D02*
G37*
G36*
X1134000D02*
X1131972D01*
X1131995Y1112829D01*
X1132254Y1112203D01*
X1132666Y1111666D01*
X1133203Y1111254D01*
X1133829Y1110995D01*
X1134000Y1110972D01*
Y1113000D01*
D02*
G37*
G36*
X1235600Y1109363D02*
Y1106600D01*
X1238363D01*
X1238315Y1106962D01*
X1237983Y1107764D01*
X1237454Y1108454D01*
X1236764Y1108983D01*
X1235962Y1109315D01*
X1235600Y1109363D01*
D02*
G37*
G36*
X1097300Y1114800D02*
X1095272D01*
X1095294Y1114629D01*
X1095554Y1114003D01*
X1095966Y1113466D01*
X1096503Y1113054D01*
X1097129Y1112794D01*
X1097300Y1112772D01*
Y1114800D01*
D02*
G37*
G36*
X1135000Y1116028D02*
Y1114000D01*
X1137028D01*
X1137006Y1114171D01*
X1136746Y1114797D01*
X1136334Y1115334D01*
X1135797Y1115746D01*
X1135171Y1116006D01*
X1135000Y1116028D01*
D02*
G37*
G36*
X1134000D02*
X1133829Y1116006D01*
X1133203Y1115746D01*
X1132666Y1115334D01*
X1132254Y1114797D01*
X1131995Y1114171D01*
X1131972Y1114000D01*
X1134000D01*
Y1116028D01*
D02*
G37*
G36*
X1100328Y1114800D02*
X1098300D01*
Y1112772D01*
X1098471Y1112794D01*
X1099097Y1113054D01*
X1099634Y1113466D01*
X1100046Y1114003D01*
X1100305Y1114629D01*
X1100328Y1114800D01*
D02*
G37*
G36*
X1234600Y1109363D02*
X1234239Y1109315D01*
X1233436Y1108983D01*
X1232746Y1108454D01*
X1232217Y1107764D01*
X1231885Y1106962D01*
X1231837Y1106600D01*
X1234600D01*
Y1109363D01*
D02*
G37*
G36*
X1144536Y1093728D02*
Y1091700D01*
X1146564D01*
X1146542Y1091871D01*
X1146283Y1092497D01*
X1145870Y1093034D01*
X1145333Y1093446D01*
X1144708Y1093705D01*
X1144536Y1093728D01*
D02*
G37*
G36*
X1143536D02*
X1143365Y1093705D01*
X1142739Y1093446D01*
X1142202Y1093034D01*
X1141790Y1092497D01*
X1141531Y1091871D01*
X1141508Y1091700D01*
X1143536D01*
Y1093728D01*
D02*
G37*
G36*
X1146564Y1090700D02*
X1144536D01*
Y1088672D01*
X1144708Y1088694D01*
X1145333Y1088954D01*
X1145870Y1089366D01*
X1146283Y1089903D01*
X1146542Y1090529D01*
X1146564Y1090700D01*
D02*
G37*
G36*
X1357500Y1113984D02*
X1356469Y1113848D01*
X1355508Y1113450D01*
X1354683Y1112817D01*
X1354050Y1111992D01*
X1353652Y1111031D01*
X1353516Y1110000D01*
X1353652Y1108969D01*
X1354050Y1108008D01*
X1354683Y1107183D01*
X1354769Y1107117D01*
X1354802Y1106618D01*
X1348529Y1100345D01*
X1288490D01*
X1288210Y1100710D01*
X1287416Y1101319D01*
X1286492Y1101702D01*
X1285500Y1101833D01*
X1284508Y1101702D01*
X1283584Y1101319D01*
X1282790Y1100710D01*
X1282181Y1099916D01*
X1281798Y1098992D01*
X1281667Y1098000D01*
X1281798Y1097008D01*
X1282181Y1096084D01*
X1282790Y1095290D01*
X1283584Y1094681D01*
X1284508Y1094298D01*
X1285500Y1094167D01*
X1286492Y1094298D01*
X1287416Y1094681D01*
X1288210Y1095290D01*
X1288490Y1095655D01*
X1349500D01*
X1350397Y1095833D01*
X1351158Y1096342D01*
X1359158Y1104342D01*
X1359667Y1105103D01*
X1359845Y1106000D01*
X1359845Y1106000D01*
X1359845Y1106000D01*
Y1106000D01*
Y1106821D01*
X1360317Y1107183D01*
X1360950Y1108008D01*
X1361348Y1108969D01*
X1361484Y1110000D01*
X1361348Y1111031D01*
X1360950Y1111992D01*
X1360317Y1112817D01*
X1359492Y1113450D01*
X1358531Y1113848D01*
X1357500Y1113984D01*
D02*
G37*
G36*
X1351450Y1113950D02*
X1343550D01*
Y1106050D01*
X1351450D01*
Y1113950D01*
D02*
G37*
G36*
X1238363Y1105600D02*
X1235600D01*
Y1102837D01*
X1235962Y1102885D01*
X1236764Y1103217D01*
X1237454Y1103746D01*
X1237983Y1104436D01*
X1238315Y1105239D01*
X1238363Y1105600D01*
D02*
G37*
G36*
X1234600D02*
X1231837D01*
X1231885Y1105239D01*
X1232217Y1104436D01*
X1232746Y1103746D01*
X1233436Y1103217D01*
X1234239Y1102885D01*
X1234600Y1102837D01*
Y1105600D01*
D02*
G37*
G36*
X1208600Y1128763D02*
X1208239Y1128715D01*
X1207436Y1128383D01*
X1206746Y1127854D01*
X1206217Y1127164D01*
X1205885Y1126361D01*
X1205837Y1126000D01*
X1208600D01*
Y1128763D01*
D02*
G37*
G36*
X1166300Y1126463D02*
Y1123700D01*
X1169063D01*
X1169015Y1124061D01*
X1168683Y1124864D01*
X1168154Y1125554D01*
X1167464Y1126083D01*
X1166661Y1126415D01*
X1166300Y1126463D01*
D02*
G37*
G36*
X1165300D02*
X1164939Y1126415D01*
X1164136Y1126083D01*
X1163446Y1125554D01*
X1162917Y1124864D01*
X1162585Y1124061D01*
X1162537Y1123700D01*
X1165300D01*
Y1126463D01*
D02*
G37*
G36*
X1209600Y1128763D02*
Y1126000D01*
X1212363D01*
X1212315Y1126361D01*
X1211983Y1127164D01*
X1211454Y1127854D01*
X1210764Y1128383D01*
X1209962Y1128715D01*
X1209600Y1128763D01*
D02*
G37*
G36*
X1153163Y1131000D02*
X1150400D01*
Y1128237D01*
X1150762Y1128285D01*
X1151564Y1128617D01*
X1152254Y1129146D01*
X1152783Y1129836D01*
X1153115Y1130639D01*
X1153163Y1131000D01*
D02*
G37*
G36*
X1149400D02*
X1146637D01*
X1146685Y1130639D01*
X1147017Y1129836D01*
X1147546Y1129146D01*
X1148236Y1128617D01*
X1149039Y1128285D01*
X1149400Y1128237D01*
Y1131000D01*
D02*
G37*
G36*
X1357500Y1133984D02*
X1356469Y1133848D01*
X1355508Y1133450D01*
X1354683Y1132817D01*
X1354050Y1131992D01*
X1353652Y1131031D01*
X1353516Y1130000D01*
X1353652Y1128969D01*
X1354050Y1128008D01*
X1354683Y1127183D01*
X1355508Y1126550D01*
X1356469Y1126152D01*
X1357500Y1126016D01*
X1358531Y1126152D01*
X1359492Y1126550D01*
X1360317Y1127183D01*
X1360950Y1128008D01*
X1361348Y1128969D01*
X1361484Y1130000D01*
X1361348Y1131031D01*
X1360950Y1131992D01*
X1360317Y1132817D01*
X1359492Y1133450D01*
X1358531Y1133848D01*
X1357500Y1133984D01*
D02*
G37*
G36*
X1206200Y1250983D02*
X1205338Y1250870D01*
X1204536Y1250537D01*
X1203846Y1250008D01*
X1203414Y1249445D01*
X1152100D01*
X1151203Y1249267D01*
X1150442Y1248758D01*
X1111297Y1209614D01*
X1110418Y1210153D01*
X1108848Y1210803D01*
X1107195Y1211200D01*
X1105500Y1211333D01*
X1103805Y1211200D01*
X1102152Y1210803D01*
X1100582Y1210153D01*
X1099132Y1209264D01*
X1097840Y1208160D01*
X1096736Y1206868D01*
X1095847Y1205418D01*
X1095197Y1203848D01*
X1094800Y1202195D01*
X1094667Y1200500D01*
X1094800Y1198805D01*
X1095197Y1197152D01*
X1095847Y1195582D01*
X1096386Y1194703D01*
X1090042Y1188358D01*
X1089534Y1187597D01*
X1089355Y1186700D01*
Y1157400D01*
X1089534Y1156503D01*
X1090042Y1155742D01*
X1093942Y1151842D01*
X1094703Y1151334D01*
X1095600Y1151155D01*
X1097010D01*
X1097290Y1150790D01*
X1098084Y1150181D01*
X1099008Y1149798D01*
X1100000Y1149667D01*
X1100992Y1149798D01*
X1101916Y1150181D01*
X1102710Y1150790D01*
X1103319Y1151584D01*
X1103702Y1152508D01*
X1103833Y1153500D01*
X1103702Y1154492D01*
X1103319Y1155416D01*
X1102710Y1156210D01*
X1101916Y1156819D01*
X1100992Y1157202D01*
X1100000Y1157333D01*
X1099008Y1157202D01*
X1098084Y1156819D01*
X1097290Y1156210D01*
X1097050Y1155898D01*
X1096551Y1155865D01*
X1094045Y1158371D01*
Y1185729D01*
X1099703Y1191386D01*
X1100582Y1190847D01*
X1102152Y1190197D01*
X1103805Y1189800D01*
X1105500Y1189667D01*
X1107195Y1189800D01*
X1108848Y1190197D01*
X1110418Y1190847D01*
X1111868Y1191736D01*
X1113160Y1192840D01*
X1114264Y1194132D01*
X1115153Y1195582D01*
X1115803Y1197152D01*
X1116200Y1198805D01*
X1116333Y1200500D01*
X1116200Y1202195D01*
X1115803Y1203848D01*
X1115153Y1205418D01*
X1114614Y1206297D01*
X1153071Y1244755D01*
X1204577D01*
X1205338Y1244440D01*
X1206200Y1244326D01*
X1207061Y1244440D01*
X1207823Y1244755D01*
X1220233D01*
X1220546Y1244346D01*
X1221236Y1243817D01*
X1222038Y1243485D01*
X1222900Y1243371D01*
X1223761Y1243485D01*
X1224564Y1243817D01*
X1225254Y1244346D01*
X1225567Y1244755D01*
X1303416D01*
X1341874Y1206297D01*
X1341335Y1205418D01*
X1340684Y1203848D01*
X1340288Y1202195D01*
X1340154Y1200500D01*
X1340288Y1198805D01*
X1340684Y1197152D01*
X1341335Y1195582D01*
X1342223Y1194132D01*
X1343327Y1192840D01*
X1344620Y1191736D01*
X1346069Y1190847D01*
X1347640Y1190197D01*
X1349293Y1189800D01*
X1350988Y1189667D01*
X1352682Y1189800D01*
X1354335Y1190197D01*
X1355906Y1190847D01*
X1356785Y1191386D01*
X1363555Y1184616D01*
Y1125971D01*
X1360395Y1122812D01*
X1360317Y1122817D01*
X1359492Y1123450D01*
X1358531Y1123848D01*
X1357500Y1123984D01*
X1356910Y1123906D01*
X1351406Y1129410D01*
X1351484Y1130000D01*
X1351348Y1131031D01*
X1350950Y1131992D01*
X1350317Y1132817D01*
X1349492Y1133450D01*
X1348531Y1133848D01*
X1347500Y1133984D01*
X1346469Y1133848D01*
X1345508Y1133450D01*
X1344683Y1132817D01*
X1344050Y1131992D01*
X1343652Y1131031D01*
X1343516Y1130000D01*
X1343652Y1128969D01*
X1344050Y1128008D01*
X1344683Y1127183D01*
X1345508Y1126550D01*
X1346469Y1126152D01*
X1347500Y1126016D01*
X1348090Y1126094D01*
X1353594Y1120590D01*
X1353516Y1120000D01*
X1353652Y1118969D01*
X1354050Y1118008D01*
X1354683Y1117183D01*
X1355508Y1116550D01*
X1356469Y1116152D01*
X1357500Y1116016D01*
X1358531Y1116152D01*
X1359492Y1116550D01*
X1360317Y1117183D01*
X1360679Y1117655D01*
X1360900D01*
X1361797Y1117834D01*
X1362558Y1118342D01*
X1362558Y1118342D01*
X1362558Y1118342D01*
X1367558Y1123342D01*
X1368067Y1124103D01*
X1368245Y1125000D01*
Y1185588D01*
X1368067Y1186485D01*
X1367558Y1187246D01*
X1360102Y1194703D01*
X1360640Y1195582D01*
X1361291Y1197152D01*
X1361688Y1198805D01*
X1361821Y1200500D01*
X1361688Y1202195D01*
X1361291Y1203848D01*
X1360640Y1205418D01*
X1359752Y1206868D01*
X1358648Y1208160D01*
X1357355Y1209264D01*
X1355906Y1210153D01*
X1354335Y1210803D01*
X1352682Y1211200D01*
X1350988Y1211333D01*
X1349293Y1211200D01*
X1347640Y1210803D01*
X1346069Y1210153D01*
X1345190Y1209614D01*
X1306046Y1248758D01*
X1305285Y1249267D01*
X1304388Y1249445D01*
X1224743D01*
X1224564Y1249583D01*
X1223761Y1249915D01*
X1222900Y1250029D01*
X1222038Y1249915D01*
X1221236Y1249583D01*
X1221057Y1249445D01*
X1208986D01*
X1208554Y1250008D01*
X1207864Y1250537D01*
X1207061Y1250870D01*
X1206200Y1250983D01*
D02*
G37*
G36*
X1347500Y1123984D02*
X1346469Y1123848D01*
X1345508Y1123450D01*
X1344683Y1122817D01*
X1344050Y1121992D01*
X1343652Y1121031D01*
X1343516Y1120000D01*
X1343652Y1118969D01*
X1344050Y1118008D01*
X1344683Y1117183D01*
X1345508Y1116550D01*
X1346469Y1116152D01*
X1347500Y1116016D01*
X1348531Y1116152D01*
X1349492Y1116550D01*
X1350317Y1117183D01*
X1350950Y1118008D01*
X1351348Y1118969D01*
X1351484Y1120000D01*
X1351348Y1121031D01*
X1350950Y1121992D01*
X1350317Y1122817D01*
X1349492Y1123450D01*
X1348531Y1123848D01*
X1347500Y1123984D01*
D02*
G37*
G36*
X1098300Y1117828D02*
Y1115800D01*
X1100328D01*
X1100305Y1115971D01*
X1100046Y1116597D01*
X1099634Y1117134D01*
X1099097Y1117546D01*
X1098471Y1117805D01*
X1098300Y1117828D01*
D02*
G37*
G36*
X1097300D02*
X1097129Y1117805D01*
X1096503Y1117546D01*
X1095966Y1117134D01*
X1095554Y1116597D01*
X1095294Y1115971D01*
X1095272Y1115800D01*
X1097300D01*
Y1117828D01*
D02*
G37*
G36*
X1165300Y1122700D02*
X1162537D01*
X1162585Y1122338D01*
X1162917Y1121536D01*
X1163446Y1120846D01*
X1164136Y1120317D01*
X1164939Y1119985D01*
X1165300Y1119937D01*
Y1122700D01*
D02*
G37*
G36*
X1212363Y1125000D02*
X1209600D01*
Y1122237D01*
X1209962Y1122285D01*
X1210764Y1122617D01*
X1211454Y1123146D01*
X1211983Y1123836D01*
X1212315Y1124638D01*
X1212363Y1125000D01*
D02*
G37*
G36*
X1208600D02*
X1205837D01*
X1205885Y1124638D01*
X1206217Y1123836D01*
X1206746Y1123146D01*
X1207436Y1122617D01*
X1208239Y1122285D01*
X1208600Y1122237D01*
Y1125000D01*
D02*
G37*
G36*
X1169063Y1122700D02*
X1166300D01*
Y1119937D01*
X1166661Y1119985D01*
X1167464Y1120317D01*
X1168154Y1120846D01*
X1168683Y1121536D01*
X1169015Y1122338D01*
X1169063Y1122700D01*
D02*
G37*
%LPD*%
D27*
X1115460Y1082100D02*
Y1082140D01*
X1115000Y1082100D02*
X1115460D01*
X1108400Y1089140D02*
Y1101000D01*
Y1089140D02*
X1110770Y1086770D01*
X1106100Y1082100D02*
X1110770Y1086770D01*
X1115400Y1082140D01*
X1114000Y1057500D02*
X1114750Y1056750D01*
X1132000Y1027000D02*
X1141500D01*
X1112500Y1046500D02*
X1132000Y1027000D01*
X1112500Y1046500D02*
Y1054500D01*
X1145000Y1072500D02*
Y1079600D01*
X1171071Y1025571D02*
Y1032429D01*
X1167900Y1100200D02*
X1242900D01*
X1167900D02*
Y1101200D01*
X1139500Y1085100D02*
Y1096400D01*
Y1085100D02*
X1145000Y1079600D01*
X1150500Y1086500D02*
X1152000Y1085000D01*
X1150000Y1109600D02*
X1151826Y1107775D01*
X1148100Y1109600D02*
X1150000D01*
X1147500Y1109000D02*
X1148100Y1109600D01*
X1151826Y1087825D02*
Y1107775D01*
X1150500Y1086500D02*
X1151826Y1087825D01*
X1118250Y1108545D02*
X1119400Y1108200D01*
X1146803Y1112203D02*
X1162600Y1128000D01*
Y1147900D01*
X1136300Y1103100D02*
Y1103475D01*
X1131200Y1108200D02*
X1136300Y1103100D01*
X1137050Y1102350D01*
X1145029Y1112203D02*
X1146803D01*
X1136300Y1103475D02*
X1145029Y1112203D01*
X1113500Y1106400D02*
X1122000Y1097900D01*
Y1070600D02*
Y1097900D01*
Y1070600D02*
X1133900Y1058700D01*
X1212800Y1058500D02*
X1216800Y1054500D01*
X1216900D01*
X1169500Y1058500D02*
X1212800D01*
X1208300Y1055000D02*
X1210000Y1053300D01*
X1162500Y1055000D02*
X1208300D01*
X1139000Y1072200D02*
Y1074800D01*
X1172300Y1040200D02*
X1175400Y1043300D01*
X1167800Y1088500D02*
X1191000D01*
X1167800Y1088200D02*
Y1088500D01*
X1165750Y1024250D02*
X1167800Y1022200D01*
X1115000Y1147900D02*
Y1158500D01*
X1134000Y1099300D02*
X1137050Y1102350D01*
X1119400Y1108200D02*
X1131200D01*
X1114600Y1082500D02*
X1115000Y1082100D01*
X1114600Y1082500D02*
Y1082900D01*
X1145000Y1072500D02*
X1162500Y1055000D01*
X1257200Y1065300D02*
X1265500Y1057000D01*
X1233500Y1076700D02*
X1245700Y1088900D01*
X1233500Y1063000D02*
Y1076700D01*
X1167800Y1088200D02*
X1168500D01*
X1134000Y1098000D02*
Y1099300D01*
X1157000Y1071000D02*
X1169500Y1058500D01*
X1191000Y1088500D02*
X1219250Y1060250D01*
X1165750Y1024250D02*
X1168000Y1026500D01*
X1165000Y1023500D02*
X1165750Y1024250D01*
X1168000Y1026500D02*
Y1032500D01*
X1166000Y1034500D02*
X1168000Y1032500D01*
X1166000Y1034500D02*
Y1042500D01*
X1112500Y1054500D02*
X1114750Y1056750D01*
X1114000Y1057500D02*
X1115000D01*
X1168000Y1035500D02*
X1171071Y1032429D01*
X1178500Y1039500D02*
X1217000D01*
X1145000Y1146500D02*
Y1158500D01*
X1130500Y1132000D02*
X1145000Y1146500D01*
X1135000Y1146000D02*
Y1158500D01*
X1129000Y1140000D02*
X1135000Y1146000D01*
X1378000Y1104500D02*
Y1110500D01*
X1327500Y1054000D02*
X1378000Y1104500D01*
X1263000Y1054000D02*
X1327500D01*
X1254000Y1063000D02*
X1263000Y1054000D01*
X1265500Y1057000D02*
X1320000D01*
X1366000Y1103000D01*
X1140000Y1163500D02*
X1145000Y1158500D01*
X1150000Y1163500D02*
X1155000Y1158500D01*
X1217000Y1039500D02*
X1239500Y1062000D01*
Y1073500D01*
X1248500Y1082500D01*
X1115000Y1158500D02*
X1120000Y1163500D01*
X1124500Y1167000D02*
X1133500Y1176000D01*
X1124500Y1158000D02*
Y1167000D01*
X1120000Y1153500D02*
X1124500Y1158000D01*
X1130000Y1163500D02*
X1135000Y1158500D01*
X1128800Y1086700D02*
X1134400Y1092300D01*
X1132400Y1077200D02*
X1132550Y1077350D01*
Y1078150D01*
X1164000Y1031000D02*
Y1041700D01*
X1136700Y1061900D02*
X1139000Y1059600D01*
X1134700Y1061900D02*
X1136700D01*
X1127500Y1069100D02*
X1134700Y1061900D01*
X1127500Y1069100D02*
Y1070500D01*
X1160000Y1163500D02*
X1166200Y1157300D01*
Y1151500D02*
Y1157300D01*
X1162600Y1147900D02*
X1166200Y1151500D01*
X1134100Y1042600D02*
X1138000D01*
X1125700Y1075300D02*
X1127600D01*
X1133000Y1069900D01*
Y1068200D02*
Y1069900D01*
Y1068200D02*
X1136100Y1065100D01*
X1128800Y1076900D02*
X1164000Y1041700D01*
X1128800Y1076900D02*
Y1086700D01*
X1115400Y1082140D02*
X1115460D01*
X1372100Y1149100D02*
X1373000Y1150000D01*
X1372100Y1108300D02*
Y1149100D01*
X1366800Y1103000D02*
X1372100Y1108300D01*
X1366000Y1103000D02*
X1366800D01*
X1171071Y1025571D02*
X1171700Y1026200D01*
X1141500Y1027000D02*
X1156000Y1041500D01*
X1159000D01*
X1171700Y1026200D02*
X1262700D01*
X1276513Y1040013D01*
X1294471D01*
X1167800Y1022200D02*
X1269858D01*
X1273258Y1018800D01*
X1175400Y1043300D02*
X1213800D01*
X1233500Y1063000D01*
X1254000D02*
Y1086300D01*
X1257200Y1065300D02*
Y1085900D01*
X1242900Y1100200D02*
X1257200Y1085900D01*
X1162500Y1100100D02*
Y1101000D01*
X1152000Y1085000D02*
X1160500Y1093500D01*
X1195000D01*
X1224000Y1064500D01*
X1162500Y1100100D02*
X1165000Y1097600D01*
X1242700D01*
X1254000Y1086300D01*
X1175000Y1036000D02*
X1178500Y1039500D01*
X1132400Y1076100D02*
X1166000Y1042500D01*
X1132400Y1076100D02*
Y1077200D01*
X1139000Y1072200D02*
X1168000Y1043200D01*
Y1035500D02*
Y1043200D01*
X1135000Y1046500D02*
Y1053600D01*
X1139000Y1057600D01*
Y1059600D01*
X1131600Y1045100D02*
X1134100Y1042600D01*
X1131600Y1045100D02*
Y1057200D01*
X1120100Y1068700D02*
X1131600Y1057200D01*
X1160000Y1130375D02*
Y1153500D01*
X1145386Y1115761D02*
X1160000Y1130375D01*
X1111400Y1144300D02*
X1115000Y1147900D01*
X1106100Y1065700D02*
Y1082100D01*
X1155000Y1151300D02*
Y1158500D01*
X1113500Y1109800D02*
X1155000Y1151300D01*
X1117400Y1108800D02*
X1117800Y1108400D01*
Y1108300D02*
Y1108400D01*
X1117400Y1108800D02*
X1117905Y1108649D01*
X1117800Y1108300D02*
X1118081Y1108019D01*
Y1107981D02*
Y1108019D01*
X1117905Y1108649D02*
X1118250Y1108545D01*
X1111400Y1105400D02*
Y1144300D01*
Y1105400D02*
X1120100Y1096700D01*
Y1068700D02*
Y1096700D01*
X1113500Y1106400D02*
Y1109800D01*
D28*
X1215500Y1163500D02*
Y1208000D01*
X1155500Y1103500D02*
X1215500Y1163500D01*
X1263500Y1065000D02*
Y1086000D01*
X1242500Y1107000D02*
X1263500Y1086000D01*
X1242500Y1107000D02*
Y1207000D01*
X1110000Y1163500D02*
Y1173500D01*
X1172500Y1236000D01*
X1233500D01*
X1307000Y1162500D01*
X1216000Y1221000D02*
X1228500D01*
X1171000Y1176000D02*
X1216000Y1221000D01*
X1133500Y1176000D02*
X1171000D01*
X1215500Y1208000D02*
X1228500Y1221000D01*
X1242500Y1207000D01*
X1284500Y1107000D02*
X1285500Y1108000D01*
X1250000Y1107000D02*
X1284500D01*
X1227000Y1119500D02*
X1228500Y1121000D01*
Y1221000D01*
X1357500Y1106000D02*
Y1110000D01*
X1349500Y1098000D02*
X1357500Y1106000D01*
X1285500Y1098000D02*
X1349500D01*
X1307000Y1162500D02*
X1345800D01*
X1357500Y1150800D01*
Y1150000D02*
Y1150800D01*
X1347500Y1130000D02*
X1357500Y1120000D01*
X1095600Y1153500D02*
X1100000D01*
X1091700Y1157400D02*
X1095600Y1153500D01*
X1091700Y1157400D02*
Y1186700D01*
X1105500Y1200500D01*
X1357500Y1120000D02*
X1360900D01*
X1365900Y1125000D01*
Y1185588D01*
X1350988Y1200500D02*
X1365900Y1185588D01*
X1152100Y1247100D02*
X1304388D01*
X1350988Y1200500D01*
X1105500D02*
X1152100Y1247100D01*
D30*
X1160000Y1163500D02*
D03*
D31*
Y1153500D02*
D03*
X1150000Y1163500D02*
D03*
Y1153500D02*
D03*
X1120000D02*
D03*
Y1163500D02*
D03*
X1130000Y1153500D02*
D03*
Y1163500D02*
D03*
X1100000Y1153500D02*
D03*
Y1163500D02*
D03*
X1110000Y1153500D02*
D03*
Y1163500D02*
D03*
X1140000D02*
D03*
Y1153500D02*
D03*
X1138834Y1212004D02*
D03*
X1212200Y1263400D02*
D03*
X1259700Y1150600D02*
D03*
X1236155Y1202345D02*
D03*
X1285500Y1098000D02*
D03*
Y1108000D02*
D03*
X1173600Y1135400D02*
D03*
D32*
X1357500Y1140000D02*
D03*
Y1110000D02*
D03*
Y1130000D02*
D03*
Y1120000D02*
D03*
Y1150000D02*
D03*
X1347500Y1140000D02*
D03*
Y1130000D02*
D03*
Y1120000D02*
D03*
Y1150000D02*
D03*
X1273258Y1004658D02*
D03*
X1294471Y1025871D02*
D03*
X1287400Y1018800D02*
D03*
X1280329Y1011729D02*
D03*
X1266187D02*
D03*
X1287400Y1032942D02*
D03*
X1280329Y1025871D02*
D03*
X1294471Y1040013D02*
D03*
X1273258Y1018800D02*
D03*
D33*
X1347500Y1110000D02*
D03*
D34*
X1285500Y1088000D02*
D03*
D35*
X1228244Y987902D02*
D03*
X1350988Y1200500D02*
D03*
X1105500D02*
D03*
D36*
X1301542Y1032942D02*
D03*
D37*
X1144600Y1073100D02*
D03*
X1167900Y1101200D02*
D03*
X1139500Y1096400D02*
D03*
X1139400Y1075600D02*
D03*
X1106100Y1065700D02*
D03*
X1246200Y1089300D02*
D03*
X1168500Y1088200D02*
D03*
X1151600Y1085200D02*
D03*
X1145386Y1115761D02*
D03*
X1127500Y1070500D02*
D03*
X1134400Y1092300D02*
D03*
X1157000Y1071000D02*
D03*
X1115000Y1057500D02*
D03*
X1164000Y1031000D02*
D03*
X1165000Y1023500D02*
D03*
X1159000Y1041500D02*
D03*
X1172500Y1040000D02*
D03*
X1119500Y1052000D02*
D03*
X1134500Y1113500D02*
D03*
X1097800Y1115300D02*
D03*
X1134000Y1031100D02*
D03*
X1110100Y1068300D02*
D03*
X1171500Y1026500D02*
D03*
X1378000Y1110500D02*
D03*
X1162500Y1101000D02*
D03*
X1155500Y1103500D02*
D03*
X1373000Y1150000D02*
D03*
X1134000Y1098000D02*
D03*
X1248500Y1082500D02*
D03*
X1147500Y1109000D02*
D03*
X1263500Y1065000D02*
D03*
X1227000Y1119500D02*
D03*
X1228500Y1221000D02*
D03*
X1250000Y1107000D02*
D03*
X1128500Y1139500D02*
D03*
X1130500Y1132000D02*
D03*
X1219250Y1060250D02*
D03*
X1224000Y1064500D02*
D03*
X1135000Y1046500D02*
D03*
X1132550Y1078150D02*
D03*
X1138000Y1042600D02*
D03*
X1134900Y1058700D02*
D03*
X1136100Y1065100D02*
D03*
X1131300Y1040600D02*
D03*
X1125700Y1075300D02*
D03*
X1115400Y1082140D02*
D03*
X1144036Y1091200D02*
D03*
X1309500Y1076600D02*
D03*
X1216900Y1054500D02*
D03*
X1210000Y1053300D02*
D03*
X1175000Y1036000D02*
D03*
X1118081Y1107981D02*
D03*
X1108400Y1101000D02*
D03*
D38*
X1230900Y1086700D02*
D03*
X1197100Y1068800D02*
D03*
X1201700Y1049700D02*
D03*
X1237200Y1146600D02*
D03*
X1250900Y1146800D02*
D03*
X1209100Y1125500D02*
D03*
X1165800Y1123200D02*
D03*
X1149900Y1131500D02*
D03*
X1242900Y1044900D02*
D03*
X1191700Y1225700D02*
D03*
X1139500Y1191700D02*
D03*
X1186300Y1204300D02*
D03*
X1235100Y1106100D02*
D03*
X1206200Y1247655D02*
D03*
X1222900Y1246700D02*
D03*
X1199900Y1034300D02*
D03*
X1188600Y1048000D02*
D03*
M02*
