%FSLAX25Y25*%
%MOIN*%
G70*
G01*
G75*
G04 Layer_Physical_Order=1*
G04 Layer_Color=255*
G04:AMPARAMS|DCode=10|XSize=11.81mil|YSize=70.87mil|CornerRadius=0mil|HoleSize=0mil|Usage=FLASHONLY|Rotation=225.000|XOffset=0mil|YOffset=0mil|HoleType=Round|Shape=Round|*
%AMOVALD10*
21,1,0.05906,0.01181,0.00000,0.00000,315.0*
1,1,0.01181,-0.02088,0.02088*
1,1,0.01181,0.02088,-0.02088*
%
%ADD10OVALD10*%

G04:AMPARAMS|DCode=11|XSize=11.81mil|YSize=70.87mil|CornerRadius=0mil|HoleSize=0mil|Usage=FLASHONLY|Rotation=135.000|XOffset=0mil|YOffset=0mil|HoleType=Round|Shape=Round|*
%AMOVALD11*
21,1,0.05906,0.01181,0.00000,0.00000,225.0*
1,1,0.01181,0.02088,0.02088*
1,1,0.01181,-0.02088,-0.02088*
%
%ADD11OVALD11*%

G04:AMPARAMS|DCode=12|XSize=47.24mil|YSize=59.06mil|CornerRadius=11.81mil|HoleSize=0mil|Usage=FLASHONLY|Rotation=270.000|XOffset=0mil|YOffset=0mil|HoleType=Round|Shape=RoundedRectangle|*
%AMROUNDEDRECTD12*
21,1,0.04724,0.03543,0,0,270.0*
21,1,0.02362,0.05906,0,0,270.0*
1,1,0.02362,-0.01772,-0.01181*
1,1,0.02362,-0.01772,0.01181*
1,1,0.02362,0.01772,0.01181*
1,1,0.02362,0.01772,-0.01181*
%
%ADD12ROUNDEDRECTD12*%
G04:AMPARAMS|DCode=13|XSize=47.24mil|YSize=59.06mil|CornerRadius=11.81mil|HoleSize=0mil|Usage=FLASHONLY|Rotation=180.000|XOffset=0mil|YOffset=0mil|HoleType=Round|Shape=RoundedRectangle|*
%AMROUNDEDRECTD13*
21,1,0.04724,0.03543,0,0,180.0*
21,1,0.02362,0.05906,0,0,180.0*
1,1,0.02362,-0.01181,0.01772*
1,1,0.02362,0.01181,0.01772*
1,1,0.02362,0.01181,-0.01772*
1,1,0.02362,-0.01181,-0.01772*
%
%ADD13ROUNDEDRECTD13*%
%ADD14O,0.08661X0.02362*%
%ADD15R,0.03740X0.03543*%
%ADD16R,0.03740X0.03543*%
%ADD17R,0.06299X0.03937*%
%ADD18R,0.03543X0.03740*%
%ADD19R,0.03543X0.03740*%
%ADD20R,0.02362X0.05118*%
%ADD21R,0.10236X0.09449*%
%ADD22R,0.09449X0.10236*%
%ADD23R,0.07480X0.13386*%
%ADD24R,0.07874X0.05906*%
%ADD25R,0.02559X0.04331*%
%ADD26R,0.13386X0.07480*%
%ADD27C,0.01000*%
%ADD28C,0.03000*%
%ADD29C,0.02000*%
%ADD30R,0.06000X0.06000*%
%ADD31C,0.06000*%
%ADD32C,0.06299*%
%ADD33R,0.06299X0.06299*%
%ADD34R,0.06000X0.06000*%
%ADD35C,0.20000*%
%ADD36P,0.08908X4X270.0*%
%ADD37C,0.03543*%
%ADD38C,0.05000*%
G36*
X1248000Y1280656D02*
X1274000Y1276656D01*
X1295000Y1266656D01*
X1319500Y1254156D01*
X1342000Y1231656D01*
X1358500Y1209656D01*
X1364000Y1202156D01*
X1373000Y1186656D01*
X1375596Y1174255D01*
X1375280Y1173867D01*
X1371327D01*
X1365396Y1179798D01*
X1364801Y1180196D01*
X1364684Y1180219D01*
X1364098Y1180335D01*
X1358795D01*
X1358653Y1181045D01*
X1358216Y1181700D01*
X1357560Y1182138D01*
X1356787Y1182292D01*
X1354425D01*
X1353652Y1182138D01*
X1352997Y1181700D01*
X1352559Y1181045D01*
X1352405Y1180272D01*
Y1176728D01*
X1352559Y1175955D01*
X1352997Y1175300D01*
X1353652Y1174862D01*
X1354425Y1174708D01*
X1356787D01*
X1357560Y1174862D01*
X1358216Y1175300D01*
X1358653Y1175955D01*
X1358795Y1176665D01*
X1363338D01*
X1367550Y1172453D01*
Y1168330D01*
X1375450D01*
Y1172525D01*
X1375947Y1172577D01*
X1377500Y1165156D01*
X1380176Y1147191D01*
X1379849Y1146812D01*
X1379626D01*
Y1144239D01*
X1378626D01*
Y1146812D01*
X1376845D01*
Y1148500D01*
X1376667Y1149397D01*
X1376158Y1150158D01*
X1375407Y1150910D01*
X1375246Y1151297D01*
X1374834Y1151834D01*
X1374297Y1152246D01*
X1373910Y1152407D01*
X1373845Y1152471D01*
Y1155731D01*
X1375450D01*
Y1161269D01*
X1367550D01*
Y1155731D01*
X1369155D01*
Y1151500D01*
X1369333Y1150603D01*
X1369842Y1149842D01*
X1370593Y1149090D01*
X1370754Y1148703D01*
X1371166Y1148166D01*
X1371703Y1147754D01*
X1372090Y1147593D01*
X1372155Y1147529D01*
Y1143072D01*
X1367204D01*
Y1142345D01*
X1360679D01*
X1360317Y1142817D01*
X1359492Y1143450D01*
X1358531Y1143848D01*
X1357500Y1143984D01*
X1356469Y1143848D01*
X1355508Y1143450D01*
X1354683Y1142817D01*
X1354050Y1141992D01*
X1353652Y1141031D01*
X1353516Y1140000D01*
X1353652Y1138969D01*
X1354050Y1138008D01*
X1354683Y1137183D01*
X1355508Y1136550D01*
X1356469Y1136152D01*
X1357500Y1136016D01*
X1358531Y1136152D01*
X1359492Y1136550D01*
X1360317Y1137183D01*
X1360679Y1137655D01*
X1369374D01*
X1370271Y1137833D01*
X1370413Y1137928D01*
X1372544D01*
Y1139372D01*
X1373006Y1139563D01*
X1376456Y1136113D01*
Y1134188D01*
X1381000D01*
Y1128312D01*
X1379626D01*
Y1125739D01*
Y1123168D01*
X1381000D01*
Y1120831D01*
X1376456D01*
Y1118272D01*
X1372842Y1114658D01*
X1369842Y1111658D01*
X1369333Y1110897D01*
X1369155Y1110000D01*
Y1109367D01*
X1367699D01*
X1367699Y1109367D01*
Y1109367D01*
X1367550Y1109367D01*
X1367345Y1109572D01*
Y1116700D01*
X1367167Y1117597D01*
X1366658Y1118358D01*
X1366658Y1118358D01*
X1363358Y1121658D01*
X1362597Y1122167D01*
X1361700Y1122345D01*
X1360679D01*
X1360317Y1122817D01*
X1359492Y1123450D01*
X1358531Y1123848D01*
X1357500Y1123984D01*
X1356910Y1123906D01*
X1351406Y1129410D01*
X1351484Y1130000D01*
X1351348Y1131031D01*
X1350950Y1131992D01*
X1350317Y1132817D01*
X1349492Y1133450D01*
X1348531Y1133848D01*
X1347500Y1133984D01*
X1346469Y1133848D01*
X1345508Y1133450D01*
X1344683Y1132817D01*
X1344050Y1131992D01*
X1343652Y1131031D01*
X1343516Y1130000D01*
X1343652Y1128969D01*
X1344050Y1128008D01*
X1344683Y1127183D01*
X1345508Y1126550D01*
X1346469Y1126152D01*
X1347500Y1126016D01*
X1348090Y1126094D01*
X1353594Y1120590D01*
X1353516Y1120000D01*
X1353652Y1118969D01*
X1354050Y1118008D01*
X1354683Y1117183D01*
X1355508Y1116550D01*
X1356469Y1116152D01*
X1357500Y1116016D01*
X1358531Y1116152D01*
X1359492Y1116550D01*
X1360317Y1117183D01*
X1360470Y1117382D01*
X1360969Y1117415D01*
X1362655Y1115729D01*
Y1104571D01*
X1357029Y1098945D01*
X1348200D01*
X1347303Y1098767D01*
X1346542Y1098258D01*
X1336742Y1088458D01*
X1336234Y1087697D01*
X1336055Y1086800D01*
Y1054171D01*
X1272130Y990247D01*
X1238788D01*
X1238547Y991249D01*
X1237896Y992820D01*
X1237008Y994269D01*
X1235904Y995562D01*
X1234612Y996666D01*
X1233162Y997554D01*
X1231592Y998205D01*
X1229939Y998602D01*
X1228244Y998735D01*
X1226549Y998602D01*
X1224896Y998205D01*
X1223326Y997554D01*
X1221876Y996666D01*
X1220583Y995562D01*
X1219479Y994269D01*
X1218591Y992820D01*
X1217941Y991249D01*
X1217544Y989596D01*
X1217410Y987902D01*
X1217544Y986207D01*
X1217941Y984554D01*
X1218591Y982983D01*
X1219479Y981534D01*
X1220583Y980241D01*
X1221876Y979137D01*
X1223326Y978249D01*
X1224896Y977598D01*
X1226549Y977202D01*
X1228244Y977068D01*
X1229939Y977202D01*
X1231592Y977598D01*
X1233162Y978249D01*
X1234612Y979137D01*
X1235904Y980241D01*
X1237008Y981534D01*
X1237896Y982983D01*
X1238547Y984554D01*
X1238788Y985557D01*
X1273102D01*
X1273999Y985735D01*
X1274760Y986243D01*
X1274760Y986243D01*
X1274760Y986243D01*
X1340058Y1051542D01*
X1340058Y1051542D01*
X1340058Y1051542D01*
X1340567Y1052303D01*
X1340745Y1053200D01*
Y1085829D01*
X1349171Y1094255D01*
X1358000D01*
X1358897Y1094433D01*
X1359658Y1094942D01*
X1366658Y1101942D01*
X1366658Y1101942D01*
X1367167Y1102703D01*
X1367345Y1103600D01*
Y1103625D01*
X1367550Y1103830D01*
X1367699Y1103830D01*
X1367699Y1103830D01*
Y1103830D01*
X1375450D01*
Y1108822D01*
X1375923Y1108982D01*
X1376166Y1108666D01*
X1376703Y1108254D01*
X1377329Y1107994D01*
X1378000Y1107906D01*
X1378671Y1107994D01*
X1379297Y1108254D01*
X1379340Y1108286D01*
X1379772Y1108036D01*
X1377500Y1091156D01*
X1369500Y1067156D01*
X1357000Y1046656D01*
X1343500Y1028156D01*
X1323500Y1008656D01*
X1299000Y994156D01*
X1282500Y985656D01*
X1264000Y979156D01*
X1243000Y975156D01*
X1217000Y974656D01*
X1186500Y981156D01*
X1166740Y989156D01*
X1147000Y998156D01*
X1129500Y1011156D01*
X1110000Y1030656D01*
X1095000Y1051656D01*
X1085500Y1070656D01*
X1077500Y1096656D01*
X1075000Y1121156D01*
X1074000Y1141500D01*
X1077000Y1159656D01*
X1084000Y1189656D01*
X1103500Y1221656D01*
X1130500Y1249156D01*
X1157528Y1266656D01*
X1198000Y1280656D01*
X1223606Y1284156D01*
X1248000Y1280656D01*
D02*
G37*
%LPC*%
G36*
X1238363Y1105600D02*
X1235600D01*
Y1102837D01*
X1235962Y1102885D01*
X1236764Y1103217D01*
X1237454Y1103746D01*
X1237983Y1104436D01*
X1238315Y1105239D01*
X1238363Y1105600D01*
D02*
G37*
G36*
X1241000Y1105993D02*
X1239519D01*
Y1103134D01*
X1241000D01*
Y1105993D01*
D02*
G37*
G36*
X1096500Y1104507D02*
X1095228D01*
X1094455Y1104353D01*
X1093800Y1103916D01*
X1093362Y1103260D01*
X1093208Y1102487D01*
Y1101806D01*
X1096500D01*
Y1104507D01*
D02*
G37*
G36*
X1098772D02*
X1097500D01*
Y1101806D01*
X1100792D01*
Y1102487D01*
X1100638Y1103260D01*
X1100200Y1103916D01*
X1099545Y1104353D01*
X1098772Y1104507D01*
D02*
G37*
G36*
X1234600Y1105600D02*
X1231837D01*
X1231885Y1105239D01*
X1232217Y1104436D01*
X1232746Y1103746D01*
X1233436Y1103217D01*
X1234239Y1102885D01*
X1234600Y1102837D01*
Y1105600D01*
D02*
G37*
G36*
X1285500Y1111833D02*
X1284508Y1111702D01*
X1283584Y1111319D01*
X1282790Y1110710D01*
X1282181Y1109916D01*
X1281798Y1108992D01*
X1281667Y1108000D01*
X1281798Y1107008D01*
X1282181Y1106084D01*
X1282790Y1105290D01*
X1283584Y1104681D01*
X1284508Y1104298D01*
X1285500Y1104167D01*
X1286492Y1104298D01*
X1287416Y1104681D01*
X1288210Y1105290D01*
X1288819Y1106084D01*
X1289202Y1107008D01*
X1289333Y1108000D01*
X1289202Y1108992D01*
X1288819Y1109916D01*
X1288210Y1110710D01*
X1287416Y1111319D01*
X1286492Y1111702D01*
X1285500Y1111833D01*
D02*
G37*
G36*
X1234600Y1109363D02*
X1234239Y1109315D01*
X1233436Y1108983D01*
X1232746Y1108454D01*
X1232217Y1107764D01*
X1231885Y1106962D01*
X1231837Y1106600D01*
X1234600D01*
Y1109363D01*
D02*
G37*
G36*
X1235600D02*
Y1106600D01*
X1238363D01*
X1238315Y1106962D01*
X1237983Y1107764D01*
X1237454Y1108454D01*
X1236764Y1108983D01*
X1235962Y1109315D01*
X1235600Y1109363D01*
D02*
G37*
G36*
X1357500Y1113984D02*
X1356469Y1113848D01*
X1355508Y1113450D01*
X1354683Y1112817D01*
X1354050Y1111992D01*
X1353652Y1111031D01*
X1353516Y1110000D01*
X1353652Y1108969D01*
X1354050Y1108008D01*
X1354683Y1107183D01*
X1355508Y1106550D01*
X1356469Y1106152D01*
X1357500Y1106016D01*
X1358531Y1106152D01*
X1359492Y1106550D01*
X1360317Y1107183D01*
X1360950Y1108008D01*
X1361348Y1108969D01*
X1361484Y1110000D01*
X1361348Y1111031D01*
X1360950Y1111992D01*
X1360317Y1112817D01*
X1359492Y1113450D01*
X1358531Y1113848D01*
X1357500Y1113984D01*
D02*
G37*
G36*
X1226500Y1107595D02*
X1225228D01*
X1224455Y1107441D01*
X1223800Y1107003D01*
X1223362Y1106348D01*
X1223208Y1105575D01*
Y1104894D01*
X1226500D01*
Y1107595D01*
D02*
G37*
G36*
X1228772D02*
X1227500D01*
Y1104894D01*
X1230792D01*
Y1105575D01*
X1230638Y1106348D01*
X1230200Y1107003D01*
X1229545Y1107441D01*
X1228772Y1107595D01*
D02*
G37*
G36*
X1230792Y1103894D02*
X1227500D01*
Y1101193D01*
X1228772D01*
X1229545Y1101347D01*
X1230200Y1101784D01*
X1230638Y1102440D01*
X1230792Y1103213D01*
Y1103894D01*
D02*
G37*
G36*
X1184240Y1089544D02*
X1182168D01*
Y1087374D01*
X1184240D01*
Y1089544D01*
D02*
G37*
G36*
X1187312D02*
X1185240D01*
Y1087374D01*
X1187312D01*
Y1089544D01*
D02*
G37*
G36*
X1285500Y1101833D02*
X1284508Y1101702D01*
X1283584Y1101319D01*
X1282790Y1100710D01*
X1282181Y1099916D01*
X1281798Y1098992D01*
X1281667Y1098000D01*
X1281798Y1097008D01*
X1282181Y1096084D01*
X1282790Y1095290D01*
X1283584Y1094681D01*
X1284508Y1094298D01*
X1285500Y1094167D01*
X1286492Y1094298D01*
X1287416Y1094681D01*
X1288210Y1095290D01*
X1288819Y1096084D01*
X1289202Y1097008D01*
X1289333Y1098000D01*
X1289202Y1098992D01*
X1288819Y1099916D01*
X1288210Y1100710D01*
X1287416Y1101319D01*
X1286492Y1101702D01*
X1285500Y1101833D01*
D02*
G37*
G36*
X1230400Y1089963D02*
X1230039Y1089915D01*
X1229236Y1089583D01*
X1228546Y1089054D01*
X1228017Y1088364D01*
X1227685Y1087562D01*
X1227637Y1087200D01*
X1230400D01*
Y1089963D01*
D02*
G37*
G36*
X1231400D02*
Y1087200D01*
X1234163D01*
X1234115Y1087562D01*
X1233783Y1088364D01*
X1233254Y1089054D01*
X1232564Y1089583D01*
X1231761Y1089915D01*
X1231400Y1089963D01*
D02*
G37*
G36*
X1222572Y1089796D02*
X1217428D01*
Y1087219D01*
X1209263D01*
X1209138Y1087848D01*
X1208700Y1088503D01*
X1208044Y1088941D01*
X1207271Y1089095D01*
X1203728D01*
X1202955Y1088941D01*
X1202300Y1088503D01*
X1201862Y1087848D01*
X1201708Y1087075D01*
Y1084713D01*
X1201862Y1083939D01*
X1202300Y1083284D01*
X1202955Y1082846D01*
X1203728Y1082693D01*
X1207271D01*
X1208044Y1082846D01*
X1208700Y1083284D01*
X1209138Y1083939D01*
X1209263Y1084568D01*
X1217428D01*
Y1084456D01*
X1222572D01*
Y1089796D01*
D02*
G37*
G36*
X1241000Y1102134D02*
X1239519D01*
Y1099275D01*
X1241000D01*
Y1102134D01*
D02*
G37*
G36*
X1243481D02*
X1242000D01*
Y1099275D01*
X1243481D01*
Y1102134D01*
D02*
G37*
G36*
X1226500Y1103894D02*
X1223208D01*
Y1103213D01*
X1223362Y1102440D01*
X1223800Y1101784D01*
X1224455Y1101347D01*
X1225228Y1101193D01*
X1226500D01*
Y1103894D01*
D02*
G37*
G36*
X1259772Y1108595D02*
X1256228D01*
X1255455Y1108441D01*
X1254800Y1108003D01*
X1254362Y1107348D01*
X1254208Y1106575D01*
Y1104213D01*
X1254362Y1103440D01*
X1254800Y1102784D01*
X1255455Y1102347D01*
X1255655Y1102307D01*
Y1101471D01*
X1250895Y1096711D01*
X1247221D01*
Y1097725D01*
X1243259D01*
Y1095541D01*
X1243074Y1095263D01*
X1242895Y1094366D01*
X1243074Y1093469D01*
X1243259Y1093191D01*
Y1091007D01*
X1243674D01*
X1243951Y1090591D01*
X1243694Y1089971D01*
X1243606Y1089300D01*
X1243694Y1088629D01*
X1243954Y1088003D01*
X1244366Y1087466D01*
X1244903Y1087054D01*
X1245314Y1086884D01*
X1245342Y1086842D01*
X1246103Y1086333D01*
X1247000Y1086155D01*
X1247200D01*
X1248097Y1086333D01*
X1248858Y1086842D01*
X1249366Y1087603D01*
X1249545Y1088500D01*
Y1089300D01*
X1249366Y1090197D01*
X1249348Y1090226D01*
X1249345Y1090230D01*
Y1092021D01*
X1251866D01*
X1252763Y1092200D01*
X1253524Y1092708D01*
X1259658Y1098842D01*
X1259658Y1098842D01*
X1259998Y1099350D01*
X1260167Y1099603D01*
X1260345Y1100500D01*
X1260345Y1100500D01*
Y1102307D01*
X1260545Y1102347D01*
X1261200Y1102784D01*
X1261638Y1103440D01*
X1261792Y1104213D01*
Y1106575D01*
X1261638Y1107348D01*
X1261200Y1108003D01*
X1260545Y1108441D01*
X1259772Y1108595D01*
D02*
G37*
G36*
X1096500Y1100806D02*
X1093208D01*
Y1100125D01*
X1093362Y1099352D01*
X1093800Y1098697D01*
X1094455Y1098259D01*
X1095228Y1098105D01*
X1096500D01*
Y1100806D01*
D02*
G37*
G36*
X1100792D02*
X1097500D01*
Y1098105D01*
X1098772D01*
X1099545Y1098259D01*
X1100200Y1098697D01*
X1100638Y1099352D01*
X1100792Y1100125D01*
Y1100806D01*
D02*
G37*
G36*
X1378626Y1125240D02*
X1376456D01*
Y1123168D01*
X1378626D01*
Y1125240D01*
D02*
G37*
G36*
X1165300Y1126463D02*
X1164939Y1126415D01*
X1164136Y1126083D01*
X1163446Y1125554D01*
X1162917Y1124864D01*
X1162585Y1124061D01*
X1162537Y1123700D01*
X1165300D01*
Y1126463D01*
D02*
G37*
G36*
X1166300D02*
Y1123700D01*
X1169063D01*
X1169015Y1124061D01*
X1168683Y1124864D01*
X1168154Y1125554D01*
X1167464Y1126083D01*
X1166661Y1126415D01*
X1166300Y1126463D01*
D02*
G37*
G36*
X1157272Y1122307D02*
X1156000D01*
Y1119606D01*
X1159292D01*
Y1120287D01*
X1159138Y1121060D01*
X1158700Y1121716D01*
X1158045Y1122153D01*
X1157272Y1122307D01*
D02*
G37*
G36*
X1165300Y1122700D02*
X1162537D01*
X1162585Y1122338D01*
X1162917Y1121536D01*
X1163446Y1120846D01*
X1164136Y1120317D01*
X1164939Y1119985D01*
X1165300Y1119937D01*
Y1122700D01*
D02*
G37*
G36*
X1169063D02*
X1166300D01*
Y1119937D01*
X1166661Y1119985D01*
X1167464Y1120317D01*
X1168154Y1120846D01*
X1168683Y1121536D01*
X1169015Y1122338D01*
X1169063Y1122700D01*
D02*
G37*
G36*
X1193500Y1130106D02*
X1190208D01*
Y1129425D01*
X1190362Y1128652D01*
X1190800Y1127997D01*
X1191455Y1127559D01*
X1192228Y1127405D01*
X1193500D01*
Y1130106D01*
D02*
G37*
G36*
X1197792D02*
X1194500D01*
Y1127405D01*
X1195772D01*
X1196545Y1127559D01*
X1197200Y1127997D01*
X1197638Y1128652D01*
X1197792Y1129425D01*
Y1130106D01*
D02*
G37*
G36*
X1149400Y1131000D02*
X1146637D01*
X1146685Y1130639D01*
X1147017Y1129836D01*
X1147546Y1129146D01*
X1148236Y1128617D01*
X1149039Y1128285D01*
X1149400Y1128237D01*
Y1131000D01*
D02*
G37*
G36*
X1208600Y1128763D02*
X1208239Y1128715D01*
X1207436Y1128383D01*
X1206746Y1127854D01*
X1206217Y1127164D01*
X1205885Y1126361D01*
X1205837Y1126000D01*
X1208600D01*
Y1128763D01*
D02*
G37*
G36*
X1209600D02*
Y1126000D01*
X1212363D01*
X1212315Y1126361D01*
X1211983Y1127164D01*
X1211454Y1127854D01*
X1210764Y1128383D01*
X1209962Y1128715D01*
X1209600Y1128763D01*
D02*
G37*
G36*
X1378626Y1128312D02*
X1376456D01*
Y1126240D01*
X1378626D01*
Y1128312D01*
D02*
G37*
G36*
X1155000Y1122307D02*
X1153728D01*
X1152955Y1122153D01*
X1152300Y1121716D01*
X1151862Y1121060D01*
X1151708Y1120287D01*
Y1119606D01*
X1155000D01*
Y1122307D01*
D02*
G37*
G36*
X1097300Y1114800D02*
X1095272D01*
X1095294Y1114629D01*
X1095554Y1114003D01*
X1095966Y1113466D01*
X1096503Y1113054D01*
X1097129Y1112794D01*
X1097300Y1112772D01*
Y1114800D01*
D02*
G37*
G36*
X1100328D02*
X1098300D01*
Y1112772D01*
X1098471Y1112794D01*
X1099097Y1113054D01*
X1099634Y1113466D01*
X1100046Y1114003D01*
X1100305Y1114629D01*
X1100328Y1114800D01*
D02*
G37*
G36*
X1172500Y1116807D02*
X1171228D01*
X1170455Y1116654D01*
X1169800Y1116216D01*
X1169362Y1115561D01*
X1169208Y1114787D01*
Y1114106D01*
X1172500D01*
Y1116807D01*
D02*
G37*
G36*
X1207272Y1107595D02*
X1203728D01*
X1202955Y1107441D01*
X1202300Y1107003D01*
X1202123Y1106739D01*
X1197877D01*
X1197700Y1107003D01*
X1197045Y1107441D01*
X1196272Y1107595D01*
X1192728D01*
X1191955Y1107441D01*
X1191300Y1107003D01*
X1191123Y1106739D01*
X1187377D01*
X1187200Y1107003D01*
X1186545Y1107441D01*
X1185772Y1107595D01*
X1182228D01*
X1181455Y1107441D01*
X1180800Y1107003D01*
X1180362Y1106348D01*
X1180208Y1105575D01*
Y1103213D01*
X1180362Y1102440D01*
X1180800Y1101784D01*
X1181455Y1101347D01*
X1182228Y1101193D01*
X1185772D01*
X1186545Y1101347D01*
X1187200Y1101784D01*
X1187377Y1102049D01*
X1191123D01*
X1191300Y1101784D01*
X1191955Y1101347D01*
X1192155Y1101307D01*
Y1098193D01*
X1191956Y1098154D01*
X1191300Y1097716D01*
X1190862Y1097060D01*
X1190709Y1096288D01*
Y1093925D01*
X1190862Y1093152D01*
X1191300Y1092497D01*
X1191956Y1092059D01*
X1192729Y1091905D01*
X1196272D01*
X1197045Y1092059D01*
X1197700Y1092497D01*
X1198138Y1093152D01*
X1198292Y1093925D01*
Y1096288D01*
X1198138Y1097060D01*
X1197700Y1097716D01*
X1197045Y1098154D01*
X1196845Y1098193D01*
Y1101307D01*
X1197045Y1101347D01*
X1197700Y1101784D01*
X1197877Y1102049D01*
X1202123D01*
X1202300Y1101784D01*
X1202955Y1101347D01*
X1203155Y1101307D01*
Y1098193D01*
X1202955Y1098153D01*
X1202300Y1097716D01*
X1201862Y1097060D01*
X1201708Y1096287D01*
Y1093925D01*
X1201862Y1093152D01*
X1202300Y1092497D01*
X1202955Y1092059D01*
X1203728Y1091905D01*
X1207271D01*
X1208044Y1092059D01*
X1208700Y1092497D01*
X1209138Y1093152D01*
X1209291Y1093925D01*
Y1096287D01*
X1209138Y1097060D01*
X1208700Y1097716D01*
X1208044Y1098153D01*
X1207845Y1098193D01*
Y1101307D01*
X1208045Y1101347D01*
X1208700Y1101784D01*
X1209138Y1102440D01*
X1209292Y1103213D01*
Y1105575D01*
X1209138Y1106348D01*
X1208700Y1107003D01*
X1208045Y1107441D01*
X1207272Y1107595D01*
D02*
G37*
G36*
X1172500Y1113106D02*
X1169208D01*
Y1112425D01*
X1169362Y1111652D01*
X1169800Y1110997D01*
X1170455Y1110559D01*
X1171228Y1110405D01*
X1172500D01*
Y1113106D01*
D02*
G37*
G36*
X1176792D02*
X1173500D01*
Y1110405D01*
X1174772D01*
X1175545Y1110559D01*
X1176200Y1110997D01*
X1176638Y1111652D01*
X1176792Y1112425D01*
Y1113106D01*
D02*
G37*
G36*
X1159292Y1118606D02*
X1156000D01*
Y1115905D01*
X1157272D01*
X1158045Y1116059D01*
X1158700Y1116497D01*
X1159138Y1117152D01*
X1159292Y1117925D01*
Y1118606D01*
D02*
G37*
G36*
X1347500Y1123984D02*
X1346469Y1123848D01*
X1345508Y1123450D01*
X1344683Y1122817D01*
X1344050Y1121992D01*
X1343652Y1121031D01*
X1343516Y1120000D01*
X1343652Y1118969D01*
X1343928Y1118303D01*
X1290431Y1064805D01*
X1289933Y1064854D01*
X1289507Y1065491D01*
X1288852Y1065929D01*
X1288079Y1066083D01*
X1284536D01*
X1283763Y1065929D01*
X1283107Y1065491D01*
X1282669Y1064836D01*
X1282516Y1064063D01*
Y1061701D01*
X1282613Y1061212D01*
X1282296Y1060826D01*
X1279982D01*
X1279838Y1061548D01*
X1279400Y1062203D01*
X1278745Y1062641D01*
X1277972Y1062795D01*
X1274428D01*
X1273655Y1062641D01*
X1273000Y1062203D01*
X1272562Y1061548D01*
X1272418Y1060826D01*
X1258595D01*
X1258527Y1060928D01*
X1257871Y1061366D01*
X1257098Y1061520D01*
X1250799D01*
X1250026Y1061366D01*
X1249371Y1060928D01*
X1248933Y1060273D01*
X1248779Y1059500D01*
X1248933Y1058727D01*
X1249371Y1058072D01*
X1250026Y1057634D01*
X1250799Y1057480D01*
X1257098D01*
X1257871Y1057634D01*
X1258527Y1058072D01*
X1258595Y1058175D01*
X1272456D01*
X1272562Y1057640D01*
X1273000Y1056984D01*
X1273655Y1056546D01*
X1274428Y1056393D01*
X1277972D01*
X1278745Y1056546D01*
X1279400Y1056984D01*
X1279838Y1057640D01*
X1279944Y1058175D01*
X1287000D01*
X1287507Y1058275D01*
X1287937Y1058563D01*
X1287937Y1058563D01*
X1287937Y1058563D01*
X1306497Y1077123D01*
X1306946Y1076902D01*
X1306972Y1077100D01*
X1309000D01*
Y1079128D01*
X1309198Y1079154D01*
X1308977Y1079603D01*
X1343089Y1113714D01*
X1343550Y1113523D01*
Y1107925D01*
X1312509Y1076883D01*
X1312036Y1077044D01*
X1312094Y1076600D01*
X1312074Y1076449D01*
X1311725Y1076100D01*
X1310000D01*
Y1074375D01*
X1309651Y1074026D01*
X1309500Y1074006D01*
X1309056Y1074064D01*
X1309217Y1073591D01*
X1291451Y1055826D01*
X1289810D01*
X1289507Y1056279D01*
X1288852Y1056716D01*
X1288079Y1056870D01*
X1284536D01*
X1283763Y1056716D01*
X1283107Y1056279D01*
X1282805Y1055826D01*
X1269544D01*
X1269438Y1056360D01*
X1269000Y1057016D01*
X1268345Y1057454D01*
X1267572Y1057607D01*
X1264028D01*
X1263255Y1057454D01*
X1262600Y1057016D01*
X1262162Y1056360D01*
X1262056Y1055826D01*
X1258595D01*
X1258527Y1055928D01*
X1257871Y1056366D01*
X1257098Y1056520D01*
X1250799D01*
X1250026Y1056366D01*
X1249371Y1055928D01*
X1248933Y1055273D01*
X1248779Y1054500D01*
X1248933Y1053727D01*
X1249371Y1053072D01*
X1250026Y1052634D01*
X1250799Y1052480D01*
X1257098D01*
X1257871Y1052634D01*
X1258527Y1053072D01*
X1258595Y1053174D01*
X1262018D01*
X1262162Y1052452D01*
X1262600Y1051797D01*
X1263255Y1051359D01*
X1264028Y1051205D01*
X1267572D01*
X1268345Y1051359D01*
X1269000Y1051797D01*
X1269438Y1052452D01*
X1269582Y1053174D01*
X1282516D01*
Y1052488D01*
X1282669Y1051715D01*
X1283107Y1051060D01*
X1283763Y1050622D01*
X1284536Y1050468D01*
X1288079D01*
X1288852Y1050622D01*
X1289507Y1051060D01*
X1289945Y1051715D01*
X1290099Y1052488D01*
Y1053174D01*
X1292000D01*
X1292507Y1053275D01*
X1292937Y1053563D01*
X1292937Y1053563D01*
X1292937Y1053563D01*
X1345425Y1106050D01*
X1351450D01*
Y1113950D01*
X1343977D01*
X1343786Y1114412D01*
X1345803Y1116428D01*
X1346469Y1116152D01*
X1347500Y1116016D01*
X1348531Y1116152D01*
X1349492Y1116550D01*
X1350317Y1117183D01*
X1350950Y1118008D01*
X1351348Y1118969D01*
X1351484Y1120000D01*
X1351348Y1121031D01*
X1350950Y1121992D01*
X1350317Y1122817D01*
X1349492Y1123450D01*
X1348531Y1123848D01*
X1347500Y1123984D01*
D02*
G37*
G36*
X1357500Y1133984D02*
X1356469Y1133848D01*
X1355508Y1133450D01*
X1354683Y1132817D01*
X1354050Y1131992D01*
X1353652Y1131031D01*
X1353516Y1130000D01*
X1353652Y1128969D01*
X1354050Y1128008D01*
X1354683Y1127183D01*
X1355508Y1126550D01*
X1356469Y1126152D01*
X1357500Y1126016D01*
X1358531Y1126152D01*
X1359492Y1126550D01*
X1360317Y1127183D01*
X1360545Y1127481D01*
X1361044Y1127513D01*
X1367204Y1121354D01*
Y1119428D01*
X1372544D01*
Y1124572D01*
X1370619D01*
X1363532Y1131658D01*
X1362771Y1132166D01*
X1361874Y1132345D01*
X1360679D01*
X1360317Y1132817D01*
X1359492Y1133450D01*
X1358531Y1133848D01*
X1357500Y1133984D01*
D02*
G37*
G36*
X1174772Y1116807D02*
X1173500D01*
Y1114106D01*
X1176792D01*
Y1114787D01*
X1176638Y1115561D01*
X1176200Y1116216D01*
X1175545Y1116654D01*
X1174772Y1116807D01*
D02*
G37*
G36*
X1097300Y1117828D02*
X1097129Y1117805D01*
X1096503Y1117546D01*
X1095966Y1117134D01*
X1095554Y1116597D01*
X1095294Y1115971D01*
X1095272Y1115800D01*
X1097300D01*
Y1117828D01*
D02*
G37*
G36*
X1098300D02*
Y1115800D01*
X1100328D01*
X1100305Y1115971D01*
X1100046Y1116597D01*
X1099634Y1117134D01*
X1099097Y1117546D01*
X1098471Y1117805D01*
X1098300Y1117828D01*
D02*
G37*
G36*
X1375450Y1096768D02*
X1367550D01*
Y1091232D01*
X1369155D01*
Y1089971D01*
X1364529Y1085345D01*
X1359693D01*
X1359653Y1085545D01*
X1359216Y1086200D01*
X1358560Y1086638D01*
X1357787Y1086792D01*
X1355425D01*
X1354652Y1086638D01*
X1353997Y1086200D01*
X1353559Y1085545D01*
X1353405Y1084772D01*
Y1081228D01*
X1353559Y1080455D01*
X1353997Y1079800D01*
X1354652Y1079362D01*
X1355425Y1079208D01*
X1357787D01*
X1358560Y1079362D01*
X1359216Y1079800D01*
X1359653Y1080455D01*
X1359693Y1080655D01*
X1365500D01*
X1366397Y1080834D01*
X1367158Y1081342D01*
X1373158Y1087342D01*
X1373666Y1088103D01*
X1373845Y1089000D01*
Y1091232D01*
X1375450D01*
Y1096768D01*
D02*
G37*
G36*
X1189606Y1061792D02*
X1188925D01*
X1188152Y1061638D01*
X1187497Y1061200D01*
X1187059Y1060545D01*
X1186905Y1059772D01*
Y1058500D01*
X1189606D01*
Y1061792D01*
D02*
G37*
G36*
X1191287D02*
X1190606D01*
Y1058500D01*
X1193307D01*
Y1059772D01*
X1193153Y1060545D01*
X1192716Y1061200D01*
X1192060Y1061638D01*
X1191287Y1061792D01*
D02*
G37*
G36*
X1263500Y1067594D02*
X1262829Y1067505D01*
X1262203Y1067246D01*
X1261680Y1066845D01*
X1253949D01*
X1253051Y1066667D01*
X1252832Y1066520D01*
X1250799D01*
X1250026Y1066366D01*
X1249371Y1065928D01*
X1249302Y1065825D01*
X1247500D01*
X1246993Y1065725D01*
X1246563Y1065437D01*
X1245363Y1064237D01*
X1245075Y1063807D01*
X1244975Y1063300D01*
Y1048700D01*
X1245075Y1048193D01*
X1245323Y1047822D01*
X1244958Y1047480D01*
X1244564Y1047783D01*
X1243762Y1048115D01*
X1243400Y1048163D01*
Y1045400D01*
X1246163D01*
X1246115Y1045761D01*
X1245783Y1046564D01*
X1245541Y1046879D01*
X1245917Y1047208D01*
X1248669Y1044456D01*
X1248669Y1044456D01*
X1248669D01*
X1248669Y1044456D01*
X1248669D01*
X1248669Y1044456D01*
Y1044456D01*
Y1044456D01*
D01*
D01*
X1248669D01*
Y1044456D01*
X1249099Y1044169D01*
X1249606Y1044068D01*
X1262008D01*
Y1044013D01*
X1262162Y1043240D01*
X1262600Y1042584D01*
X1263255Y1042146D01*
X1264028Y1041993D01*
X1267572D01*
X1268345Y1042146D01*
X1269000Y1042584D01*
X1269438Y1043240D01*
X1269592Y1044013D01*
Y1046375D01*
X1269438Y1047148D01*
X1269000Y1047803D01*
X1268345Y1048241D01*
X1267572Y1048395D01*
X1264028D01*
X1263255Y1048241D01*
X1262600Y1047803D01*
X1262162Y1047148D01*
X1262077Y1046719D01*
X1250155D01*
X1249462Y1047412D01*
X1249780Y1047799D01*
X1250026Y1047634D01*
X1250799Y1047480D01*
X1253449D01*
Y1049000D01*
X1248879D01*
X1248933Y1048727D01*
X1249098Y1048480D01*
X1248711Y1048163D01*
X1247626Y1049249D01*
Y1062751D01*
X1248049Y1063175D01*
X1249302D01*
X1249371Y1063072D01*
X1250026Y1062634D01*
X1250799Y1062480D01*
X1252832D01*
X1253051Y1062333D01*
X1253949Y1062155D01*
X1263000D01*
X1263897Y1062333D01*
X1264130Y1062489D01*
X1264171Y1062494D01*
X1264797Y1062754D01*
X1265334Y1063166D01*
X1265746Y1063703D01*
X1266006Y1064329D01*
X1266094Y1065000D01*
X1266006Y1065671D01*
X1265746Y1066297D01*
X1265334Y1066834D01*
X1264797Y1067246D01*
X1264171Y1067505D01*
X1263500Y1067594D01*
D02*
G37*
G36*
X1202200Y1052963D02*
Y1050200D01*
X1204963D01*
X1204915Y1050562D01*
X1204583Y1051364D01*
X1204054Y1052054D01*
X1203364Y1052583D01*
X1202561Y1052915D01*
X1202200Y1052963D01*
D02*
G37*
G36*
X1216900Y1057094D02*
X1216229Y1057006D01*
X1215603Y1056746D01*
X1215066Y1056334D01*
X1214654Y1055797D01*
X1214394Y1055171D01*
X1214306Y1054500D01*
X1214394Y1053829D01*
X1214654Y1053203D01*
X1215066Y1052666D01*
X1215603Y1052254D01*
X1216229Y1051995D01*
X1216900Y1051906D01*
X1217571Y1051995D01*
X1218197Y1052254D01*
X1218734Y1052666D01*
X1219124Y1053174D01*
X1230405D01*
X1230473Y1053072D01*
X1231129Y1052634D01*
X1231902Y1052480D01*
X1238201D01*
X1238974Y1052634D01*
X1239629Y1053072D01*
X1240067Y1053727D01*
X1240221Y1054500D01*
X1240067Y1055273D01*
X1239629Y1055928D01*
X1238974Y1056366D01*
X1238201Y1056520D01*
X1231902D01*
X1231129Y1056366D01*
X1230473Y1055928D01*
X1230405Y1055826D01*
X1219124D01*
X1218734Y1056334D01*
X1218197Y1056746D01*
X1217571Y1057006D01*
X1216900Y1057094D01*
D02*
G37*
G36*
X1219250Y1062844D02*
X1218579Y1062755D01*
X1217953Y1062496D01*
X1217416Y1062084D01*
X1217004Y1061547D01*
X1216745Y1060921D01*
X1216656Y1060250D01*
X1216745Y1059579D01*
X1217004Y1058953D01*
X1217416Y1058416D01*
X1217953Y1058004D01*
X1218579Y1057745D01*
X1219250Y1057656D01*
X1219921Y1057745D01*
X1220547Y1058004D01*
X1220770Y1058175D01*
X1230405D01*
X1230473Y1058072D01*
X1231129Y1057634D01*
X1231902Y1057480D01*
X1238201D01*
X1238974Y1057634D01*
X1239629Y1058072D01*
X1240067Y1058727D01*
X1240221Y1059500D01*
X1240067Y1060273D01*
X1239629Y1060928D01*
X1238974Y1061366D01*
X1238201Y1061520D01*
X1231902D01*
X1231129Y1061366D01*
X1230473Y1060928D01*
X1230405Y1060826D01*
X1221768D01*
X1221756Y1060921D01*
X1221496Y1061547D01*
X1221084Y1062084D01*
X1220547Y1062496D01*
X1219921Y1062755D01*
X1219250Y1062844D01*
D02*
G37*
G36*
X1200363Y1068300D02*
X1197600D01*
Y1065537D01*
X1197962Y1065585D01*
X1198764Y1065917D01*
X1199454Y1066446D01*
X1199983Y1067136D01*
X1200315Y1067939D01*
X1200363Y1068300D01*
D02*
G37*
G36*
X1275700Y1068306D02*
X1272408D01*
Y1067625D01*
X1272562Y1066852D01*
X1273000Y1066197D01*
X1273655Y1065759D01*
X1274428Y1065605D01*
X1275700D01*
Y1068306D01*
D02*
G37*
G36*
X1279992D02*
X1276700D01*
Y1065605D01*
X1277972D01*
X1278745Y1065759D01*
X1279400Y1066197D01*
X1279838Y1066852D01*
X1279992Y1067625D01*
Y1068306D01*
D02*
G37*
G36*
X1205000Y1067394D02*
X1201708D01*
Y1066712D01*
X1201862Y1065940D01*
X1202300Y1065284D01*
X1202955Y1064846D01*
X1203728Y1064693D01*
X1205000D01*
Y1067394D01*
D02*
G37*
G36*
X1209292D02*
X1206000D01*
Y1064693D01*
X1207272D01*
X1208045Y1064846D01*
X1208700Y1065284D01*
X1209138Y1065940D01*
X1209292Y1066712D01*
Y1067394D01*
D02*
G37*
G36*
X1196600Y1068300D02*
X1193837D01*
X1193885Y1067939D01*
X1194217Y1067136D01*
X1194746Y1066446D01*
X1195436Y1065917D01*
X1196239Y1065585D01*
X1196600Y1065537D01*
Y1068300D01*
D02*
G37*
G36*
X1297595Y1028288D02*
X1295178Y1025871D01*
X1297595Y1023454D01*
X1297921Y1023879D01*
X1298319Y1024840D01*
X1298455Y1025871D01*
X1298319Y1026902D01*
X1297921Y1027863D01*
X1297595Y1028288D01*
D02*
G37*
G36*
X1242400Y1044400D02*
X1239637D01*
X1239685Y1044038D01*
X1240017Y1043236D01*
X1240546Y1042546D01*
X1241236Y1042017D01*
X1242039Y1041685D01*
X1242400Y1041637D01*
Y1044400D01*
D02*
G37*
G36*
X1246163D02*
X1243400D01*
Y1041637D01*
X1243762Y1041685D01*
X1244564Y1042017D01*
X1245254Y1042546D01*
X1245783Y1043236D01*
X1246115Y1044038D01*
X1246163Y1044400D01*
D02*
G37*
G36*
X1287400Y1018093D02*
X1284983Y1015676D01*
X1285408Y1015350D01*
X1286369Y1014952D01*
X1287400Y1014816D01*
X1288431Y1014952D01*
X1289392Y1015350D01*
X1289817Y1015676D01*
X1287400Y1018093D01*
D02*
G37*
G36*
X1290524Y1021217D02*
X1288107Y1018800D01*
X1290524Y1016383D01*
X1290850Y1016808D01*
X1291248Y1017769D01*
X1291384Y1018800D01*
X1291248Y1019831D01*
X1290850Y1020792D01*
X1290524Y1021217D01*
D02*
G37*
G36*
X1294471Y1025164D02*
X1292054Y1022747D01*
X1292479Y1022421D01*
X1293440Y1022023D01*
X1294471Y1021887D01*
X1295502Y1022023D01*
X1296463Y1022421D01*
X1296888Y1022747D01*
X1294471Y1025164D01*
D02*
G37*
G36*
X1253449Y1051520D02*
X1250799D01*
X1250026Y1051366D01*
X1249371Y1050928D01*
X1248933Y1050273D01*
X1248879Y1050000D01*
X1253449D01*
Y1051520D01*
D02*
G37*
G36*
X1257098D02*
X1254449D01*
Y1050000D01*
X1259019D01*
X1258965Y1050273D01*
X1258527Y1050928D01*
X1257871Y1051366D01*
X1257098Y1051520D01*
D02*
G37*
G36*
X1201200Y1052963D02*
X1200838Y1052915D01*
X1200036Y1052583D01*
X1199346Y1052054D01*
X1198817Y1051364D01*
X1198485Y1050562D01*
X1198437Y1050200D01*
X1201200D01*
Y1052963D01*
D02*
G37*
G36*
Y1049200D02*
X1198437D01*
X1198485Y1048839D01*
X1198817Y1048036D01*
X1199346Y1047346D01*
X1200036Y1046817D01*
X1200838Y1046485D01*
X1201200Y1046437D01*
Y1049200D01*
D02*
G37*
G36*
X1204963D02*
X1202200D01*
Y1046437D01*
X1202561Y1046485D01*
X1203364Y1046817D01*
X1204054Y1047346D01*
X1204583Y1048036D01*
X1204915Y1048839D01*
X1204963Y1049200D01*
D02*
G37*
G36*
X1259019Y1049000D02*
X1254449D01*
Y1047480D01*
X1257098D01*
X1257871Y1047634D01*
X1258527Y1048072D01*
X1258965Y1048727D01*
X1259019Y1049000D01*
D02*
G37*
G36*
X1098366Y1069691D02*
X1097824Y1069583D01*
X1097364Y1069275D01*
X1093188Y1065100D01*
X1092881Y1064640D01*
X1092773Y1064097D01*
X1092881Y1063554D01*
X1093188Y1063095D01*
X1093648Y1062787D01*
X1094169Y1062684D01*
X1094273Y1062163D01*
X1094580Y1061703D01*
X1095040Y1061395D01*
X1095561Y1061292D01*
X1095665Y1060771D01*
X1095972Y1060311D01*
X1096432Y1060003D01*
X1096953Y1059900D01*
X1097056Y1059379D01*
X1097364Y1058919D01*
X1097824Y1058611D01*
X1098345Y1058508D01*
X1098448Y1057987D01*
X1098756Y1057527D01*
X1099216Y1057219D01*
X1099737Y1057116D01*
X1099840Y1056595D01*
X1100148Y1056135D01*
X1100608Y1055828D01*
X1101129Y1055724D01*
X1101232Y1055203D01*
X1101540Y1054743D01*
X1101999Y1054436D01*
X1102521Y1054332D01*
X1102624Y1053811D01*
X1102648Y1053775D01*
X1105668Y1056794D01*
D01*
X1105668Y1056795D01*
X1105669Y1056796D01*
D01*
X1108689Y1059815D01*
X1108652Y1059839D01*
X1108131Y1059943D01*
X1108028Y1060464D01*
X1107720Y1060924D01*
X1107261Y1061231D01*
X1106740Y1061335D01*
X1106636Y1061856D01*
X1106328Y1062316D01*
X1105869Y1062623D01*
X1105836Y1062732D01*
X1106226Y1063123D01*
X1106771Y1063194D01*
X1107397Y1063454D01*
X1107934Y1063866D01*
X1108346Y1064403D01*
X1108605Y1065029D01*
X1108690Y1065671D01*
X1108754Y1065708D01*
X1109425Y1065796D01*
X1109429Y1065794D01*
X1109600Y1065772D01*
Y1067800D01*
X1107588D01*
X1107570Y1067814D01*
X1107506Y1068300D01*
X1107510Y1068329D01*
X1107446Y1068292D01*
X1106775Y1068204D01*
X1106771Y1068206D01*
X1106100Y1068294D01*
X1105429Y1068206D01*
X1104803Y1067946D01*
X1104266Y1067534D01*
X1103854Y1066997D01*
X1103594Y1066371D01*
X1103506Y1065700D01*
X1103510Y1065670D01*
X1103085Y1065407D01*
X1102564Y1065511D01*
X1102460Y1066032D01*
X1102153Y1066492D01*
X1101693Y1066799D01*
X1101172Y1066903D01*
X1101068Y1067424D01*
X1100761Y1067883D01*
X1100301Y1068191D01*
X1099780Y1068294D01*
X1099676Y1068816D01*
X1099369Y1069275D01*
X1098909Y1069583D01*
X1098366Y1069691D01*
D02*
G37*
G36*
X1350595Y1082500D02*
X1347894D01*
Y1079208D01*
X1348575D01*
X1349348Y1079362D01*
X1350003Y1079800D01*
X1350441Y1080455D01*
X1350595Y1081228D01*
Y1082500D01*
D02*
G37*
G36*
X1217772Y1107595D02*
X1214228D01*
X1213455Y1107441D01*
X1212800Y1107003D01*
X1212362Y1106348D01*
X1212208Y1105575D01*
Y1103213D01*
X1212362Y1102439D01*
X1212800Y1101784D01*
X1213455Y1101346D01*
X1213655Y1101307D01*
Y1100000D01*
X1213834Y1099103D01*
X1214342Y1098342D01*
X1219976Y1092708D01*
X1219976Y1092708D01*
X1219976D01*
X1219976Y1092708D01*
X1219976D01*
X1219976Y1092708D01*
Y1092708D01*
Y1092708D01*
D01*
D01*
X1219976D01*
Y1092708D01*
X1220737Y1092200D01*
X1221634Y1092021D01*
X1235415D01*
Y1089740D01*
X1235593Y1088843D01*
X1236102Y1088082D01*
X1243342Y1080842D01*
X1244103Y1080333D01*
X1245000Y1080155D01*
X1245000Y1080155D01*
X1247441D01*
X1247829Y1079994D01*
X1248500Y1079906D01*
X1249171Y1079994D01*
X1249702Y1080214D01*
X1250000Y1080155D01*
X1280000D01*
X1280897Y1080334D01*
X1281658Y1080842D01*
X1281658Y1080842D01*
X1281658Y1080842D01*
X1285016Y1084200D01*
X1289300D01*
Y1091800D01*
X1281700D01*
Y1087516D01*
X1279029Y1084845D01*
X1250000D01*
X1249702Y1084786D01*
X1249171Y1085005D01*
X1248500Y1085094D01*
X1247829Y1085005D01*
X1247441Y1084845D01*
X1245971D01*
X1240105Y1090711D01*
Y1094366D01*
X1239927Y1095263D01*
X1239741Y1095541D01*
Y1097725D01*
X1235779D01*
Y1096711D01*
X1222605D01*
X1218345Y1100971D01*
Y1101307D01*
X1218545Y1101346D01*
X1219200Y1101784D01*
X1219638Y1102439D01*
X1219792Y1103213D01*
Y1105575D01*
X1219638Y1106348D01*
X1219200Y1107003D01*
X1218545Y1107441D01*
X1217772Y1107595D01*
D02*
G37*
G36*
X1183572Y1098796D02*
X1178428D01*
Y1093456D01*
X1180411D01*
X1180493Y1093401D01*
X1181000Y1093301D01*
X1184825D01*
X1190765Y1087360D01*
X1190709Y1087075D01*
Y1084713D01*
X1190862Y1083940D01*
X1191300Y1083284D01*
X1191956Y1082847D01*
X1192729Y1082693D01*
X1196272D01*
X1197045Y1082847D01*
X1197700Y1083284D01*
X1198138Y1083940D01*
X1198292Y1084713D01*
Y1087075D01*
X1198138Y1087848D01*
X1197700Y1088503D01*
X1197045Y1088941D01*
X1196272Y1089095D01*
X1192780D01*
X1186311Y1095563D01*
X1185881Y1095851D01*
X1185374Y1095951D01*
X1183572D01*
Y1098796D01*
D02*
G37*
G36*
X1223240Y1080544D02*
X1221169D01*
Y1078374D01*
X1223240D01*
Y1080544D01*
D02*
G37*
G36*
X1226312D02*
X1224240D01*
Y1078374D01*
X1226312D01*
Y1080544D01*
D02*
G37*
G36*
X1346894Y1082500D02*
X1344193D01*
Y1081228D01*
X1344346Y1080455D01*
X1344784Y1079800D01*
X1345440Y1079362D01*
X1346212Y1079208D01*
X1346894D01*
Y1082500D01*
D02*
G37*
G36*
X1348575Y1086792D02*
X1347894D01*
Y1083500D01*
X1350595D01*
Y1084772D01*
X1350441Y1085545D01*
X1350003Y1086200D01*
X1349348Y1086638D01*
X1348575Y1086792D01*
D02*
G37*
G36*
X1184240Y1086374D02*
X1182168D01*
Y1084204D01*
X1184240D01*
Y1086374D01*
D02*
G37*
G36*
X1187312D02*
X1185240D01*
Y1084204D01*
X1187312D01*
Y1086374D01*
D02*
G37*
G36*
X1230400Y1086200D02*
X1227637D01*
X1227685Y1085839D01*
X1228017Y1085036D01*
X1228546Y1084346D01*
X1229236Y1083817D01*
X1230039Y1083485D01*
X1230400Y1083437D01*
Y1086200D01*
D02*
G37*
G36*
X1234163D02*
X1231400D01*
Y1083437D01*
X1231761Y1083485D01*
X1232564Y1083817D01*
X1233254Y1084346D01*
X1233783Y1085036D01*
X1234115Y1085839D01*
X1234163Y1086200D01*
D02*
G37*
G36*
X1346894Y1086792D02*
X1346212D01*
X1345440Y1086638D01*
X1344784Y1086200D01*
X1344346Y1085545D01*
X1344193Y1084772D01*
Y1083500D01*
X1346894D01*
Y1086792D01*
D02*
G37*
G36*
X1196600Y1072063D02*
X1196239Y1072015D01*
X1195436Y1071683D01*
X1194746Y1071154D01*
X1194217Y1070464D01*
X1193885Y1069662D01*
X1193837Y1069300D01*
X1196600D01*
Y1072063D01*
D02*
G37*
G36*
X1197600D02*
Y1069300D01*
X1200363D01*
X1200315Y1069662D01*
X1199983Y1070464D01*
X1199454Y1071154D01*
X1198764Y1071683D01*
X1197962Y1072015D01*
X1197600Y1072063D01*
D02*
G37*
G36*
X1275700Y1072007D02*
X1274428D01*
X1273655Y1071854D01*
X1273000Y1071416D01*
X1272562Y1070760D01*
X1272408Y1069987D01*
Y1069306D01*
X1275700D01*
Y1072007D01*
D02*
G37*
G36*
X1112628Y1067800D02*
X1110600D01*
Y1065772D01*
X1110771Y1065794D01*
X1111397Y1066054D01*
X1111934Y1066466D01*
X1112346Y1067003D01*
X1112605Y1067629D01*
X1112628Y1067800D01*
D02*
G37*
G36*
X1205000Y1071095D02*
X1203728D01*
X1202955Y1070941D01*
X1202300Y1070503D01*
X1201862Y1069848D01*
X1201708Y1069075D01*
Y1068394D01*
X1205000D01*
Y1071095D01*
D02*
G37*
G36*
X1207272D02*
X1206000D01*
Y1068394D01*
X1209292D01*
Y1069075D01*
X1209138Y1069848D01*
X1208700Y1070503D01*
X1208045Y1070941D01*
X1207272Y1071095D01*
D02*
G37*
G36*
X1223240Y1077374D02*
X1221169D01*
Y1075204D01*
X1223240D01*
Y1077374D01*
D02*
G37*
G36*
X1226312D02*
X1224240D01*
Y1075204D01*
X1226312D01*
Y1077374D01*
D02*
G37*
G36*
X1310000Y1079128D02*
Y1077100D01*
X1312028D01*
X1312006Y1077271D01*
X1311746Y1077897D01*
X1311334Y1078434D01*
X1310797Y1078846D01*
X1310171Y1079105D01*
X1310000Y1079128D01*
D02*
G37*
G36*
X1277972Y1072007D02*
X1276700D01*
Y1069306D01*
X1279992D01*
Y1069987D01*
X1279838Y1070760D01*
X1279400Y1071416D01*
X1278745Y1071854D01*
X1277972Y1072007D01*
D02*
G37*
G36*
X1097081Y1081657D02*
X1097056Y1081621D01*
X1096953Y1081100D01*
X1096432Y1080997D01*
X1095972Y1080689D01*
X1095665Y1080229D01*
X1095561Y1079708D01*
X1095040Y1079605D01*
X1094580Y1079297D01*
X1094273Y1078837D01*
X1094169Y1078316D01*
X1093648Y1078213D01*
X1093188Y1077905D01*
X1092881Y1077446D01*
X1092773Y1076903D01*
X1092881Y1076360D01*
X1093188Y1075900D01*
X1097364Y1071725D01*
X1097824Y1071417D01*
X1098366Y1071309D01*
X1098909Y1071417D01*
X1099369Y1071725D01*
X1099676Y1072184D01*
X1099780Y1072706D01*
X1100301Y1072809D01*
X1100761Y1073116D01*
X1101068Y1073577D01*
X1101172Y1074098D01*
X1101693Y1074201D01*
X1102153Y1074508D01*
X1102460Y1074968D01*
X1102564Y1075489D01*
X1103085Y1075593D01*
X1103121Y1075617D01*
X1100101Y1078637D01*
D01*
X1100101Y1078637D01*
X1100100Y1078638D01*
D01*
X1097081Y1081657D01*
D02*
G37*
G36*
X1309000Y1076100D02*
X1306972D01*
X1306995Y1075929D01*
X1307254Y1075303D01*
X1307666Y1074766D01*
X1308203Y1074354D01*
X1308829Y1074094D01*
X1309000Y1074072D01*
Y1076100D01*
D02*
G37*
G36*
X1153163Y1131000D02*
X1150400D01*
Y1128237D01*
X1150762Y1128285D01*
X1151564Y1128617D01*
X1152254Y1129146D01*
X1152783Y1129836D01*
X1153115Y1130639D01*
X1153163Y1131000D01*
D02*
G37*
G36*
X1259500Y1167106D02*
X1256208D01*
Y1166425D01*
X1256362Y1165652D01*
X1256800Y1164997D01*
X1257455Y1164559D01*
X1258228Y1164405D01*
X1259500D01*
Y1167106D01*
D02*
G37*
G36*
X1263792D02*
X1260500D01*
Y1164405D01*
X1261772D01*
X1262545Y1164559D01*
X1263200Y1164997D01*
X1263638Y1165652D01*
X1263792Y1166425D01*
Y1167106D01*
D02*
G37*
G36*
X1218272Y1171807D02*
X1214728D01*
X1213955Y1171653D01*
X1213300Y1171216D01*
X1212862Y1170560D01*
X1212708Y1169787D01*
Y1167425D01*
X1212862Y1166652D01*
X1213300Y1165997D01*
X1213955Y1165559D01*
X1214728Y1165405D01*
X1218272D01*
X1219045Y1165559D01*
X1219700Y1165997D01*
X1219806Y1166155D01*
X1229051D01*
X1229949Y1166333D01*
X1230168Y1166480D01*
X1232201D01*
X1232974Y1166634D01*
X1233629Y1167072D01*
X1234067Y1167727D01*
X1234221Y1168500D01*
X1234067Y1169273D01*
X1233629Y1169928D01*
X1232974Y1170366D01*
X1232201Y1170520D01*
X1230168D01*
X1229949Y1170667D01*
X1229051Y1170845D01*
X1219948D01*
X1219700Y1171216D01*
X1219045Y1171653D01*
X1218272Y1171807D01*
D02*
G37*
G36*
X1232201Y1165520D02*
X1229551D01*
Y1164000D01*
X1234121D01*
X1234067Y1164273D01*
X1233629Y1164928D01*
X1232974Y1165366D01*
X1232201Y1165520D01*
D02*
G37*
G36*
X1247449D02*
X1244799D01*
X1244026Y1165366D01*
X1243371Y1164928D01*
X1242933Y1164273D01*
X1242879Y1164000D01*
X1247449D01*
Y1165520D01*
D02*
G37*
G36*
X1251098D02*
X1248449D01*
Y1164000D01*
X1253019D01*
X1252965Y1164273D01*
X1252527Y1164928D01*
X1251871Y1165366D01*
X1251098Y1165520D01*
D02*
G37*
G36*
X1232201Y1175520D02*
X1225902D01*
X1225129Y1175366D01*
X1224473Y1174928D01*
X1224035Y1174273D01*
X1223882Y1173500D01*
X1224035Y1172727D01*
X1224473Y1172072D01*
X1225129Y1171634D01*
X1225902Y1171480D01*
X1232201D01*
X1232974Y1171634D01*
X1233629Y1172072D01*
X1234067Y1172727D01*
X1234221Y1173500D01*
X1234067Y1174273D01*
X1233629Y1174928D01*
X1232974Y1175366D01*
X1232201Y1175520D01*
D02*
G37*
G36*
X1345894Y1178000D02*
X1343193D01*
Y1176728D01*
X1343346Y1175955D01*
X1343784Y1175300D01*
X1344440Y1174862D01*
X1345212Y1174708D01*
X1345894D01*
Y1178000D01*
D02*
G37*
G36*
X1349595D02*
X1346894D01*
Y1174708D01*
X1347575D01*
X1348348Y1174862D01*
X1349003Y1175300D01*
X1349441Y1175955D01*
X1349595Y1176728D01*
Y1178000D01*
D02*
G37*
G36*
X1251098Y1170520D02*
X1244799D01*
X1244026Y1170366D01*
X1243371Y1169928D01*
X1242933Y1169273D01*
X1242779Y1168500D01*
X1242933Y1167727D01*
X1243371Y1167072D01*
X1244026Y1166634D01*
X1244799Y1166480D01*
X1251098D01*
X1251871Y1166634D01*
X1252527Y1167072D01*
X1252965Y1167727D01*
X1253118Y1168500D01*
X1252965Y1169273D01*
X1252527Y1169928D01*
X1251871Y1170366D01*
X1251098Y1170520D01*
D02*
G37*
G36*
X1259500Y1170807D02*
X1258228D01*
X1257455Y1170653D01*
X1256800Y1170216D01*
X1256362Y1169560D01*
X1256208Y1168787D01*
Y1168106D01*
X1259500D01*
Y1170807D01*
D02*
G37*
G36*
X1261772D02*
X1260500D01*
Y1168106D01*
X1263792D01*
Y1168787D01*
X1263638Y1169560D01*
X1263200Y1170216D01*
X1262545Y1170653D01*
X1261772Y1170807D01*
D02*
G37*
G36*
X1228551Y1165520D02*
X1225902D01*
X1225129Y1165366D01*
X1224473Y1164928D01*
X1224035Y1164273D01*
X1223981Y1164000D01*
X1228551D01*
Y1165520D01*
D02*
G37*
G36*
X1130000Y1167333D02*
X1129008Y1167202D01*
X1128084Y1166819D01*
X1127290Y1166210D01*
X1126681Y1165416D01*
X1126298Y1164492D01*
X1126167Y1163500D01*
X1126298Y1162508D01*
X1126681Y1161584D01*
X1127290Y1160790D01*
X1128084Y1160181D01*
X1129008Y1159798D01*
X1130000Y1159667D01*
X1130992Y1159798D01*
X1131916Y1160181D01*
X1132710Y1160790D01*
X1133319Y1161584D01*
X1133702Y1162508D01*
X1133833Y1163500D01*
X1133702Y1164492D01*
X1133319Y1165416D01*
X1132710Y1166210D01*
X1131916Y1166819D01*
X1130992Y1167202D01*
X1130000Y1167333D01*
D02*
G37*
G36*
X1140000D02*
X1139008Y1167202D01*
X1138084Y1166819D01*
X1137290Y1166210D01*
X1136681Y1165416D01*
X1136298Y1164492D01*
X1136167Y1163500D01*
X1136298Y1162508D01*
X1136681Y1161584D01*
X1137290Y1160790D01*
X1138084Y1160181D01*
X1139008Y1159798D01*
X1140000Y1159667D01*
X1140992Y1159798D01*
X1141916Y1160181D01*
X1142710Y1160790D01*
X1143319Y1161584D01*
X1143702Y1162508D01*
X1143833Y1163500D01*
X1143702Y1164492D01*
X1143319Y1165416D01*
X1142710Y1166210D01*
X1141916Y1166819D01*
X1140992Y1167202D01*
X1140000Y1167333D01*
D02*
G37*
G36*
X1150000D02*
X1149008Y1167202D01*
X1148084Y1166819D01*
X1147290Y1166210D01*
X1146681Y1165416D01*
X1146298Y1164492D01*
X1146167Y1163500D01*
X1146298Y1162508D01*
X1146681Y1161584D01*
X1147290Y1160790D01*
X1148084Y1160181D01*
X1149008Y1159798D01*
X1150000Y1159667D01*
X1150992Y1159798D01*
X1151916Y1160181D01*
X1152710Y1160790D01*
X1153319Y1161584D01*
X1153702Y1162508D01*
X1153833Y1163500D01*
X1153702Y1164492D01*
X1153319Y1165416D01*
X1152710Y1166210D01*
X1151916Y1166819D01*
X1150992Y1167202D01*
X1150000Y1167333D01*
D02*
G37*
G36*
X1218272Y1162595D02*
X1214728D01*
X1213955Y1162441D01*
X1213300Y1162003D01*
X1212862Y1161348D01*
X1212708Y1160575D01*
Y1158212D01*
X1212862Y1157440D01*
X1213300Y1156784D01*
X1213955Y1156346D01*
X1214728Y1156193D01*
X1217204D01*
X1217394Y1156155D01*
X1229051D01*
X1229949Y1156334D01*
X1230168Y1156480D01*
X1232201D01*
X1232974Y1156634D01*
X1233629Y1157072D01*
X1234067Y1157727D01*
X1234221Y1158500D01*
X1234067Y1159273D01*
X1233629Y1159928D01*
X1232974Y1160366D01*
X1232201Y1160520D01*
X1230168D01*
X1229949Y1160666D01*
X1229051Y1160845D01*
X1220238D01*
X1220138Y1161348D01*
X1219700Y1162003D01*
X1219045Y1162441D01*
X1218272Y1162595D01*
D02*
G37*
G36*
X1110000Y1167333D02*
X1109008Y1167202D01*
X1108084Y1166819D01*
X1107290Y1166210D01*
X1106681Y1165416D01*
X1106298Y1164492D01*
X1106167Y1163500D01*
X1106298Y1162508D01*
X1106681Y1161584D01*
X1107290Y1160790D01*
X1108084Y1160181D01*
X1109008Y1159798D01*
X1110000Y1159667D01*
X1110992Y1159798D01*
X1111916Y1160181D01*
X1112710Y1160790D01*
X1113319Y1161584D01*
X1113702Y1162508D01*
X1113833Y1163500D01*
X1113702Y1164492D01*
X1113319Y1165416D01*
X1112710Y1166210D01*
X1111916Y1166819D01*
X1110992Y1167202D01*
X1110000Y1167333D01*
D02*
G37*
G36*
X1120000D02*
X1119008Y1167202D01*
X1118084Y1166819D01*
X1117290Y1166210D01*
X1116681Y1165416D01*
X1116298Y1164492D01*
X1116167Y1163500D01*
X1116298Y1162508D01*
X1116681Y1161584D01*
X1117290Y1160790D01*
X1118084Y1160181D01*
X1119008Y1159798D01*
X1120000Y1159667D01*
X1120992Y1159798D01*
X1121916Y1160181D01*
X1122710Y1160790D01*
X1123319Y1161584D01*
X1123702Y1162508D01*
X1123833Y1163500D01*
X1123702Y1164492D01*
X1123319Y1165416D01*
X1122710Y1166210D01*
X1121916Y1166819D01*
X1120992Y1167202D01*
X1120000Y1167333D01*
D02*
G37*
G36*
X1234121Y1163000D02*
X1229551D01*
Y1161480D01*
X1232201D01*
X1232974Y1161634D01*
X1233629Y1162072D01*
X1234067Y1162727D01*
X1234121Y1163000D01*
D02*
G37*
G36*
X1247449D02*
X1242879D01*
X1242933Y1162727D01*
X1243371Y1162072D01*
X1244026Y1161634D01*
X1244799Y1161480D01*
X1247449D01*
Y1163000D01*
D02*
G37*
G36*
X1253019D02*
X1248449D01*
Y1161480D01*
X1251098D01*
X1251871Y1161634D01*
X1252527Y1162072D01*
X1252965Y1162727D01*
X1253019Y1163000D01*
D02*
G37*
G36*
X1163800Y1167300D02*
X1156200D01*
Y1159700D01*
X1163800D01*
Y1167300D01*
D02*
G37*
G36*
X1261772Y1161595D02*
X1258228D01*
X1257455Y1161441D01*
X1256800Y1161003D01*
X1256623Y1160739D01*
X1248484D01*
X1247949Y1160845D01*
X1247414Y1160739D01*
X1244794D01*
X1243896Y1160560D01*
X1243135Y1160052D01*
X1238029Y1154945D01*
X1174100D01*
X1174100Y1154945D01*
X1173203Y1154767D01*
X1172442Y1154258D01*
X1166029Y1147845D01*
X1113471D01*
X1112345Y1148971D01*
Y1150510D01*
X1112710Y1150790D01*
X1113319Y1151584D01*
X1113702Y1152508D01*
X1113833Y1153500D01*
X1113702Y1154492D01*
X1113319Y1155416D01*
X1112710Y1156210D01*
X1111916Y1156819D01*
X1110992Y1157202D01*
X1110000Y1157333D01*
X1109008Y1157202D01*
X1108084Y1156819D01*
X1107290Y1156210D01*
X1106681Y1155416D01*
X1106298Y1154492D01*
X1106167Y1153500D01*
X1106298Y1152508D01*
X1106681Y1151584D01*
X1107290Y1150790D01*
X1107655Y1150510D01*
Y1148000D01*
X1107833Y1147103D01*
X1108342Y1146342D01*
X1108342Y1146342D01*
X1108342Y1146342D01*
X1110842Y1143842D01*
X1111603Y1143334D01*
X1112500Y1143155D01*
X1167000D01*
X1167897Y1143334D01*
X1168658Y1143842D01*
X1168658Y1143842D01*
X1168658Y1143842D01*
X1175071Y1150255D01*
X1236119D01*
X1236217Y1149765D01*
X1235536Y1149483D01*
X1234846Y1148954D01*
X1234317Y1148264D01*
X1233985Y1147462D01*
X1233937Y1147100D01*
X1240463D01*
X1240415Y1147462D01*
X1240083Y1148264D01*
X1239554Y1148954D01*
X1238864Y1149483D01*
X1238183Y1149765D01*
X1238281Y1150255D01*
X1239000D01*
X1239897Y1150434D01*
X1240658Y1150942D01*
X1240658Y1150942D01*
X1240658Y1150942D01*
X1245765Y1156048D01*
X1256623D01*
X1256800Y1155784D01*
X1257049Y1155618D01*
Y1153355D01*
X1256990Y1153310D01*
X1256381Y1152516D01*
X1255998Y1151592D01*
X1255867Y1150600D01*
X1255998Y1149608D01*
X1256381Y1148684D01*
X1256990Y1147890D01*
X1257049Y1147845D01*
Y1145377D01*
X1256784Y1145200D01*
X1256347Y1144545D01*
X1256193Y1143772D01*
Y1142345D01*
X1247949D01*
X1247051Y1142167D01*
X1246832Y1142020D01*
X1244799D01*
X1244026Y1141866D01*
X1243371Y1141428D01*
X1242933Y1140773D01*
X1242779Y1140000D01*
X1242933Y1139227D01*
X1243371Y1138572D01*
X1244026Y1138134D01*
X1244799Y1137980D01*
X1246832D01*
X1247051Y1137833D01*
X1247949Y1137655D01*
X1257394D01*
X1258291Y1137833D01*
X1258852Y1138208D01*
X1260575D01*
X1261348Y1138362D01*
X1262003Y1138800D01*
X1262441Y1139455D01*
X1262595Y1140228D01*
Y1143772D01*
X1262441Y1144545D01*
X1262003Y1145200D01*
X1261739Y1145377D01*
Y1147375D01*
X1262410Y1147890D01*
X1263019Y1148684D01*
X1263402Y1149608D01*
X1263533Y1150600D01*
X1263402Y1151592D01*
X1263019Y1152516D01*
X1262410Y1153310D01*
X1261739Y1153825D01*
Y1155193D01*
X1261772D01*
X1262545Y1155346D01*
X1263200Y1155784D01*
X1263638Y1156439D01*
X1263792Y1157213D01*
Y1159575D01*
X1263638Y1160348D01*
X1263200Y1161003D01*
X1262545Y1161441D01*
X1261772Y1161595D01*
D02*
G37*
G36*
X1228551Y1163000D02*
X1223981D01*
X1224035Y1162727D01*
X1224473Y1162072D01*
X1225129Y1161634D01*
X1225902Y1161480D01*
X1228551D01*
Y1163000D01*
D02*
G37*
G36*
X1345894Y1182292D02*
X1345212D01*
X1344440Y1182138D01*
X1343784Y1181700D01*
X1343346Y1181045D01*
X1343193Y1180272D01*
Y1179000D01*
X1345894D01*
Y1182292D01*
D02*
G37*
G36*
X1191200Y1228963D02*
X1190839Y1228915D01*
X1190036Y1228583D01*
X1189346Y1228054D01*
X1188817Y1227364D01*
X1188485Y1226562D01*
X1188437Y1226200D01*
X1191200D01*
Y1228963D01*
D02*
G37*
G36*
X1205894Y1231500D02*
X1203193D01*
Y1230228D01*
X1203347Y1229455D01*
X1203784Y1228800D01*
X1204440Y1228362D01*
X1205213Y1228208D01*
X1205894D01*
Y1231500D01*
D02*
G37*
G36*
X1209595D02*
X1206894D01*
Y1228208D01*
X1207575D01*
X1208348Y1228362D01*
X1209003Y1228800D01*
X1209441Y1229455D01*
X1209595Y1230228D01*
Y1231500D01*
D02*
G37*
G36*
X1219098Y1213020D02*
X1212799D01*
X1212026Y1212866D01*
X1211371Y1212428D01*
X1210933Y1211773D01*
X1210779Y1211000D01*
X1210933Y1210227D01*
X1211371Y1209572D01*
X1212026Y1209134D01*
X1212799Y1208980D01*
X1219098D01*
X1219871Y1209134D01*
X1220527Y1209572D01*
X1220965Y1210227D01*
X1221118Y1211000D01*
X1220965Y1211773D01*
X1220527Y1212428D01*
X1219871Y1212866D01*
X1219098Y1213020D01*
D02*
G37*
G36*
Y1218020D02*
X1212799D01*
X1212026Y1217866D01*
X1211371Y1217428D01*
X1210933Y1216773D01*
X1210779Y1216000D01*
X1210933Y1215227D01*
X1211371Y1214572D01*
X1212026Y1214134D01*
X1212799Y1213980D01*
X1219098D01*
X1219871Y1214134D01*
X1220527Y1214572D01*
X1220965Y1215227D01*
X1221118Y1216000D01*
X1220965Y1216773D01*
X1220527Y1217428D01*
X1219871Y1217866D01*
X1219098Y1218020D01*
D02*
G37*
G36*
X1191200Y1225200D02*
X1188437D01*
X1188485Y1224839D01*
X1188817Y1224036D01*
X1189346Y1223346D01*
X1190036Y1222817D01*
X1190839Y1222485D01*
X1191200Y1222437D01*
Y1225200D01*
D02*
G37*
G36*
X1218492Y1255506D02*
X1215200D01*
Y1252805D01*
X1216472D01*
X1217245Y1252959D01*
X1217900Y1253397D01*
X1218338Y1254052D01*
X1218492Y1254825D01*
Y1255506D01*
D02*
G37*
G36*
X1216472Y1259207D02*
X1215200D01*
Y1256506D01*
X1218492D01*
Y1257187D01*
X1218338Y1257960D01*
X1217900Y1258616D01*
X1217245Y1259054D01*
X1216472Y1259207D01*
D02*
G37*
G36*
X1212200Y1267233D02*
X1211208Y1267102D01*
X1210284Y1266719D01*
X1209490Y1266110D01*
X1208881Y1265316D01*
X1208685Y1264845D01*
X1201237D01*
Y1266253D01*
X1191763D01*
Y1264845D01*
X1185320D01*
Y1265690D01*
X1181161D01*
Y1264845D01*
X1177839D01*
Y1265690D01*
X1173680D01*
Y1264845D01*
X1164823D01*
X1163925Y1264667D01*
X1163165Y1264158D01*
X1160724Y1261717D01*
X1152007D01*
Y1252637D01*
X1166993D01*
Y1260155D01*
X1173680D01*
Y1259759D01*
X1177839D01*
Y1260155D01*
X1179325D01*
X1179470Y1259676D01*
X1179202Y1259498D01*
X1178202Y1258498D01*
X1177804Y1257902D01*
X1177781Y1257786D01*
X1177665Y1257200D01*
Y1256241D01*
X1173680D01*
Y1254976D01*
X1173617Y1254934D01*
X1165047Y1246363D01*
X1152007D01*
Y1237646D01*
X1151842Y1237481D01*
X1151334Y1236720D01*
X1151155Y1235823D01*
Y1228134D01*
X1151334Y1227236D01*
X1151519Y1226959D01*
Y1224775D01*
X1155481D01*
Y1226959D01*
X1155667Y1227236D01*
X1155845Y1228134D01*
Y1234851D01*
X1158276Y1237283D01*
X1166993D01*
Y1241677D01*
X1175627Y1250310D01*
X1177665D01*
Y1245367D01*
X1176587Y1244289D01*
X1176575Y1244292D01*
X1174212D01*
X1173440Y1244138D01*
X1172784Y1243700D01*
X1172346Y1243045D01*
X1172193Y1242272D01*
Y1241609D01*
X1164842Y1234258D01*
X1164334Y1233497D01*
X1164155Y1232600D01*
Y1232193D01*
X1163955Y1232154D01*
X1163300Y1231716D01*
X1162862Y1231061D01*
X1162708Y1230287D01*
Y1227925D01*
X1162862Y1227152D01*
X1163300Y1226497D01*
X1163955Y1226059D01*
X1164728Y1225905D01*
X1168272D01*
X1169045Y1226059D01*
X1169700Y1226497D01*
X1170138Y1227152D01*
X1170292Y1227925D01*
Y1230287D01*
X1170138Y1231061D01*
X1169700Y1231716D01*
X1169567Y1231804D01*
X1169518Y1232302D01*
X1173973Y1236756D01*
X1174212Y1236708D01*
X1176575D01*
X1177348Y1236862D01*
X1178003Y1237300D01*
X1178441Y1237955D01*
X1178595Y1238728D01*
Y1241106D01*
X1180798Y1243309D01*
X1181196Y1243904D01*
X1181335Y1244606D01*
X1181335Y1244606D01*
X1181335Y1244606D01*
Y1244606D01*
Y1250310D01*
X1182261D01*
Y1243877D01*
X1181997Y1243700D01*
X1181559Y1243045D01*
X1181405Y1242272D01*
Y1238728D01*
X1181559Y1237955D01*
X1181997Y1237300D01*
X1182652Y1236862D01*
X1182761Y1236841D01*
Y1233377D01*
X1182497Y1233200D01*
X1182059Y1232545D01*
X1181905Y1231772D01*
Y1228228D01*
X1182059Y1227455D01*
X1182497Y1226800D01*
X1182761Y1226623D01*
Y1223377D01*
X1182497Y1223200D01*
X1182059Y1222545D01*
X1181905Y1221772D01*
Y1218228D01*
X1182059Y1217455D01*
X1182497Y1216800D01*
X1183152Y1216362D01*
X1183925Y1216208D01*
X1186287D01*
X1187061Y1216362D01*
X1187716Y1216800D01*
X1188154Y1217455D01*
X1188307Y1218228D01*
Y1221772D01*
X1188154Y1222545D01*
X1187716Y1223200D01*
X1187451Y1223377D01*
Y1226623D01*
X1187716Y1226800D01*
X1188154Y1227455D01*
X1188307Y1228228D01*
Y1231772D01*
X1188154Y1232545D01*
X1187716Y1233200D01*
X1187451Y1233377D01*
Y1237653D01*
X1187653Y1237955D01*
X1187807Y1238728D01*
Y1242272D01*
X1187653Y1243045D01*
X1187216Y1243700D01*
X1186951Y1243877D01*
Y1251910D01*
X1186773Y1252807D01*
X1186264Y1253568D01*
X1185504Y1254076D01*
X1185320Y1254113D01*
Y1256241D01*
D01*
Y1256241D01*
X1185443Y1256365D01*
X1185840D01*
X1191763Y1250442D01*
Y1246247D01*
X1194706D01*
Y1246000D01*
Y1227981D01*
X1194233Y1227820D01*
X1194054Y1228054D01*
X1193364Y1228583D01*
X1192562Y1228915D01*
X1192200Y1228963D01*
Y1225699D01*
Y1222437D01*
X1191906Y1222398D01*
X1192170Y1221974D01*
X1192035Y1221773D01*
X1191882Y1221000D01*
X1192035Y1220227D01*
X1192473Y1219572D01*
X1193129Y1219134D01*
X1193902Y1218980D01*
X1194706D01*
Y1218500D01*
Y1218020D01*
X1193902D01*
X1193129Y1217866D01*
X1192473Y1217428D01*
X1192035Y1216773D01*
X1191882Y1216000D01*
X1192035Y1215227D01*
X1192473Y1214572D01*
X1193129Y1214134D01*
X1193902Y1213980D01*
X1195789D01*
X1196106Y1213594D01*
X1196057Y1213345D01*
X1177944D01*
Y1216426D01*
X1178503Y1216800D01*
X1178941Y1217455D01*
X1179095Y1218228D01*
Y1221772D01*
X1178941Y1222545D01*
X1178503Y1223200D01*
X1177944Y1223574D01*
Y1226426D01*
X1178503Y1226800D01*
X1178941Y1227455D01*
X1179095Y1228228D01*
Y1231772D01*
X1178941Y1232545D01*
X1178503Y1233200D01*
X1177848Y1233638D01*
X1177075Y1233792D01*
X1174713D01*
X1173940Y1233638D01*
X1173284Y1233200D01*
X1172847Y1232545D01*
X1172693Y1231772D01*
Y1228228D01*
X1172847Y1227455D01*
X1173253Y1226847D01*
Y1223153D01*
X1172847Y1222545D01*
X1172780Y1222211D01*
X1169895D01*
X1169700Y1222503D01*
X1169045Y1222941D01*
X1168272Y1223095D01*
X1164728D01*
X1163955Y1222941D01*
X1163300Y1222503D01*
X1163105Y1222211D01*
X1159221D01*
Y1223225D01*
X1155259D01*
Y1222211D01*
X1151741D01*
Y1223225D01*
X1147779D01*
Y1221202D01*
X1141401Y1214824D01*
X1140750Y1215323D01*
X1139825Y1215706D01*
X1138834Y1215837D01*
X1137842Y1215706D01*
X1136917Y1215323D01*
X1136123Y1214714D01*
X1135514Y1213920D01*
X1135131Y1212996D01*
X1135001Y1212004D01*
X1135131Y1211012D01*
X1135514Y1210087D01*
X1136014Y1209437D01*
X1098342Y1171765D01*
X1097834Y1171004D01*
X1097655Y1170106D01*
Y1166490D01*
X1097290Y1166210D01*
X1096681Y1165416D01*
X1096298Y1164492D01*
X1096167Y1163500D01*
X1096298Y1162508D01*
X1096681Y1161584D01*
X1097290Y1160790D01*
X1098084Y1160181D01*
X1099008Y1159798D01*
X1100000Y1159667D01*
X1100992Y1159798D01*
X1101916Y1160181D01*
X1102710Y1160790D01*
X1103319Y1161584D01*
X1103702Y1162508D01*
X1103833Y1163500D01*
X1103702Y1164492D01*
X1103319Y1165416D01*
X1102710Y1166210D01*
X1102345Y1166490D01*
Y1169135D01*
X1149717Y1216507D01*
X1151741D01*
Y1217521D01*
X1155259D01*
Y1216507D01*
X1159221D01*
Y1217521D01*
X1163142D01*
X1163300Y1217284D01*
X1163955Y1216847D01*
X1164728Y1216693D01*
X1168272D01*
X1169045Y1216847D01*
X1169700Y1217284D01*
X1169858Y1217521D01*
X1172834D01*
X1172847Y1217455D01*
X1173253Y1216847D01*
Y1211000D01*
Y1208524D01*
X1169680D01*
Y1197476D01*
X1181516D01*
Y1208524D01*
D01*
Y1208524D01*
X1181647Y1208655D01*
X1196057D01*
X1196106Y1208406D01*
X1195789Y1208020D01*
X1193902D01*
X1193129Y1207866D01*
X1192473Y1207428D01*
X1192035Y1206773D01*
X1191882Y1206000D01*
X1192035Y1205227D01*
X1192473Y1204572D01*
X1193129Y1204134D01*
X1193902Y1203980D01*
X1194706D01*
Y1194979D01*
X1191241D01*
Y1195993D01*
X1187279D01*
Y1193809D01*
X1187093Y1193531D01*
X1186915Y1192634D01*
X1187093Y1191736D01*
X1187279Y1191459D01*
Y1189275D01*
X1191241D01*
Y1190289D01*
X1194759D01*
Y1189275D01*
X1198721D01*
Y1190289D01*
X1204283D01*
Y1183007D01*
X1213363D01*
Y1197655D01*
X1214029D01*
X1214155Y1197529D01*
Y1182971D01*
X1212029Y1180845D01*
X1202971D01*
X1197792Y1186024D01*
X1197031Y1186533D01*
X1196134Y1186711D01*
X1194981D01*
Y1187725D01*
X1191019D01*
Y1186711D01*
X1170007D01*
X1156320Y1200398D01*
Y1208524D01*
X1144483D01*
Y1197476D01*
X1152610D01*
X1167377Y1182708D01*
X1168138Y1182200D01*
X1169035Y1182021D01*
X1191019D01*
Y1181007D01*
X1194981D01*
Y1181549D01*
X1195443Y1181740D01*
X1200342Y1176842D01*
X1200342Y1176842D01*
X1200342D01*
X1200342Y1176842D01*
X1200342D01*
X1200342Y1176842D01*
Y1176842D01*
Y1176842D01*
D01*
D01*
X1200342D01*
Y1176842D01*
X1201103Y1176334D01*
X1202000Y1176155D01*
X1213000D01*
X1213897Y1176334D01*
X1214658Y1176842D01*
X1214658Y1176842D01*
X1214658Y1176842D01*
X1218158Y1180342D01*
X1218667Y1181103D01*
X1218845Y1182000D01*
X1218845Y1182000D01*
X1218845Y1182000D01*
Y1182000D01*
Y1198500D01*
X1218666Y1199397D01*
X1218158Y1200158D01*
X1216658Y1201658D01*
X1215897Y1202166D01*
X1215000Y1202345D01*
X1210471D01*
X1208845Y1203971D01*
Y1214500D01*
X1208667Y1215397D01*
X1208158Y1216158D01*
X1208158Y1216158D01*
X1204158Y1220158D01*
X1203397Y1220667D01*
X1202500Y1220845D01*
X1202348D01*
X1202221Y1221000D01*
X1202067Y1221773D01*
X1201629Y1222428D01*
X1200974Y1222866D01*
X1200201Y1223020D01*
X1199396D01*
Y1244449D01*
X1205317D01*
X1205338Y1244440D01*
X1206200Y1244326D01*
X1207061Y1244440D01*
X1207083Y1244449D01*
X1211323D01*
X1211500Y1244184D01*
X1212155Y1243746D01*
X1212928Y1243593D01*
X1216472D01*
X1217245Y1243746D01*
X1217900Y1244184D01*
X1218077Y1244449D01*
X1220468D01*
X1220546Y1244346D01*
X1221236Y1243817D01*
X1222038Y1243485D01*
X1222900Y1243371D01*
X1223761Y1243485D01*
X1223929Y1243554D01*
X1224842Y1242642D01*
X1224842Y1242642D01*
X1225603Y1242134D01*
X1226500Y1241955D01*
X1233827D01*
X1234476Y1241306D01*
Y1233180D01*
X1245524D01*
Y1245016D01*
X1237398D01*
X1236457Y1245958D01*
X1235696Y1246467D01*
X1234798Y1246645D01*
X1227471D01*
X1225804Y1248312D01*
X1225783Y1248364D01*
X1225254Y1249054D01*
X1224564Y1249583D01*
X1223761Y1249915D01*
X1222900Y1250029D01*
X1222038Y1249915D01*
X1221236Y1249583D01*
X1220657Y1249139D01*
X1218077D01*
X1217900Y1249403D01*
X1217245Y1249841D01*
X1216472Y1249995D01*
X1212928D01*
X1212155Y1249841D01*
X1211500Y1249403D01*
X1211323Y1249139D01*
X1209157D01*
X1209083Y1249319D01*
X1208554Y1250008D01*
X1207864Y1250537D01*
X1207061Y1250870D01*
X1206200Y1250983D01*
X1205338Y1250870D01*
X1204536Y1250537D01*
X1203846Y1250008D01*
X1203317Y1249319D01*
X1203243Y1249139D01*
X1201237D01*
Y1253753D01*
X1193643D01*
X1187898Y1259498D01*
X1187302Y1259896D01*
X1187186Y1259919D01*
X1186600Y1260035D01*
X1186720Y1260155D01*
X1191763D01*
Y1258747D01*
X1201237D01*
Y1260155D01*
X1210187D01*
X1210284Y1260081D01*
X1211208Y1259698D01*
X1212200Y1259567D01*
X1212265Y1259075D01*
X1212155Y1259054D01*
X1211500Y1258616D01*
X1211062Y1257960D01*
X1210908Y1257187D01*
Y1256506D01*
X1214200D01*
Y1259207D01*
X1213289D01*
X1213192Y1259698D01*
X1213192Y1259698D01*
X1214116Y1260081D01*
X1214213Y1260155D01*
X1244529D01*
X1353652Y1151031D01*
X1353652Y1151031D01*
X1353516Y1150000D01*
X1353652Y1148969D01*
X1354050Y1148008D01*
X1354683Y1147183D01*
X1355508Y1146550D01*
X1356469Y1146152D01*
X1357500Y1146016D01*
X1358531Y1146152D01*
X1359492Y1146550D01*
X1360317Y1147183D01*
X1360950Y1148008D01*
X1361348Y1148969D01*
X1361484Y1150000D01*
X1361348Y1151031D01*
X1360950Y1151992D01*
X1360317Y1152817D01*
X1359492Y1153450D01*
X1358531Y1153848D01*
X1357500Y1153984D01*
X1357352Y1153964D01*
X1247158Y1264158D01*
X1246397Y1264666D01*
X1245500Y1264845D01*
X1215714D01*
X1215519Y1265316D01*
X1214910Y1266110D01*
X1214116Y1266719D01*
X1213192Y1267102D01*
X1212200Y1267233D01*
D02*
G37*
G36*
X1205894Y1235792D02*
X1205213D01*
X1204440Y1235638D01*
X1203784Y1235200D01*
X1203347Y1234545D01*
X1203193Y1233772D01*
Y1232500D01*
X1205894D01*
Y1235792D01*
D02*
G37*
G36*
X1207575D02*
X1206894D01*
Y1232500D01*
X1209595D01*
Y1233772D01*
X1209441Y1234545D01*
X1209003Y1235200D01*
X1208348Y1235638D01*
X1207575Y1235792D01*
D02*
G37*
G36*
X1214200Y1255506D02*
X1210908D01*
Y1254825D01*
X1211062Y1254052D01*
X1211500Y1253397D01*
X1212155Y1252959D01*
X1212928Y1252805D01*
X1214200D01*
Y1255506D01*
D02*
G37*
G36*
X1186800Y1207563D02*
Y1204800D01*
X1189563D01*
X1189515Y1205161D01*
X1189183Y1205964D01*
X1188654Y1206654D01*
X1187964Y1207183D01*
X1187162Y1207515D01*
X1186800Y1207563D01*
D02*
G37*
G36*
X1105500Y1211333D02*
X1103805Y1211200D01*
X1102152Y1210803D01*
X1100582Y1210153D01*
X1099132Y1209264D01*
X1097840Y1208160D01*
X1096736Y1206868D01*
X1095847Y1205418D01*
X1095197Y1203848D01*
X1094800Y1202195D01*
X1094667Y1200500D01*
X1094800Y1198805D01*
X1095197Y1197152D01*
X1095847Y1195582D01*
X1096736Y1194132D01*
X1097840Y1192840D01*
X1099132Y1191736D01*
X1100582Y1190847D01*
X1102152Y1190197D01*
X1103805Y1189800D01*
X1105500Y1189667D01*
X1107195Y1189800D01*
X1108848Y1190197D01*
X1110418Y1190847D01*
X1111868Y1191736D01*
X1113160Y1192840D01*
X1114264Y1194132D01*
X1115153Y1195582D01*
X1115803Y1197152D01*
X1116200Y1198805D01*
X1116333Y1200500D01*
X1116200Y1202195D01*
X1115803Y1203848D01*
X1115153Y1205418D01*
X1114264Y1206868D01*
X1113160Y1208160D01*
X1111868Y1209264D01*
X1110418Y1210153D01*
X1108848Y1210803D01*
X1107195Y1211200D01*
X1105500Y1211333D01*
D02*
G37*
G36*
X1350988D02*
X1349293Y1211200D01*
X1347640Y1210803D01*
X1346069Y1210153D01*
X1344620Y1209264D01*
X1343327Y1208160D01*
X1342223Y1206868D01*
X1341335Y1205418D01*
X1340684Y1203848D01*
X1340288Y1202195D01*
X1340154Y1200500D01*
X1340288Y1198805D01*
X1340684Y1197152D01*
X1341335Y1195582D01*
X1342223Y1194132D01*
X1343327Y1192840D01*
X1344620Y1191736D01*
X1346069Y1190847D01*
X1347640Y1190197D01*
X1349293Y1189800D01*
X1350988Y1189667D01*
X1352682Y1189800D01*
X1354335Y1190197D01*
X1355906Y1190847D01*
X1357355Y1191736D01*
X1358648Y1192840D01*
X1359752Y1194132D01*
X1360640Y1195582D01*
X1361291Y1197152D01*
X1361688Y1198805D01*
X1361821Y1200500D01*
X1361688Y1202195D01*
X1361291Y1203848D01*
X1360640Y1205418D01*
X1359752Y1206868D01*
X1358648Y1208160D01*
X1357355Y1209264D01*
X1355906Y1210153D01*
X1354335Y1210803D01*
X1352682Y1211200D01*
X1350988Y1211333D01*
D02*
G37*
G36*
X1139000Y1194963D02*
X1138638Y1194915D01*
X1137836Y1194583D01*
X1137146Y1194054D01*
X1136617Y1193364D01*
X1136285Y1192562D01*
X1136237Y1192200D01*
X1139000D01*
Y1194963D01*
D02*
G37*
G36*
X1347575Y1182292D02*
X1346894D01*
Y1179000D01*
X1349595D01*
Y1180272D01*
X1349441Y1181045D01*
X1349003Y1181700D01*
X1348348Y1182138D01*
X1347575Y1182292D01*
D02*
G37*
G36*
X1139000Y1191200D02*
X1136237D01*
X1136285Y1190839D01*
X1136617Y1190036D01*
X1137146Y1189346D01*
X1137836Y1188817D01*
X1138638Y1188485D01*
X1139000Y1188437D01*
Y1191200D01*
D02*
G37*
G36*
X1142763D02*
X1140000D01*
Y1188437D01*
X1140361Y1188485D01*
X1141164Y1188817D01*
X1141854Y1189346D01*
X1142383Y1190036D01*
X1142715Y1190839D01*
X1142763Y1191200D01*
D02*
G37*
G36*
X1189563Y1203800D02*
X1186800D01*
Y1201037D01*
X1187162Y1201085D01*
X1187964Y1201417D01*
X1188654Y1201946D01*
X1189183Y1202636D01*
X1189515Y1203438D01*
X1189563Y1203800D01*
D02*
G37*
G36*
X1219098Y1208020D02*
X1212799D01*
X1212026Y1207866D01*
X1211371Y1207428D01*
X1210933Y1206773D01*
X1210779Y1206000D01*
X1210933Y1205227D01*
X1211371Y1204572D01*
X1212026Y1204134D01*
X1212799Y1203980D01*
X1219098D01*
X1219871Y1204134D01*
X1220527Y1204572D01*
X1220965Y1205227D01*
X1221118Y1206000D01*
X1220965Y1206773D01*
X1220527Y1207428D01*
X1219871Y1207866D01*
X1219098Y1208020D01*
D02*
G37*
G36*
X1185800Y1207563D02*
X1185439Y1207515D01*
X1184636Y1207183D01*
X1183946Y1206654D01*
X1183417Y1205964D01*
X1183085Y1205161D01*
X1183037Y1204800D01*
X1185800D01*
Y1207563D01*
D02*
G37*
G36*
X1140000Y1194963D02*
Y1192200D01*
X1142763D01*
X1142715Y1192562D01*
X1142383Y1193364D01*
X1141854Y1194054D01*
X1141164Y1194583D01*
X1140361Y1194915D01*
X1140000Y1194963D01*
D02*
G37*
G36*
X1216788Y1235792D02*
X1214425D01*
X1213652Y1235638D01*
X1212997Y1235200D01*
X1212559Y1234545D01*
X1212405Y1233772D01*
Y1230228D01*
X1212559Y1229455D01*
X1212997Y1228800D01*
X1213261Y1228623D01*
Y1223020D01*
X1212799D01*
X1212026Y1222866D01*
X1211371Y1222428D01*
X1210933Y1221773D01*
X1210779Y1221000D01*
X1210933Y1220227D01*
X1211371Y1219572D01*
X1212026Y1219134D01*
X1212799Y1218980D01*
X1214832D01*
X1215051Y1218833D01*
X1215949Y1218655D01*
X1215949Y1218655D01*
X1227441D01*
X1227590Y1218593D01*
X1233940Y1212243D01*
X1233940Y1212243D01*
X1233940D01*
X1233940Y1212243D01*
X1233940D01*
X1233940Y1212243D01*
Y1212243D01*
Y1212243D01*
D01*
D01*
X1233940D01*
Y1212243D01*
X1234476Y1211886D01*
Y1207983D01*
X1236155D01*
Y1206178D01*
X1235163Y1206047D01*
X1234239Y1205664D01*
X1233445Y1205055D01*
X1232836Y1204261D01*
X1232453Y1203337D01*
X1232322Y1202345D01*
X1232453Y1201353D01*
X1232836Y1200429D01*
X1233445Y1199635D01*
X1234239Y1199026D01*
X1235163Y1198643D01*
X1236155Y1198512D01*
Y1192845D01*
X1228717D01*
Y1197993D01*
X1219637D01*
Y1183007D01*
X1228717D01*
Y1188155D01*
X1236155D01*
Y1182949D01*
X1236333Y1182051D01*
X1236842Y1181291D01*
X1243304Y1174828D01*
X1242933Y1174273D01*
X1242779Y1173500D01*
X1242933Y1172727D01*
X1243371Y1172072D01*
X1244026Y1171634D01*
X1244799Y1171480D01*
X1246832D01*
X1247051Y1171334D01*
X1247949Y1171155D01*
X1248846Y1171334D01*
X1249066Y1171480D01*
X1251098D01*
X1251871Y1171634D01*
X1252527Y1172072D01*
X1252965Y1172727D01*
X1253118Y1173500D01*
X1252965Y1174273D01*
X1252527Y1174928D01*
X1251871Y1175366D01*
X1251098Y1175520D01*
X1249245D01*
X1240845Y1183920D01*
Y1190500D01*
Y1207983D01*
X1245524D01*
Y1219820D01*
X1234476D01*
Y1218994D01*
X1234014Y1218803D01*
X1230907Y1221910D01*
X1230746Y1222297D01*
X1230334Y1222834D01*
X1229797Y1223246D01*
X1229171Y1223505D01*
X1228500Y1223594D01*
X1227829Y1223505D01*
X1227441Y1223345D01*
X1217951D01*
Y1228623D01*
X1218216Y1228800D01*
X1218654Y1229455D01*
X1218807Y1230228D01*
Y1233772D01*
X1218654Y1234545D01*
X1218216Y1235200D01*
X1217560Y1235638D01*
X1216788Y1235792D01*
D02*
G37*
G36*
X1185800Y1203800D02*
X1183037D01*
X1183085Y1203438D01*
X1183417Y1202636D01*
X1183946Y1201946D01*
X1184636Y1201417D01*
X1185439Y1201085D01*
X1185800Y1201037D01*
Y1203800D01*
D02*
G37*
G36*
X1150500Y1157267D02*
Y1154000D01*
X1153767D01*
X1153702Y1154492D01*
X1153319Y1155416D01*
X1152710Y1156210D01*
X1151916Y1156819D01*
X1150992Y1157202D01*
X1150500Y1157267D01*
D02*
G37*
G36*
X1274272Y1135807D02*
X1270728D01*
X1269955Y1135654D01*
X1269300Y1135216D01*
X1269123Y1134951D01*
X1264377D01*
X1264200Y1135216D01*
X1263545Y1135654D01*
X1262772Y1135807D01*
X1259228D01*
X1258455Y1135654D01*
X1257800Y1135216D01*
X1257623Y1134951D01*
X1257607D01*
X1257606Y1134951D01*
X1256709Y1134773D01*
X1255948Y1134265D01*
X1254029Y1132345D01*
X1243500D01*
X1242603Y1132166D01*
X1241842Y1131658D01*
X1241842Y1131658D01*
X1237842Y1127658D01*
X1237333Y1126897D01*
X1237323Y1126845D01*
X1236825Y1126894D01*
Y1128000D01*
X1236725Y1128507D01*
X1236437Y1128937D01*
X1234437Y1130937D01*
X1234007Y1131225D01*
X1233728Y1131280D01*
X1233629Y1131428D01*
X1232974Y1131866D01*
X1232201Y1132020D01*
X1225902D01*
X1225129Y1131866D01*
X1224473Y1131428D01*
X1224035Y1130773D01*
X1223882Y1130000D01*
X1223905Y1129880D01*
X1220063Y1126037D01*
X1219775Y1125607D01*
X1219674Y1125100D01*
Y1119156D01*
X1217326Y1116807D01*
X1214228D01*
X1213455Y1116653D01*
X1212800Y1116216D01*
X1212624Y1115952D01*
X1208877D01*
X1208700Y1116216D01*
X1208045Y1116654D01*
X1207272Y1116807D01*
X1203728D01*
X1202955Y1116654D01*
X1202300Y1116216D01*
X1201862Y1115561D01*
X1201708Y1114787D01*
Y1112425D01*
X1201862Y1111652D01*
X1202300Y1110997D01*
X1202955Y1110559D01*
X1203728Y1110405D01*
X1207272D01*
X1208045Y1110559D01*
X1208700Y1110997D01*
X1208877Y1111261D01*
X1212623D01*
X1212800Y1110997D01*
X1213455Y1110559D01*
X1214228Y1110405D01*
X1217772D01*
X1218545Y1110559D01*
X1219200Y1110997D01*
X1219638Y1111652D01*
X1219792Y1112425D01*
Y1114787D01*
X1219669Y1115401D01*
X1221937Y1117669D01*
X1221937Y1117669D01*
X1221937Y1117669D01*
X1222225Y1118099D01*
X1222326Y1118607D01*
Y1124551D01*
X1223548Y1125773D01*
X1223989Y1125537D01*
X1223882Y1125000D01*
X1224035Y1124227D01*
X1224473Y1123572D01*
X1224743Y1123392D01*
X1224655Y1122949D01*
Y1120559D01*
X1224494Y1120171D01*
X1224406Y1119500D01*
X1224494Y1118829D01*
X1224655Y1118441D01*
Y1116693D01*
X1224455Y1116654D01*
X1223800Y1116216D01*
X1223362Y1115561D01*
X1223208Y1114787D01*
Y1112425D01*
X1223362Y1111652D01*
X1223800Y1110997D01*
X1224455Y1110559D01*
X1225228Y1110405D01*
X1228772D01*
X1229545Y1110559D01*
X1230200Y1110997D01*
X1230638Y1111652D01*
X1230792Y1112425D01*
Y1114787D01*
X1230638Y1115561D01*
X1230200Y1116216D01*
X1229545Y1116654D01*
X1229345Y1116693D01*
Y1118441D01*
X1229506Y1118829D01*
X1229594Y1119500D01*
X1229506Y1120171D01*
X1229345Y1120559D01*
Y1121977D01*
X1230348Y1122980D01*
X1232201D01*
X1232974Y1123134D01*
X1233629Y1123572D01*
X1233696Y1123672D01*
X1234175Y1123527D01*
Y1117535D01*
X1233847Y1117045D01*
X1233693Y1116272D01*
Y1112728D01*
X1233847Y1111955D01*
X1234284Y1111300D01*
X1234940Y1110862D01*
X1235713Y1110708D01*
X1237369D01*
X1241623Y1106455D01*
X1241431Y1105993D01*
X1242000D01*
Y1103134D01*
X1243481D01*
Y1104442D01*
X1243868Y1104760D01*
X1244394Y1104655D01*
X1248941D01*
X1249329Y1104494D01*
X1250000Y1104406D01*
X1250671Y1104494D01*
X1251297Y1104754D01*
X1251834Y1105166D01*
X1252246Y1105703D01*
X1252505Y1106329D01*
X1252594Y1107000D01*
X1252505Y1107671D01*
X1252246Y1108297D01*
X1251834Y1108834D01*
X1251297Y1109246D01*
X1250671Y1109505D01*
X1250000Y1109594D01*
X1249329Y1109505D01*
X1248941Y1109345D01*
X1245365D01*
X1244382Y1110329D01*
X1244617Y1110770D01*
X1244925Y1110708D01*
X1247287D01*
X1248061Y1110862D01*
X1248716Y1111300D01*
X1249154Y1111955D01*
X1249307Y1112728D01*
Y1116272D01*
X1249154Y1117045D01*
X1248716Y1117700D01*
X1248061Y1118138D01*
X1247287Y1118292D01*
X1247025D01*
X1241845Y1123471D01*
Y1125029D01*
X1242409Y1125593D01*
X1242850Y1125357D01*
X1242779Y1125000D01*
X1242933Y1124227D01*
X1243371Y1123572D01*
X1244026Y1123134D01*
X1244799Y1122980D01*
X1246832D01*
X1247051Y1122834D01*
X1247949Y1122655D01*
X1251529D01*
X1252448Y1121736D01*
X1252448Y1121736D01*
X1252448D01*
X1252448Y1121736D01*
X1252448D01*
X1252448Y1121736D01*
Y1121736D01*
Y1121736D01*
D01*
D01*
X1252448D01*
Y1121736D01*
X1253209Y1121227D01*
X1254106Y1121049D01*
X1255391D01*
X1255708Y1120662D01*
X1255655Y1120394D01*
Y1117693D01*
X1255455Y1117654D01*
X1254800Y1117216D01*
X1254362Y1116560D01*
X1254208Y1115788D01*
Y1113425D01*
X1254362Y1112652D01*
X1254800Y1111997D01*
X1255455Y1111559D01*
X1256228Y1111405D01*
X1259772D01*
X1260545Y1111559D01*
X1261200Y1111997D01*
X1261638Y1112652D01*
X1261792Y1113425D01*
Y1115788D01*
X1261638Y1116560D01*
X1261200Y1117216D01*
X1260545Y1117654D01*
X1260345Y1117693D01*
Y1119422D01*
X1261115Y1120193D01*
X1262772D01*
X1263545Y1120347D01*
X1264200Y1120784D01*
X1264377Y1121049D01*
X1269123D01*
X1269300Y1120784D01*
X1269955Y1120347D01*
X1270728Y1120193D01*
X1274272D01*
X1275045Y1120347D01*
X1275700Y1120784D01*
X1276138Y1121440D01*
X1276292Y1122213D01*
Y1124575D01*
X1276138Y1125348D01*
X1275700Y1126003D01*
X1275045Y1126441D01*
X1274272Y1126595D01*
X1270728D01*
X1269955Y1126441D01*
X1269300Y1126003D01*
X1269123Y1125739D01*
X1264377D01*
X1264200Y1126003D01*
X1263545Y1126441D01*
X1262772Y1126595D01*
X1259228D01*
X1258455Y1126441D01*
X1257800Y1126003D01*
X1257623Y1125739D01*
X1255078D01*
X1254158Y1126658D01*
X1253397Y1127166D01*
X1253495Y1127655D01*
X1255000D01*
X1255897Y1127833D01*
X1256658Y1128342D01*
X1256658Y1128342D01*
X1256658Y1128342D01*
X1258108Y1129791D01*
X1258455Y1129559D01*
X1259228Y1129405D01*
X1262772D01*
X1263545Y1129559D01*
X1264200Y1129997D01*
X1264377Y1130261D01*
X1269123D01*
X1269300Y1129997D01*
X1269955Y1129559D01*
X1270728Y1129405D01*
X1274272D01*
X1275045Y1129559D01*
X1275700Y1129997D01*
X1276138Y1130652D01*
X1276292Y1131425D01*
Y1133788D01*
X1276138Y1134560D01*
X1275700Y1135216D01*
X1275045Y1135654D01*
X1274272Y1135807D01*
D02*
G37*
G36*
X1247449Y1137020D02*
X1244799D01*
X1244026Y1136866D01*
X1243371Y1136428D01*
X1242933Y1135773D01*
X1242879Y1135500D01*
X1247449D01*
Y1137020D01*
D02*
G37*
G36*
X1253019Y1134500D02*
X1248449D01*
Y1132980D01*
X1251098D01*
X1251871Y1133134D01*
X1252527Y1133572D01*
X1252965Y1134227D01*
X1253019Y1134500D01*
D02*
G37*
G36*
X1216171Y1134995D02*
X1214900D01*
Y1132294D01*
X1218191D01*
Y1132975D01*
X1218038Y1133748D01*
X1217600Y1134403D01*
X1216944Y1134841D01*
X1216171Y1134995D01*
D02*
G37*
G36*
X1247449Y1134500D02*
X1242879D01*
X1242933Y1134227D01*
X1243371Y1133572D01*
X1244026Y1133134D01*
X1244799Y1132980D01*
X1247449D01*
Y1134500D01*
D02*
G37*
G36*
X1251098Y1137020D02*
X1248449D01*
Y1135500D01*
X1253019D01*
X1252965Y1135773D01*
X1252527Y1136428D01*
X1251871Y1136866D01*
X1251098Y1137020D01*
D02*
G37*
G36*
X1271807Y1141500D02*
X1269106D01*
Y1138208D01*
X1269788D01*
X1270560Y1138362D01*
X1271216Y1138800D01*
X1271654Y1139455D01*
X1271807Y1140228D01*
Y1141500D01*
D02*
G37*
G36*
X1268106Y1145792D02*
X1267425D01*
X1266652Y1145638D01*
X1265997Y1145200D01*
X1265559Y1144545D01*
X1265405Y1143772D01*
Y1142500D01*
X1268106D01*
Y1145792D01*
D02*
G37*
G36*
Y1141500D02*
X1265405D01*
Y1140228D01*
X1265559Y1139455D01*
X1265997Y1138800D01*
X1266652Y1138362D01*
X1267425Y1138208D01*
X1268106D01*
Y1141500D01*
D02*
G37*
G36*
X1347500Y1143984D02*
X1346469Y1143848D01*
X1345508Y1143450D01*
X1344683Y1142817D01*
X1344050Y1141992D01*
X1343652Y1141031D01*
X1343516Y1140000D01*
X1343652Y1138969D01*
X1343928Y1138303D01*
X1337563Y1131937D01*
X1337275Y1131507D01*
X1337175Y1131000D01*
Y1121549D01*
X1291151Y1075525D01*
X1250700D01*
X1250193Y1075425D01*
X1249763Y1075137D01*
X1242063Y1067437D01*
X1241775Y1067007D01*
X1241675Y1066500D01*
Y1052049D01*
X1240451Y1050826D01*
X1239698D01*
X1239629Y1050928D01*
X1238974Y1051366D01*
X1238201Y1051520D01*
X1231902D01*
X1231129Y1051366D01*
X1230473Y1050928D01*
X1230405Y1050826D01*
X1215349D01*
X1212551Y1053623D01*
X1212506Y1053971D01*
X1212246Y1054597D01*
X1211834Y1055134D01*
X1211297Y1055546D01*
X1210671Y1055805D01*
X1210000Y1055894D01*
X1209329Y1055805D01*
X1208703Y1055546D01*
X1208166Y1055134D01*
X1207754Y1054597D01*
X1207495Y1053971D01*
X1207406Y1053300D01*
X1207495Y1052629D01*
X1207754Y1052003D01*
X1208166Y1051466D01*
X1208703Y1051054D01*
X1209329Y1050795D01*
X1210000Y1050706D01*
X1210671Y1050795D01*
X1211297Y1051054D01*
X1211339Y1051086D01*
X1213863Y1048563D01*
X1214293Y1048275D01*
X1214800Y1048174D01*
X1230405D01*
X1230473Y1048072D01*
X1231129Y1047634D01*
X1231902Y1047480D01*
X1238201D01*
X1238974Y1047634D01*
X1239629Y1048072D01*
X1239698Y1048174D01*
X1240969D01*
X1241044Y1047953D01*
X1241099Y1047678D01*
X1240546Y1047254D01*
X1240017Y1046564D01*
X1239685Y1045761D01*
X1239637Y1045400D01*
X1242400D01*
Y1048163D01*
X1242220Y1048139D01*
X1242046Y1048400D01*
X1241956Y1048582D01*
X1243937Y1050563D01*
X1244225Y1050993D01*
X1244326Y1051500D01*
Y1065951D01*
X1251249Y1072875D01*
X1291700D01*
X1292207Y1072975D01*
X1292637Y1073263D01*
X1339437Y1120063D01*
X1339725Y1120493D01*
X1339826Y1121000D01*
Y1130451D01*
X1345803Y1136428D01*
X1346469Y1136152D01*
X1347500Y1136016D01*
X1348531Y1136152D01*
X1349492Y1136550D01*
X1350317Y1137183D01*
X1350950Y1138008D01*
X1351348Y1138969D01*
X1351484Y1140000D01*
X1351348Y1141031D01*
X1350950Y1141992D01*
X1350317Y1142817D01*
X1349492Y1143450D01*
X1348531Y1143848D01*
X1347500Y1143984D01*
D02*
G37*
G36*
X1128500Y1142094D02*
X1127829Y1142006D01*
X1127203Y1141746D01*
X1126666Y1141334D01*
X1126254Y1140797D01*
X1125994Y1140171D01*
X1125906Y1139500D01*
X1125990Y1138864D01*
X1102463Y1115337D01*
X1102175Y1114907D01*
X1102075Y1114400D01*
Y1092424D01*
X1101254Y1091603D01*
X1100792Y1091794D01*
Y1093275D01*
X1100638Y1094048D01*
X1100200Y1094703D01*
X1099545Y1095141D01*
X1098772Y1095295D01*
X1095228D01*
X1094455Y1095141D01*
X1093800Y1094703D01*
X1093362Y1094048D01*
X1093208Y1093275D01*
Y1090913D01*
X1093362Y1090139D01*
X1093800Y1089484D01*
X1094455Y1089046D01*
X1095228Y1088893D01*
X1096175D01*
Y1084729D01*
X1096275Y1084222D01*
X1096563Y1083792D01*
X1097630Y1082724D01*
X1097581Y1082227D01*
X1097787Y1082365D01*
X1100807Y1079345D01*
D01*
X1100808Y1079344D01*
X1100808Y1079344D01*
D01*
X1103828Y1076324D01*
X1103690Y1076118D01*
X1104187Y1076167D01*
X1109196Y1071159D01*
X1109128Y1070817D01*
X1109002Y1070629D01*
X1108803Y1070546D01*
X1108266Y1070134D01*
X1107854Y1069597D01*
X1107594Y1068971D01*
X1107572Y1068800D01*
X1112628D01*
X1112605Y1068971D01*
X1112346Y1069597D01*
X1111934Y1070134D01*
X1111397Y1070546D01*
X1111422Y1070675D01*
X1116509D01*
X1116655Y1070529D01*
X1116675Y1070516D01*
Y1070000D01*
Y1069485D01*
X1116655Y1069471D01*
X1112479Y1065296D01*
X1112216Y1064902D01*
X1109563Y1062249D01*
X1109275Y1061819D01*
X1109175Y1061311D01*
Y1060021D01*
X1108734Y1059785D01*
X1109113Y1059532D01*
X1109174Y1059439D01*
Y1058887D01*
X1106376Y1056089D01*
D01*
X1106376Y1056088D01*
X1106375Y1056087D01*
D01*
X1103355Y1053068D01*
X1103391Y1053044D01*
X1103913Y1052940D01*
X1104016Y1052419D01*
X1104323Y1051959D01*
X1104783Y1051652D01*
X1105304Y1051548D01*
X1105408Y1051027D01*
X1105715Y1050567D01*
X1106175Y1050260D01*
X1106696Y1050156D01*
X1106800Y1049635D01*
X1107107Y1049175D01*
X1107567Y1048868D01*
X1108088Y1048764D01*
X1108192Y1048243D01*
X1108499Y1047783D01*
X1108959Y1047476D01*
X1109480Y1047372D01*
X1109584Y1046851D01*
X1109891Y1046391D01*
X1110351Y1046084D01*
X1110872Y1045980D01*
X1110976Y1045459D01*
X1111283Y1044999D01*
X1111743Y1044692D01*
X1112264Y1044588D01*
X1112368Y1044067D01*
X1112675Y1043607D01*
X1113135Y1043300D01*
X1113656Y1043196D01*
X1113760Y1042675D01*
X1114067Y1042215D01*
X1114527Y1041908D01*
X1115048Y1041804D01*
X1115152Y1041283D01*
X1115459Y1040823D01*
X1115919Y1040516D01*
X1116440Y1040413D01*
X1116544Y1039892D01*
X1116851Y1039431D01*
X1117311Y1039124D01*
X1117832Y1039021D01*
X1117935Y1038500D01*
X1118243Y1038040D01*
X1118703Y1037732D01*
X1119224Y1037629D01*
X1119328Y1037108D01*
X1119635Y1036648D01*
X1119852Y1036502D01*
X1119901Y1036005D01*
X1118563Y1034666D01*
X1118275Y1034236D01*
X1118174Y1033729D01*
Y1029500D01*
X1118275Y1028993D01*
X1118563Y1028563D01*
X1135063Y1012063D01*
X1135063Y1012063D01*
X1135063D01*
X1135063Y1012063D01*
X1135063D01*
X1135063Y1012063D01*
Y1012063D01*
Y1012063D01*
D01*
D01*
X1135063D01*
Y1012063D01*
X1135493Y1011775D01*
X1136000Y1011674D01*
X1249751D01*
X1265263Y996163D01*
X1265693Y995875D01*
X1266200Y995774D01*
X1273909D01*
X1274416Y995875D01*
X1274846Y996163D01*
X1274846Y996163D01*
X1274846Y996163D01*
X1302479Y1023796D01*
X1302767Y1024226D01*
X1302868Y1024733D01*
X1302868Y1024733D01*
X1302868Y1024733D01*
Y1024733D01*
Y1028682D01*
X1307128Y1032942D01*
X1301542Y1038528D01*
X1295957Y1032942D01*
X1300217Y1028682D01*
Y1025282D01*
X1297856Y1022921D01*
X1297464Y1022934D01*
X1297304Y1023075D01*
X1297288Y1023054D01*
X1297053Y1022873D01*
X1297409Y1022862D01*
X1297421Y1022486D01*
X1290609Y1015674D01*
X1290233Y1016004D01*
X1290217Y1015983D01*
X1290196Y1015967D01*
X1290526Y1015591D01*
X1283538Y1008603D01*
X1283162Y1008933D01*
X1283779Y1009737D01*
X1284177Y1010698D01*
X1284313Y1011729D01*
X1284177Y1012760D01*
X1283779Y1013721D01*
X1283146Y1014546D01*
X1282321Y1015179D01*
X1281360Y1015577D01*
X1280329Y1015713D01*
X1279325Y1015580D01*
X1279149Y1015935D01*
X1279109Y1016034D01*
X1283095Y1020020D01*
X1283194Y1019979D01*
X1283549Y1019804D01*
X1283416Y1018800D01*
X1283552Y1017769D01*
X1283950Y1016808D01*
X1284276Y1016383D01*
X1287046Y1019153D01*
D01*
X1287047Y1019154D01*
X1287047Y1019154D01*
D01*
X1289817Y1021924D01*
X1289392Y1022250D01*
X1288431Y1022648D01*
X1287400Y1022784D01*
X1286395Y1022651D01*
X1286220Y1023006D01*
X1286180Y1023105D01*
X1290166Y1027092D01*
X1290265Y1027051D01*
X1290620Y1026875D01*
X1290487Y1025871D01*
X1290623Y1024840D01*
X1291021Y1023879D01*
X1291347Y1023454D01*
X1294117Y1026224D01*
D01*
X1294118Y1026225D01*
X1294118Y1026225D01*
D01*
X1296888Y1028995D01*
X1296463Y1029321D01*
X1295502Y1029719D01*
X1294471Y1029855D01*
X1293467Y1029722D01*
X1293291Y1030077D01*
X1293251Y1030176D01*
X1294037Y1030963D01*
X1294325Y1031393D01*
X1294425Y1031900D01*
Y1034100D01*
X1294325Y1034607D01*
X1294037Y1035037D01*
X1293379Y1035696D01*
X1293600Y1036144D01*
X1294471Y1036030D01*
X1295502Y1036165D01*
X1296463Y1036563D01*
X1297288Y1037196D01*
X1297921Y1038021D01*
X1298319Y1038982D01*
X1298455Y1040013D01*
X1298319Y1041044D01*
X1297921Y1042005D01*
X1297288Y1042830D01*
X1296463Y1043463D01*
X1295502Y1043861D01*
X1294471Y1043997D01*
X1293440Y1043861D01*
X1292479Y1043463D01*
X1291654Y1042830D01*
X1291021Y1042005D01*
X1290623Y1041044D01*
X1290487Y1040013D01*
X1290602Y1039142D01*
X1290154Y1038921D01*
X1288537Y1040537D01*
X1288107Y1040825D01*
X1287600Y1040926D01*
X1203849D01*
X1190837Y1053937D01*
X1190919Y1054208D01*
X1191287D01*
X1192060Y1054362D01*
X1192716Y1054800D01*
X1193153Y1055455D01*
X1193307Y1056228D01*
Y1057500D01*
X1186905D01*
Y1056228D01*
X1187059Y1055455D01*
X1187497Y1054800D01*
X1187180Y1054325D01*
X1186443D01*
X1184095Y1056674D01*
Y1059772D01*
X1183941Y1060545D01*
X1183503Y1061200D01*
X1182848Y1061638D01*
X1182825Y1061642D01*
Y1064983D01*
X1182941Y1065155D01*
X1183095Y1065928D01*
Y1069472D01*
X1182941Y1070245D01*
X1182503Y1070900D01*
X1181848Y1071338D01*
X1181075Y1071492D01*
X1178713D01*
X1177940Y1071338D01*
X1177284Y1070900D01*
X1176847Y1070245D01*
X1176693Y1069472D01*
Y1065928D01*
X1176847Y1065155D01*
X1177284Y1064500D01*
X1177940Y1064062D01*
X1178713Y1063908D01*
X1180175D01*
Y1061792D01*
X1179713D01*
X1178940Y1061638D01*
X1178284Y1061200D01*
X1177847Y1060545D01*
X1177693Y1059772D01*
Y1059326D01*
X1174000D01*
X1173493Y1059225D01*
X1173063Y1058937D01*
X1165818Y1051692D01*
X1164575Y1052935D01*
X1164608Y1053044D01*
X1165069Y1053351D01*
X1165376Y1053811D01*
X1165479Y1054332D01*
X1166000Y1054436D01*
X1166460Y1054743D01*
X1166768Y1055203D01*
X1166871Y1055724D01*
X1167392Y1055828D01*
X1167852Y1056135D01*
X1168160Y1056595D01*
X1168263Y1057116D01*
X1168784Y1057219D01*
X1169244Y1057527D01*
X1169552Y1057987D01*
X1169655Y1058508D01*
X1170176Y1058611D01*
X1170636Y1058919D01*
X1170944Y1059379D01*
X1171047Y1059900D01*
X1171568Y1060003D01*
X1172028Y1060311D01*
X1172336Y1060771D01*
X1172439Y1061292D01*
X1172960Y1061395D01*
X1173420Y1061703D01*
X1173728Y1062163D01*
X1173831Y1062684D01*
X1174352Y1062787D01*
X1174812Y1063095D01*
X1175119Y1063554D01*
X1175227Y1064097D01*
X1175119Y1064640D01*
X1174812Y1065100D01*
X1170636Y1069275D01*
X1170176Y1069583D01*
X1169634Y1069691D01*
X1169091Y1069583D01*
X1168631Y1069275D01*
X1168324Y1068816D01*
X1168220Y1068294D01*
X1167699Y1068191D01*
X1167239Y1067883D01*
X1166932Y1067424D01*
X1166828Y1066903D01*
X1166307Y1066799D01*
X1165847Y1066492D01*
X1165540Y1066032D01*
X1165436Y1065511D01*
X1164915Y1065407D01*
X1164455Y1065100D01*
X1164148Y1064640D01*
X1164044Y1064119D01*
X1163523Y1064015D01*
X1163063Y1063708D01*
X1162756Y1063248D01*
X1162652Y1062727D01*
X1162132Y1062623D01*
X1161672Y1062316D01*
X1161526Y1062098D01*
X1161029Y1062049D01*
X1160529Y1062549D01*
Y1062951D01*
X1164789Y1067211D01*
X1164789Y1067211D01*
X1164789Y1067211D01*
X1165076Y1067641D01*
X1165177Y1068148D01*
Y1071964D01*
X1166596Y1073383D01*
X1167094Y1073334D01*
X1167239Y1073116D01*
X1167699Y1072809D01*
X1168220Y1072706D01*
X1168324Y1072184D01*
X1168631Y1071725D01*
X1169091Y1071417D01*
X1169634Y1071309D01*
X1170176Y1071417D01*
X1170636Y1071725D01*
X1174812Y1075900D01*
X1174959Y1076120D01*
X1175457Y1076169D01*
X1176457Y1075169D01*
X1176886Y1074882D01*
X1177394Y1074781D01*
X1185286D01*
X1187781Y1072286D01*
Y1071463D01*
X1187152Y1071338D01*
X1186497Y1070900D01*
X1186059Y1070245D01*
X1185905Y1069472D01*
Y1065928D01*
X1186059Y1065155D01*
X1186497Y1064500D01*
X1187152Y1064062D01*
X1187925Y1063908D01*
X1190287D01*
X1191060Y1064062D01*
X1191716Y1064500D01*
X1192153Y1065155D01*
X1192307Y1065928D01*
Y1069472D01*
X1192153Y1070245D01*
X1191716Y1070900D01*
X1191060Y1071338D01*
X1190432Y1071463D01*
Y1072835D01*
X1190331Y1073342D01*
X1190044Y1073772D01*
X1186772Y1077044D01*
X1186342Y1077331D01*
X1185835Y1077432D01*
X1177943D01*
X1173937Y1081437D01*
X1173507Y1081725D01*
X1173000Y1081826D01*
X1171839D01*
X1171332Y1081725D01*
X1171088Y1081562D01*
X1170944Y1081621D01*
X1170636Y1082081D01*
X1170176Y1082389D01*
X1169655Y1082492D01*
X1169552Y1083013D01*
X1169244Y1083473D01*
X1168784Y1083781D01*
X1168263Y1083884D01*
X1168160Y1084405D01*
X1168136Y1084441D01*
X1165116Y1081422D01*
D01*
X1165116Y1081421D01*
X1165115Y1081421D01*
D01*
X1162095Y1078401D01*
X1162132Y1078377D01*
X1162652Y1078273D01*
X1162756Y1077752D01*
X1163063Y1077292D01*
X1163523Y1076985D01*
X1164044Y1076881D01*
X1164148Y1076360D01*
X1164455Y1075900D01*
X1164673Y1075755D01*
X1164722Y1075257D01*
X1162914Y1073450D01*
X1162627Y1073020D01*
X1162526Y1072513D01*
Y1068697D01*
X1158266Y1064437D01*
X1157965Y1064137D01*
X1157549D01*
X1156784Y1064902D01*
X1156521Y1065295D01*
X1152345Y1069471D01*
X1151952Y1069734D01*
X1151787Y1069899D01*
X1151885Y1070221D01*
X1152345Y1070529D01*
X1153971Y1072155D01*
X1154490Y1071636D01*
X1154406Y1071000D01*
X1154494Y1070329D01*
X1154754Y1069703D01*
X1155166Y1069166D01*
X1155703Y1068754D01*
X1156329Y1068495D01*
X1157000Y1068406D01*
X1157671Y1068495D01*
X1158297Y1068754D01*
X1158834Y1069166D01*
X1159246Y1069703D01*
X1159505Y1070329D01*
X1159594Y1071000D01*
X1159505Y1071671D01*
X1159246Y1072297D01*
X1158834Y1072834D01*
X1158297Y1073246D01*
X1157671Y1073505D01*
X1157000Y1073594D01*
X1156364Y1073510D01*
X1155976Y1073898D01*
X1161029Y1078951D01*
X1161526Y1078902D01*
X1161388Y1079108D01*
X1164408Y1082128D01*
D01*
X1164408Y1082128D01*
X1164409Y1082129D01*
D01*
X1167428Y1085148D01*
X1167392Y1085172D01*
X1166871Y1085276D01*
X1166833Y1085471D01*
X1167203Y1085954D01*
X1167829Y1085695D01*
X1168500Y1085606D01*
X1169171Y1085695D01*
X1169797Y1085954D01*
X1170334Y1086366D01*
X1170746Y1086903D01*
X1171006Y1087529D01*
X1171094Y1088200D01*
X1171006Y1088871D01*
X1170966Y1088966D01*
X1171234Y1089144D01*
X1171675Y1088908D01*
Y1085000D01*
X1171775Y1084493D01*
X1172063Y1084063D01*
X1175063Y1081063D01*
X1175493Y1080775D01*
X1176000Y1080674D01*
X1185951D01*
X1189688Y1076937D01*
X1189688Y1076937D01*
X1189688D01*
X1189688Y1076937D01*
X1189689D01*
X1189689Y1076937D01*
Y1076937D01*
Y1076937D01*
D01*
D01*
X1189689D01*
Y1076937D01*
X1190119Y1076650D01*
X1190626Y1076549D01*
X1201708D01*
Y1075925D01*
X1201862Y1075152D01*
X1202300Y1074497D01*
X1202955Y1074059D01*
X1203728Y1073905D01*
X1207272D01*
X1208045Y1074059D01*
X1208700Y1074497D01*
X1209138Y1075152D01*
X1209292Y1075925D01*
Y1076549D01*
X1213688D01*
Y1075204D01*
X1218832D01*
Y1080544D01*
X1213688D01*
Y1079200D01*
X1209045D01*
X1208700Y1079716D01*
X1208045Y1080153D01*
X1207272Y1080307D01*
X1203728D01*
X1202955Y1080153D01*
X1202300Y1079716D01*
X1201955Y1079200D01*
X1191175D01*
X1187437Y1082937D01*
X1187007Y1083225D01*
X1186500Y1083325D01*
X1176549D01*
X1176132Y1083742D01*
X1176248Y1084022D01*
X1176727Y1084167D01*
X1176753Y1084150D01*
X1177260Y1084049D01*
X1177767Y1084150D01*
X1177849Y1084204D01*
X1179832D01*
Y1089544D01*
X1177075D01*
Y1090884D01*
X1176975Y1091391D01*
X1176687Y1091821D01*
X1173960Y1094549D01*
Y1101193D01*
X1174772D01*
X1175545Y1101347D01*
X1176200Y1101784D01*
X1176638Y1102440D01*
X1176792Y1103213D01*
Y1105575D01*
X1176638Y1106348D01*
X1176200Y1107003D01*
X1175545Y1107441D01*
X1174772Y1107595D01*
X1171228D01*
X1170455Y1107441D01*
X1169800Y1107003D01*
X1169362Y1106348D01*
X1169208Y1105575D01*
Y1103891D01*
X1168793Y1103614D01*
X1168571Y1103706D01*
X1167900Y1103794D01*
X1167229Y1103706D01*
X1166603Y1103446D01*
X1166066Y1103034D01*
X1165654Y1102497D01*
X1165409Y1101905D01*
X1165137D01*
X1164895Y1101937D01*
X1164746Y1102297D01*
X1164334Y1102834D01*
X1163797Y1103246D01*
X1163171Y1103506D01*
X1162500Y1103594D01*
X1161829Y1103506D01*
X1161203Y1103246D01*
X1160666Y1102834D01*
X1160276Y1102326D01*
X1158932D01*
X1158425Y1102225D01*
X1158425Y1102225D01*
X1158425Y1102225D01*
X1158207Y1102218D01*
X1157923Y1102629D01*
X1158006Y1102829D01*
X1158094Y1103500D01*
X1158006Y1104171D01*
X1157746Y1104797D01*
X1157334Y1105334D01*
X1156826Y1105724D01*
Y1106693D01*
X1157272D01*
X1158045Y1106846D01*
X1158700Y1107284D01*
X1159138Y1107940D01*
X1159292Y1108712D01*
Y1111075D01*
X1159138Y1111848D01*
X1158700Y1112503D01*
X1158045Y1112941D01*
X1157272Y1113095D01*
X1156280D01*
X1153638Y1115736D01*
X1153728Y1115905D01*
X1155000D01*
Y1118606D01*
X1151708D01*
Y1118319D01*
X1151246Y1118128D01*
X1148437Y1120937D01*
X1148007Y1121225D01*
X1147500Y1121325D01*
X1130000D01*
X1129493Y1121225D01*
X1129063Y1120937D01*
X1121863Y1113737D01*
X1121575Y1113307D01*
X1121474Y1112800D01*
Y1106755D01*
X1121575Y1106248D01*
X1121495Y1106053D01*
X1121487Y1106052D01*
X1121451Y1106028D01*
X1124471Y1103007D01*
X1123764Y1102300D01*
X1120743Y1105320D01*
X1120719Y1105284D01*
X1120616Y1104763D01*
X1120095Y1104660D01*
X1119647Y1104361D01*
X1119524Y1104426D01*
X1119206Y1104639D01*
Y1105663D01*
X1119378Y1105734D01*
X1119915Y1106147D01*
X1120327Y1106684D01*
X1120586Y1107309D01*
X1120675Y1107981D01*
X1120586Y1108652D01*
X1120327Y1109278D01*
X1119915Y1109815D01*
X1119378Y1110227D01*
X1118752Y1110486D01*
X1118081Y1110575D01*
X1117409Y1110486D01*
X1116784Y1110227D01*
X1116247Y1109815D01*
X1115834Y1109278D01*
X1115575Y1108652D01*
X1115487Y1107981D01*
X1115575Y1107309D01*
X1115834Y1106684D01*
X1116247Y1106147D01*
X1116555Y1105910D01*
Y1104030D01*
X1105187Y1092662D01*
X1104725Y1092853D01*
Y1113851D01*
X1127864Y1136990D01*
X1128500Y1136906D01*
X1129171Y1136994D01*
X1129797Y1137254D01*
X1130334Y1137666D01*
X1130746Y1138203D01*
X1131005Y1138829D01*
X1131094Y1139500D01*
X1131005Y1140171D01*
X1130746Y1140797D01*
X1130334Y1141334D01*
X1129797Y1141746D01*
X1129171Y1142006D01*
X1128500Y1142094D01*
D02*
G37*
G36*
X1213900Y1134995D02*
X1212628D01*
X1211855Y1134841D01*
X1211200Y1134403D01*
X1210762Y1133748D01*
X1210608Y1132975D01*
Y1132294D01*
X1213900D01*
Y1134995D01*
D02*
G37*
G36*
X1218191Y1131294D02*
X1214900D01*
Y1128593D01*
X1216171D01*
X1216944Y1128746D01*
X1217600Y1129184D01*
X1218038Y1129840D01*
X1218191Y1130612D01*
Y1131294D01*
D02*
G37*
G36*
X1130500Y1134594D02*
X1129829Y1134505D01*
X1129203Y1134246D01*
X1128666Y1133834D01*
X1128254Y1133297D01*
X1127995Y1132671D01*
X1127906Y1132000D01*
X1127990Y1131364D01*
X1108463Y1111837D01*
X1108175Y1111407D01*
X1108074Y1110900D01*
Y1103551D01*
X1107729Y1103506D01*
X1107103Y1103246D01*
X1106566Y1102834D01*
X1106154Y1102297D01*
X1105894Y1101671D01*
X1105806Y1101000D01*
X1105894Y1100329D01*
X1106154Y1099703D01*
X1106566Y1099166D01*
X1107103Y1098754D01*
X1107729Y1098495D01*
X1108400Y1098406D01*
X1109071Y1098495D01*
X1109697Y1098754D01*
X1110234Y1099166D01*
X1110646Y1099703D01*
X1110905Y1100329D01*
X1110994Y1101000D01*
X1110905Y1101671D01*
X1110725Y1102106D01*
Y1110351D01*
X1129864Y1129490D01*
X1130500Y1129406D01*
X1131171Y1129494D01*
X1131797Y1129754D01*
X1132334Y1130166D01*
X1132746Y1130703D01*
X1133006Y1131329D01*
X1133094Y1132000D01*
X1133006Y1132671D01*
X1132746Y1133297D01*
X1132334Y1133834D01*
X1131797Y1134246D01*
X1131171Y1134505D01*
X1130500Y1134594D01*
D02*
G37*
G36*
X1213900Y1131294D02*
X1210608D01*
Y1130612D01*
X1210762Y1129840D01*
X1211200Y1129184D01*
X1211855Y1128746D01*
X1212628Y1128593D01*
X1213900D01*
Y1131294D01*
D02*
G37*
G36*
X1203575Y1131185D02*
X1200283D01*
Y1130504D01*
X1200437Y1129731D01*
X1200875Y1129076D01*
X1201530Y1128638D01*
X1202303Y1128484D01*
X1203575D01*
Y1131185D01*
D02*
G37*
G36*
X1207866D02*
X1204575D01*
Y1128484D01*
X1205846D01*
X1206619Y1128638D01*
X1207275Y1129076D01*
X1207712Y1129731D01*
X1207866Y1130504D01*
Y1131185D01*
D02*
G37*
G36*
X1193500Y1133807D02*
X1192228D01*
X1191455Y1133654D01*
X1190800Y1133216D01*
X1190362Y1132561D01*
X1190208Y1131787D01*
Y1131106D01*
X1193500D01*
Y1133807D01*
D02*
G37*
G36*
X1203575Y1134886D02*
X1202303D01*
X1201530Y1134732D01*
X1200875Y1134295D01*
X1200437Y1133639D01*
X1200283Y1132866D01*
Y1132185D01*
X1203575D01*
Y1134886D01*
D02*
G37*
G36*
X1205846D02*
X1204575D01*
Y1132185D01*
X1207866D01*
Y1132866D01*
X1207712Y1133639D01*
X1207275Y1134295D01*
X1206619Y1134732D01*
X1205846Y1134886D01*
D02*
G37*
G36*
X1150400Y1134763D02*
Y1132000D01*
X1153163D01*
X1153115Y1132362D01*
X1152783Y1133164D01*
X1152254Y1133854D01*
X1151564Y1134383D01*
X1150762Y1134715D01*
X1150400Y1134763D01*
D02*
G37*
G36*
X1195772Y1133807D02*
X1194500D01*
Y1131106D01*
X1197792D01*
Y1131787D01*
X1197638Y1132561D01*
X1197200Y1133216D01*
X1196545Y1133654D01*
X1195772Y1133807D01*
D02*
G37*
G36*
X1149400Y1134763D02*
X1149039Y1134715D01*
X1148236Y1134383D01*
X1147546Y1133854D01*
X1147017Y1133164D01*
X1146685Y1132362D01*
X1146637Y1132000D01*
X1149400D01*
Y1134763D01*
D02*
G37*
G36*
X1269788Y1145792D02*
X1269106D01*
Y1142500D01*
X1271807D01*
Y1143772D01*
X1271654Y1144545D01*
X1271216Y1145200D01*
X1270560Y1145638D01*
X1269788Y1145792D01*
D02*
G37*
G36*
X1129500Y1153000D02*
X1126233D01*
X1126298Y1152508D01*
X1126681Y1151584D01*
X1127290Y1150790D01*
X1128084Y1150181D01*
X1129008Y1149798D01*
X1129500Y1149733D01*
Y1153000D01*
D02*
G37*
G36*
X1133767D02*
X1130500D01*
Y1149733D01*
X1130992Y1149798D01*
X1131916Y1150181D01*
X1132710Y1150790D01*
X1133319Y1151584D01*
X1133702Y1152508D01*
X1133767Y1153000D01*
D02*
G37*
G36*
X1139500D02*
X1136233D01*
X1136298Y1152508D01*
X1136681Y1151584D01*
X1137290Y1150790D01*
X1138084Y1150181D01*
X1139008Y1149798D01*
X1139500Y1149733D01*
Y1153000D01*
D02*
G37*
G36*
X1160000Y1157333D02*
X1159008Y1157202D01*
X1158084Y1156819D01*
X1157290Y1156210D01*
X1156681Y1155416D01*
X1156298Y1154492D01*
X1156167Y1153500D01*
X1156298Y1152508D01*
X1156681Y1151584D01*
X1157290Y1150790D01*
X1158084Y1150181D01*
X1159008Y1149798D01*
X1160000Y1149667D01*
X1160992Y1149798D01*
X1161916Y1150181D01*
X1162710Y1150790D01*
X1163319Y1151584D01*
X1163702Y1152508D01*
X1163833Y1153500D01*
X1163702Y1154492D01*
X1163319Y1155416D01*
X1162710Y1156210D01*
X1161916Y1156819D01*
X1160992Y1157202D01*
X1160000Y1157333D01*
D02*
G37*
G36*
X1251400Y1150063D02*
Y1147300D01*
X1254163D01*
X1254115Y1147661D01*
X1253783Y1148464D01*
X1253254Y1149154D01*
X1252564Y1149683D01*
X1251762Y1150015D01*
X1251400Y1150063D01*
D02*
G37*
G36*
X1100000Y1157333D02*
X1099008Y1157202D01*
X1098084Y1156819D01*
X1097290Y1156210D01*
X1096681Y1155416D01*
X1096298Y1154492D01*
X1096167Y1153500D01*
X1096298Y1152508D01*
X1096681Y1151584D01*
X1097290Y1150790D01*
X1098084Y1150181D01*
X1099008Y1149798D01*
X1100000Y1149667D01*
X1100992Y1149798D01*
X1101916Y1150181D01*
X1102710Y1150790D01*
X1103319Y1151584D01*
X1103702Y1152508D01*
X1103833Y1153500D01*
X1103702Y1154492D01*
X1103319Y1155416D01*
X1102710Y1156210D01*
X1101916Y1156819D01*
X1100992Y1157202D01*
X1100000Y1157333D01*
D02*
G37*
G36*
X1120000D02*
X1119008Y1157202D01*
X1118084Y1156819D01*
X1117290Y1156210D01*
X1116681Y1155416D01*
X1116298Y1154492D01*
X1116167Y1153500D01*
X1116298Y1152508D01*
X1116681Y1151584D01*
X1117290Y1150790D01*
X1118084Y1150181D01*
X1119008Y1149798D01*
X1120000Y1149667D01*
X1120992Y1149798D01*
X1121916Y1150181D01*
X1122710Y1150790D01*
X1123319Y1151584D01*
X1123702Y1152508D01*
X1123833Y1153500D01*
X1123702Y1154492D01*
X1123319Y1155416D01*
X1122710Y1156210D01*
X1121916Y1156819D01*
X1120992Y1157202D01*
X1120000Y1157333D01*
D02*
G37*
G36*
X1258241Y1238187D02*
X1250041Y1229986D01*
X1327515Y1152512D01*
X1335716Y1160712D01*
X1258241Y1238187D01*
D02*
G37*
G36*
X1129500Y1157267D02*
X1129008Y1157202D01*
X1128084Y1156819D01*
X1127290Y1156210D01*
X1126681Y1155416D01*
X1126298Y1154492D01*
X1126233Y1154000D01*
X1129500D01*
Y1157267D01*
D02*
G37*
G36*
X1130500D02*
Y1154000D01*
X1133767D01*
X1133702Y1154492D01*
X1133319Y1155416D01*
X1132710Y1156210D01*
X1131916Y1156819D01*
X1130992Y1157202D01*
X1130500Y1157267D01*
D02*
G37*
G36*
X1139500D02*
X1139008Y1157202D01*
X1138084Y1156819D01*
X1137290Y1156210D01*
X1136681Y1155416D01*
X1136298Y1154492D01*
X1136233Y1154000D01*
X1139500D01*
Y1157267D01*
D02*
G37*
G36*
X1143767Y1153000D02*
X1140500D01*
Y1149733D01*
X1140992Y1149798D01*
X1141916Y1150181D01*
X1142710Y1150790D01*
X1143319Y1151584D01*
X1143702Y1152508D01*
X1143767Y1153000D01*
D02*
G37*
G36*
X1149500D02*
X1146233D01*
X1146298Y1152508D01*
X1146681Y1151584D01*
X1147290Y1150790D01*
X1148084Y1150181D01*
X1149008Y1149798D01*
X1149500Y1149733D01*
Y1153000D01*
D02*
G37*
G36*
X1153767D02*
X1150500D01*
Y1149733D01*
X1150992Y1149798D01*
X1151916Y1150181D01*
X1152710Y1150790D01*
X1153319Y1151584D01*
X1153702Y1152508D01*
X1153767Y1153000D01*
D02*
G37*
G36*
X1250400Y1150063D02*
X1250039Y1150015D01*
X1249236Y1149683D01*
X1248546Y1149154D01*
X1248017Y1148464D01*
X1247685Y1147661D01*
X1247637Y1147300D01*
X1250400D01*
Y1150063D01*
D02*
G37*
G36*
X1236700Y1146100D02*
X1233937D01*
X1233985Y1145739D01*
X1234317Y1144936D01*
X1234846Y1144246D01*
X1235536Y1143717D01*
X1236339Y1143385D01*
X1236700Y1143337D01*
Y1146100D01*
D02*
G37*
G36*
X1254163Y1146300D02*
X1251400D01*
Y1143537D01*
X1251762Y1143585D01*
X1252564Y1143917D01*
X1253254Y1144446D01*
X1253783Y1145136D01*
X1254115Y1145938D01*
X1254163Y1146300D01*
D02*
G37*
G36*
X1250400D02*
X1247637D01*
X1247685Y1145938D01*
X1248017Y1145136D01*
X1248546Y1144446D01*
X1249236Y1143917D01*
X1250039Y1143585D01*
X1250400Y1143537D01*
Y1146300D01*
D02*
G37*
G36*
X1240463Y1146100D02*
X1237700D01*
Y1143337D01*
X1238062Y1143385D01*
X1238864Y1143717D01*
X1239554Y1144246D01*
X1240083Y1144936D01*
X1240415Y1145739D01*
X1240463Y1146100D01*
D02*
G37*
G36*
X1216171Y1146404D02*
X1212628D01*
X1211537Y1146261D01*
X1210520Y1145840D01*
X1209646Y1145169D01*
X1209446Y1144908D01*
X1208946D01*
X1208828Y1145061D01*
X1207955Y1145731D01*
X1206938Y1146152D01*
X1205846Y1146296D01*
X1202303D01*
X1201212Y1146152D01*
X1200194Y1145731D01*
X1199811Y1145437D01*
X1179098D01*
X1179098Y1145437D01*
X1177923Y1145282D01*
X1176828Y1144829D01*
X1175888Y1144107D01*
X1173168Y1141386D01*
X1172424Y1141313D01*
X1171293Y1140970D01*
X1170250Y1140413D01*
X1169337Y1139663D01*
X1168587Y1138750D01*
X1168030Y1137707D01*
X1167687Y1136576D01*
X1167571Y1135400D01*
X1167687Y1134224D01*
X1168030Y1133093D01*
X1168587Y1132050D01*
X1169337Y1131137D01*
X1170250Y1130387D01*
X1171293Y1129830D01*
X1172424Y1129487D01*
X1173600Y1129371D01*
X1174776Y1129487D01*
X1175907Y1129830D01*
X1176950Y1130387D01*
X1177863Y1131137D01*
X1178613Y1132050D01*
X1179170Y1133093D01*
X1179513Y1134224D01*
X1179586Y1134968D01*
X1180978Y1136359D01*
X1199811D01*
X1200194Y1136065D01*
X1201212Y1135643D01*
X1202303Y1135499D01*
X1205846D01*
X1206938Y1135643D01*
X1207955Y1136065D01*
X1208483Y1136470D01*
X1210133D01*
X1210520Y1136173D01*
X1211537Y1135752D01*
X1212628Y1135608D01*
X1216171D01*
X1217263Y1135752D01*
X1218280Y1136173D01*
X1218667Y1136470D01*
X1223124D01*
X1223269Y1135991D01*
X1223188Y1135937D01*
X1220963Y1133712D01*
X1220675Y1133282D01*
X1220574Y1132775D01*
Y1131449D01*
X1212045Y1122920D01*
X1211552Y1123001D01*
X1211470Y1123168D01*
X1211983Y1123836D01*
X1212315Y1124638D01*
X1212363Y1125000D01*
X1205837D01*
X1205885Y1124638D01*
X1206217Y1123836D01*
X1206730Y1123168D01*
X1206509Y1122719D01*
X1197763D01*
X1197638Y1123348D01*
X1197200Y1124003D01*
X1196545Y1124441D01*
X1195772Y1124595D01*
X1192228D01*
X1191455Y1124441D01*
X1190800Y1124003D01*
X1190362Y1123348D01*
X1190208Y1122575D01*
Y1120213D01*
X1190362Y1119440D01*
X1190800Y1118784D01*
X1191455Y1118347D01*
X1192155Y1118207D01*
Y1116693D01*
X1191955Y1116654D01*
X1191300Y1116216D01*
X1191123Y1115951D01*
X1187377D01*
X1187200Y1116216D01*
X1186545Y1116654D01*
X1185772Y1116807D01*
X1182228D01*
X1181455Y1116654D01*
X1180800Y1116216D01*
X1180362Y1115561D01*
X1180208Y1114787D01*
Y1112425D01*
X1180362Y1111652D01*
X1180800Y1110997D01*
X1181455Y1110559D01*
X1182228Y1110405D01*
X1185772D01*
X1186545Y1110559D01*
X1187200Y1110997D01*
X1187376Y1111261D01*
X1191124D01*
X1191300Y1110997D01*
X1191955Y1110559D01*
X1192728Y1110405D01*
X1196272D01*
X1197045Y1110559D01*
X1197700Y1110997D01*
X1198138Y1111652D01*
X1198292Y1112425D01*
Y1114787D01*
X1198138Y1115561D01*
X1197700Y1116216D01*
X1197045Y1116654D01*
X1196845Y1116693D01*
Y1118547D01*
X1197200Y1118784D01*
X1197638Y1119440D01*
X1197763Y1120068D01*
X1212394D01*
X1212901Y1120169D01*
X1213331Y1120457D01*
X1213331Y1120457D01*
X1213331Y1120457D01*
X1222837Y1129963D01*
X1223125Y1130393D01*
X1223225Y1130900D01*
Y1132226D01*
X1224532Y1133532D01*
X1225129Y1133134D01*
X1225902Y1132980D01*
X1232201D01*
X1232974Y1133134D01*
X1233629Y1133572D01*
X1234067Y1134227D01*
X1234221Y1135000D01*
X1234067Y1135773D01*
X1234038Y1135817D01*
X1234183Y1136295D01*
X1234309Y1136348D01*
X1235183Y1137018D01*
X1235853Y1137891D01*
X1236274Y1138908D01*
X1236418Y1140000D01*
X1236274Y1141092D01*
X1235853Y1142109D01*
X1235183Y1142982D01*
X1234309Y1143652D01*
X1233292Y1144073D01*
X1232201Y1144217D01*
X1225902D01*
X1224810Y1144073D01*
X1223793Y1143652D01*
X1223634Y1143530D01*
X1220141D01*
X1219824Y1144296D01*
X1219153Y1145169D01*
X1218280Y1145840D01*
X1217263Y1146261D01*
X1216171Y1146404D01*
D02*
G37*
G36*
X1347500Y1153984D02*
X1346469Y1153848D01*
X1345508Y1153450D01*
X1344683Y1152817D01*
X1344050Y1151992D01*
X1343652Y1151031D01*
X1343516Y1150000D01*
X1343652Y1148969D01*
X1343928Y1148303D01*
X1333063Y1137437D01*
X1332775Y1137007D01*
X1332675Y1136500D01*
Y1124049D01*
X1287451Y1078825D01*
X1248051D01*
X1247544Y1078725D01*
X1247114Y1078437D01*
X1235197Y1066520D01*
X1231902D01*
X1231129Y1066366D01*
X1230473Y1065928D01*
X1230405Y1065825D01*
X1226224D01*
X1225834Y1066334D01*
X1225297Y1066746D01*
X1224671Y1067006D01*
X1224000Y1067094D01*
X1223329Y1067006D01*
X1222703Y1066746D01*
X1222166Y1066334D01*
X1221754Y1065797D01*
X1221494Y1065171D01*
X1221406Y1064500D01*
X1221494Y1063829D01*
X1221754Y1063203D01*
X1222166Y1062666D01*
X1222703Y1062254D01*
X1223329Y1061994D01*
X1224000Y1061906D01*
X1224671Y1061994D01*
X1225297Y1062254D01*
X1225834Y1062666D01*
X1226224Y1063175D01*
X1230405D01*
X1230473Y1063072D01*
X1231129Y1062634D01*
X1231902Y1062480D01*
X1238201D01*
X1238974Y1062634D01*
X1239629Y1063072D01*
X1240067Y1063727D01*
X1240221Y1064500D01*
X1240067Y1065273D01*
X1239629Y1065928D01*
X1238974Y1066366D01*
X1238931Y1066506D01*
X1248600Y1076175D01*
X1288000D01*
X1288507Y1076275D01*
X1288937Y1076563D01*
X1288937Y1076563D01*
X1288937Y1076563D01*
X1334937Y1122563D01*
X1334937Y1122563D01*
X1334937Y1122563D01*
X1335225Y1122993D01*
X1335326Y1123500D01*
Y1135951D01*
X1345803Y1146428D01*
X1346469Y1146152D01*
X1347500Y1146016D01*
X1348531Y1146152D01*
X1349492Y1146550D01*
X1350317Y1147183D01*
X1350950Y1148008D01*
X1351348Y1148969D01*
X1351484Y1150000D01*
X1351348Y1151031D01*
X1350950Y1151992D01*
X1350317Y1152817D01*
X1349492Y1153450D01*
X1348531Y1153848D01*
X1347500Y1153984D01*
D02*
G37*
G36*
X1140500Y1157267D02*
Y1154000D01*
X1143767D01*
X1143702Y1154492D01*
X1143319Y1155416D01*
X1142710Y1156210D01*
X1141916Y1156819D01*
X1140992Y1157202D01*
X1140500Y1157267D01*
D02*
G37*
G36*
X1149500D02*
X1149008Y1157202D01*
X1148084Y1156819D01*
X1147290Y1156210D01*
X1146681Y1155416D01*
X1146298Y1154492D01*
X1146233Y1154000D01*
X1149500D01*
Y1157267D01*
D02*
G37*
%LPD*%
G36*
X1144517Y1118184D02*
X1144089Y1118007D01*
X1143552Y1117595D01*
X1143162Y1117086D01*
X1142161D01*
X1141654Y1116985D01*
X1141224Y1116698D01*
X1137502Y1112977D01*
X1137054Y1113198D01*
X1137028Y1113000D01*
X1135000D01*
Y1110972D01*
X1134802Y1110946D01*
X1135023Y1110497D01*
X1133063Y1108537D01*
X1132775Y1108107D01*
X1132718Y1107817D01*
X1132239Y1107672D01*
X1128600Y1111312D01*
X1128140Y1111619D01*
X1127597Y1111727D01*
X1127055Y1111619D01*
X1126595Y1111312D01*
X1126287Y1110852D01*
X1126184Y1110331D01*
X1125663Y1110227D01*
X1125203Y1109920D01*
X1124895Y1109460D01*
X1124838Y1109171D01*
X1124367Y1109003D01*
X1124125Y1109201D01*
Y1112251D01*
X1130549Y1118674D01*
X1144419D01*
X1144517Y1118184D01*
D02*
G37*
G36*
X1125863Y1036601D02*
X1122843Y1033580D01*
X1122879Y1033556D01*
X1123400Y1033453D01*
X1123503Y1032932D01*
X1123811Y1032472D01*
X1124271Y1032164D01*
X1124792Y1032061D01*
X1124895Y1031540D01*
X1125203Y1031080D01*
X1125663Y1030772D01*
X1126184Y1030669D01*
X1126287Y1030148D01*
X1126595Y1029688D01*
X1127055Y1029381D01*
X1127597Y1029273D01*
X1128140Y1029381D01*
X1128600Y1029688D01*
X1131162Y1032251D01*
X1131578Y1031973D01*
X1131495Y1031771D01*
X1131472Y1031600D01*
X1136528D01*
X1136506Y1031771D01*
X1136422Y1031973D01*
X1136838Y1032251D01*
X1139400Y1029688D01*
X1139794Y1029425D01*
X1143156Y1026063D01*
X1143586Y1025775D01*
X1144093Y1025675D01*
X1144093Y1025675D01*
X1146451D01*
X1152963Y1019163D01*
X1153393Y1018875D01*
X1153900Y1018775D01*
X1170300D01*
X1170807Y1018875D01*
X1171237Y1019163D01*
X1171237Y1019163D01*
X1171237Y1019163D01*
X1176349Y1024275D01*
X1276715D01*
X1276879Y1023879D01*
X1277512Y1023054D01*
X1278337Y1022421D01*
X1279298Y1022023D01*
X1280329Y1021887D01*
X1280576Y1021920D01*
X1280797Y1021472D01*
X1277658Y1018332D01*
X1277209Y1018553D01*
X1277242Y1018800D01*
X1277106Y1019831D01*
X1276708Y1020792D01*
X1276075Y1021617D01*
X1275250Y1022250D01*
X1274289Y1022648D01*
X1273258Y1022784D01*
X1272227Y1022648D01*
X1271266Y1022250D01*
X1270441Y1021617D01*
X1269808Y1020792D01*
X1269410Y1019831D01*
X1269274Y1018800D01*
X1269410Y1017769D01*
X1269808Y1016808D01*
X1270441Y1015983D01*
X1271266Y1015350D01*
X1272227Y1014952D01*
X1273258Y1014816D01*
X1273505Y1014849D01*
X1273726Y1014400D01*
X1272380Y1013054D01*
X1269913D01*
X1269637Y1013721D01*
X1269004Y1014546D01*
X1268179Y1015179D01*
X1267218Y1015577D01*
X1266187Y1015713D01*
X1265156Y1015577D01*
X1264195Y1015179D01*
X1263370Y1014546D01*
X1262737Y1013721D01*
X1262339Y1012760D01*
X1262203Y1011729D01*
X1262339Y1010698D01*
X1262737Y1009737D01*
X1263370Y1008912D01*
X1264195Y1008279D01*
X1265156Y1007881D01*
X1266187Y1007745D01*
X1267218Y1007881D01*
X1268179Y1008279D01*
X1269004Y1008912D01*
X1269637Y1009737D01*
X1269913Y1010404D01*
X1272929D01*
X1273436Y1010504D01*
X1273866Y1010792D01*
X1273866Y1010792D01*
X1273866Y1010792D01*
X1276024Y1012949D01*
X1276123Y1012908D01*
X1276478Y1012733D01*
X1276345Y1011729D01*
X1276481Y1010698D01*
X1276879Y1009737D01*
X1277512Y1008912D01*
X1278337Y1008279D01*
X1279298Y1007881D01*
X1280329Y1007745D01*
X1281360Y1007881D01*
X1282321Y1008279D01*
X1283125Y1008896D01*
X1283455Y1008520D01*
X1276466Y1001532D01*
X1276339Y1001644D01*
D01*
X1276091Y1001861D01*
X1276075Y1001841D01*
X1275840Y1001660D01*
X1276210Y1001648D01*
X1276351Y1001487D01*
X1276384Y1001449D01*
X1273360Y998425D01*
X1266749D01*
X1251237Y1013937D01*
X1250807Y1014225D01*
X1250300Y1014326D01*
X1136549D01*
X1132843Y1018032D01*
X1132875Y1018108D01*
X1133648Y1018262D01*
X1134303Y1018700D01*
X1134741Y1019355D01*
X1134895Y1020128D01*
Y1023672D01*
X1134741Y1024445D01*
X1134303Y1025100D01*
X1133648Y1025538D01*
X1132875Y1025692D01*
X1130513D01*
X1129739Y1025538D01*
X1129084Y1025100D01*
X1128646Y1024445D01*
X1128493Y1023672D01*
Y1023035D01*
X1128031Y1022844D01*
X1120825Y1030049D01*
Y1033180D01*
X1121776Y1034130D01*
X1122273Y1034081D01*
X1122135Y1034287D01*
X1125156Y1037308D01*
X1125863Y1036601D01*
D02*
G37*
G36*
X1177693Y1056228D02*
X1177847Y1055455D01*
X1178284Y1054800D01*
X1178940Y1054362D01*
X1179713Y1054208D01*
X1182075D01*
X1182689Y1054331D01*
X1184956Y1052063D01*
X1185386Y1051775D01*
X1185894Y1051674D01*
X1187566D01*
X1187664Y1051184D01*
X1186936Y1050883D01*
X1186246Y1050354D01*
X1186118Y1050187D01*
X1185716Y1050200D01*
X1185061Y1050638D01*
X1184287Y1050792D01*
X1183606D01*
Y1046999D01*
Y1043208D01*
X1184287D01*
X1185061Y1043362D01*
X1185716Y1043800D01*
X1186154Y1044455D01*
X1186279Y1045086D01*
X1186747Y1045262D01*
X1186936Y1045117D01*
X1187739Y1044785D01*
X1188100Y1044737D01*
Y1048001D01*
X1188599D01*
Y1048500D01*
X1191863D01*
X1191864Y1048492D01*
X1192312Y1048713D01*
X1202363Y1038663D01*
X1202793Y1038375D01*
X1203300Y1038274D01*
X1287051D01*
X1288001Y1037324D01*
X1287780Y1036876D01*
X1287400Y1036926D01*
X1286369Y1036790D01*
X1285408Y1036392D01*
X1284583Y1035759D01*
X1283950Y1034934D01*
X1283674Y1034268D01*
X1278142D01*
X1277635Y1034167D01*
X1277205Y1033879D01*
X1272551Y1029226D01*
X1176449D01*
X1173237Y1032437D01*
X1172807Y1032725D01*
X1172300Y1032825D01*
X1172649Y1033175D01*
X1173500D01*
X1174007Y1033275D01*
X1174334Y1033494D01*
X1175000Y1033406D01*
X1175671Y1033494D01*
X1176297Y1033754D01*
X1176834Y1034166D01*
X1177224Y1034674D01*
X1179193D01*
Y1033228D01*
X1179347Y1032455D01*
X1179784Y1031800D01*
X1180440Y1031362D01*
X1181213Y1031208D01*
X1183575D01*
X1184348Y1031362D01*
X1185003Y1031800D01*
X1185441Y1032455D01*
X1185595Y1033228D01*
Y1036771D01*
X1185441Y1037544D01*
X1185003Y1038200D01*
X1184348Y1038638D01*
X1183575Y1038791D01*
X1181213D01*
X1180440Y1038638D01*
X1179784Y1038200D01*
X1179347Y1037544D01*
X1179303Y1037325D01*
X1177224D01*
X1176834Y1037834D01*
X1176297Y1038246D01*
X1175671Y1038505D01*
X1175000Y1038594D01*
X1174928Y1039141D01*
X1175006Y1039329D01*
X1175094Y1040000D01*
X1175006Y1040671D01*
X1174871Y1040996D01*
X1175437Y1041563D01*
X1175437Y1041563D01*
X1175437Y1041563D01*
X1175725Y1041993D01*
X1175826Y1042500D01*
Y1043358D01*
X1175848Y1043362D01*
X1176503Y1043800D01*
X1176941Y1044455D01*
X1177095Y1045228D01*
Y1048772D01*
X1176941Y1049545D01*
X1176503Y1050200D01*
X1175848Y1050638D01*
X1175075Y1050792D01*
X1172713D01*
X1171940Y1050638D01*
X1171284Y1050200D01*
X1170847Y1049545D01*
X1170693Y1048772D01*
Y1045228D01*
X1170847Y1044455D01*
X1171284Y1043800D01*
X1171940Y1043362D01*
X1172711Y1043209D01*
X1172713Y1043202D01*
X1172713Y1042587D01*
X1172500Y1042594D01*
X1172500D01*
X1171829Y1042505D01*
X1171203Y1042246D01*
X1170666Y1041834D01*
X1170254Y1041297D01*
X1169995Y1040671D01*
X1169906Y1040000D01*
X1169932Y1039806D01*
X1167951Y1037825D01*
X1157413D01*
X1153440Y1041799D01*
X1153473Y1041908D01*
X1153933Y1042215D01*
X1154240Y1042675D01*
X1154344Y1043196D01*
X1154865Y1043300D01*
X1154901Y1043324D01*
X1151880Y1046345D01*
X1152587Y1047052D01*
X1155608Y1044031D01*
X1155632Y1044067D01*
X1155736Y1044588D01*
X1156257Y1044692D01*
X1156717Y1044999D01*
X1157024Y1045459D01*
X1157128Y1045980D01*
X1157649Y1046084D01*
X1158109Y1046391D01*
X1158416Y1046851D01*
X1158520Y1047372D01*
X1159041Y1047476D01*
X1159501Y1047783D01*
X1159808Y1048243D01*
X1159912Y1048764D01*
X1160433Y1048868D01*
X1160469Y1048892D01*
X1157448Y1051913D01*
X1158155Y1052620D01*
X1161176Y1049599D01*
X1161200Y1049635D01*
X1161304Y1050156D01*
X1161825Y1050260D01*
X1162285Y1050567D01*
X1162430Y1050784D01*
X1162928Y1050834D01*
X1163943Y1049818D01*
X1158063Y1043937D01*
X1158024Y1043879D01*
X1157703Y1043746D01*
X1157166Y1043334D01*
X1156754Y1042797D01*
X1156495Y1042171D01*
X1156406Y1041500D01*
X1156495Y1040829D01*
X1156754Y1040203D01*
X1157166Y1039666D01*
X1157703Y1039254D01*
X1158329Y1038995D01*
X1159000Y1038906D01*
X1159671Y1038995D01*
X1160297Y1039254D01*
X1160834Y1039666D01*
X1161246Y1040203D01*
X1161506Y1040829D01*
X1161594Y1041500D01*
X1161506Y1042171D01*
X1161246Y1042797D01*
X1160997Y1043122D01*
X1166755Y1048880D01*
X1174549Y1056674D01*
X1177693D01*
Y1056228D01*
D02*
G37*
G36*
X1136663Y1068663D02*
X1137093Y1068375D01*
X1137600Y1068274D01*
X1148548D01*
X1148784Y1067834D01*
X1148948Y1068079D01*
X1149240Y1068274D01*
X1149460D01*
X1152393Y1065342D01*
X1151686Y1064635D01*
X1148665Y1067655D01*
X1148641Y1067619D01*
X1148537Y1067098D01*
X1148016Y1066995D01*
X1147556Y1066687D01*
X1147249Y1066227D01*
X1147145Y1065706D01*
X1146624Y1065603D01*
X1146164Y1065295D01*
X1145857Y1064835D01*
X1145753Y1064314D01*
X1145232Y1064211D01*
X1144772Y1063903D01*
X1144465Y1063443D01*
X1144361Y1062922D01*
X1143840Y1062819D01*
X1143380Y1062512D01*
X1143073Y1062052D01*
X1142969Y1061530D01*
X1142448Y1061427D01*
X1141988Y1061119D01*
X1141681Y1060660D01*
X1141577Y1060139D01*
X1141056Y1060035D01*
X1140596Y1059728D01*
X1140289Y1059268D01*
X1140185Y1058747D01*
X1139664Y1058643D01*
X1139204Y1058336D01*
X1138897Y1057876D01*
X1138793Y1057355D01*
X1138272Y1057251D01*
X1137813Y1056944D01*
X1137667Y1056726D01*
X1137170Y1056677D01*
X1136841Y1057006D01*
X1137146Y1057403D01*
X1137405Y1058029D01*
X1137494Y1058700D01*
X1137405Y1059371D01*
X1137146Y1059997D01*
X1136734Y1060534D01*
X1136197Y1060946D01*
X1135571Y1061205D01*
X1134900Y1061294D01*
X1134229Y1061205D01*
X1133603Y1060946D01*
X1133066Y1060534D01*
X1132654Y1059997D01*
X1132395Y1059371D01*
X1132306Y1058700D01*
X1132395Y1058029D01*
X1132654Y1057403D01*
X1133066Y1056866D01*
X1133603Y1056454D01*
X1133806Y1056370D01*
X1133963Y1056135D01*
X1133963Y1056135D01*
X1133963Y1056135D01*
X1135295Y1054803D01*
X1135246Y1054305D01*
X1135029Y1054160D01*
X1134750Y1053743D01*
X1134250D01*
X1133971Y1054160D01*
X1133511Y1054467D01*
X1132990Y1054571D01*
X1132887Y1055092D01*
X1132580Y1055552D01*
X1132119Y1055859D01*
X1131598Y1055963D01*
X1131495Y1056484D01*
X1131187Y1056944D01*
X1130727Y1057251D01*
X1130694Y1057360D01*
X1130737Y1057403D01*
X1131025Y1057833D01*
X1131126Y1058340D01*
Y1064051D01*
X1133218Y1066143D01*
X1133634Y1065866D01*
X1133595Y1065771D01*
X1133572Y1065600D01*
X1135600D01*
Y1067628D01*
X1135429Y1067605D01*
X1135334Y1067566D01*
X1135057Y1067982D01*
X1136200Y1069125D01*
X1136663Y1068663D01*
D02*
G37*
G36*
X1135029Y1052155D02*
X1137849Y1049335D01*
Y1047623D01*
X1137359Y1047526D01*
X1137246Y1047797D01*
X1136834Y1048334D01*
X1136297Y1048746D01*
X1135671Y1049006D01*
X1135000Y1049094D01*
X1134329Y1049006D01*
X1133703Y1048746D01*
X1133166Y1048334D01*
X1132754Y1047797D01*
X1132495Y1047171D01*
X1132406Y1046500D01*
X1132495Y1045829D01*
X1132754Y1045203D01*
X1133166Y1044666D01*
X1133274Y1044582D01*
Y1042892D01*
X1132826Y1042671D01*
X1132597Y1042846D01*
X1131971Y1043106D01*
X1131800Y1043128D01*
Y1040599D01*
X1130800D01*
Y1043128D01*
X1130629Y1043106D01*
X1130003Y1042846D01*
X1129774Y1042671D01*
X1129325Y1042892D01*
Y1045000D01*
X1129325Y1045000D01*
X1129325Y1045000D01*
Y1045000D01*
X1129325D01*
X1129325Y1045000D01*
X1129225Y1045507D01*
X1128937Y1045937D01*
X1124325Y1050549D01*
Y1050661D01*
X1124696Y1050997D01*
X1124861Y1050980D01*
X1125007Y1050763D01*
X1125467Y1050456D01*
X1125988Y1050352D01*
X1126091Y1049831D01*
X1126399Y1049371D01*
X1126859Y1049064D01*
X1127380Y1048960D01*
X1127483Y1048439D01*
X1127791Y1047979D01*
X1128250Y1047672D01*
X1128793Y1047564D01*
X1129335Y1047672D01*
X1129795Y1047979D01*
X1133971Y1052155D01*
X1134250Y1052572D01*
X1134750D01*
X1135029Y1052155D01*
D02*
G37*
%LPC*%
G36*
X1273258Y1008642D02*
X1272227Y1008506D01*
X1271266Y1008108D01*
X1270841Y1007782D01*
X1273258Y1005365D01*
X1275675Y1007782D01*
X1275250Y1008108D01*
X1274289Y1008506D01*
X1273258Y1008642D01*
D02*
G37*
G36*
X1142087Y1025692D02*
X1141406D01*
Y1022400D01*
X1144107D01*
Y1023672D01*
X1143953Y1024445D01*
X1143516Y1025100D01*
X1142860Y1025538D01*
X1142087Y1025692D01*
D02*
G37*
G36*
X1199400Y1033800D02*
X1196637D01*
X1196685Y1033438D01*
X1197017Y1032636D01*
X1197546Y1031946D01*
X1198236Y1031417D01*
X1199039Y1031085D01*
X1199400Y1031037D01*
Y1033800D01*
D02*
G37*
G36*
X1136528Y1030600D02*
X1134500D01*
Y1028572D01*
X1134671Y1028594D01*
X1135297Y1028854D01*
X1135834Y1029266D01*
X1136246Y1029803D01*
X1136506Y1030429D01*
X1136528Y1030600D01*
D02*
G37*
G36*
X1133500D02*
X1131472D01*
X1131495Y1030429D01*
X1131754Y1029803D01*
X1132166Y1029266D01*
X1132703Y1028854D01*
X1133329Y1028594D01*
X1133500Y1028572D01*
Y1030600D01*
D02*
G37*
G36*
X1276382Y1007075D02*
X1273965Y1004658D01*
X1276382Y1002241D01*
X1276708Y1002666D01*
X1277106Y1003627D01*
X1277242Y1004658D01*
X1277106Y1005689D01*
X1276708Y1006650D01*
X1276382Y1007075D01*
D02*
G37*
G36*
X1144107Y1021400D02*
X1141406D01*
Y1018108D01*
X1142087D01*
X1142860Y1018262D01*
X1143516Y1018700D01*
X1143953Y1019355D01*
X1144107Y1020128D01*
Y1021400D01*
D02*
G37*
G36*
X1270134Y1007075D02*
X1269808Y1006650D01*
X1269410Y1005689D01*
X1269274Y1004658D01*
X1269410Y1003627D01*
X1269808Y1002666D01*
X1270134Y1002241D01*
X1272551Y1004658D01*
X1270134Y1007075D01*
D02*
G37*
G36*
X1140406Y1025692D02*
X1139725D01*
X1138952Y1025538D01*
X1138297Y1025100D01*
X1137859Y1024445D01*
X1137705Y1023672D01*
Y1022400D01*
X1140406D01*
Y1025692D01*
D02*
G37*
G36*
X1273258Y1003951D02*
X1270841Y1001534D01*
X1271266Y1001208D01*
X1272227Y1000810D01*
X1273258Y1000674D01*
X1274289Y1000810D01*
X1275250Y1001208D01*
X1275675Y1001534D01*
X1273258Y1003951D01*
D02*
G37*
G36*
X1140406Y1021400D02*
X1137705D01*
Y1020128D01*
X1137859Y1019355D01*
X1138297Y1018700D01*
X1138952Y1018262D01*
X1139725Y1018108D01*
X1140406D01*
Y1021400D01*
D02*
G37*
G36*
X1203163Y1033800D02*
X1200400D01*
Y1031037D01*
X1200762Y1031085D01*
X1201564Y1031417D01*
X1202254Y1031946D01*
X1202783Y1032636D01*
X1203115Y1033438D01*
X1203163Y1033800D01*
D02*
G37*
G36*
X1138628Y1064600D02*
X1136600D01*
Y1062572D01*
X1136771Y1062595D01*
X1137397Y1062854D01*
X1137934Y1063266D01*
X1138346Y1063803D01*
X1138605Y1064429D01*
X1138628Y1064600D01*
D02*
G37*
G36*
X1135600D02*
X1133572D01*
X1133595Y1064429D01*
X1133854Y1063803D01*
X1134266Y1063266D01*
X1134803Y1062854D01*
X1135429Y1062595D01*
X1135600Y1062572D01*
Y1064600D01*
D02*
G37*
G36*
X1182606Y1050792D02*
X1181925D01*
X1181152Y1050638D01*
X1180497Y1050200D01*
X1180059Y1049545D01*
X1179905Y1048772D01*
Y1047500D01*
X1182606D01*
Y1050792D01*
D02*
G37*
G36*
X1135000Y1116028D02*
Y1114000D01*
X1137028D01*
X1137006Y1114171D01*
X1136746Y1114797D01*
X1136334Y1115334D01*
X1135797Y1115746D01*
X1135171Y1116006D01*
X1135000Y1116028D01*
D02*
G37*
G36*
X1134000Y1113000D02*
X1131972D01*
X1131995Y1112829D01*
X1132254Y1112203D01*
X1132666Y1111666D01*
X1133203Y1111254D01*
X1133829Y1110995D01*
X1134000Y1110972D01*
Y1113000D01*
D02*
G37*
G36*
X1136600Y1067628D02*
Y1065600D01*
X1138628D01*
X1138605Y1065771D01*
X1138346Y1066397D01*
X1137934Y1066934D01*
X1137397Y1067346D01*
X1136771Y1067605D01*
X1136600Y1067628D01*
D02*
G37*
G36*
X1134000Y1116028D02*
X1133829Y1116006D01*
X1133203Y1115746D01*
X1132666Y1115334D01*
X1132254Y1114797D01*
X1131995Y1114171D01*
X1131972Y1114000D01*
X1134000D01*
Y1116028D01*
D02*
G37*
G36*
X1191863Y1047500D02*
X1189100D01*
Y1044737D01*
X1189462Y1044785D01*
X1190264Y1045117D01*
X1190954Y1045646D01*
X1191483Y1046336D01*
X1191815Y1047139D01*
X1191863Y1047500D01*
D02*
G37*
G36*
X1199400Y1037563D02*
X1199039Y1037515D01*
X1198236Y1037183D01*
X1197546Y1036654D01*
X1197017Y1035964D01*
X1196685Y1035161D01*
X1196637Y1034800D01*
X1199400D01*
Y1037563D01*
D02*
G37*
G36*
X1194807Y1034500D02*
X1192106D01*
Y1031208D01*
X1192787D01*
X1193561Y1031362D01*
X1194216Y1031800D01*
X1194654Y1032455D01*
X1194807Y1033228D01*
Y1034500D01*
D02*
G37*
G36*
X1191106D02*
X1188405D01*
Y1033228D01*
X1188559Y1032455D01*
X1188997Y1031800D01*
X1189652Y1031362D01*
X1190425Y1031208D01*
X1191106D01*
Y1034500D01*
D02*
G37*
G36*
X1200400Y1037563D02*
Y1034800D01*
X1203163D01*
X1203115Y1035161D01*
X1202783Y1035964D01*
X1202254Y1036654D01*
X1201564Y1037183D01*
X1200762Y1037515D01*
X1200400Y1037563D01*
D02*
G37*
G36*
X1182606Y1046500D02*
X1179905D01*
Y1045228D01*
X1180059Y1044455D01*
X1180497Y1043800D01*
X1181152Y1043362D01*
X1181925Y1043208D01*
X1182606D01*
Y1046500D01*
D02*
G37*
G36*
X1192787Y1038791D02*
X1192106D01*
Y1035500D01*
X1194807D01*
Y1036771D01*
X1194654Y1037544D01*
X1194216Y1038200D01*
X1193561Y1038638D01*
X1192787Y1038791D01*
D02*
G37*
G36*
X1191106D02*
X1190425D01*
X1189652Y1038638D01*
X1188997Y1038200D01*
X1188559Y1037544D01*
X1188405Y1036771D01*
Y1035500D01*
X1191106D01*
Y1038791D01*
D02*
G37*
%LPD*%
D10*
X1138315Y1032778D02*
D03*
X1139707Y1034170D02*
D03*
X1141099Y1035562D02*
D03*
X1142491Y1036954D02*
D03*
X1143883Y1038346D02*
D03*
X1145275Y1039738D02*
D03*
X1146667Y1041130D02*
D03*
X1148059Y1042522D02*
D03*
X1149451Y1043914D02*
D03*
X1150842Y1045306D02*
D03*
X1152234Y1046698D02*
D03*
X1153626Y1048090D02*
D03*
X1155018Y1049482D02*
D03*
X1156410Y1050874D02*
D03*
X1157802Y1052266D02*
D03*
X1159194Y1053658D02*
D03*
X1160586Y1055049D02*
D03*
X1161978Y1056441D02*
D03*
X1163370Y1057833D02*
D03*
X1164762Y1059225D02*
D03*
X1166154Y1060617D02*
D03*
X1167546Y1062009D02*
D03*
X1168938Y1063401D02*
D03*
X1170330Y1064793D02*
D03*
X1171722Y1066185D02*
D03*
X1129685Y1108222D02*
D03*
X1128293Y1106830D02*
D03*
X1126901Y1105438D02*
D03*
X1125509Y1104046D02*
D03*
X1124117Y1102654D02*
D03*
X1122725Y1101262D02*
D03*
X1121333Y1099870D02*
D03*
X1119941Y1098478D02*
D03*
X1118549Y1097086D02*
D03*
X1117157Y1095694D02*
D03*
X1115766Y1094302D02*
D03*
X1114374Y1092910D02*
D03*
X1112982Y1091518D02*
D03*
X1111590Y1090126D02*
D03*
X1110198Y1088734D02*
D03*
X1108806Y1087342D02*
D03*
X1107414Y1085951D02*
D03*
X1106022Y1084559D02*
D03*
X1104630Y1083167D02*
D03*
X1103238Y1081775D02*
D03*
X1101846Y1080383D02*
D03*
X1100454Y1078991D02*
D03*
X1099062Y1077599D02*
D03*
X1097670Y1076207D02*
D03*
X1096278Y1074815D02*
D03*
X1138119Y1051070D02*
D03*
X1139511Y1052461D02*
D03*
X1140903Y1053853D02*
D03*
X1142295Y1055245D02*
D03*
X1143687Y1056637D02*
D03*
X1145079Y1058029D02*
D03*
X1146471Y1059421D02*
D03*
X1147863Y1060813D02*
D03*
X1149255Y1062205D02*
D03*
X1150646Y1063597D02*
D03*
X1152038Y1064989D02*
D03*
X1153430Y1066381D02*
D03*
X1130881Y1088930D02*
D03*
X1129489Y1087538D02*
D03*
X1128097Y1086146D02*
D03*
X1126705Y1084754D02*
D03*
X1125313Y1083362D02*
D03*
X1123921Y1081971D02*
D03*
X1122529Y1080579D02*
D03*
X1121137Y1079187D02*
D03*
X1119745Y1077795D02*
D03*
X1118353Y1076403D02*
D03*
X1116961Y1075011D02*
D03*
X1115570Y1073619D02*
D03*
D11*
X1171722Y1074815D02*
D03*
X1170330Y1076207D02*
D03*
X1168938Y1077599D02*
D03*
X1167546Y1078991D02*
D03*
X1166154Y1080383D02*
D03*
X1164762Y1081775D02*
D03*
X1163370Y1083167D02*
D03*
X1161978Y1084559D02*
D03*
X1160586Y1085951D02*
D03*
X1159194Y1087342D02*
D03*
X1157802Y1088734D02*
D03*
X1156410Y1090126D02*
D03*
X1155018Y1091518D02*
D03*
X1153626Y1092910D02*
D03*
X1152234Y1094302D02*
D03*
X1150842Y1095694D02*
D03*
X1149451Y1097086D02*
D03*
X1148059Y1098478D02*
D03*
X1146667Y1099870D02*
D03*
X1145275Y1101262D02*
D03*
X1143883Y1102654D02*
D03*
X1142491Y1104046D02*
D03*
X1141099Y1105438D02*
D03*
X1139707Y1106830D02*
D03*
X1138315Y1108222D02*
D03*
X1096278Y1066185D02*
D03*
X1097670Y1064793D02*
D03*
X1099062Y1063401D02*
D03*
X1100454Y1062009D02*
D03*
X1101846Y1060617D02*
D03*
X1103238Y1059225D02*
D03*
X1104630Y1057833D02*
D03*
X1106022Y1056441D02*
D03*
X1107414Y1055049D02*
D03*
X1108806Y1053658D02*
D03*
X1110198Y1052266D02*
D03*
X1111590Y1050874D02*
D03*
X1112982Y1049482D02*
D03*
X1114374Y1048090D02*
D03*
X1115766Y1046698D02*
D03*
X1117157Y1045306D02*
D03*
X1118549Y1043914D02*
D03*
X1119941Y1042522D02*
D03*
X1121333Y1041130D02*
D03*
X1122725Y1039738D02*
D03*
X1124117Y1038346D02*
D03*
X1125509Y1036954D02*
D03*
X1126901Y1035562D02*
D03*
X1128293Y1034170D02*
D03*
X1129685Y1032778D02*
D03*
X1115569Y1066381D02*
D03*
X1116961Y1064989D02*
D03*
X1118353Y1063597D02*
D03*
X1119745Y1062205D02*
D03*
X1121137Y1060813D02*
D03*
X1122529Y1059421D02*
D03*
X1123921Y1058029D02*
D03*
X1125313Y1056637D02*
D03*
X1126705Y1055245D02*
D03*
X1128097Y1053853D02*
D03*
X1129489Y1052461D02*
D03*
X1130881Y1051070D02*
D03*
X1153430Y1073619D02*
D03*
X1152038Y1075011D02*
D03*
X1150646Y1076403D02*
D03*
X1149255Y1077795D02*
D03*
X1147863Y1079187D02*
D03*
X1146471Y1080579D02*
D03*
X1145079Y1081971D02*
D03*
X1143687Y1083363D02*
D03*
X1142295Y1084754D02*
D03*
X1140903Y1086147D02*
D03*
X1139511Y1087538D02*
D03*
X1138119Y1088930D02*
D03*
D12*
X1214700Y1246794D02*
D03*
Y1256006D02*
D03*
X1097000Y1101306D02*
D03*
Y1092094D02*
D03*
X1155500Y1119106D02*
D03*
Y1109894D02*
D03*
X1205500Y1077106D02*
D03*
Y1067894D02*
D03*
X1173000Y1104394D02*
D03*
Y1113606D02*
D03*
X1205500Y1104394D02*
D03*
Y1113606D02*
D03*
X1204075Y1140898D02*
D03*
Y1131685D02*
D03*
X1205500Y1095106D02*
D03*
Y1085894D02*
D03*
X1194500Y1095106D02*
D03*
Y1085894D02*
D03*
X1258000Y1105394D02*
D03*
Y1114606D02*
D03*
X1214400Y1131794D02*
D03*
Y1141006D02*
D03*
X1194000Y1121394D02*
D03*
Y1130606D02*
D03*
X1227000Y1113606D02*
D03*
Y1104394D02*
D03*
X1216000Y1104394D02*
D03*
Y1113606D02*
D03*
X1194500Y1104394D02*
D03*
Y1113606D02*
D03*
X1261000Y1123394D02*
D03*
Y1132606D02*
D03*
X1184000Y1113606D02*
D03*
Y1104394D02*
D03*
X1272500Y1132606D02*
D03*
Y1123394D02*
D03*
X1216500Y1168606D02*
D03*
Y1159394D02*
D03*
X1260000Y1158394D02*
D03*
Y1167606D02*
D03*
X1166500Y1219894D02*
D03*
Y1229106D02*
D03*
X1276200Y1068806D02*
D03*
Y1059594D02*
D03*
X1286307Y1062882D02*
D03*
Y1053669D02*
D03*
X1265800Y1054406D02*
D03*
Y1045194D02*
D03*
D13*
X1180894Y1058000D02*
D03*
X1190106D02*
D03*
X1356606Y1083000D02*
D03*
X1347394D02*
D03*
X1355606Y1178500D02*
D03*
X1346394D02*
D03*
X1140906Y1021900D02*
D03*
X1131694D02*
D03*
X1259394Y1142000D02*
D03*
X1268606D02*
D03*
X1246106Y1114500D02*
D03*
X1236894D02*
D03*
X1206394Y1232000D02*
D03*
X1215606D02*
D03*
X1183106Y1047000D02*
D03*
X1173894D02*
D03*
X1191606Y1035000D02*
D03*
X1182394D02*
D03*
X1175894Y1220000D02*
D03*
X1185106D02*
D03*
X1184606Y1240500D02*
D03*
X1175394D02*
D03*
X1175894Y1230000D02*
D03*
X1185106D02*
D03*
X1189106Y1067700D02*
D03*
X1179894D02*
D03*
D14*
X1235051Y1064500D02*
D03*
Y1059500D02*
D03*
Y1054500D02*
D03*
Y1049500D02*
D03*
X1253949Y1064500D02*
D03*
Y1059500D02*
D03*
Y1054500D02*
D03*
Y1049500D02*
D03*
X1229051Y1140000D02*
D03*
Y1135000D02*
D03*
Y1130000D02*
D03*
Y1125000D02*
D03*
X1247949Y1140000D02*
D03*
Y1135000D02*
D03*
Y1130000D02*
D03*
Y1125000D02*
D03*
X1197051Y1221000D02*
D03*
Y1216000D02*
D03*
Y1211000D02*
D03*
Y1206000D02*
D03*
X1215949Y1221000D02*
D03*
Y1216000D02*
D03*
Y1211000D02*
D03*
Y1206000D02*
D03*
X1247949Y1158500D02*
D03*
Y1163500D02*
D03*
Y1168500D02*
D03*
Y1173500D02*
D03*
X1229051Y1158500D02*
D03*
Y1163500D02*
D03*
Y1168500D02*
D03*
Y1173500D02*
D03*
D15*
X1369874Y1122000D02*
D03*
X1379126Y1118260D02*
D03*
X1369874Y1140500D02*
D03*
X1379126Y1136760D02*
D03*
D16*
Y1125740D02*
D03*
Y1144240D02*
D03*
D17*
X1371500Y1094000D02*
D03*
Y1106598D02*
D03*
Y1171098D02*
D03*
Y1158500D02*
D03*
D18*
X1216260Y1077874D02*
D03*
X1220000Y1087126D02*
D03*
X1177260Y1086874D02*
D03*
X1181000Y1096126D02*
D03*
D19*
X1223740Y1077874D02*
D03*
X1184740Y1086874D02*
D03*
D20*
X1241500Y1102634D02*
D03*
X1245240Y1094366D02*
D03*
X1237760D02*
D03*
X1193000Y1184366D02*
D03*
X1189260Y1192634D02*
D03*
X1196740D02*
D03*
X1153500Y1228134D02*
D03*
X1157240Y1219866D02*
D03*
X1149760D02*
D03*
D21*
X1150402Y1203000D02*
D03*
X1175598D02*
D03*
D22*
X1240000Y1239098D02*
D03*
Y1213902D02*
D03*
D23*
X1208823Y1190500D02*
D03*
X1224177D02*
D03*
D24*
X1196500Y1250000D02*
D03*
Y1262500D02*
D03*
D25*
X1175760Y1262724D02*
D03*
X1183240D02*
D03*
Y1253276D02*
D03*
X1179500D02*
D03*
X1175760D02*
D03*
D26*
X1159500Y1257177D02*
D03*
Y1241823D02*
D03*
D27*
X1144300Y1091200D02*
Y1091500D01*
X1143473D02*
X1144300D01*
X1124200Y1074100D02*
Y1076124D01*
X1249606Y1045394D02*
X1265800D01*
X1155500Y1103135D02*
X1155865Y1103500D01*
X1097500Y1084729D02*
Y1092094D01*
X1110229Y1072000D02*
X1117189D01*
X1119500Y1029500D02*
X1136000Y1013000D01*
X1136200Y1071000D02*
X1137600Y1069600D01*
X1129800Y1064600D02*
X1136200Y1071000D01*
Y1079500D01*
X1135200Y1080500D02*
X1136200Y1079500D01*
X1135200Y1080500D02*
Y1086011D01*
X1121192Y1055300D02*
X1123921Y1058029D01*
X1116200Y1055300D02*
X1121192D01*
X1115000Y1056500D02*
X1116200Y1055300D01*
X1210500Y1053800D02*
X1214800Y1049500D01*
X1144600Y1073100D02*
Y1073200D01*
X1144300Y1073500D02*
X1144600Y1073200D01*
X1144300Y1073500D02*
Y1073700D01*
X1137600Y1069600D02*
X1150211D01*
X1135200Y1086011D02*
X1138119Y1088930D01*
X1169242Y1027400D02*
X1171071Y1025571D01*
X1138100Y1075700D02*
X1139000Y1074800D01*
X1155100Y1027400D02*
X1169242D01*
X1150000Y1032500D02*
X1155100Y1027400D01*
X1167900Y1100200D02*
Y1101200D01*
X1140600Y1092300D02*
X1142700Y1094400D01*
X1140600Y1091411D02*
Y1092300D01*
X1138119Y1088930D02*
X1140600Y1091411D01*
X1144300Y1091200D02*
X1146348D01*
X1150842Y1095694D01*
X1139000Y1096900D02*
X1139500Y1096400D01*
X1139000Y1096900D02*
Y1097771D01*
X1143883Y1102654D01*
X1148600Y1084600D02*
X1150500Y1086500D01*
X1115756Y1079000D02*
X1118353Y1076403D01*
X1110800Y1079000D02*
X1115756D01*
X1110100Y1078300D02*
X1110800Y1079000D01*
X1134600Y1046100D02*
X1135000Y1046500D01*
X1134600Y1036493D02*
Y1046100D01*
Y1036493D02*
X1138315Y1032778D01*
X1168500Y1036500D02*
X1174500Y1042500D01*
X1154500Y1024000D02*
X1165000D01*
X1132000Y1077600D02*
X1132400Y1077200D01*
X1117189Y1072000D02*
X1118000Y1071189D01*
X1104630Y1083167D02*
X1107497Y1080300D01*
X1106713Y1078300D02*
X1110100D01*
X1101846Y1080383D02*
X1110229Y1072000D01*
X1117881Y1103481D02*
Y1107881D01*
X1103400Y1089000D02*
X1117881Y1103481D01*
X1103238Y1081775D02*
X1106713Y1078300D01*
X1103400Y1087181D02*
Y1089000D01*
X1142161Y1115761D02*
X1145386D01*
X1134000Y1107600D02*
X1142161Y1115761D01*
X1134000Y1103000D02*
Y1107600D01*
X1119900Y1088900D02*
X1134000Y1103000D01*
X1122800Y1112800D02*
X1130000Y1120000D01*
X1122800Y1106755D02*
Y1112800D01*
Y1106755D02*
X1125509Y1104046D01*
X1103400Y1087181D02*
X1106022Y1084559D01*
X1103400Y1091875D02*
Y1114400D01*
X1100500Y1088974D02*
X1103400Y1091875D01*
X1100500Y1084513D02*
Y1088974D01*
X1119900Y1088776D02*
Y1088900D01*
X1116600Y1085600D02*
X1119900Y1088900D01*
Y1088776D02*
X1125313Y1083362D01*
X1115500Y1082040D02*
X1119745Y1077795D01*
X1100500Y1084513D02*
X1103238Y1081775D01*
X1106100Y1064871D02*
Y1065700D01*
X1101846Y1060617D02*
X1106100Y1064871D01*
Y1065700D02*
Y1065800D01*
X1146432Y1088500D02*
X1152234Y1094302D01*
X1146040Y1088500D02*
X1146432D01*
X1142295Y1084754D02*
X1146040Y1088500D01*
X1147316Y1086600D02*
X1153626Y1092910D01*
X1146924Y1086600D02*
X1147316D01*
X1143687Y1083363D02*
X1146924Y1086600D01*
X1147708Y1084600D02*
X1148600D01*
X1145079Y1081971D02*
X1147708Y1084600D01*
X1128000Y1042229D02*
Y1045000D01*
X1124117Y1038346D02*
X1128000Y1042229D01*
X1139511Y1052461D02*
X1142100Y1049872D01*
Y1045697D02*
Y1049872D01*
Y1045697D02*
X1146667Y1041130D01*
X1131800Y1098000D02*
X1134000D01*
X1124000Y1090200D02*
X1131800Y1098000D01*
X1124000Y1087460D02*
Y1090200D01*
X1167800Y1088200D02*
X1168500D01*
X1167500Y1088500D02*
X1167800Y1088200D01*
X1161978Y1084559D02*
X1165919Y1088500D01*
X1156819Y1079400D02*
X1161978Y1084559D01*
X1156428Y1079400D02*
X1156819D01*
X1152038Y1075011D02*
X1156428Y1079400D01*
X1159194Y1087342D02*
X1166352Y1094500D01*
X1172134D01*
X1156252Y1084400D02*
X1159194Y1087342D01*
X1155860Y1084400D02*
X1156252D01*
X1149255Y1077795D02*
X1155860Y1084400D01*
X1151600Y1085200D02*
Y1085400D01*
X1150500Y1086500D02*
X1151600Y1085400D01*
X1152234Y1094302D02*
X1158932Y1101000D01*
X1171839Y1080500D02*
X1173000D01*
X1168938Y1077599D02*
X1171839Y1080500D01*
X1176000Y1082000D02*
X1186500D01*
X1173000Y1085000D02*
X1176000Y1082000D01*
X1173000Y1085000D02*
Y1089500D01*
X1175750Y1086884D02*
Y1090884D01*
X1172634Y1094000D02*
X1175750Y1090884D01*
X1156135Y1081500D02*
X1160586Y1085951D01*
X1155744Y1081500D02*
X1156135D01*
X1150646Y1076403D02*
X1155744Y1081500D01*
X1177394Y1076106D02*
X1185835D01*
X1189106Y1072835D01*
X1160586Y1085951D02*
X1166636Y1092000D01*
X1170500D02*
X1173000Y1089500D01*
X1166636Y1092000D02*
X1170500D01*
X1165919Y1088500D02*
X1167500D01*
X1172134Y1094500D02*
X1172634Y1094000D01*
Y1104028D01*
X1186500Y1082000D02*
X1190626Y1077874D01*
X1173000Y1080500D02*
X1177394Y1076106D01*
X1153822Y1073619D02*
X1163370Y1083167D01*
X1153822Y1073619D02*
X1154381D01*
X1157000Y1071000D01*
X1153430Y1073619D02*
X1153822D01*
X1159203Y1063500D02*
X1163852Y1068148D01*
Y1072513D01*
X1168938Y1077599D01*
X1134000Y1098000D02*
Y1098339D01*
X1124000Y1087460D02*
X1126705Y1084754D01*
X1149250Y1052250D02*
X1157000Y1060000D01*
X1148148Y1051148D02*
X1149250Y1052250D01*
X1150784Y1050716D01*
X1151000D01*
X1153626Y1048090D01*
X1142295Y1055245D02*
X1146000Y1051540D01*
Y1047365D02*
Y1051540D01*
Y1047365D02*
X1149451Y1043914D01*
X1140903Y1053853D02*
X1144000Y1050756D01*
Y1046581D02*
Y1050756D01*
Y1046581D02*
X1148059Y1042522D01*
X1138119Y1051070D02*
X1139174Y1050014D01*
Y1045838D02*
Y1050014D01*
X1115000Y1056500D02*
Y1057500D01*
X1194000Y1121394D02*
X1212394D01*
X1224125Y1135000D02*
X1229051D01*
X1235500Y1115894D02*
X1236894Y1114500D01*
X1235500Y1115894D02*
Y1128000D01*
X1233500Y1130000D02*
X1235500Y1128000D01*
X1229051Y1130000D02*
X1233500D01*
X1216000Y1113606D02*
X1221000Y1118607D01*
X1156864Y1036500D02*
X1168500D01*
X1149451Y1043914D02*
X1156864Y1036500D01*
X1156081Y1034500D02*
X1173500D01*
X1148059Y1042522D02*
X1156081Y1034500D01*
X1155000Y1031500D02*
X1162500D01*
X1151500Y1035000D02*
X1155000Y1031500D01*
X1148500Y1030000D02*
X1154500Y1024000D01*
X1148148Y1048000D02*
Y1051148D01*
Y1048000D02*
X1150842Y1045306D01*
X1151000Y1053500D02*
X1155018Y1049482D01*
X1174500Y1042500D02*
Y1044894D01*
X1147229Y1035000D02*
X1151500D01*
X1144161Y1032500D02*
X1150000D01*
X1143877Y1030000D02*
X1148500D01*
X1180894Y1058000D02*
X1181500Y1058606D01*
Y1066894D01*
X1165818Y1049818D02*
X1174000Y1058000D01*
X1160586Y1055049D02*
X1165818Y1049818D01*
X1374500Y1113000D02*
X1375500D01*
X1378000Y1110500D01*
X1158932Y1101000D02*
X1162500D01*
X1155500Y1103500D02*
X1155865D01*
X1155500Y1109894D02*
Y1112000D01*
Y1103500D02*
Y1109894D01*
Y1103135D02*
Y1103500D01*
X1149451Y1097086D02*
X1155500Y1103135D01*
X1147500Y1120000D02*
X1155500Y1112000D01*
X1155865Y1103500D02*
X1156000D01*
X1155865D02*
X1155932Y1103568D01*
X1156000Y1103500D01*
X1130000Y1120000D02*
X1147500D01*
X1174000Y1058000D02*
X1180894D01*
X1185894Y1053000D01*
X1248500Y1082500D02*
X1250000D01*
X1142491Y1104046D02*
X1147445Y1109000D01*
X1147500D01*
X1243000Y1051500D02*
Y1066500D01*
X1241000Y1049500D02*
X1243000Y1051500D01*
X1334000Y1136500D02*
X1347500Y1150000D01*
X1334000Y1123500D02*
Y1136500D01*
X1338500Y1131000D02*
X1347500Y1140000D01*
X1338500Y1121000D02*
Y1131000D01*
X1235051Y1049500D02*
X1241000D01*
X1218768Y1085894D02*
X1220000Y1087126D01*
X1205500Y1085894D02*
X1218768D01*
X1185374Y1094626D02*
X1194106Y1085894D01*
X1194500D01*
X1172634Y1104028D02*
X1173000Y1104394D01*
X1119500Y1033729D02*
X1124117Y1038346D01*
X1119500Y1029500D02*
Y1033729D01*
X1118000Y1070000D02*
Y1071189D01*
Y1068811D02*
Y1070000D01*
X1097500Y1084729D02*
X1101846Y1080383D01*
X1158514Y1062811D02*
X1159203Y1063500D01*
Y1062000D02*
Y1063500D01*
X1157000Y1062811D02*
X1158514D01*
X1159203Y1062000D02*
X1163370Y1057833D01*
X1157000Y1060000D02*
Y1062811D01*
X1153430Y1066381D02*
X1157000Y1062811D01*
X1123000Y1051540D02*
X1126705Y1055245D01*
X1123000Y1050000D02*
Y1051540D01*
Y1050000D02*
X1128000Y1045000D01*
X1110500Y1061311D02*
X1115569Y1066381D01*
X1110500Y1058136D02*
Y1061311D01*
X1107414Y1055049D02*
X1110500Y1058136D01*
X1115569Y1066381D02*
X1118000Y1068811D01*
X1218500Y1061000D02*
X1219250Y1060250D01*
X1220000Y1059500D01*
X1235051D01*
X1224000Y1064500D02*
X1235051D01*
X1144093Y1027000D02*
X1147000D01*
X1138315Y1032778D02*
X1144093Y1027000D01*
X1141099Y1035562D02*
X1144161Y1032500D01*
X1139707Y1034170D02*
X1143877Y1030000D01*
X1143883Y1038346D02*
X1147229Y1035000D01*
X1130881Y1088930D02*
X1131030D01*
X1134400Y1092300D01*
X1139511Y1087538D02*
X1143473Y1091500D01*
X1133100Y1078700D02*
Y1083927D01*
X1129489Y1087538D02*
X1133100Y1083927D01*
X1131000Y1081500D02*
Y1083243D01*
X1128097Y1086146D02*
X1131000Y1083243D01*
X1138100Y1083344D02*
X1140903Y1086147D01*
X1119500Y1052000D02*
X1120676D01*
X1125313Y1056637D01*
X1116961Y1075011D02*
X1119672Y1072300D01*
X1122400D01*
X1124200Y1074100D01*
X1121137Y1079187D02*
X1124200Y1076124D01*
X1159000Y1041500D02*
Y1043000D01*
X1165818Y1049818D01*
X1132400Y1077200D02*
X1132550Y1077350D01*
Y1078150D01*
X1132000Y1077600D02*
X1132550Y1078150D01*
X1133100Y1078700D01*
X1138000Y1042600D02*
X1139906Y1044506D01*
Y1045106D02*
X1145275Y1039738D01*
X1139174Y1045838D02*
X1139906Y1045106D01*
Y1044506D02*
Y1045106D01*
X1134900Y1057072D02*
X1139511Y1052461D01*
X1118000Y1070000D02*
X1123500D01*
X1129350Y1064150D01*
X1126705Y1055245D02*
X1129800Y1058340D01*
Y1064600D01*
X1134900Y1057072D02*
Y1058700D01*
X1143600Y1074400D02*
X1144300Y1073700D01*
X1150211Y1069600D02*
X1153430Y1066381D01*
X1204075Y1140898D02*
X1204972Y1140000D01*
X1238500Y1135000D02*
X1247949D01*
X1236100Y1137400D02*
X1238500Y1135000D01*
X1292000Y1054500D02*
X1347500Y1110000D01*
X1138100Y1075700D02*
Y1083344D01*
X1103400Y1114400D02*
X1128500Y1139500D01*
X1136000Y1013000D02*
X1250300D01*
X1266200Y997100D01*
X1129200Y1079700D02*
X1131000Y1081500D01*
X1127500Y1070500D02*
X1129200Y1072200D01*
Y1079700D01*
X1107497Y1080300D02*
X1109100D01*
X1114400Y1085600D01*
X1116600D01*
X1221000Y1118607D02*
Y1125100D01*
X1225900Y1130000D01*
X1229051D01*
X1221900Y1132775D02*
X1224125Y1135000D01*
X1221900Y1130900D02*
Y1132775D01*
X1212394Y1121394D02*
X1221900Y1130900D01*
X1214400Y1131794D02*
X1217394D01*
X1223000Y1137400D01*
X1236100D01*
X1143600Y1077708D02*
X1146471Y1080579D01*
X1143600Y1074400D02*
Y1077708D01*
X1144036Y1091200D02*
X1144300D01*
X1142700Y1094400D02*
X1146764D01*
X1149451Y1097086D01*
X1189106Y1067500D02*
Y1067700D01*
Y1072835D01*
X1235051Y1064500D02*
X1248051Y1077500D01*
X1288000D01*
X1334000Y1123500D01*
X1243000Y1066500D02*
X1250700Y1074200D01*
X1291700D01*
X1338500Y1121000D01*
X1246300Y1048700D02*
X1249606Y1045394D01*
X1246300Y1048700D02*
Y1063300D01*
X1247500Y1064500D01*
X1253949D01*
Y1059500D02*
X1287000D01*
X1347500Y1120000D01*
X1253949Y1054500D02*
X1292000D01*
X1190626Y1077874D02*
X1216260D01*
X1175750Y1086884D02*
X1177260Y1085374D01*
X1181000Y1094626D02*
X1185374D01*
X1204972Y1140000D02*
X1229051D01*
X1185894Y1053000D02*
X1189900D01*
X1266187Y1011729D02*
X1272929D01*
X1293100Y1031900D01*
Y1034100D01*
X1266200Y997100D02*
X1273909D01*
X1301542Y1024733D01*
Y1032942D01*
X1189900Y1053000D02*
X1203300Y1039600D01*
X1287600D01*
X1293100Y1034100D01*
X1280058Y1025600D02*
X1280329Y1025871D01*
X1216900Y1054500D02*
X1235051D01*
X1214800Y1049500D02*
X1235051D01*
X1273100Y1027900D02*
X1278142Y1032942D01*
X1287400D01*
X1153626Y1092910D02*
X1158216Y1097500D01*
X1165200D01*
X1167900Y1100200D01*
X1173500Y1034500D02*
X1175000Y1036000D01*
X1181394D01*
X1182394Y1035000D01*
X1147000Y1027000D02*
X1153900Y1020100D01*
X1170300D01*
X1175800Y1025600D01*
X1280058D01*
X1164500Y1031500D02*
X1172300D01*
X1175900Y1027900D01*
X1273100D01*
X1117400Y1108800D02*
X1117800Y1108400D01*
Y1108300D02*
Y1108400D01*
X1117691Y1108243D02*
X1117881Y1107881D01*
X1117400Y1108800D02*
X1117691Y1108243D01*
X1117800Y1108300D02*
X1118081Y1108019D01*
Y1107981D02*
Y1108019D01*
X1109400Y1101400D02*
Y1110900D01*
X1130500Y1132000D01*
X1257534Y1233521D02*
X1258948Y1232107D01*
Y1230693D01*
X1256828Y1228572D01*
X1254707Y1230693D01*
Y1232107D01*
X1256121Y1232107D01*
X1258241Y1229986D01*
Y1227159D02*
X1259655Y1225745D01*
X1258948Y1226452D01*
X1261776Y1229279D01*
X1261069Y1229986D01*
X1261776Y1220797D02*
X1262482Y1220090D01*
X1263896D01*
X1267431Y1223624D01*
X1265310Y1225745D01*
X1263896D01*
X1262482Y1224331D01*
Y1222917D01*
X1264603Y1220797D01*
X1268844Y1216556D02*
X1266017Y1219383D01*
X1271672D01*
X1272379Y1220090D01*
Y1221504D01*
X1270965Y1222917D01*
X1269551D01*
Y1214435D02*
X1272379Y1211607D01*
X1278741Y1215142D02*
X1274500Y1210900D01*
X1276620Y1213021D01*
X1279448Y1210194D01*
X1281568Y1212314D01*
X1277327Y1208073D01*
X1280861Y1204539D02*
X1279448Y1205952D01*
Y1207366D01*
X1280861Y1208780D01*
X1282275D01*
X1283689Y1207366D01*
Y1205952D01*
X1282982Y1205245D01*
X1280155Y1208073D01*
X1286516Y1204539D02*
X1287930Y1203125D01*
Y1201711D01*
X1285810Y1199590D01*
X1283689Y1201711D01*
Y1203125D01*
X1285103Y1203125D01*
X1287223Y1201004D01*
X1294292Y1199590D02*
X1290051Y1195349D01*
X1287930Y1197470D01*
Y1198884D01*
X1289344Y1200297D01*
X1290758D01*
X1292878Y1198177D01*
X1294292Y1191108D02*
X1291465Y1193935D01*
X1297120D01*
X1297826Y1194642D01*
Y1196056D01*
X1296413Y1197470D01*
X1294999D01*
X1299947Y1185453D02*
X1301361Y1184039D01*
X1300654Y1184746D01*
X1304895Y1188987D01*
X1303481D01*
X1307016Y1185453D02*
X1308430D01*
X1309843Y1184039D01*
Y1182625D01*
X1309136Y1181919D01*
X1307723D01*
X1307016Y1182625D01*
X1307723Y1181919D01*
Y1180505D01*
X1307016Y1179798D01*
X1305602D01*
X1304188Y1181212D01*
Y1182625D01*
X1307723Y1177677D02*
X1308430Y1178384D01*
X1309136Y1177677D01*
X1308430Y1176970D01*
X1307723Y1177677D01*
X1311257Y1174143D02*
X1312671Y1172729D01*
X1311964Y1173436D01*
X1316205Y1177677D01*
X1314791D01*
X1317619Y1167781D02*
X1314791Y1170609D01*
X1320446D01*
X1321153Y1171315D01*
Y1172729D01*
X1319740Y1174143D01*
X1318326D01*
X1319033Y1166367D02*
X1319740Y1167074D01*
X1320446Y1166367D01*
X1319740Y1165660D01*
X1319033Y1166367D01*
X1322567Y1162833D02*
X1323981Y1161419D01*
X1323274Y1162126D01*
X1327515Y1166367D01*
X1326102D01*
X1329636Y1162833D02*
X1331050D01*
X1332463Y1161419D01*
Y1160005D01*
X1329636Y1157178D01*
X1328222D01*
X1326808Y1158592D01*
Y1160005D01*
X1329636Y1162833D01*
D28*
X1238500Y1190500D02*
Y1212402D01*
X1247000Y1089300D02*
Y1094366D01*
Y1088500D02*
Y1089300D01*
X1247200Y1088500D02*
Y1089300D01*
X1196500Y1262500D02*
X1245500D01*
X1164823D02*
X1196500D01*
X1155839Y1258339D02*
X1160661D01*
X1175598Y1211000D02*
Y1229705D01*
X1157240Y1219866D02*
X1175500D01*
X1100000Y1170106D02*
X1149760Y1219866D01*
X1244794Y1158394D02*
X1248055D01*
X1259394Y1142000D02*
Y1157787D01*
X1194000Y1121394D02*
X1194500Y1120894D01*
Y1113606D02*
Y1120894D01*
X1174400Y1240500D02*
X1175394D01*
X1166500Y1232600D02*
X1174400Y1240500D01*
X1166500Y1229106D02*
Y1232600D01*
X1247000Y1089300D02*
X1247200D01*
X1246200D02*
X1247000D01*
Y1088500D02*
X1247200D01*
X1216500Y1182000D02*
Y1198500D01*
X1215000Y1200000D02*
X1216500Y1198500D01*
X1209500Y1200000D02*
X1215000D01*
X1206500Y1203000D02*
X1209500Y1200000D01*
X1206500Y1203000D02*
Y1214500D01*
X1374500Y1113000D02*
X1379126Y1117626D01*
X1371500Y1110000D02*
X1374500Y1113000D01*
X1371500Y1151500D02*
X1373000Y1150000D01*
X1374500Y1148500D01*
X1247000Y1094366D02*
X1251866D01*
X1245240D02*
X1247000D01*
X1371500Y1089000D02*
Y1094000D01*
X1365500Y1083000D02*
X1371500Y1089000D01*
X1356606Y1083000D02*
X1365500D01*
X1371500Y1106598D02*
Y1110000D01*
X1379126Y1117626D02*
Y1118260D01*
X1357500Y1130000D02*
X1361874D01*
X1369874Y1122000D01*
X1374500Y1141386D02*
X1379126Y1136760D01*
X1374500Y1141386D02*
Y1148500D01*
X1371500Y1151500D02*
Y1158500D01*
X1369374Y1140000D02*
X1369874Y1140500D01*
X1357500Y1140000D02*
X1369374D01*
X1245500Y1262500D02*
X1357500Y1150500D01*
X1160661Y1258339D02*
X1164823Y1262500D01*
X1110000Y1148000D02*
X1112500Y1145500D01*
X1110000Y1148000D02*
Y1153500D01*
X1263000Y1064500D02*
X1263500Y1065000D01*
X1253949Y1064500D02*
X1263000D01*
X1244394Y1107000D02*
X1250000D01*
X1236894Y1114500D02*
X1244394Y1107000D01*
X1227000Y1119500D02*
Y1122949D01*
Y1113606D02*
Y1119500D01*
X1259394Y1157787D02*
X1260000Y1158394D01*
X1257394Y1140000D02*
X1259394Y1142000D01*
X1247949Y1140000D02*
X1257394D01*
X1237760Y1089740D02*
Y1094366D01*
X1221634D02*
X1237760D01*
X1184000Y1113606D02*
X1194500D01*
X1194500Y1104394D02*
X1194500Y1104394D01*
Y1095106D02*
Y1104394D01*
X1205500D02*
X1205500Y1104394D01*
X1205500Y1095106D02*
Y1104394D01*
X1246106Y1114500D02*
Y1115894D01*
X1239500Y1122500D02*
X1246106Y1115894D01*
X1258000Y1100500D02*
Y1105394D01*
X1251866Y1094366D02*
X1258000Y1100500D01*
X1216000Y1100000D02*
X1221634Y1094366D01*
X1216000Y1100000D02*
Y1104394D01*
X1227000Y1122949D02*
X1229051Y1125000D01*
X1227000Y1113500D02*
Y1113606D01*
X1184000Y1104394D02*
X1194500D01*
X1205500D01*
X1239500Y1126000D02*
X1243500Y1130000D01*
X1239500Y1122500D02*
Y1126000D01*
X1258000Y1120394D02*
X1261000Y1123394D01*
X1258000Y1114606D02*
Y1120394D01*
X1216000Y1113606D02*
X1216000Y1113606D01*
X1205500Y1113606D02*
X1216000D01*
X1194500Y1113606D02*
X1194500Y1113606D01*
X1243500Y1130000D02*
X1247949D01*
Y1125000D02*
X1252500D01*
X1254106Y1123394D01*
X1261000D01*
X1272500D01*
X1261000Y1132606D02*
X1272500D01*
X1257606D02*
X1261000D01*
X1255000Y1130000D02*
X1257606Y1132606D01*
X1247949Y1130000D02*
X1255000D01*
X1216500Y1159394D02*
X1217394Y1158500D01*
X1229051D01*
X1216500Y1168606D02*
X1216606Y1168500D01*
X1229051D01*
X1238500Y1212402D02*
X1240000Y1213902D01*
X1196740Y1192634D02*
X1197051Y1192945D01*
Y1206000D01*
X1196740Y1192634D02*
X1206689D01*
X1189260D02*
X1196740D01*
X1206689D02*
X1208823Y1190500D01*
X1235598Y1213902D02*
X1240000D01*
X1228500Y1221000D02*
X1235598Y1213902D01*
X1215949Y1221000D02*
X1228500D01*
X1215606Y1221342D02*
X1215949Y1221000D01*
X1215606Y1221342D02*
Y1232000D01*
X1175598Y1211000D02*
X1197051D01*
X1175598Y1203000D02*
Y1211000D01*
X1185106Y1230000D02*
Y1240000D01*
Y1220000D02*
Y1230000D01*
X1184606Y1240500D02*
X1185106Y1240000D01*
X1175598Y1229705D02*
X1175894Y1230000D01*
X1159500Y1241823D02*
X1163823D01*
X1153500Y1235823D02*
X1159500Y1241823D01*
X1153500Y1228134D02*
Y1235823D01*
X1149760Y1219866D02*
X1157240D01*
X1184606Y1240500D02*
Y1251910D01*
X1163823Y1241823D02*
X1175276Y1253276D01*
X1238500Y1182949D02*
X1247949Y1173500D01*
X1224177Y1190500D02*
X1238500D01*
Y1182949D02*
Y1190500D01*
X1240000Y1239098D02*
X1242902D01*
X1193000Y1184366D02*
X1196134D01*
X1202000Y1178500D01*
X1213000D01*
X1216500Y1182000D01*
X1202500Y1218500D02*
X1206500Y1214500D01*
X1197051Y1216000D02*
Y1218500D01*
Y1221000D01*
X1247949Y1158500D02*
X1248055Y1158394D01*
X1260000D01*
X1179098Y1140898D02*
X1204075D01*
X1239000Y1152600D02*
X1244794Y1158394D01*
X1173600Y1135400D02*
X1179098Y1140898D01*
X1357500Y1150000D02*
Y1150500D01*
X1100000Y1163500D02*
Y1170106D01*
X1112500Y1145500D02*
X1167000D01*
X1174100Y1152600D01*
X1239000D01*
X1358000Y1096600D02*
X1365000Y1103600D01*
Y1116700D01*
X1361700Y1120000D02*
X1365000Y1116700D01*
X1357500Y1120000D02*
X1361700D01*
X1347500Y1130000D02*
X1357500Y1120000D01*
X1150402Y1203000D02*
X1169035Y1184366D01*
X1193000D01*
X1226500Y1244300D02*
X1234798D01*
X1240000Y1239098D01*
X1224006Y1246794D02*
X1226500Y1244300D01*
X1214700Y1246794D02*
X1224006D01*
X1197051Y1221000D02*
Y1246000D01*
Y1249449D01*
Y1246000D02*
X1197845Y1246794D01*
X1197051Y1218500D02*
X1202500D01*
X1197845Y1246794D02*
X1214700D01*
X1338400Y1086800D02*
X1348200Y1096600D01*
X1358000D01*
X1228244Y987902D02*
X1273102D01*
X1338400Y1053200D01*
Y1086800D01*
X1250000Y1082500D02*
X1280000D01*
X1285500Y1088000D01*
X1237760Y1089740D02*
X1245000Y1082500D01*
X1248500D01*
D29*
X1186600Y1258200D02*
X1194800Y1250000D01*
X1180500Y1258200D02*
X1186600D01*
X1179500Y1257200D02*
X1180500Y1258200D01*
X1179500Y1253276D02*
Y1257200D01*
Y1244606D02*
Y1253276D01*
X1175394Y1240500D02*
X1179500Y1244606D01*
X1355606Y1178500D02*
X1364098D01*
X1371500Y1171098D01*
X1194800Y1250000D02*
X1196500D01*
D30*
X1160000Y1163500D02*
D03*
D31*
Y1153500D02*
D03*
X1150000Y1163500D02*
D03*
Y1153500D02*
D03*
X1120000D02*
D03*
Y1163500D02*
D03*
X1130000Y1153500D02*
D03*
Y1163500D02*
D03*
X1100000Y1153500D02*
D03*
Y1163500D02*
D03*
X1110000Y1153500D02*
D03*
Y1163500D02*
D03*
X1140000D02*
D03*
Y1153500D02*
D03*
X1138834Y1212004D02*
D03*
X1212200Y1263400D02*
D03*
X1259700Y1150600D02*
D03*
X1236155Y1202345D02*
D03*
X1285500Y1098000D02*
D03*
Y1108000D02*
D03*
X1173600Y1135400D02*
D03*
D32*
X1357500Y1140000D02*
D03*
Y1110000D02*
D03*
Y1130000D02*
D03*
Y1120000D02*
D03*
Y1150000D02*
D03*
X1347500Y1140000D02*
D03*
Y1130000D02*
D03*
Y1120000D02*
D03*
Y1150000D02*
D03*
X1273258Y1004658D02*
D03*
X1294471Y1025871D02*
D03*
X1287400Y1018800D02*
D03*
X1280329Y1011729D02*
D03*
X1266187D02*
D03*
X1287400Y1032942D02*
D03*
X1280329Y1025871D02*
D03*
X1294471Y1040013D02*
D03*
X1273258Y1018800D02*
D03*
D33*
X1347500Y1110000D02*
D03*
D34*
X1285500Y1088000D02*
D03*
D35*
X1228244Y987902D02*
D03*
X1350988Y1200500D02*
D03*
X1105500D02*
D03*
D36*
X1301542Y1032942D02*
D03*
D37*
X1144600Y1073100D02*
D03*
X1167900Y1101200D02*
D03*
X1139500Y1096400D02*
D03*
X1139400Y1075600D02*
D03*
X1106100Y1065700D02*
D03*
X1246200Y1089300D02*
D03*
X1168500Y1088200D02*
D03*
X1151600Y1085200D02*
D03*
X1145386Y1115761D02*
D03*
X1127500Y1070500D02*
D03*
X1134400Y1092300D02*
D03*
X1157000Y1071000D02*
D03*
X1115000Y1057500D02*
D03*
X1164000Y1031000D02*
D03*
X1165000Y1023500D02*
D03*
X1159000Y1041500D02*
D03*
X1172500Y1040000D02*
D03*
X1119500Y1052000D02*
D03*
X1134500Y1113500D02*
D03*
X1097800Y1115300D02*
D03*
X1134000Y1031100D02*
D03*
X1110100Y1068300D02*
D03*
X1171500Y1026500D02*
D03*
X1378000Y1110500D02*
D03*
X1162500Y1101000D02*
D03*
X1155500Y1103500D02*
D03*
X1373000Y1150000D02*
D03*
X1134000Y1098000D02*
D03*
X1248500Y1082500D02*
D03*
X1147500Y1109000D02*
D03*
X1263500Y1065000D02*
D03*
X1227000Y1119500D02*
D03*
X1228500Y1221000D02*
D03*
X1250000Y1107000D02*
D03*
X1128500Y1139500D02*
D03*
X1130500Y1132000D02*
D03*
X1219250Y1060250D02*
D03*
X1224000Y1064500D02*
D03*
X1135000Y1046500D02*
D03*
X1132550Y1078150D02*
D03*
X1138000Y1042600D02*
D03*
X1134900Y1058700D02*
D03*
X1136100Y1065100D02*
D03*
X1131300Y1040600D02*
D03*
X1125700Y1075300D02*
D03*
X1115400Y1082140D02*
D03*
X1144036Y1091200D02*
D03*
X1309500Y1076600D02*
D03*
X1216900Y1054500D02*
D03*
X1210000Y1053300D02*
D03*
X1175000Y1036000D02*
D03*
X1118081Y1107981D02*
D03*
X1108400Y1101000D02*
D03*
D38*
X1230900Y1086700D02*
D03*
X1197100Y1068800D02*
D03*
X1201700Y1049700D02*
D03*
X1237200Y1146600D02*
D03*
X1250900Y1146800D02*
D03*
X1209100Y1125500D02*
D03*
X1165800Y1123200D02*
D03*
X1149900Y1131500D02*
D03*
X1242900Y1044900D02*
D03*
X1191700Y1225700D02*
D03*
X1139500Y1191700D02*
D03*
X1186300Y1204300D02*
D03*
X1235100Y1106100D02*
D03*
X1206200Y1247655D02*
D03*
X1222900Y1246700D02*
D03*
X1199900Y1034300D02*
D03*
X1188600Y1048000D02*
D03*
M02*
