%FSLAX25Y25*%
%MOIN*%
G70*
G01*
G75*
G04 Layer_Color=65535*
%ADD10C,0.01000*%
%ADD11C,0.04000*%
%ADD12C,0.02000*%
%ADD13R,0.08661X0.03937*%
%ADD14R,0.08661X0.12992*%
G04:AMPARAMS|DCode=15|XSize=62.99mil|YSize=39.37mil|CornerRadius=9.84mil|HoleSize=0mil|Usage=FLASHONLY|Rotation=0.000|XOffset=0mil|YOffset=0mil|HoleType=Round|Shape=RoundedRectangle|*
%AMROUNDEDRECTD15*
21,1,0.06299,0.01969,0,0,0.0*
21,1,0.04331,0.03937,0,0,0.0*
1,1,0.01969,0.02165,-0.00984*
1,1,0.01969,-0.02165,-0.00984*
1,1,0.01969,-0.02165,0.00984*
1,1,0.01969,0.02165,0.00984*
%
%ADD15ROUNDEDRECTD15*%
G04:AMPARAMS|DCode=16|XSize=62.99mil|YSize=39.37mil|CornerRadius=9.84mil|HoleSize=0mil|Usage=FLASHONLY|Rotation=90.000|XOffset=0mil|YOffset=0mil|HoleType=Round|Shape=RoundedRectangle|*
%AMROUNDEDRECTD16*
21,1,0.06299,0.01969,0,0,90.0*
21,1,0.04331,0.03937,0,0,90.0*
1,1,0.01969,0.00984,0.02165*
1,1,0.01969,0.00984,-0.02165*
1,1,0.01969,-0.00984,-0.02165*
1,1,0.01969,-0.00984,0.02165*
%
%ADD16ROUNDEDRECTD16*%
%ADD17R,0.01378X0.04921*%
G04:AMPARAMS|DCode=18|XSize=47.24mil|YSize=59.06mil|CornerRadius=11.81mil|HoleSize=0mil|Usage=FLASHONLY|Rotation=0.000|XOffset=0mil|YOffset=0mil|HoleType=Round|Shape=RoundedRectangle|*
%AMROUNDEDRECTD18*
21,1,0.04724,0.03543,0,0,0.0*
21,1,0.02362,0.05906,0,0,0.0*
1,1,0.02362,0.01181,-0.01772*
1,1,0.02362,-0.01181,-0.01772*
1,1,0.02362,-0.01181,0.01772*
1,1,0.02362,0.01181,0.01772*
%
%ADD18ROUNDEDRECTD18*%
G04:AMPARAMS|DCode=19|XSize=47.24mil|YSize=59.06mil|CornerRadius=11.81mil|HoleSize=0mil|Usage=FLASHONLY|Rotation=270.000|XOffset=0mil|YOffset=0mil|HoleType=Round|Shape=RoundedRectangle|*
%AMROUNDEDRECTD19*
21,1,0.04724,0.03543,0,0,270.0*
21,1,0.02362,0.05906,0,0,270.0*
1,1,0.02362,-0.01772,-0.01181*
1,1,0.02362,-0.01772,0.01181*
1,1,0.02362,0.01772,0.01181*
1,1,0.02362,0.01772,-0.01181*
%
%ADD19ROUNDEDRECTD19*%
%ADD20O,0.06890X0.01772*%
%ADD21R,0.02362X0.01969*%
%ADD22R,0.04921X0.01378*%
%ADD23R,0.13780X0.04724*%
%ADD24R,0.04331X0.02559*%
%ADD25R,0.03937X0.08661*%
%ADD26R,0.12992X0.08661*%
%ADD27R,0.10236X0.06102*%
%ADD28R,0.04724X0.13780*%
%ADD29R,0.03937X0.01969*%
%ADD30C,0.11811*%
%ADD31C,0.00800*%
%ADD32C,0.23622*%
%ADD33C,0.05000*%
%ADD34R,0.05906X0.03150*%
%ADD35R,0.11811X0.08268*%
%ADD36R,0.07874X0.14764*%
%ADD37R,0.05118X0.02362*%
%ADD38R,0.12992X0.05512*%
%ADD39R,0.02559X0.04331*%
%ADD40R,0.07874X0.05906*%
%ADD41O,0.05000X0.02992*%
%ADD42R,0.03543X0.03740*%
%ADD43R,0.03543X0.03740*%
%ADD44O,0.07087X0.01181*%
%ADD45O,0.01181X0.07087*%
%ADD46O,0.08661X0.02362*%
%ADD47R,0.07480X0.13386*%
%ADD48R,0.13386X0.07480*%
%ADD49R,0.08268X0.11811*%
%ADD50R,0.03150X0.05906*%
%ADD51R,0.05512X0.03937*%
%ADD52R,0.03937X0.03347*%
%ADD53R,0.03937X0.05512*%
%ADD54R,0.01969X0.03937*%
%ADD55R,0.06299X0.13386*%
%ADD56R,0.13386X0.06299*%
%ADD57R,0.02362X0.05118*%
%ADD58O,0.09055X0.02362*%
%ADD59R,0.14764X0.07874*%
%ADD60C,0.00984*%
%ADD61C,0.00394*%
%ADD62C,0.02362*%
%ADD63C,0.00787*%
D10*
X348665Y187999D02*
G03*
X348665Y187999I-502J0D01*
G01*
X351116Y186907D02*
X355053D01*
Y174702D02*
Y186907D01*
X350722Y174702D02*
X355053D01*
X350722D02*
Y186907D01*
D31*
X183200Y244199D02*
Y242533D01*
X184033Y241700D01*
X184866Y242533D01*
Y244199D01*
X185699D02*
X187365D01*
X186532D01*
Y241700D01*
X188198D02*
X189031D01*
X188615D01*
Y244199D01*
X188198Y243783D01*
X194166Y256883D02*
X193750Y257299D01*
X192917D01*
X192500Y256883D01*
Y255217D01*
X192917Y254800D01*
X193750D01*
X194166Y255217D01*
X194999Y256883D02*
X195416Y257299D01*
X196249D01*
X196665Y256883D01*
Y256466D01*
X196249Y256050D01*
X195832D01*
X196249D01*
X196665Y255633D01*
Y255217D01*
X196249Y254800D01*
X195416D01*
X194999Y255217D01*
X197498Y256883D02*
X197915Y257299D01*
X198748D01*
X199164Y256883D01*
Y256466D01*
X198748Y256050D01*
X198331D01*
X198748D01*
X199164Y255633D01*
Y255217D01*
X198748Y254800D01*
X197915D01*
X197498Y255217D01*
X268866Y267983D02*
X268450Y268399D01*
X267617D01*
X267200Y267983D01*
Y266317D01*
X267617Y265900D01*
X268450D01*
X268866Y266317D01*
X271365Y268399D02*
X270532Y267983D01*
X269699Y267150D01*
Y266317D01*
X270116Y265900D01*
X270949D01*
X271365Y266317D01*
Y266733D01*
X270949Y267150D01*
X269699D01*
X272198Y265900D02*
X273031D01*
X272615D01*
Y268399D01*
X272198Y267983D01*
X263566Y234283D02*
X263150Y234699D01*
X262316D01*
X261900Y234283D01*
Y232616D01*
X262316Y232200D01*
X263150D01*
X263566Y232616D01*
X266065Y234699D02*
X265232Y234283D01*
X264399Y233450D01*
Y232616D01*
X264816Y232200D01*
X265649D01*
X266065Y232616D01*
Y233033D01*
X265649Y233450D01*
X264399D01*
X268565Y232200D02*
X266898D01*
X268565Y233866D01*
Y234283D01*
X268148Y234699D01*
X267315D01*
X266898Y234283D01*
X271100Y252999D02*
Y251333D01*
X271933Y250500D01*
X272766Y251333D01*
Y252999D01*
X273599D02*
Y250500D01*
X274849D01*
X275265Y250917D01*
Y252583D01*
X274849Y252999D01*
X273599D01*
X276098Y250500D02*
X276931D01*
X276515D01*
Y252999D01*
X276098Y252583D01*
X278181D02*
X278598Y252999D01*
X279431D01*
X279847Y252583D01*
Y252166D01*
X279431Y251750D01*
X279014D01*
X279431D01*
X279847Y251333D01*
Y250917D01*
X279431Y250500D01*
X278598D01*
X278181Y250917D01*
X280166Y229383D02*
X279750Y229799D01*
X278917D01*
X278500Y229383D01*
Y227716D01*
X278917Y227300D01*
X279750D01*
X280166Y227716D01*
X282665Y229799D02*
X280999D01*
Y228550D01*
X281832Y228966D01*
X282249D01*
X282665Y228550D01*
Y227716D01*
X282249Y227300D01*
X281416D01*
X280999Y227716D01*
X283498D02*
X283915Y227300D01*
X284748D01*
X285164Y227716D01*
Y229383D01*
X284748Y229799D01*
X283915D01*
X283498Y229383D01*
Y228966D01*
X283915Y228550D01*
X285164D01*
X343834Y145517D02*
X344250Y145101D01*
X345083D01*
X345500Y145517D01*
Y147184D01*
X345083Y147600D01*
X344250D01*
X343834Y147184D01*
X341335Y147600D02*
X343001D01*
X341335Y145934D01*
Y145517D01*
X341751Y145101D01*
X342584D01*
X343001Y145517D01*
X340502D02*
X340085Y145101D01*
X339252D01*
X338836Y145517D01*
Y145934D01*
X339252Y146350D01*
X339669D01*
X339252D01*
X338836Y146767D01*
Y147184D01*
X339252Y147600D01*
X340085D01*
X340502Y147184D01*
X336666Y199883D02*
X336250Y200299D01*
X335417D01*
X335000Y199883D01*
Y198216D01*
X335417Y197800D01*
X336250D01*
X336666Y198216D01*
X338749Y197800D02*
Y200299D01*
X337499Y199050D01*
X339165D01*
X339998Y197800D02*
X340831D01*
X340415D01*
Y200299D01*
X339998Y199883D01*
X363000Y149200D02*
Y151699D01*
X364250D01*
X364666Y151283D01*
Y150450D01*
X364250Y150033D01*
X363000D01*
X363833D02*
X364666Y149200D01*
X367165D02*
X365499D01*
X367165Y150866D01*
Y151283D01*
X366749Y151699D01*
X365916D01*
X365499Y151283D01*
X367998D02*
X368415Y151699D01*
X369248D01*
X369665Y151283D01*
Y150866D01*
X369248Y150450D01*
X369665Y150033D01*
Y149617D01*
X369248Y149200D01*
X368415D01*
X367998Y149617D01*
Y150033D01*
X368415Y150450D01*
X367998Y150866D01*
Y151283D01*
X368415Y150450D02*
X369248D01*
X234366Y123983D02*
X233950Y124399D01*
X233117D01*
X232700Y123983D01*
Y122317D01*
X233117Y121900D01*
X233950D01*
X234366Y122317D01*
X236865Y124399D02*
X235199D01*
Y123150D01*
X236032Y123566D01*
X236449D01*
X236865Y123150D01*
Y122317D01*
X236449Y121900D01*
X235616D01*
X235199Y122317D01*
X237698Y123983D02*
X238115Y124399D01*
X238948D01*
X239365Y123983D01*
Y123566D01*
X238948Y123150D01*
X239365Y122733D01*
Y122317D01*
X238948Y121900D01*
X238115D01*
X237698Y122317D01*
Y122733D01*
X238115Y123150D01*
X237698Y123566D01*
Y123983D01*
X238115Y123150D02*
X238948D01*
X232400Y174599D02*
Y172517D01*
X232817Y172100D01*
X233650D01*
X234066Y172517D01*
Y174599D01*
X236149Y172100D02*
Y174599D01*
X234899Y173350D01*
X236565D01*
X209666Y294183D02*
X209250Y294599D01*
X208417D01*
X208000Y294183D01*
Y292516D01*
X208417Y292100D01*
X209250D01*
X209666Y292516D01*
X211749Y292100D02*
Y294599D01*
X210499Y293350D01*
X212165D01*
X212998Y294183D02*
X213415Y294599D01*
X214248D01*
X214665Y294183D01*
Y293766D01*
X214248Y293350D01*
X213831D01*
X214248D01*
X214665Y292933D01*
Y292516D01*
X214248Y292100D01*
X213415D01*
X212998Y292516D01*
X211200Y171300D02*
Y173799D01*
X212450D01*
X212866Y173383D01*
Y172550D01*
X212450Y172133D01*
X211200D01*
X212033D02*
X212866Y171300D01*
X213699Y173383D02*
X214116Y173799D01*
X214949D01*
X215365Y173383D01*
Y172966D01*
X214949Y172550D01*
X214532D01*
X214949D01*
X215365Y172133D01*
Y171716D01*
X214949Y171300D01*
X214116D01*
X213699Y171716D01*
X216198Y173799D02*
X217864D01*
Y173383D01*
X216198Y171716D01*
Y171300D01*
X280100Y139400D02*
Y141899D01*
X281350D01*
X281766Y141483D01*
Y140650D01*
X281350Y140233D01*
X280100D01*
X280933D02*
X281766Y139400D01*
X282599Y141483D02*
X283016Y141899D01*
X283849D01*
X284265Y141483D01*
Y141066D01*
X283849Y140650D01*
X283432D01*
X283849D01*
X284265Y140233D01*
Y139816D01*
X283849Y139400D01*
X283016D01*
X282599Y139816D01*
X285098Y139400D02*
X285931D01*
X285515D01*
Y141899D01*
X285098Y141483D01*
X284800Y166700D02*
Y169199D01*
X286050D01*
X286466Y168783D01*
Y167950D01*
X286050Y167533D01*
X284800D01*
X285633D02*
X286466Y166700D01*
X287299Y168783D02*
X287716Y169199D01*
X288549D01*
X288965Y168783D01*
Y168366D01*
X288549Y167950D01*
X288132D01*
X288549D01*
X288965Y167533D01*
Y167116D01*
X288549Y166700D01*
X287716D01*
X287299Y167116D01*
X289798Y168783D02*
X290215Y169199D01*
X291048D01*
X291464Y168783D01*
Y167116D01*
X291048Y166700D01*
X290215D01*
X289798Y167116D01*
Y168783D01*
X354366Y160783D02*
X353950Y161199D01*
X353116D01*
X352700Y160783D01*
Y159116D01*
X353116Y158700D01*
X353950D01*
X354366Y159116D01*
X355199Y158700D02*
X356032D01*
X355616D01*
Y161199D01*
X355199Y160783D01*
X358948Y161199D02*
X358115Y160783D01*
X357282Y159950D01*
Y159116D01*
X357698Y158700D01*
X358531D01*
X358948Y159116D01*
Y159533D01*
X358531Y159950D01*
X357282D01*
X335666Y260083D02*
X335250Y260499D01*
X334417D01*
X334000Y260083D01*
Y258417D01*
X334417Y258000D01*
X335250D01*
X335666Y258417D01*
X337749Y258000D02*
Y260499D01*
X336499Y259250D01*
X338165D01*
X338998Y258417D02*
X339415Y258000D01*
X340248D01*
X340665Y258417D01*
Y260083D01*
X340248Y260499D01*
X339415D01*
X338998Y260083D01*
Y259666D01*
X339415Y259250D01*
X340665D01*
X252166Y310783D02*
X251750Y311199D01*
X250917D01*
X250500Y310783D01*
Y309117D01*
X250917Y308700D01*
X251750D01*
X252166Y309117D01*
X254249Y308700D02*
Y311199D01*
X252999Y309950D01*
X254665D01*
X257165Y311199D02*
X255498D01*
Y309950D01*
X256331Y310366D01*
X256748D01*
X257165Y309950D01*
Y309117D01*
X256748Y308700D01*
X255915D01*
X255498Y309117D01*
X230316Y306833D02*
X229900Y307249D01*
X229066D01*
X228650Y306833D01*
Y305167D01*
X229066Y304750D01*
X229900D01*
X230316Y305167D01*
X232399Y304750D02*
Y307249D01*
X231149Y306000D01*
X232815D01*
X234898Y304750D02*
Y307249D01*
X233648Y306000D01*
X235314D01*
X375500Y256799D02*
Y255133D01*
X376333Y254300D01*
X377166Y255133D01*
Y256799D01*
X377999D02*
Y254300D01*
X379249D01*
X379665Y254716D01*
Y256383D01*
X379249Y256799D01*
X377999D01*
X380498Y254300D02*
X381331D01*
X380915D01*
Y256799D01*
X380498Y256383D01*
X382581Y254300D02*
X383414D01*
X382998D01*
Y256799D01*
X382581Y256383D01*
X348400Y289599D02*
Y287933D01*
X349233Y287100D01*
X350066Y287933D01*
Y289599D01*
X350899D02*
Y287100D01*
X352149D01*
X352565Y287516D01*
Y289183D01*
X352149Y289599D01*
X350899D01*
X353398Y287100D02*
X354231D01*
X353815D01*
Y289599D01*
X353398Y289183D01*
X355481D02*
X355898Y289599D01*
X356731D01*
X357147Y289183D01*
Y287516D01*
X356731Y287100D01*
X355898D01*
X355481Y287516D01*
Y289183D01*
X317000Y271999D02*
Y270333D01*
X317833Y269500D01*
X318666Y270333D01*
Y271999D01*
X319499D02*
Y269500D01*
X320749D01*
X321165Y269917D01*
Y271583D01*
X320749Y271999D01*
X319499D01*
X321998Y269917D02*
X322415Y269500D01*
X323248D01*
X323664Y269917D01*
Y271583D01*
X323248Y271999D01*
X322415D01*
X321998Y271583D01*
Y271166D01*
X322415Y270750D01*
X323664D01*
X285766Y266183D02*
X285350Y266599D01*
X284517D01*
X284100Y266183D01*
Y264516D01*
X284517Y264100D01*
X285350D01*
X285766Y264516D01*
X287849Y264100D02*
Y266599D01*
X286599Y265350D01*
X288265D01*
X289098Y266183D02*
X289515Y266599D01*
X290348D01*
X290764Y266183D01*
Y264516D01*
X290348Y264100D01*
X289515D01*
X289098Y264516D01*
Y266183D01*
X316666Y262083D02*
X316250Y262499D01*
X315417D01*
X315000Y262083D01*
Y260417D01*
X315417Y260000D01*
X316250D01*
X316666Y260417D01*
X317499Y262083D02*
X317916Y262499D01*
X318749D01*
X319165Y262083D01*
Y261666D01*
X318749Y261250D01*
X318332D01*
X318749D01*
X319165Y260833D01*
Y260417D01*
X318749Y260000D01*
X317916D01*
X317499Y260417D01*
X319998D02*
X320415Y260000D01*
X321248D01*
X321665Y260417D01*
Y262083D01*
X321248Y262499D01*
X320415D01*
X319998Y262083D01*
Y261666D01*
X320415Y261250D01*
X321665D01*
X326166Y261083D02*
X325750Y261499D01*
X324917D01*
X324500Y261083D01*
Y259417D01*
X324917Y259000D01*
X325750D01*
X326166Y259417D01*
X326999Y261083D02*
X327416Y261499D01*
X328249D01*
X328665Y261083D01*
Y260666D01*
X328249Y260250D01*
X327832D01*
X328249D01*
X328665Y259833D01*
Y259417D01*
X328249Y259000D01*
X327416D01*
X326999Y259417D01*
X329498Y261083D02*
X329915Y261499D01*
X330748D01*
X331165Y261083D01*
Y260666D01*
X330748Y260250D01*
X331165Y259833D01*
Y259417D01*
X330748Y259000D01*
X329915D01*
X329498Y259417D01*
Y259833D01*
X329915Y260250D01*
X329498Y260666D01*
Y261083D01*
X329915Y260250D02*
X330748D01*
X346666Y261083D02*
X346250Y261499D01*
X345416D01*
X345000Y261083D01*
Y259417D01*
X345416Y259000D01*
X346250D01*
X346666Y259417D01*
X347499Y261083D02*
X347916Y261499D01*
X348749D01*
X349165Y261083D01*
Y260666D01*
X348749Y260250D01*
X348332D01*
X348749D01*
X349165Y259833D01*
Y259417D01*
X348749Y259000D01*
X347916D01*
X347499Y259417D01*
X349998Y261499D02*
X351664D01*
Y261083D01*
X349998Y259417D01*
Y259000D01*
X366166Y257183D02*
X365750Y257599D01*
X364916D01*
X364500Y257183D01*
Y255517D01*
X364916Y255100D01*
X365750D01*
X366166Y255517D01*
X366999Y257183D02*
X367416Y257599D01*
X368249D01*
X368665Y257183D01*
Y256766D01*
X368249Y256350D01*
X367832D01*
X368249D01*
X368665Y255933D01*
Y255517D01*
X368249Y255100D01*
X367416D01*
X366999Y255517D01*
X371164Y257599D02*
X370331Y257183D01*
X369498Y256350D01*
Y255517D01*
X369915Y255100D01*
X370748D01*
X371164Y255517D01*
Y255933D01*
X370748Y256350D01*
X369498D01*
X340666Y302583D02*
X340250Y302999D01*
X339417D01*
X339000Y302583D01*
Y300917D01*
X339417Y300500D01*
X340250D01*
X340666Y300917D01*
X341499Y302583D02*
X341916Y302999D01*
X342749D01*
X343165Y302583D01*
Y302166D01*
X342749Y301750D01*
X342332D01*
X342749D01*
X343165Y301333D01*
Y300917D01*
X342749Y300500D01*
X341916D01*
X341499Y300917D01*
X345665Y302999D02*
X343998D01*
Y301750D01*
X344831Y302166D01*
X345248D01*
X345665Y301750D01*
Y300917D01*
X345248Y300500D01*
X344415D01*
X343998Y300917D01*
X329816Y303333D02*
X329400Y303749D01*
X328567D01*
X328150Y303333D01*
Y301666D01*
X328567Y301250D01*
X329400D01*
X329816Y301666D01*
X330649Y303333D02*
X331066Y303749D01*
X331899D01*
X332315Y303333D01*
Y302916D01*
X331899Y302500D01*
X331482D01*
X331899D01*
X332315Y302083D01*
Y301666D01*
X331899Y301250D01*
X331066D01*
X330649Y301666D01*
X334398Y301250D02*
Y303749D01*
X333148Y302500D01*
X334815D01*
X327666Y219583D02*
X327250Y219999D01*
X326416D01*
X326000Y219583D01*
Y217916D01*
X326416Y217500D01*
X327250D01*
X327666Y217916D01*
X328499Y219583D02*
X328916Y219999D01*
X329749D01*
X330165Y219583D01*
Y219166D01*
X329749Y218750D01*
X329332D01*
X329749D01*
X330165Y218333D01*
Y217916D01*
X329749Y217500D01*
X328916D01*
X328499Y217916D01*
X330998Y217500D02*
X331831D01*
X331415D01*
Y219999D01*
X330998Y219583D01*
X373766Y222383D02*
X373350Y222799D01*
X372516D01*
X372100Y222383D01*
Y220717D01*
X372516Y220300D01*
X373350D01*
X373766Y220717D01*
X374599Y222383D02*
X375016Y222799D01*
X375849D01*
X376265Y222383D01*
Y221966D01*
X375849Y221550D01*
X375432D01*
X375849D01*
X376265Y221133D01*
Y220717D01*
X375849Y220300D01*
X375016D01*
X374599Y220717D01*
X377098Y222383D02*
X377515Y222799D01*
X378348D01*
X378765Y222383D01*
Y220717D01*
X378348Y220300D01*
X377515D01*
X377098Y220717D01*
Y222383D01*
X358166Y237983D02*
X357750Y238399D01*
X356916D01*
X356500Y237983D01*
Y236316D01*
X356916Y235900D01*
X357750D01*
X358166Y236316D01*
X360665Y235900D02*
X358999D01*
X360665Y237566D01*
Y237983D01*
X360249Y238399D01*
X359416D01*
X358999Y237983D01*
X361498Y236316D02*
X361915Y235900D01*
X362748D01*
X363164Y236316D01*
Y237983D01*
X362748Y238399D01*
X361915D01*
X361498Y237983D01*
Y237566D01*
X361915Y237150D01*
X363164D01*
X361316Y282333D02*
X360900Y282749D01*
X360067D01*
X359650Y282333D01*
Y280666D01*
X360067Y280250D01*
X360900D01*
X361316Y280666D01*
X363815Y280250D02*
X362149D01*
X363815Y281916D01*
Y282333D01*
X363399Y282749D01*
X362566D01*
X362149Y282333D01*
X364648D02*
X365065Y282749D01*
X365898D01*
X366315Y282333D01*
Y281916D01*
X365898Y281500D01*
X366315Y281083D01*
Y280666D01*
X365898Y280250D01*
X365065D01*
X364648Y280666D01*
Y281083D01*
X365065Y281500D01*
X364648Y281916D01*
Y282333D01*
X365065Y281500D02*
X365898D01*
X349166Y267177D02*
X348750Y267594D01*
X347917D01*
X347500Y267177D01*
Y265511D01*
X347917Y265094D01*
X348750D01*
X349166Y265511D01*
X351665Y265094D02*
X349999D01*
X351665Y266761D01*
Y267177D01*
X351249Y267594D01*
X350416D01*
X349999Y267177D01*
X352498Y267594D02*
X354165D01*
Y267177D01*
X352498Y265511D01*
Y265094D01*
X301366Y264483D02*
X300950Y264899D01*
X300116D01*
X299700Y264483D01*
Y262817D01*
X300116Y262400D01*
X300950D01*
X301366Y262817D01*
X303865Y262400D02*
X302199D01*
X303865Y264066D01*
Y264483D01*
X303449Y264899D01*
X302616D01*
X302199Y264483D01*
X306364Y264899D02*
X305531Y264483D01*
X304698Y263650D01*
Y262817D01*
X305115Y262400D01*
X305948D01*
X306364Y262817D01*
Y263233D01*
X305948Y263650D01*
X304698D01*
X302500Y234499D02*
Y232833D01*
X303333Y232000D01*
X304166Y232833D01*
Y234499D01*
X304999D02*
Y232000D01*
X306249D01*
X306665Y232417D01*
Y234083D01*
X306249Y234499D01*
X304999D01*
X307498D02*
X309165D01*
Y234083D01*
X307498Y232417D01*
Y232000D01*
X281500Y275999D02*
Y274333D01*
X282333Y273500D01*
X283166Y274333D01*
Y275999D01*
X283999D02*
Y273500D01*
X285249D01*
X285665Y273917D01*
Y275583D01*
X285249Y275999D01*
X283999D01*
X288164D02*
X287331Y275583D01*
X286498Y274750D01*
Y273917D01*
X286915Y273500D01*
X287748D01*
X288164Y273917D01*
Y274333D01*
X287748Y274750D01*
X286498D01*
X336500Y231499D02*
Y229833D01*
X337333Y229000D01*
X338166Y229833D01*
Y231499D01*
X338999D02*
Y229000D01*
X340249D01*
X340665Y229416D01*
Y231083D01*
X340249Y231499D01*
X338999D01*
X342748Y229000D02*
Y231499D01*
X341498Y230250D01*
X343164D01*
X302166Y315083D02*
X301750Y315499D01*
X300917D01*
X300500Y315083D01*
Y313417D01*
X300917Y313000D01*
X301750D01*
X302166Y313417D01*
X304665Y313000D02*
X302999D01*
X304665Y314666D01*
Y315083D01*
X304249Y315499D01*
X303416D01*
X302999Y315083D01*
X307165Y315499D02*
X305498D01*
Y314250D01*
X306331Y314666D01*
X306748D01*
X307165Y314250D01*
Y313417D01*
X306748Y313000D01*
X305915D01*
X305498Y313417D01*
X263466Y310783D02*
X263050Y311199D01*
X262216D01*
X261800Y310783D01*
Y309117D01*
X262216Y308700D01*
X263050D01*
X263466Y309117D01*
X265965Y308700D02*
X264299D01*
X265965Y310366D01*
Y310783D01*
X265549Y311199D01*
X264716D01*
X264299Y310783D01*
X268048Y308700D02*
Y311199D01*
X266798Y309950D01*
X268464D01*
X317166Y220083D02*
X316750Y220499D01*
X315916D01*
X315500Y220083D01*
Y218417D01*
X315916Y218000D01*
X316750D01*
X317166Y218417D01*
X319665Y218000D02*
X317999D01*
X319665Y219666D01*
Y220083D01*
X319249Y220499D01*
X318416D01*
X317999Y220083D01*
X322165Y218000D02*
X320498D01*
X322165Y219666D01*
Y220083D01*
X321748Y220499D01*
X320915D01*
X320498Y220083D01*
X297666Y272083D02*
X297250Y272499D01*
X296416D01*
X296000Y272083D01*
Y270416D01*
X296416Y270000D01*
X297250D01*
X297666Y270416D01*
X300165Y270000D02*
X298499D01*
X300165Y271666D01*
Y272083D01*
X299749Y272499D01*
X298916D01*
X298499Y272083D01*
X300998Y270000D02*
X301831D01*
X301415D01*
Y272499D01*
X300998Y272083D01*
X274066Y292483D02*
X273650Y292899D01*
X272816D01*
X272400Y292483D01*
Y290816D01*
X272816Y290400D01*
X273650D01*
X274066Y290816D01*
X276565Y290400D02*
X274899D01*
X276565Y292066D01*
Y292483D01*
X276149Y292899D01*
X275316D01*
X274899Y292483D01*
X277398D02*
X277815Y292899D01*
X278648D01*
X279064Y292483D01*
Y290816D01*
X278648Y290400D01*
X277815D01*
X277398Y290816D01*
Y292483D01*
X258166Y269083D02*
X257750Y269499D01*
X256916D01*
X256500Y269083D01*
Y267417D01*
X256916Y267000D01*
X257750D01*
X258166Y267417D01*
X258999Y267000D02*
X259832D01*
X259416D01*
Y269499D01*
X258999Y269083D01*
X261082Y267417D02*
X261498Y267000D01*
X262331D01*
X262748Y267417D01*
Y269083D01*
X262331Y269499D01*
X261498D01*
X261082Y269083D01*
Y268666D01*
X261498Y268250D01*
X262748D01*
X314666Y316083D02*
X314250Y316499D01*
X313417D01*
X313000Y316083D01*
Y314417D01*
X313417Y314000D01*
X314250D01*
X314666Y314417D01*
X315499Y314000D02*
X316332D01*
X315916D01*
Y316499D01*
X315499Y316083D01*
X317582D02*
X317998Y316499D01*
X318831D01*
X319248Y316083D01*
Y315666D01*
X318831Y315250D01*
X319248Y314833D01*
Y314417D01*
X318831Y314000D01*
X317998D01*
X317582Y314417D01*
Y314833D01*
X317998Y315250D01*
X317582Y315666D01*
Y316083D01*
X317998Y315250D02*
X318831D01*
X240666Y307083D02*
X240250Y307499D01*
X239417D01*
X239000Y307083D01*
Y305416D01*
X239417Y305000D01*
X240250D01*
X240666Y305416D01*
X241499Y305000D02*
X242332D01*
X241916D01*
Y307499D01*
X241499Y307083D01*
X243582Y307499D02*
X245248D01*
Y307083D01*
X243582Y305416D01*
Y305000D01*
X292466Y230583D02*
X292050Y230999D01*
X291216D01*
X290800Y230583D01*
Y228917D01*
X291216Y228500D01*
X292050D01*
X292466Y228917D01*
X293299Y228500D02*
X294132D01*
X293716D01*
Y230999D01*
X293299Y230583D01*
X297048Y230999D02*
X295382D01*
Y229750D01*
X296215Y230166D01*
X296631D01*
X297048Y229750D01*
Y228917D01*
X296631Y228500D01*
X295798D01*
X295382Y228917D01*
X307666Y271583D02*
X307250Y271999D01*
X306417D01*
X306000Y271583D01*
Y269917D01*
X306417Y269500D01*
X307250D01*
X307666Y269917D01*
X308499Y269500D02*
X309332D01*
X308916D01*
Y271999D01*
X308499Y271583D01*
X311831Y269500D02*
Y271999D01*
X310582Y270750D01*
X312248D01*
X236666Y257083D02*
X236250Y257499D01*
X235417D01*
X235000Y257083D01*
Y255416D01*
X235417Y255000D01*
X236250D01*
X236666Y255416D01*
X237499Y255000D02*
X238332D01*
X237916D01*
Y257499D01*
X237499Y257083D01*
X239582D02*
X239998Y257499D01*
X240831D01*
X241248Y257083D01*
Y256666D01*
X240831Y256250D01*
X240415D01*
X240831D01*
X241248Y255833D01*
Y255416D01*
X240831Y255000D01*
X239998D01*
X239582Y255416D01*
X226666Y280583D02*
X226250Y280999D01*
X225416D01*
X225000Y280583D01*
Y278917D01*
X225416Y278500D01*
X226250D01*
X226666Y278917D01*
X227499Y278500D02*
X228332D01*
X227916D01*
Y280999D01*
X227499Y280583D01*
X231248Y278500D02*
X229582D01*
X231248Y280166D01*
Y280583D01*
X230831Y280999D01*
X229998D01*
X229582Y280583D01*
X208366Y252883D02*
X207950Y253299D01*
X207117D01*
X206700Y252883D01*
Y251217D01*
X207117Y250800D01*
X207950D01*
X208366Y251217D01*
X209199Y250800D02*
X210032D01*
X209616D01*
Y253299D01*
X209199Y252883D01*
X211282Y250800D02*
X212115D01*
X211698D01*
Y253299D01*
X211282Y252883D01*
X323800Y160200D02*
Y162699D01*
X325050D01*
X325466Y162283D01*
Y161450D01*
X325050Y161033D01*
X323800D01*
X324633D02*
X325466Y160200D01*
X326299D02*
X327132D01*
X326716D01*
Y162699D01*
X326299Y162283D01*
X328382D02*
X328798Y162699D01*
X329631D01*
X330048Y162283D01*
Y160617D01*
X329631Y160200D01*
X328798D01*
X328382Y160617D01*
Y162283D01*
X320966Y132083D02*
X320550Y132499D01*
X319717D01*
X319300Y132083D01*
Y130417D01*
X319717Y130000D01*
X320550D01*
X320966Y130417D01*
X321799Y132083D02*
X322216Y132499D01*
X323049D01*
X323465Y132083D01*
Y131666D01*
X323049Y131250D01*
X323465Y130833D01*
Y130417D01*
X323049Y130000D01*
X322216D01*
X321799Y130417D01*
Y130833D01*
X322216Y131250D01*
X321799Y131666D01*
Y132083D01*
X322216Y131250D02*
X323049D01*
X232730Y224356D02*
X232313Y224773D01*
X231480D01*
X231064Y224356D01*
Y222690D01*
X231480Y222273D01*
X232313D01*
X232730Y222690D01*
X235229Y224773D02*
X233563D01*
Y223523D01*
X234396Y223939D01*
X234813D01*
X235229Y223523D01*
Y222690D01*
X234813Y222273D01*
X233980D01*
X233563Y222690D01*
X236062Y224356D02*
X236479Y224773D01*
X237312D01*
X237728Y224356D01*
Y223939D01*
X237312Y223523D01*
X236895D01*
X237312D01*
X237728Y223106D01*
Y222690D01*
X237312Y222273D01*
X236479D01*
X236062Y222690D01*
X304900Y124700D02*
Y127199D01*
X306150D01*
X306566Y126783D01*
Y125950D01*
X306150Y125533D01*
X304900D01*
X305733D02*
X306566Y124700D01*
X307399D02*
X308232D01*
X307816D01*
Y127199D01*
X307399Y126783D01*
X311148Y124700D02*
X309482D01*
X311148Y126366D01*
Y126783D01*
X310731Y127199D01*
X309898D01*
X309482Y126783D01*
X294100Y161000D02*
Y163499D01*
X295350D01*
X295766Y163083D01*
Y162250D01*
X295350Y161833D01*
X294100D01*
X294933D02*
X295766Y161000D01*
X296599D02*
X297432D01*
X297016D01*
Y163499D01*
X296599Y163083D01*
X298682D02*
X299098Y163499D01*
X299931D01*
X300348Y163083D01*
Y162666D01*
X299931Y162250D01*
X299515D01*
X299931D01*
X300348Y161833D01*
Y161416D01*
X299931Y161000D01*
X299098D01*
X298682Y161416D01*
X294600Y175400D02*
Y177899D01*
X295850D01*
X296266Y177483D01*
Y176650D01*
X295850Y176233D01*
X294600D01*
X295433D02*
X296266Y175400D01*
X297099D02*
X297932D01*
X297516D01*
Y177899D01*
X297099Y177483D01*
X300431Y175400D02*
Y177899D01*
X299182Y176650D01*
X300848D01*
X291900Y197000D02*
Y199499D01*
X293150D01*
X293566Y199083D01*
Y198250D01*
X293150Y197833D01*
X291900D01*
X292733D02*
X293566Y197000D01*
X294399D02*
X295232D01*
X294816D01*
Y199499D01*
X294399Y199083D01*
X298148Y199499D02*
X296482D01*
Y198250D01*
X297315Y198666D01*
X297731D01*
X298148Y198250D01*
Y197416D01*
X297731Y197000D01*
X296898D01*
X296482Y197416D01*
X301600Y221800D02*
Y224299D01*
X302850D01*
X303266Y223883D01*
Y223050D01*
X302850Y222633D01*
X301600D01*
X302433D02*
X303266Y221800D01*
X304099D02*
X304932D01*
X304516D01*
Y224299D01*
X304099Y223883D01*
X307848Y224299D02*
X307015Y223883D01*
X306182Y223050D01*
Y222217D01*
X306598Y221800D01*
X307431D01*
X307848Y222217D01*
Y222633D01*
X307431Y223050D01*
X306182D01*
X215029Y204633D02*
Y207133D01*
X216279D01*
X216695Y206716D01*
Y205883D01*
X216279Y205467D01*
X215029D01*
X215862D02*
X216695Y204633D01*
X217529D02*
X218362D01*
X217945D01*
Y207133D01*
X217529Y206716D01*
X219611Y207133D02*
X221277D01*
Y206716D01*
X219611Y205050D01*
Y204633D01*
X323000Y201899D02*
Y199817D01*
X323416Y199400D01*
X324250D01*
X324666Y199817D01*
Y201899D01*
X327165Y199400D02*
X325499D01*
X327165Y201066D01*
Y201483D01*
X326749Y201899D01*
X325916D01*
X325499Y201483D01*
X248000Y263999D02*
Y262333D01*
X248833Y261500D01*
X249666Y262333D01*
Y263999D01*
X250499D02*
Y261500D01*
X251749D01*
X252165Y261916D01*
Y263583D01*
X251749Y263999D01*
X250499D01*
X252998Y263583D02*
X253415Y263999D01*
X254248D01*
X254664Y263583D01*
Y263166D01*
X254248Y262750D01*
X253831D01*
X254248D01*
X254664Y262333D01*
Y261916D01*
X254248Y261500D01*
X253415D01*
X252998Y261916D01*
X183500Y172900D02*
Y175399D01*
X184750D01*
X185166Y174983D01*
Y174150D01*
X184750Y173733D01*
X183500D01*
X184333D02*
X185166Y172900D01*
X185999D02*
X186832D01*
X186416D01*
Y175399D01*
X185999Y174983D01*
X188082D02*
X188498Y175399D01*
X189331D01*
X189748Y174983D01*
Y174566D01*
X189331Y174150D01*
X189748Y173733D01*
Y173317D01*
X189331Y172900D01*
X188498D01*
X188082Y173317D01*
Y173733D01*
X188498Y174150D01*
X188082Y174566D01*
Y174983D01*
X188498Y174150D02*
X189331D01*
X178500Y207799D02*
Y206133D01*
X179333Y205300D01*
X180166Y206133D01*
Y207799D01*
X180999D02*
X182665D01*
X181832D01*
Y205300D01*
X185164D02*
X183498D01*
X185164Y206966D01*
Y207383D01*
X184748Y207799D01*
X183915D01*
X183498Y207383D01*
X256866Y147083D02*
X256450Y147499D01*
X255616D01*
X255200Y147083D01*
Y145416D01*
X255616Y145000D01*
X256450D01*
X256866Y145416D01*
X259365Y147499D02*
X257699D01*
Y146250D01*
X258532Y146666D01*
X258949D01*
X259365Y146250D01*
Y145416D01*
X258949Y145000D01*
X258116D01*
X257699Y145416D01*
X267321Y136099D02*
Y133600D01*
X268570D01*
X268987Y134017D01*
Y135683D01*
X268570Y136099D01*
X267321D01*
X269820Y133600D02*
X270653D01*
X270236D01*
Y136099D01*
X269820Y135683D01*
X223666Y219583D02*
X223250Y219999D01*
X222416D01*
X222000Y219583D01*
Y217916D01*
X222416Y217500D01*
X223250D01*
X223666Y217916D01*
X226165Y219999D02*
X224499D01*
Y218750D01*
X225332Y219166D01*
X225749D01*
X226165Y218750D01*
Y217916D01*
X225749Y217500D01*
X224916D01*
X224499Y217916D01*
X228248Y217500D02*
Y219999D01*
X226998Y218750D01*
X228664D01*
X316500Y165400D02*
X318999D01*
Y164150D01*
X318583Y163734D01*
X317750D01*
X317333Y164150D01*
Y165400D01*
Y164567D02*
X316500Y163734D01*
X316916Y162901D02*
X316500Y162484D01*
Y161651D01*
X316916Y161235D01*
X318583D01*
X318999Y161651D01*
Y162484D01*
X318583Y162901D01*
X318166D01*
X317750Y162484D01*
Y161235D01*
X240900Y177600D02*
Y180099D01*
X242150D01*
X242566Y179683D01*
Y178850D01*
X242150Y178433D01*
X240900D01*
X241733D02*
X242566Y177600D01*
X245065D02*
X243399D01*
X245065Y179266D01*
Y179683D01*
X244649Y180099D01*
X243816D01*
X243399Y179683D01*
X247565Y177600D02*
X245898D01*
X247565Y179266D01*
Y179683D01*
X247148Y180099D01*
X246315D01*
X245898Y179683D01*
X263900Y178100D02*
Y180599D01*
X265150D01*
X265566Y180183D01*
Y179350D01*
X265150Y178933D01*
X263900D01*
X264733D02*
X265566Y178100D01*
X268065D02*
X266399D01*
X268065Y179766D01*
Y180183D01*
X267649Y180599D01*
X266816D01*
X266399Y180183D01*
X270148Y178100D02*
Y180599D01*
X268898Y179350D01*
X270565D01*
X242200Y219100D02*
Y221599D01*
X243450D01*
X243866Y221183D01*
Y220350D01*
X243450Y219933D01*
X242200D01*
X243033D02*
X243866Y219100D01*
X246365D02*
X244699D01*
X246365Y220766D01*
Y221183D01*
X245949Y221599D01*
X245116D01*
X244699Y221183D01*
X247198Y219100D02*
X248031D01*
X247615D01*
Y221599D01*
X247198Y221183D01*
X274400Y177700D02*
Y180199D01*
X275650D01*
X276066Y179783D01*
Y178950D01*
X275650Y178533D01*
X274400D01*
X275233D02*
X276066Y177700D01*
X278565D02*
X276899D01*
X278565Y179366D01*
Y179783D01*
X278149Y180199D01*
X277316D01*
X276899Y179783D01*
X281065Y180199D02*
X279398D01*
Y178950D01*
X280231Y179366D01*
X280648D01*
X281065Y178950D01*
Y178117D01*
X280648Y177700D01*
X279815D01*
X279398Y178117D01*
X251400Y177300D02*
Y179799D01*
X252650D01*
X253066Y179383D01*
Y178550D01*
X252650Y178133D01*
X251400D01*
X252233D02*
X253066Y177300D01*
X255565D02*
X253899D01*
X255565Y178966D01*
Y179383D01*
X255149Y179799D01*
X254316D01*
X253899Y179383D01*
X256398D02*
X256815Y179799D01*
X257648D01*
X258065Y179383D01*
Y178966D01*
X257648Y178550D01*
X257231D01*
X257648D01*
X258065Y178133D01*
Y177717D01*
X257648Y177300D01*
X256815D01*
X256398Y177717D01*
X357700Y191399D02*
Y189316D01*
X358117Y188900D01*
X358950D01*
X359366Y189316D01*
Y191399D01*
X360199Y190983D02*
X360616Y191399D01*
X361449D01*
X361865Y190983D01*
Y190566D01*
X361449Y190150D01*
X361032D01*
X361449D01*
X361865Y189733D01*
Y189316D01*
X361449Y188900D01*
X360616D01*
X360199Y189316D01*
X203700Y280099D02*
Y278433D01*
X204533Y277600D01*
X205366Y278433D01*
Y280099D01*
X206199D02*
Y277600D01*
X207449D01*
X207865Y278016D01*
Y279683D01*
X207449Y280099D01*
X206199D01*
X210365D02*
X208698D01*
Y278850D01*
X209531Y279266D01*
X209948D01*
X210365Y278850D01*
Y278016D01*
X209948Y277600D01*
X209115D01*
X208698Y278016D01*
X356000Y196400D02*
Y198899D01*
X357250D01*
X357666Y198483D01*
Y197650D01*
X357250Y197233D01*
X356000D01*
X356833D02*
X357666Y196400D01*
X359749D02*
Y198899D01*
X358499Y197650D01*
X360165D01*
X355900Y213200D02*
Y215699D01*
X357150D01*
X357566Y215283D01*
Y214450D01*
X357150Y214033D01*
X355900D01*
X356733D02*
X357566Y213200D01*
X358399Y215283D02*
X358816Y215699D01*
X359649D01*
X360065Y215283D01*
Y214866D01*
X359649Y214450D01*
X359232D01*
X359649D01*
X360065Y214033D01*
Y213616D01*
X359649Y213200D01*
X358816D01*
X358399Y213616D01*
X384000Y199500D02*
Y201999D01*
X385250D01*
X385666Y201583D01*
Y200750D01*
X385250Y200333D01*
X384000D01*
X384833D02*
X385666Y199500D01*
X388165Y201999D02*
X387332Y201583D01*
X386499Y200750D01*
Y199917D01*
X386916Y199500D01*
X387749D01*
X388165Y199917D01*
Y200333D01*
X387749Y200750D01*
X386499D01*
X380400Y184600D02*
Y187099D01*
X381650D01*
X382066Y186683D01*
Y185850D01*
X381650Y185433D01*
X380400D01*
X381233D02*
X382066Y184600D01*
X382899Y187099D02*
X384565D01*
Y186683D01*
X382899Y185017D01*
Y184600D01*
X250166Y254183D02*
X249750Y254599D01*
X248917D01*
X248500Y254183D01*
Y252517D01*
X248917Y252100D01*
X249750D01*
X250166Y252517D01*
X252665Y254599D02*
X251832Y254183D01*
X250999Y253350D01*
Y252517D01*
X251416Y252100D01*
X252249D01*
X252665Y252517D01*
Y252933D01*
X252249Y253350D01*
X250999D01*
X253498Y254183D02*
X253915Y254599D01*
X254748D01*
X255165Y254183D01*
Y252517D01*
X254748Y252100D01*
X253915D01*
X253498Y252517D01*
Y254183D01*
D60*
X211803Y216811D02*
G03*
X211803Y216811I-492J0D01*
G01*
X221311Y170626D02*
G03*
X221311Y170626I-492J0D01*
G01*
X330217Y183815D02*
G03*
X330217Y183815I-492J0D01*
G01*
X181303Y183689D02*
G03*
X181303Y183689I-492J0D01*
G01*
X203095Y168693D02*
X214512D01*
X203095Y155307D02*
X214512D01*
X203095D02*
Y168693D01*
X214512Y155307D02*
Y168693D01*
X320488Y145107D02*
X331906D01*
X320488Y158493D02*
X331906D01*
Y145107D02*
Y158493D01*
X320488Y145107D02*
Y158493D01*
D61*
X278724Y246831D02*
G03*
X278724Y246831I-197J0D01*
G01*
X367866Y252528D02*
G03*
X367866Y252528I-197J0D01*
G01*
X347228Y271618D02*
G03*
X347228Y271618I-197J0D01*
G01*
X315839Y276618D02*
G03*
X315839Y276618I-197J0D01*
G01*
X309724Y247331D02*
G03*
X309724Y247331I-197J0D01*
G01*
X280169Y280669D02*
G03*
X280169Y280669I-197J0D01*
G01*
X343165Y243882D02*
G03*
X343165Y243882I-197J0D01*
G01*
X243169Y269669D02*
G03*
X243169Y269669I-197J0D01*
G01*
X211169D02*
G03*
X211169Y269669I-197J0D01*
G01*
D62*
X230957Y166295D02*
G03*
X230957Y166295I-1181J0D01*
G01*
D63*
X205799Y216811D02*
Y243189D01*
X193201Y216811D02*
Y243189D01*
Y216811D02*
X205799D01*
X193201Y243189D02*
X205799D01*
X202449Y265425D02*
Y268575D01*
X196740Y265425D02*
Y268575D01*
X266425Y256146D02*
X269575D01*
X266425Y261854D02*
X269575D01*
X265854Y244425D02*
Y247575D01*
X260146Y244425D02*
Y247575D01*
X269472Y245256D02*
X269669D01*
X269472Y239744D02*
X269669D01*
X278331Y245256D02*
X278528D01*
X278331Y239744D02*
X278528D01*
X269472D02*
Y245256D01*
X278528Y239744D02*
Y245256D01*
X287854Y239425D02*
Y242575D01*
X282146Y239425D02*
Y242575D01*
X335720Y157801D02*
X350680D01*
X335720Y150320D02*
X350680D01*
Y157801D01*
X335720Y150320D02*
Y157801D01*
X343701Y173520D02*
Y188480D01*
X336221Y173520D02*
Y188480D01*
Y173520D02*
X343701D01*
X336221Y188480D02*
X343701D01*
X367821Y174680D02*
X375301D01*
X367821Y159720D02*
X375301D01*
X367821D02*
Y174680D01*
X375301Y159720D02*
Y174680D01*
X221520Y134701D02*
X236480D01*
X221520Y127220D02*
X236480D01*
Y134701D01*
X221520Y127220D02*
Y134701D01*
X225839Y136768D02*
Y170232D01*
X243161Y136768D02*
Y170232D01*
X225839D02*
X243161D01*
X225839Y136768D02*
X243161D01*
X213925Y282646D02*
X217075D01*
X213925Y288354D02*
X217075D01*
X295701Y138520D02*
Y153480D01*
X288221Y138520D02*
Y153480D01*
Y138520D02*
X295701D01*
X288221Y153480D02*
X295701D01*
X293201Y173020D02*
Y187980D01*
X285720Y173020D02*
Y187980D01*
Y173020D02*
X293201D01*
X285720Y187980D02*
X293201D01*
X345020Y163299D02*
X359980D01*
X345020Y170780D02*
X359980D01*
X345020Y163299D02*
Y170780D01*
X359980Y163299D02*
Y170780D01*
X328146Y269425D02*
Y272575D01*
X333854Y269425D02*
Y272575D01*
X259354Y296425D02*
Y299575D01*
X253646Y296425D02*
Y299575D01*
X234354Y291925D02*
Y295075D01*
X228646Y291925D02*
Y295075D01*
X369244Y252528D02*
X374756D01*
X369244Y243472D02*
X374756D01*
Y252331D02*
Y252528D01*
X369244Y252331D02*
Y252528D01*
X374756Y243472D02*
Y243669D01*
X369244Y243472D02*
Y243669D01*
X347031Y273193D02*
Y278705D01*
X356087Y273193D02*
Y278705D01*
X347031D02*
X347228D01*
X347031Y273193D02*
X347228D01*
X355890Y278705D02*
X356087D01*
X355890Y273193D02*
X356087D01*
X315642Y278193D02*
Y283705D01*
X324697Y278193D02*
Y283705D01*
X315642D02*
X315839D01*
X315642Y278193D02*
X315839D01*
X324500Y283705D02*
X324697D01*
X324500Y278193D02*
X324697D01*
X284425Y255146D02*
X287575D01*
X284425Y260854D02*
X287575D01*
X315146Y247425D02*
Y250575D01*
X320854Y247425D02*
Y250575D01*
X330854Y247425D02*
Y250575D01*
X325146Y247425D02*
Y250575D01*
X346646Y247925D02*
Y251075D01*
X352354Y247925D02*
Y251075D01*
X361854Y247925D02*
Y251075D01*
X356146Y247925D02*
Y251075D01*
X338146Y288425D02*
Y291575D01*
X343854Y288425D02*
Y291575D01*
X333854Y288425D02*
Y291575D01*
X328146Y288425D02*
Y291575D01*
X325146Y229425D02*
Y232575D01*
X330854Y229425D02*
Y232575D01*
X372425Y231854D02*
X375575D01*
X372425Y226146D02*
X375575D01*
X372425Y235146D02*
X375575D01*
X372425Y240854D02*
X375575D01*
X365354Y267425D02*
Y270575D01*
X359646Y267425D02*
Y270575D01*
X343854Y269425D02*
Y272575D01*
X338146Y269425D02*
Y272575D01*
X302425Y252146D02*
X305575D01*
X302425Y257854D02*
X305575D01*
X309528Y240244D02*
Y245756D01*
X300472Y240244D02*
Y245756D01*
X309331Y240244D02*
X309528D01*
X309331Y245756D02*
X309528D01*
X300472Y240244D02*
X300669D01*
X300472Y245756D02*
X300669D01*
X279972Y282244D02*
Y287756D01*
X289028Y282244D02*
Y287756D01*
X279972D02*
X280169D01*
X279972Y282244D02*
X280169D01*
X288831Y287756D02*
X289028D01*
X288831Y282244D02*
X289028D01*
X342969Y236795D02*
Y242307D01*
X333913Y236795D02*
Y242307D01*
X342772Y236795D02*
X342969D01*
X342772Y242307D02*
X342969D01*
X333913Y236795D02*
X334110D01*
X333913Y242307D02*
X334110D01*
X308354Y300925D02*
Y304075D01*
X302646Y300925D02*
Y304075D01*
X262646Y296425D02*
Y299575D01*
X268354Y296425D02*
Y299575D01*
X320854Y228925D02*
Y232075D01*
X315146Y228925D02*
Y232075D01*
X296646Y281425D02*
Y284575D01*
X302354Y281425D02*
Y284575D01*
X271354Y278425D02*
Y281575D01*
X265646Y278425D02*
Y281575D01*
X255646Y278425D02*
Y281575D01*
X261354Y278425D02*
Y281575D01*
X311646Y300925D02*
Y304075D01*
X317354Y300925D02*
Y304075D01*
X238146Y291925D02*
Y295075D01*
X243854Y291925D02*
Y295075D01*
X291146Y239425D02*
Y242575D01*
X296854Y239425D02*
Y242575D01*
X311854Y281425D02*
Y284575D01*
X306146Y281425D02*
Y284575D01*
X240354Y266425D02*
Y269575D01*
X234646Y266425D02*
Y269575D01*
X225146Y266425D02*
Y269575D01*
X230854Y266425D02*
Y269575D01*
X212425Y265354D02*
X215575D01*
X212425Y259646D02*
X215575D01*
X319520Y135221D02*
Y142701D01*
X334480Y135221D02*
Y142701D01*
X319520Y135221D02*
X334480D01*
X319520Y142701D02*
X334480D01*
X225284Y227008D02*
Y252598D01*
X240638Y227008D02*
Y252598D01*
X225284Y227008D02*
X240638D01*
X225284Y252598D02*
X240638D01*
X302221Y145480D02*
X309701D01*
X302221Y130520D02*
X309701D01*
X302221D02*
Y145480D01*
X309701Y130520D02*
Y145480D01*
X302221Y163480D02*
X309701D01*
X302221Y148520D02*
X309701D01*
X302221D02*
Y163480D01*
X309701Y148520D02*
Y163480D01*
X302221Y181480D02*
X309701D01*
X302221Y166520D02*
X309701D01*
X302221D02*
Y181480D01*
X309701Y166520D02*
Y181480D01*
X302221Y199480D02*
X309701D01*
X302221Y184520D02*
X309701D01*
X302221D02*
Y199480D01*
X309701Y184520D02*
Y199480D01*
X302221Y217480D02*
X309701D01*
X302221Y202520D02*
X309701D01*
X302221D02*
Y217480D01*
X309701Y202520D02*
Y217480D01*
X217299Y179520D02*
X224780D01*
X217299Y194480D02*
X224780D01*
Y179520D02*
Y194480D01*
X217299Y179520D02*
Y194480D01*
X324016Y184898D02*
Y197102D01*
X325984Y184898D02*
Y197102D01*
X324016D02*
X325984D01*
X324016Y184898D02*
X325984D01*
X251831Y271244D02*
X252028D01*
X251831Y276756D02*
X252028D01*
X242972Y271244D02*
X243169D01*
X242972Y276756D02*
X243169D01*
X252028Y271244D02*
Y276756D01*
X242972Y271244D02*
Y276756D01*
X191299Y160420D02*
X198779D01*
X191299Y175380D02*
X198779D01*
Y160420D02*
Y175380D01*
X191299Y160420D02*
Y175380D01*
X180811Y189201D02*
X207189D01*
X180811Y201799D02*
X207189D01*
X180811Y189201D02*
Y201799D01*
X207189Y189201D02*
Y201799D01*
X254799Y150520D02*
X262280D01*
X254799Y165480D02*
X262280D01*
Y150520D02*
Y165480D01*
X254799Y150520D02*
Y165480D01*
X265776Y156870D02*
X275224D01*
X265776Y157618D02*
X275224D01*
Y147382D02*
Y157618D01*
X265776Y147382D02*
Y157618D01*
X211008Y213717D02*
X236598D01*
X211008Y198362D02*
X236598D01*
X211008D02*
Y213717D01*
X236598Y198362D02*
Y213717D01*
X321599Y166920D02*
X329080D01*
X321599Y181880D02*
X329080D01*
Y166920D02*
Y181880D01*
X321599Y166920D02*
Y181880D01*
X239521Y197980D02*
X247001D01*
X239521Y183020D02*
X247001D01*
X239521D02*
Y197980D01*
X247001Y183020D02*
Y197980D01*
X262720D02*
X270201D01*
X262720Y183020D02*
X270201D01*
X262720D02*
Y197980D01*
X270201Y183020D02*
Y197980D01*
X241220Y216480D02*
X248701D01*
X241220Y201520D02*
X248701D01*
X241220D02*
Y216480D01*
X248701Y201520D02*
Y216480D01*
X274299Y183520D02*
X281780D01*
X274299Y198480D02*
X281780D01*
Y183520D02*
Y198480D01*
X274299Y183520D02*
Y198480D01*
X250899Y183020D02*
X258380D01*
X250899Y197980D02*
X258380D01*
Y183020D02*
Y197980D01*
X250899Y183020D02*
Y197980D01*
X219831Y271244D02*
X220028D01*
X219831Y276756D02*
X220028D01*
X210972Y271244D02*
X211169D01*
X210972Y276756D02*
X211169D01*
X220028Y271244D02*
Y276756D01*
X210972Y271244D02*
Y276756D01*
X345820Y204580D02*
X353301D01*
X345820Y189620D02*
X353301D01*
X345820D02*
Y204580D01*
X353301Y189620D02*
Y204580D01*
X355920Y203120D02*
Y210601D01*
X370880Y203120D02*
Y210601D01*
X355920Y203120D02*
X370880D01*
X355920Y210601D02*
X370880D01*
X374220Y210180D02*
X381701D01*
X374220Y195220D02*
X381701D01*
X374220D02*
Y210180D01*
X381701Y195220D02*
Y210180D01*
X370021Y192880D02*
X377501D01*
X370021Y177920D02*
X377501D01*
X370021D02*
Y192880D01*
X377501Y177920D02*
Y192880D01*
X248646Y239425D02*
Y242575D01*
X254354Y239425D02*
Y242575D01*
M02*
