%FSLAX25Y25*%
%MOIN*%
G70*
G01*
G75*
G04 Layer_Color=32896*
%ADD10C,0.01000*%
%ADD11C,0.04000*%
%ADD12C,0.02000*%
%ADD13R,0.08661X0.03937*%
%ADD14R,0.08661X0.12992*%
G04:AMPARAMS|DCode=15|XSize=62.99mil|YSize=39.37mil|CornerRadius=9.84mil|HoleSize=0mil|Usage=FLASHONLY|Rotation=0.000|XOffset=0mil|YOffset=0mil|HoleType=Round|Shape=RoundedRectangle|*
%AMROUNDEDRECTD15*
21,1,0.06299,0.01969,0,0,0.0*
21,1,0.04331,0.03937,0,0,0.0*
1,1,0.01969,0.02165,-0.00984*
1,1,0.01969,-0.02165,-0.00984*
1,1,0.01969,-0.02165,0.00984*
1,1,0.01969,0.02165,0.00984*
%
%ADD15ROUNDEDRECTD15*%
G04:AMPARAMS|DCode=16|XSize=62.99mil|YSize=39.37mil|CornerRadius=9.84mil|HoleSize=0mil|Usage=FLASHONLY|Rotation=90.000|XOffset=0mil|YOffset=0mil|HoleType=Round|Shape=RoundedRectangle|*
%AMROUNDEDRECTD16*
21,1,0.06299,0.01969,0,0,90.0*
21,1,0.04331,0.03937,0,0,90.0*
1,1,0.01969,0.00984,0.02165*
1,1,0.01969,0.00984,-0.02165*
1,1,0.01969,-0.00984,-0.02165*
1,1,0.01969,-0.00984,0.02165*
%
%ADD16ROUNDEDRECTD16*%
%ADD17R,0.01378X0.04921*%
G04:AMPARAMS|DCode=18|XSize=47.24mil|YSize=59.06mil|CornerRadius=11.81mil|HoleSize=0mil|Usage=FLASHONLY|Rotation=0.000|XOffset=0mil|YOffset=0mil|HoleType=Round|Shape=RoundedRectangle|*
%AMROUNDEDRECTD18*
21,1,0.04724,0.03543,0,0,0.0*
21,1,0.02362,0.05906,0,0,0.0*
1,1,0.02362,0.01181,-0.01772*
1,1,0.02362,-0.01181,-0.01772*
1,1,0.02362,-0.01181,0.01772*
1,1,0.02362,0.01181,0.01772*
%
%ADD18ROUNDEDRECTD18*%
G04:AMPARAMS|DCode=19|XSize=47.24mil|YSize=59.06mil|CornerRadius=11.81mil|HoleSize=0mil|Usage=FLASHONLY|Rotation=270.000|XOffset=0mil|YOffset=0mil|HoleType=Round|Shape=RoundedRectangle|*
%AMROUNDEDRECTD19*
21,1,0.04724,0.03543,0,0,270.0*
21,1,0.02362,0.05906,0,0,270.0*
1,1,0.02362,-0.01772,-0.01181*
1,1,0.02362,-0.01772,0.01181*
1,1,0.02362,0.01772,0.01181*
1,1,0.02362,0.01772,-0.01181*
%
%ADD19ROUNDEDRECTD19*%
%ADD20O,0.06890X0.01772*%
%ADD21R,0.02362X0.01969*%
%ADD22R,0.04921X0.01378*%
%ADD23R,0.13780X0.04724*%
%ADD24R,0.04331X0.02559*%
%ADD25R,0.03937X0.08661*%
%ADD26R,0.12992X0.08661*%
%ADD27R,0.10236X0.06102*%
%ADD28R,0.04724X0.13780*%
%ADD29R,0.03937X0.01969*%
%ADD30C,0.11811*%
%ADD31C,0.00800*%
%ADD32C,0.23622*%
%ADD33C,0.05000*%
%ADD34R,0.05906X0.03150*%
%ADD35R,0.11811X0.08268*%
%ADD36R,0.07874X0.14764*%
%ADD37R,0.05118X0.02362*%
%ADD38R,0.12992X0.05512*%
%ADD39R,0.02559X0.04331*%
%ADD40R,0.07874X0.05906*%
%ADD41O,0.05000X0.02992*%
%ADD42R,0.03543X0.03740*%
%ADD43R,0.03543X0.03740*%
%ADD44O,0.07087X0.01181*%
%ADD45O,0.01181X0.07087*%
%ADD46O,0.08661X0.02362*%
%ADD47R,0.07480X0.13386*%
%ADD48R,0.13386X0.07480*%
%ADD49R,0.08268X0.11811*%
%ADD50R,0.03150X0.05906*%
%ADD51R,0.05512X0.03937*%
%ADD52R,0.03937X0.03347*%
%ADD53R,0.03937X0.05512*%
%ADD54R,0.01969X0.03937*%
%ADD55R,0.06299X0.13386*%
%ADD56R,0.13386X0.06299*%
%ADD57R,0.02362X0.05118*%
%ADD58O,0.09055X0.02362*%
%ADD59R,0.14764X0.07874*%
%ADD60C,0.00984*%
%ADD61C,0.00394*%
%ADD62C,0.02362*%
%ADD63C,0.00787*%
%ADD64R,0.09461X0.04737*%
%ADD65R,0.09461X0.13792*%
G04:AMPARAMS|DCode=66|XSize=70.99mil|YSize=47.37mil|CornerRadius=13.84mil|HoleSize=0mil|Usage=FLASHONLY|Rotation=0.000|XOffset=0mil|YOffset=0mil|HoleType=Round|Shape=RoundedRectangle|*
%AMROUNDEDRECTD66*
21,1,0.07099,0.01969,0,0,0.0*
21,1,0.04331,0.04737,0,0,0.0*
1,1,0.02769,0.02165,-0.00984*
1,1,0.02769,-0.02165,-0.00984*
1,1,0.02769,-0.02165,0.00984*
1,1,0.02769,0.02165,0.00984*
%
%ADD66ROUNDEDRECTD66*%
G04:AMPARAMS|DCode=67|XSize=70.99mil|YSize=47.37mil|CornerRadius=13.84mil|HoleSize=0mil|Usage=FLASHONLY|Rotation=90.000|XOffset=0mil|YOffset=0mil|HoleType=Round|Shape=RoundedRectangle|*
%AMROUNDEDRECTD67*
21,1,0.07099,0.01969,0,0,90.0*
21,1,0.04331,0.04737,0,0,90.0*
1,1,0.02769,0.00984,0.02165*
1,1,0.02769,0.00984,-0.02165*
1,1,0.02769,-0.00984,-0.02165*
1,1,0.02769,-0.00984,0.02165*
%
%ADD67ROUNDEDRECTD67*%
%ADD68R,0.02178X0.05721*%
G04:AMPARAMS|DCode=69|XSize=55.24mil|YSize=67.06mil|CornerRadius=15.81mil|HoleSize=0mil|Usage=FLASHONLY|Rotation=0.000|XOffset=0mil|YOffset=0mil|HoleType=Round|Shape=RoundedRectangle|*
%AMROUNDEDRECTD69*
21,1,0.05524,0.03543,0,0,0.0*
21,1,0.02362,0.06706,0,0,0.0*
1,1,0.03162,0.01181,-0.01772*
1,1,0.03162,-0.01181,-0.01772*
1,1,0.03162,-0.01181,0.01772*
1,1,0.03162,0.01181,0.01772*
%
%ADD69ROUNDEDRECTD69*%
G04:AMPARAMS|DCode=70|XSize=55.24mil|YSize=67.06mil|CornerRadius=15.81mil|HoleSize=0mil|Usage=FLASHONLY|Rotation=270.000|XOffset=0mil|YOffset=0mil|HoleType=Round|Shape=RoundedRectangle|*
%AMROUNDEDRECTD70*
21,1,0.05524,0.03543,0,0,270.0*
21,1,0.02362,0.06706,0,0,270.0*
1,1,0.03162,-0.01772,-0.01181*
1,1,0.03162,-0.01772,0.01181*
1,1,0.03162,0.01772,0.01181*
1,1,0.03162,0.01772,-0.01181*
%
%ADD70ROUNDEDRECTD70*%
%ADD71O,0.07690X0.02572*%
%ADD72R,0.03162X0.02769*%
%ADD73R,0.05721X0.02178*%
%ADD74R,0.14579X0.05524*%
%ADD75R,0.05131X0.03359*%
%ADD76R,0.04737X0.09461*%
%ADD77R,0.13792X0.09461*%
%ADD78R,0.11036X0.06902*%
%ADD79R,0.05524X0.14579*%
%ADD80R,0.04737X0.02769*%
%ADD81C,0.12611*%
%ADD82C,0.24422*%
%ADD83C,0.05800*%
%ADD84R,0.06706X0.03950*%
%ADD85R,0.12611X0.09068*%
%ADD86R,0.08674X0.15564*%
%ADD87R,0.05918X0.03162*%
%ADD88R,0.13792X0.06312*%
%ADD89R,0.03359X0.05131*%
%ADD90R,0.08674X0.06706*%
%ADD91O,0.05800X0.03792*%
%ADD92R,0.04343X0.04540*%
%ADD93R,0.04343X0.04540*%
%ADD94O,0.07887X0.01981*%
%ADD95O,0.01981X0.07887*%
%ADD96O,0.09461X0.03162*%
%ADD97R,0.08280X0.14186*%
%ADD98R,0.14186X0.08280*%
%ADD99R,0.09068X0.12611*%
%ADD100R,0.03950X0.06706*%
%ADD101R,0.06312X0.04737*%
%ADD102R,0.04737X0.04147*%
%ADD103R,0.04737X0.06312*%
%ADD104R,0.02769X0.04737*%
%ADD105R,0.07099X0.14186*%
%ADD106R,0.14186X0.07099*%
%ADD107R,0.03162X0.05918*%
%ADD108O,0.09855X0.03162*%
%ADD109R,0.15564X0.08674*%
%ADD110C,0.00984*%
%ADD111C,0.00500*%
D10*
X330102Y164937D02*
G03*
X330102Y164937I-502J0D01*
G01*
X352800Y141500D02*
Y144287D01*
X348800Y141500D02*
X352800D01*
X347772Y146224D02*
Y148224D01*
X352800Y150193D02*
Y152850D01*
X348800D02*
X352800D01*
X337000Y225200D02*
X339787D01*
X337000D02*
Y229200D01*
X341724Y230228D02*
X343724D01*
X345693Y225200D02*
X348350D01*
Y229200D01*
X330693Y162378D02*
X342898D01*
Y158047D02*
Y162378D01*
X330693Y158047D02*
X342898D01*
X330693D02*
Y161984D01*
D31*
X191100Y248099D02*
X189434Y245600D01*
Y248099D02*
X191100Y245600D01*
X188601D02*
X187768D01*
X188184D01*
Y248099D01*
X188601Y247683D01*
X212400Y217299D02*
Y215216D01*
X211983Y214800D01*
X211150D01*
X210734Y215216D01*
Y217299D01*
X208235D02*
X209068Y216883D01*
X209901Y216050D01*
Y215216D01*
X209484Y214800D01*
X208651D01*
X208235Y215216D01*
Y215633D01*
X208651Y216050D01*
X209901D01*
X353200Y217700D02*
Y220199D01*
X351950D01*
X351534Y219783D01*
Y218950D01*
X351950Y218533D01*
X353200D01*
X352367D02*
X351534Y217700D01*
X350701D02*
X349868D01*
X350284D01*
Y220199D01*
X350701Y219783D01*
X348618Y217700D02*
X347785D01*
X348202D01*
Y220199D01*
X348618Y219783D01*
X355634Y199083D02*
X356050Y199499D01*
X356884D01*
X357300Y199083D01*
Y197416D01*
X356884Y197000D01*
X356050D01*
X355634Y197416D01*
X353135Y199499D02*
X354801D01*
Y198250D01*
X353968Y198666D01*
X353551D01*
X353135Y198250D01*
Y197416D01*
X353551Y197000D01*
X354384D01*
X354801Y197416D01*
X352302Y199499D02*
X350636D01*
Y199083D01*
X352302Y197416D01*
Y197000D01*
X377334Y190583D02*
X377750Y190999D01*
X378584D01*
X379000Y190583D01*
Y188917D01*
X378584Y188500D01*
X377750D01*
X377334Y188917D01*
X374835Y190999D02*
X376501D01*
Y189750D01*
X375668Y190166D01*
X375251D01*
X374835Y189750D01*
Y188917D01*
X375251Y188500D01*
X376084D01*
X376501Y188917D01*
X372336Y190999D02*
X373169Y190583D01*
X374002Y189750D01*
Y188917D01*
X373585Y188500D01*
X372752D01*
X372336Y188917D01*
Y189333D01*
X372752Y189750D01*
X374002D01*
X381600Y199599D02*
Y197933D01*
X380767Y197100D01*
X379934Y197933D01*
Y199599D01*
X379101D02*
Y197100D01*
X377851D01*
X377435Y197517D01*
Y199183D01*
X377851Y199599D01*
X379101D01*
X376602Y197100D02*
X375769D01*
X376185D01*
Y199599D01*
X376602Y199183D01*
X372853Y197100D02*
X374519D01*
X372853Y198766D01*
Y199183D01*
X373269Y199599D01*
X374102D01*
X374519Y199183D01*
X386300Y208799D02*
Y206300D01*
X384634D01*
X383801Y208383D02*
X383384Y208799D01*
X382551D01*
X382135Y208383D01*
Y207966D01*
X382551Y207550D01*
X382968D01*
X382551D01*
X382135Y207133D01*
Y206716D01*
X382551Y206300D01*
X383384D01*
X383801Y206716D01*
X375700Y238099D02*
Y236017D01*
X375284Y235600D01*
X374450D01*
X374034Y236017D01*
Y238099D01*
X373201D02*
X371535D01*
Y237683D01*
X373201Y236017D01*
Y235600D01*
X368700Y233900D02*
Y236399D01*
X367450D01*
X367034Y235983D01*
Y235150D01*
X367450Y234733D01*
X368700D01*
X367867D02*
X367034Y233900D01*
X364535D02*
X366201D01*
X364535Y235566D01*
Y235983D01*
X364951Y236399D01*
X365784D01*
X366201Y235983D01*
X362035Y236399D02*
X362869Y235983D01*
X363702Y235150D01*
Y234316D01*
X363285Y233900D01*
X362452D01*
X362035Y234316D01*
Y234733D01*
X362452Y235150D01*
X363702D01*
X291800Y267299D02*
Y265633D01*
X290967Y264800D01*
X290134Y265633D01*
Y267299D01*
X289301D02*
Y264800D01*
X288051D01*
X287635Y265216D01*
Y266883D01*
X288051Y267299D01*
X289301D01*
X286802Y264800D02*
X285969D01*
X286385D01*
Y267299D01*
X286802Y266883D01*
X283053Y267299D02*
X284719D01*
Y266050D01*
X283886Y266466D01*
X283469D01*
X283053Y266050D01*
Y265216D01*
X283469Y264800D01*
X284302D01*
X284719Y265216D01*
X275734Y295283D02*
X276150Y295699D01*
X276983D01*
X277400Y295283D01*
Y293617D01*
X276983Y293200D01*
X276150D01*
X275734Y293617D01*
X273235Y295699D02*
X274068Y295283D01*
X274901Y294450D01*
Y293617D01*
X274484Y293200D01*
X273651D01*
X273235Y293617D01*
Y294033D01*
X273651Y294450D01*
X274901D01*
X270736Y295699D02*
X272402D01*
Y294450D01*
X271569Y294866D01*
X271152D01*
X270736Y294450D01*
Y293617D01*
X271152Y293200D01*
X271985D01*
X272402Y293617D01*
X280934Y261883D02*
X281350Y262299D01*
X282184D01*
X282600Y261883D01*
Y260216D01*
X282184Y259800D01*
X281350D01*
X280934Y260216D01*
X278435Y262299D02*
X279268Y261883D01*
X280101Y261050D01*
Y260216D01*
X279684Y259800D01*
X278851D01*
X278435Y260216D01*
Y260633D01*
X278851Y261050D01*
X280101D01*
X277602Y261883D02*
X277185Y262299D01*
X276352D01*
X275936Y261883D01*
Y261466D01*
X276352Y261050D01*
X276769D01*
X276352D01*
X275936Y260633D01*
Y260216D01*
X276352Y259800D01*
X277185D01*
X277602Y260216D01*
X270534Y261483D02*
X270950Y261899D01*
X271783D01*
X272200Y261483D01*
Y259817D01*
X271783Y259400D01*
X270950D01*
X270534Y259817D01*
X268035Y261899D02*
X268868Y261483D01*
X269701Y260650D01*
Y259817D01*
X269284Y259400D01*
X268451D01*
X268035Y259817D01*
Y260233D01*
X268451Y260650D01*
X269701D01*
X265952Y259400D02*
Y261899D01*
X267202Y260650D01*
X265535D01*
X262600Y264599D02*
Y262933D01*
X261767Y262100D01*
X260934Y262933D01*
Y264599D01*
X260101D02*
Y262100D01*
X258851D01*
X258435Y262516D01*
Y264183D01*
X258851Y264599D01*
X260101D01*
X257602Y262100D02*
X256769D01*
X257185D01*
Y264599D01*
X257602Y264183D01*
X254269Y262100D02*
Y264599D01*
X255519Y263350D01*
X253853D01*
X248434Y303483D02*
X248850Y303899D01*
X249683D01*
X250100Y303483D01*
Y301817D01*
X249683Y301400D01*
X248850D01*
X248434Y301817D01*
X246351Y301400D02*
Y303899D01*
X247601Y302650D01*
X245935D01*
X245102Y303483D02*
X244685Y303899D01*
X243852D01*
X243436Y303483D01*
Y303066D01*
X243852Y302650D01*
X243436Y302233D01*
Y301817D01*
X243852Y301400D01*
X244685D01*
X245102Y301817D01*
Y302233D01*
X244685Y302650D01*
X245102Y303066D01*
Y303483D01*
X244685Y302650D02*
X243852D01*
X228634Y291383D02*
X229050Y291799D01*
X229884D01*
X230300Y291383D01*
Y289717D01*
X229884Y289300D01*
X229050D01*
X228634Y289717D01*
X226135Y291799D02*
X227801D01*
Y290550D01*
X226968Y290966D01*
X226551D01*
X226135Y290550D01*
Y289717D01*
X226551Y289300D01*
X227384D01*
X227801Y289717D01*
X223636Y291799D02*
X225302D01*
Y290550D01*
X224469Y290966D01*
X224052D01*
X223636Y290550D01*
Y289717D01*
X224052Y289300D01*
X224885D01*
X225302Y289717D01*
X249934Y262083D02*
X250350Y262499D01*
X251184D01*
X251600Y262083D01*
Y260417D01*
X251184Y260000D01*
X250350D01*
X249934Y260417D01*
X247851Y260000D02*
Y262499D01*
X249101Y261250D01*
X247435D01*
X244935Y262499D02*
X245769Y262083D01*
X246602Y261250D01*
Y260417D01*
X246185Y260000D01*
X245352D01*
X244935Y260417D01*
Y260833D01*
X245352Y261250D01*
X246602D01*
X238234Y262583D02*
X238650Y262999D01*
X239483D01*
X239900Y262583D01*
Y260916D01*
X239483Y260500D01*
X238650D01*
X238234Y260916D01*
X236151Y260500D02*
Y262999D01*
X237401Y261750D01*
X235735D01*
X234902Y262999D02*
X233236D01*
Y262583D01*
X234902Y260916D01*
Y260500D01*
X221400Y276299D02*
Y274633D01*
X220567Y273800D01*
X219734Y274633D01*
Y276299D01*
X218901D02*
Y273800D01*
X217651D01*
X217235Y274217D01*
Y275883D01*
X217651Y276299D01*
X218901D01*
X216402Y275883D02*
X215985Y276299D01*
X215152D01*
X214736Y275883D01*
Y275466D01*
X215152Y275050D01*
X214736Y274633D01*
Y274217D01*
X215152Y273800D01*
X215985D01*
X216402Y274217D01*
Y274633D01*
X215985Y275050D01*
X216402Y275466D01*
Y275883D01*
X215985Y275050D02*
X215152D01*
X264434Y252383D02*
X264850Y252799D01*
X265684D01*
X266100Y252383D01*
Y250716D01*
X265684Y250300D01*
X264850D01*
X264434Y250716D01*
X262351Y250300D02*
Y252799D01*
X263601Y251550D01*
X261935D01*
X259436Y250300D02*
X261102D01*
X259436Y251966D01*
Y252383D01*
X259852Y252799D01*
X260685D01*
X261102Y252383D01*
X296834Y270383D02*
X297250Y270799D01*
X298083D01*
X298500Y270383D01*
Y268717D01*
X298083Y268300D01*
X297250D01*
X296834Y268717D01*
X294335Y270799D02*
X295168Y270383D01*
X296001Y269550D01*
Y268717D01*
X295584Y268300D01*
X294751D01*
X294335Y268717D01*
Y269133D01*
X294751Y269550D01*
X296001D01*
X293502Y270383D02*
X293085Y270799D01*
X292252D01*
X291835Y270383D01*
Y269966D01*
X292252Y269550D01*
X291835Y269133D01*
Y268717D01*
X292252Y268300D01*
X293085D01*
X293502Y268717D01*
Y269133D01*
X293085Y269550D01*
X293502Y269966D01*
Y270383D01*
X293085Y269550D02*
X292252D01*
X309017Y277134D02*
X308601Y277550D01*
Y278383D01*
X309017Y278800D01*
X310683D01*
X311100Y278383D01*
Y277550D01*
X310683Y277134D01*
X308601Y274635D02*
X309017Y275468D01*
X309850Y276301D01*
X310683D01*
X311100Y275884D01*
Y275051D01*
X310683Y274635D01*
X310267D01*
X309850Y275051D01*
Y276301D01*
X308601Y273802D02*
Y272135D01*
X309017D01*
X310683Y273802D01*
X311100D01*
X295134Y296883D02*
X295550Y297299D01*
X296384D01*
X296800Y296883D01*
Y295216D01*
X296384Y294800D01*
X295550D01*
X295134Y295216D01*
X294301Y297299D02*
X292635D01*
Y296883D01*
X294301Y295216D01*
Y294800D01*
X291802Y296883D02*
X291385Y297299D01*
X290552D01*
X290136Y296883D01*
Y295216D01*
X290552Y294800D01*
X291385D01*
X291802Y295216D01*
Y296883D01*
X312534Y297883D02*
X312950Y298299D01*
X313784D01*
X314200Y297883D01*
Y296217D01*
X313784Y295800D01*
X312950D01*
X312534Y296217D01*
X310035Y298299D02*
X310868Y297883D01*
X311701Y297050D01*
Y296217D01*
X311284Y295800D01*
X310451D01*
X310035Y296217D01*
Y296633D01*
X310451Y297050D01*
X311701D01*
X309202Y296217D02*
X308785Y295800D01*
X307952D01*
X307536Y296217D01*
Y297883D01*
X307952Y298299D01*
X308785D01*
X309202Y297883D01*
Y297466D01*
X308785Y297050D01*
X307536D01*
X327034Y183883D02*
X327450Y184299D01*
X328284D01*
X328700Y183883D01*
Y182217D01*
X328284Y181800D01*
X327450D01*
X327034Y182217D01*
X326201Y183883D02*
X325784Y184299D01*
X324951D01*
X324535Y183883D01*
Y183466D01*
X324951Y183050D01*
X325368D01*
X324951D01*
X324535Y182633D01*
Y182217D01*
X324951Y181800D01*
X325784D01*
X326201Y182217D01*
X322036Y181800D02*
X323702D01*
X322036Y183466D01*
Y183883D01*
X322452Y184299D01*
X323285D01*
X323702Y183883D01*
X263400Y113099D02*
X261734Y110600D01*
Y113099D02*
X263400Y110600D01*
X260901Y112683D02*
X260484Y113099D01*
X259651D01*
X259235Y112683D01*
Y112266D01*
X259651Y111850D01*
X260068D01*
X259651D01*
X259235Y111433D01*
Y111016D01*
X259651Y110600D01*
X260484D01*
X260901Y111016D01*
X339300Y281799D02*
Y279300D01*
X338050D01*
X337634Y279716D01*
Y281383D01*
X338050Y281799D01*
X339300D01*
X335135Y279300D02*
X336801D01*
X335135Y280966D01*
Y281383D01*
X335551Y281799D01*
X336384D01*
X336801Y281383D01*
X220400Y139100D02*
Y141599D01*
X219150D01*
X218734Y141183D01*
Y140350D01*
X219150Y139933D01*
X220400D01*
X219567D02*
X218734Y139100D01*
X216235Y141599D02*
X217901D01*
Y140350D01*
X217068Y140766D01*
X216651D01*
X216235Y140350D01*
Y139516D01*
X216651Y139100D01*
X217484D01*
X217901Y139516D01*
X332734Y190583D02*
X333150Y190999D01*
X333983D01*
X334400Y190583D01*
Y188917D01*
X333983Y188500D01*
X333150D01*
X332734Y188917D01*
X331901D02*
X331484Y188500D01*
X330651D01*
X330235Y188917D01*
Y190583D01*
X330651Y190999D01*
X331484D01*
X331901Y190583D01*
Y190166D01*
X331484Y189750D01*
X330235D01*
X315184Y192133D02*
X315600Y192549D01*
X316434D01*
X316850Y192133D01*
Y190466D01*
X316434Y190050D01*
X315600D01*
X315184Y190466D01*
X314351Y190050D02*
X313518D01*
X313934D01*
Y192549D01*
X314351Y192133D01*
X208734Y251583D02*
X209150Y251999D01*
X209983D01*
X210400Y251583D01*
Y249917D01*
X209983Y249500D01*
X209150D01*
X208734Y249917D01*
X206235Y249500D02*
X207901D01*
X206235Y251166D01*
Y251583D01*
X206651Y251999D01*
X207484D01*
X207901Y251583D01*
X206268Y165311D02*
X206685Y165727D01*
X207518D01*
X207934Y165311D01*
Y163645D01*
X207518Y163228D01*
X206685D01*
X206268Y163645D01*
X205435Y165311D02*
X205019Y165727D01*
X204186D01*
X203769Y165311D01*
Y164894D01*
X204186Y164478D01*
X204602D01*
X204186D01*
X203769Y164061D01*
Y163645D01*
X204186Y163228D01*
X205019D01*
X205435Y163645D01*
X255634Y204283D02*
X256050Y204699D01*
X256884D01*
X257300Y204283D01*
Y202617D01*
X256884Y202200D01*
X256050D01*
X255634Y202617D01*
X253551Y202200D02*
Y204699D01*
X254801Y203450D01*
X253135D01*
X275434Y189683D02*
X275850Y190099D01*
X276683D01*
X277100Y189683D01*
Y188016D01*
X276683Y187600D01*
X275850D01*
X275434Y188016D01*
X274601Y190099D02*
X272935D01*
Y189683D01*
X274601Y188016D01*
Y187600D01*
X343734Y256783D02*
X344150Y257199D01*
X344984D01*
X345400Y256783D01*
Y255117D01*
X344984Y254700D01*
X344150D01*
X343734Y255117D01*
X341235Y257199D02*
X342901D01*
Y255950D01*
X342068Y256366D01*
X341651D01*
X341235Y255950D01*
Y255117D01*
X341651Y254700D01*
X342484D01*
X342901Y255117D01*
X340402Y256783D02*
X339985Y257199D01*
X339152D01*
X338736Y256783D01*
Y255117D01*
X339152Y254700D01*
X339985D01*
X340402Y255117D01*
Y256783D01*
X330434Y298883D02*
X330850Y299299D01*
X331683D01*
X332100Y298883D01*
Y297217D01*
X331683Y296800D01*
X330850D01*
X330434Y297217D01*
X327935Y299299D02*
X329601D01*
Y298050D01*
X328768Y298466D01*
X328351D01*
X327935Y298050D01*
Y297217D01*
X328351Y296800D01*
X329184D01*
X329601Y297217D01*
X327102Y296800D02*
X326269D01*
X326685D01*
Y299299D01*
X327102Y298883D01*
X347334Y297683D02*
X347750Y298099D01*
X348584D01*
X349000Y297683D01*
Y296017D01*
X348584Y295600D01*
X347750D01*
X347334Y296017D01*
X344835Y298099D02*
X346501D01*
Y296850D01*
X345668Y297266D01*
X345251D01*
X344835Y296850D01*
Y296017D01*
X345251Y295600D01*
X346084D01*
X346501Y296017D01*
X342336Y295600D02*
X344002D01*
X342336Y297266D01*
Y297683D01*
X342752Y298099D01*
X343585D01*
X344002Y297683D01*
X274900Y146899D02*
Y144400D01*
X273650D01*
X273234Y144817D01*
Y146483D01*
X273650Y146899D01*
X274900D01*
X272401Y144400D02*
Y146066D01*
X271568Y146899D01*
X270735Y146066D01*
Y144400D01*
Y145650D01*
X272401D01*
X269902Y144400D02*
X269069D01*
X269485D01*
Y146899D01*
X269902Y146483D01*
X244200Y170599D02*
Y168100D01*
X242950D01*
X242534Y168517D01*
Y170183D01*
X242950Y170599D01*
X244200D01*
X241701Y168100D02*
Y169766D01*
X240868Y170599D01*
X240035Y169766D01*
Y168100D01*
Y169350D01*
X241701D01*
X239202Y170183D02*
X238785Y170599D01*
X237952D01*
X237536Y170183D01*
Y169766D01*
X237952Y169350D01*
X238369D01*
X237952D01*
X237536Y168933D01*
Y168517D01*
X237952Y168100D01*
X238785D01*
X239202Y168517D01*
X224400Y250399D02*
Y247900D01*
X222734D01*
X221901D02*
X221068D01*
X221484D01*
Y250399D01*
X221901Y249983D01*
X330100Y126699D02*
Y124200D01*
X328434D01*
X325935D02*
X327601D01*
X325935Y125866D01*
Y126283D01*
X326351Y126699D01*
X327184D01*
X327601Y126283D01*
X247900Y201600D02*
Y204099D01*
X246650D01*
X246234Y203683D01*
Y202850D01*
X246650Y202433D01*
X247900D01*
X247067D02*
X246234Y201600D01*
X245401D02*
X244568D01*
X244984D01*
Y204099D01*
X245401Y203683D01*
X239500Y201700D02*
Y204199D01*
X238250D01*
X237834Y203783D01*
Y202950D01*
X238250Y202533D01*
X239500D01*
X238667D02*
X237834Y201700D01*
X235335D02*
X237001D01*
X235335Y203366D01*
Y203783D01*
X235751Y204199D01*
X236584D01*
X237001Y203783D01*
X307700Y117700D02*
Y120199D01*
X306450D01*
X306034Y119783D01*
Y118950D01*
X306450Y118533D01*
X307700D01*
X306867D02*
X306034Y117700D01*
X305201Y119783D02*
X304784Y120199D01*
X303951D01*
X303535Y119783D01*
Y119366D01*
X303951Y118950D01*
X303535Y118533D01*
Y118116D01*
X303951Y117700D01*
X304784D01*
X305201Y118116D01*
Y118533D01*
X304784Y118950D01*
X305201Y119366D01*
Y119783D01*
X304784Y118950D02*
X303951D01*
X246500Y240199D02*
Y238533D01*
X245667Y237700D01*
X244834Y238533D01*
Y240199D01*
X244001D02*
Y237700D01*
X242751D01*
X242335Y238117D01*
Y239783D01*
X242751Y240199D01*
X244001D01*
X241502Y237700D02*
X240669D01*
X241085D01*
Y240199D01*
X241502Y239783D01*
X211100Y182699D02*
X209434Y180200D01*
Y182699D02*
X211100Y180200D01*
X206935D02*
X208601D01*
X206935Y181866D01*
Y182283D01*
X207351Y182699D01*
X208184D01*
X208601Y182283D01*
X349500Y138099D02*
Y136433D01*
X348667Y135600D01*
X347834Y136433D01*
Y138099D01*
X347001D02*
Y135600D01*
X345751D01*
X345335Y136016D01*
Y137683D01*
X345751Y138099D01*
X347001D01*
X342835Y135600D02*
X344502D01*
X342835Y137266D01*
Y137683D01*
X343252Y138099D01*
X344085D01*
X344502Y137683D01*
X320034Y215216D02*
Y216883D01*
X320450Y217299D01*
X321284D01*
X321700Y216883D01*
Y215216D01*
X321284Y214800D01*
X320450D01*
X320867Y215633D02*
X320034Y214800D01*
X320450D02*
X320034Y215216D01*
X317535Y214800D02*
X319201D01*
X317535Y216466D01*
Y216883D01*
X317951Y217299D01*
X318784D01*
X319201Y216883D01*
X336534Y220116D02*
Y221783D01*
X336950Y222199D01*
X337784D01*
X338200Y221783D01*
Y220116D01*
X337784Y219700D01*
X336950D01*
X337367Y220533D02*
X336534Y219700D01*
X336950D02*
X336534Y220116D01*
X335701Y219700D02*
X334868D01*
X335284D01*
Y222199D01*
X335701Y221783D01*
X346600Y196700D02*
Y199199D01*
X345350D01*
X344934Y198783D01*
Y197950D01*
X345350Y197533D01*
X346600D01*
X345767D02*
X344934Y196700D01*
X342435D02*
X344101D01*
X342435Y198366D01*
Y198783D01*
X342851Y199199D01*
X343684D01*
X344101Y198783D01*
X341602D02*
X341185Y199199D01*
X340352D01*
X339935Y198783D01*
Y197116D01*
X340352Y196700D01*
X341185D01*
X341602Y197116D01*
Y198783D01*
X334800Y170699D02*
Y168616D01*
X334384Y168200D01*
X333550D01*
X333134Y168616D01*
Y170699D01*
X330635D02*
X332301D01*
Y169450D01*
X331468Y169866D01*
X331051D01*
X330635Y169450D01*
Y168616D01*
X331051Y168200D01*
X331884D01*
X332301Y168616D01*
X340800Y237700D02*
Y240199D01*
X339550D01*
X339134Y239783D01*
Y238950D01*
X339550Y238533D01*
X340800D01*
X339967D02*
X339134Y237700D01*
X338301D02*
X337468D01*
X337884D01*
Y240199D01*
X338301Y239783D01*
X336218Y238117D02*
X335802Y237700D01*
X334969D01*
X334552Y238117D01*
Y239783D01*
X334969Y240199D01*
X335802D01*
X336218Y239783D01*
Y239366D01*
X335802Y238950D01*
X334552D01*
X291600Y262899D02*
Y260400D01*
X289934D01*
X287435Y262899D02*
X289101D01*
Y261650D01*
X288268Y262066D01*
X287851D01*
X287435Y261650D01*
Y260817D01*
X287851Y260400D01*
X288684D01*
X289101Y260817D01*
X344100Y251099D02*
Y248600D01*
X342434D01*
X340351D02*
Y251099D01*
X341601Y249850D01*
X339935D01*
X209334Y207916D02*
Y209583D01*
X209750Y209999D01*
X210583D01*
X211000Y209583D01*
Y207916D01*
X210583Y207500D01*
X209750D01*
X210167Y208333D02*
X209334Y207500D01*
X209750D02*
X209334Y207916D01*
X207251Y207500D02*
Y209999D01*
X208501Y208750D01*
X206835D01*
X237034Y193916D02*
Y195583D01*
X237450Y195999D01*
X238283D01*
X238700Y195583D01*
Y193916D01*
X238283Y193500D01*
X237450D01*
X237867Y194333D02*
X237034Y193500D01*
X237450D02*
X237034Y193916D01*
X234535Y195999D02*
X236201D01*
Y194750D01*
X235368Y195166D01*
X234951D01*
X234535Y194750D01*
Y193916D01*
X234951Y193500D01*
X235784D01*
X236201Y193916D01*
X318034Y133283D02*
X318450Y133699D01*
X319284D01*
X319700Y133283D01*
Y131616D01*
X319284Y131200D01*
X318450D01*
X318034Y131616D01*
X315535Y133699D02*
X316368Y133283D01*
X317201Y132450D01*
Y131616D01*
X316784Y131200D01*
X315951D01*
X315535Y131616D01*
Y132033D01*
X315951Y132450D01*
X317201D01*
X318534Y227183D02*
X318950Y227599D01*
X319783D01*
X320200Y227183D01*
Y225517D01*
X319783Y225100D01*
X318950D01*
X318534Y225517D01*
X317701Y227599D02*
X316035D01*
Y227183D01*
X317701Y225517D01*
Y225100D01*
X315202D02*
X314369D01*
X314785D01*
Y227599D01*
X315202Y227183D01*
X271034Y256783D02*
X271450Y257199D01*
X272284D01*
X272700Y256783D01*
Y255117D01*
X272284Y254700D01*
X271450D01*
X271034Y255117D01*
X270201Y257199D02*
X268535D01*
Y256783D01*
X270201Y255117D01*
Y254700D01*
X266036D02*
X267702D01*
X266036Y256366D01*
Y256783D01*
X266452Y257199D01*
X267285D01*
X267702Y256783D01*
X286800Y195899D02*
Y193816D01*
X286384Y193400D01*
X285550D01*
X285134Y193816D01*
Y195899D01*
X284301Y193816D02*
X283884Y193400D01*
X283051D01*
X282635Y193816D01*
Y195483D01*
X283051Y195899D01*
X283884D01*
X284301Y195483D01*
Y195066D01*
X283884Y194650D01*
X282635D01*
X211234Y259683D02*
X211650Y260099D01*
X212484D01*
X212900Y259683D01*
Y258016D01*
X212484Y257600D01*
X211650D01*
X211234Y258016D01*
X210401Y257600D02*
X209568D01*
X209984D01*
Y260099D01*
X210401Y259683D01*
X208318D02*
X207902Y260099D01*
X207069D01*
X206652Y259683D01*
Y258016D01*
X207069Y257600D01*
X207902D01*
X208318Y258016D01*
Y259683D01*
X261334Y302183D02*
X261750Y302599D01*
X262583D01*
X263000Y302183D01*
Y300517D01*
X262583Y300100D01*
X261750D01*
X261334Y300517D01*
X258835Y302599D02*
X259668Y302183D01*
X260501Y301350D01*
Y300517D01*
X260084Y300100D01*
X259251D01*
X258835Y300517D01*
Y300933D01*
X259251Y301350D01*
X260501D01*
X256335Y302599D02*
X257169Y302183D01*
X258002Y301350D01*
Y300517D01*
X257585Y300100D01*
X256752D01*
X256335Y300517D01*
Y300933D01*
X256752Y301350D01*
X258002D01*
X372734Y257883D02*
X373150Y258299D01*
X373984D01*
X374400Y257883D01*
Y256217D01*
X373984Y255800D01*
X373150D01*
X372734Y256217D01*
X371901Y258299D02*
X370235D01*
Y257883D01*
X371901Y256217D01*
Y255800D01*
X369402Y257883D02*
X368985Y258299D01*
X368152D01*
X367736Y257883D01*
Y257466D01*
X368152Y257050D01*
X368569D01*
X368152D01*
X367736Y256633D01*
Y256217D01*
X368152Y255800D01*
X368985D01*
X369402Y256217D01*
D60*
X228217Y222185D02*
G03*
X228217Y222185I-492J0D01*
G01*
X364358Y196913D02*
G03*
X364358Y196913I-492J0D01*
G01*
X375677Y218276D02*
G03*
X375677Y218276I-492J0D01*
G01*
X267433Y139161D02*
G03*
X267433Y139161I-492J0D01*
G01*
X336169Y272079D02*
G03*
X336169Y272079I-492J0D01*
G01*
X305437Y174583D02*
G03*
X305437Y174583I-492J0D01*
G01*
X252384Y167353D02*
G03*
X252384Y167353I-492J0D01*
G01*
X253826Y238087D02*
G03*
X253826Y238087I-492J0D01*
G01*
X216079Y193366D02*
G03*
X216079Y193366I-492J0D01*
G01*
X228126Y208087D02*
G03*
X228126Y208087I-492J0D01*
G01*
X268579Y198153D02*
G03*
X268579Y198153I-492J0D01*
G01*
X347177Y168968D02*
X377098D01*
X347177Y185110D02*
X377098D01*
Y168968D02*
Y185110D01*
X347177Y168968D02*
Y185110D01*
X226902Y258032D02*
X256823D01*
X226902Y241890D02*
X256823D01*
X226902D02*
Y258032D01*
X256823Y241890D02*
Y258032D01*
X319000Y156000D02*
X329000D01*
X319000Y178500D02*
X329000D01*
X319000Y156000D02*
Y178500D01*
X329000Y156000D02*
Y178500D01*
X212537Y144814D02*
X223955D01*
X212537Y158200D02*
X223955D01*
X212537Y144814D02*
Y158200D01*
X223955Y144814D02*
Y158200D01*
X213500Y224300D02*
Y246800D01*
X203500Y224300D02*
Y246800D01*
X213500D01*
X203500Y224300D02*
X213500D01*
X365036Y239571D02*
Y269492D01*
X348894Y239571D02*
Y269492D01*
X365036D01*
X348894Y239571D02*
X365036D01*
D61*
X295724Y273669D02*
G03*
X295724Y273669I-197J0D01*
G01*
X263224Y267669D02*
G03*
X263224Y267669I-197J0D01*
G01*
X233224Y268721D02*
G03*
X233224Y268721I-197J0D01*
G01*
D62*
X259972Y136268D02*
G03*
X259972Y136268I-1181J0D01*
G01*
X297071Y167890D02*
G03*
X297071Y167890I-1181J0D01*
G01*
X279307Y202346D02*
G03*
X279307Y202346I-1181J0D01*
G01*
D63*
X182445Y187524D02*
X199945D01*
X182445Y242386D02*
X199945D01*
X182445Y187524D02*
Y242386D01*
X199945Y187524D02*
Y242386D01*
X222016Y221102D02*
X223984D01*
X222016Y208898D02*
X223984D01*
Y221102D01*
X222016Y208898D02*
Y221102D01*
X350220Y201520D02*
X357701D01*
X350220Y216480D02*
X357701D01*
X350220Y201520D02*
Y216480D01*
X357701Y201520D02*
Y216480D01*
X353457Y187681D02*
Y195161D01*
X368417Y187681D02*
Y195161D01*
X353457D02*
X368417D01*
X353457Y187681D02*
X368417D01*
X370756Y206756D02*
Y209906D01*
X368000D02*
X370756D01*
Y198094D02*
Y201244D01*
X368000Y198094D02*
X370756D01*
X376898Y218850D02*
Y225150D01*
X389102Y218850D02*
Y225150D01*
X374102Y222016D02*
Y223984D01*
X361898Y222016D02*
Y223984D01*
Y222016D02*
X374102D01*
X361898Y223984D02*
X374102D01*
X352720Y221520D02*
X360201D01*
X352720Y236480D02*
X360201D01*
X352720Y221520D02*
Y236480D01*
X360201Y221520D02*
Y236480D01*
X295528Y275244D02*
Y280756D01*
X286472Y275244D02*
Y280756D01*
X295331D02*
X295528D01*
X295331Y275244D02*
X295528D01*
X286472Y280756D02*
X286669D01*
X286472Y275244D02*
X286669D01*
X272425Y289854D02*
X275575D01*
X272425Y284146D02*
X275575D01*
X280854Y270425D02*
Y273575D01*
X275146Y270425D02*
Y273575D01*
X266146Y270425D02*
Y273575D01*
X271854Y270425D02*
Y273575D01*
X253972Y269244D02*
X254169D01*
X253972Y274756D02*
X254169D01*
X262831Y269244D02*
X263028D01*
X262831Y274756D02*
X263028D01*
X253972Y269244D02*
Y274756D01*
X263028Y269244D02*
Y274756D01*
X249354Y289425D02*
Y292575D01*
X243646Y289425D02*
Y292575D01*
X234146Y289425D02*
Y292575D01*
X239854Y289425D02*
Y292575D01*
X244646Y270976D02*
Y274126D01*
X250354Y270976D02*
Y274126D01*
X241354Y270976D02*
Y274126D01*
X235646Y270976D02*
Y274126D01*
X233028Y270295D02*
Y275807D01*
X223972Y270295D02*
Y275807D01*
X232831D02*
X233028D01*
X232831Y270295D02*
X233028D01*
X223972Y275807D02*
X224169D01*
X223972Y270295D02*
X224169D01*
X305854Y274425D02*
Y277575D01*
X300146Y274425D02*
Y277575D01*
X313146Y274425D02*
Y277575D01*
X318854Y274425D02*
Y277575D01*
X291425Y286146D02*
X294575D01*
X291425Y291854D02*
X294575D01*
X310225Y287146D02*
X313375D01*
X310225Y292854D02*
X313375D01*
X262728Y115795D02*
Y140205D01*
X241272Y115795D02*
Y140205D01*
X262728D01*
X241272Y115795D02*
X262728D01*
X322882Y281921D02*
X324654D01*
X331347D02*
X333118D01*
Y275524D02*
Y281921D01*
X322882Y275524D02*
Y281921D01*
X336224Y193220D02*
Y200701D01*
X321264Y193220D02*
Y200701D01*
Y193220D02*
X336224D01*
X321264Y200701D02*
X336224D01*
X317480Y179220D02*
Y186701D01*
X302520Y179220D02*
Y186701D01*
Y179220D02*
X317480D01*
X302520Y186701D02*
X317480D01*
X210520Y161299D02*
Y168780D01*
X225480Y161299D02*
Y168780D01*
X210520D02*
X225480D01*
X210520Y161299D02*
X225480D01*
X252299Y222480D02*
X259780D01*
X252299Y207520D02*
X259780D01*
Y222480D01*
X252299Y207520D02*
Y222480D01*
X262221Y172520D02*
X269701D01*
X262221Y187480D02*
X269701D01*
X262221Y172520D02*
Y187480D01*
X269701Y172520D02*
Y187480D01*
X338720Y259520D02*
X346201D01*
X338720Y274480D02*
X346201D01*
X338720Y259520D02*
Y274480D01*
X346201Y259520D02*
Y274480D01*
X321520Y286299D02*
Y293779D01*
X336480Y286299D02*
Y293779D01*
X321520D02*
X336480D01*
X321520Y286299D02*
X336480D01*
X341299Y292480D02*
X348780D01*
X341299Y277520D02*
X348780D01*
Y292480D01*
X341299Y277520D02*
Y292480D01*
X299827Y150173D02*
Y171827D01*
X278173Y150173D02*
Y171827D01*
X299827D01*
X278173Y150173D02*
X299827D01*
X238899Y146664D02*
X245986D01*
X238899Y166349D02*
X245986D01*
X238899Y146664D02*
Y166349D01*
X245986Y146664D02*
Y166349D01*
X224244Y225701D02*
X229756D01*
X224244Y238299D02*
X229756D01*
X224244Y225701D02*
Y238299D01*
X224992Y225701D02*
Y238299D01*
X336299Y138244D02*
Y143756D01*
X323701Y138244D02*
Y143756D01*
Y138244D02*
X336299D01*
X323701Y138992D02*
X336299D01*
X242299Y222480D02*
X249780D01*
X242299Y207520D02*
X249780D01*
Y222480D01*
X242299Y207520D02*
Y222480D01*
X233221Y207520D02*
X240701D01*
X233221Y222480D02*
X240701D01*
X233221Y207520D02*
Y222480D01*
X240701Y207520D02*
Y222480D01*
X298420Y123199D02*
Y130680D01*
X313380Y123199D02*
Y130680D01*
X298420D02*
X313380D01*
X298420Y123199D02*
X313380D01*
X246444Y225095D02*
Y228244D01*
Y225095D02*
X249200D01*
X246444Y233756D02*
Y236906D01*
X249200D01*
X259500Y173000D02*
Y190500D01*
X214500Y173000D02*
Y190500D01*
Y173000D02*
X259500D01*
X214500Y190500D02*
X259500D01*
X325000Y204000D02*
X331000D01*
X325000Y216000D02*
X331000D01*
X325000Y204000D02*
Y207000D01*
Y213000D02*
Y216000D01*
X339299Y216480D02*
X346779D01*
X339299Y201520D02*
X346779D01*
Y216480D01*
X339299Y201520D02*
Y216480D01*
X324299Y237480D02*
X331780D01*
X324299Y222520D02*
X331780D01*
Y237480D01*
X324299Y222520D02*
Y237480D01*
X302260Y264299D02*
X309740D01*
X302260Y251701D02*
X309740D01*
X322701Y251260D02*
Y258740D01*
X335299Y251260D02*
Y258740D01*
X214405Y197500D02*
Y200256D01*
X211256D02*
X214405D01*
X202594Y197500D02*
Y200256D01*
X205744D01*
X220744Y206906D02*
X223500D01*
X220744Y203756D02*
Y206906D01*
Y195095D02*
X223500D01*
X220744D02*
Y198244D01*
X318480Y136221D02*
Y143701D01*
X303520Y136221D02*
Y143701D01*
Y136221D02*
X318480D01*
X303520Y143701D02*
X318480D01*
X313646Y238425D02*
Y241575D01*
X319354Y238425D02*
Y241575D01*
X281425Y252146D02*
X284575D01*
X281425Y257854D02*
X284575D01*
X274189Y198409D02*
Y249590D01*
X297811Y198409D02*
Y249590D01*
X274189Y198409D02*
X297811D01*
X274189Y249590D02*
X297811D01*
X212425Y268354D02*
X215575D01*
X212425Y262646D02*
X215575D01*
X262854Y287425D02*
Y290575D01*
X257146Y287425D02*
Y290575D01*
D110*
X334216Y217579D02*
G03*
X334216Y217579I-492J0D01*
G01*
D111*
X349500Y187000D02*
Y192000D01*
X347000Y189500D02*
X352000D01*
X254500Y235000D02*
Y240000D01*
X252000Y237500D02*
X257000D01*
X314000Y156000D02*
Y161000D01*
X311500Y158500D02*
X316500D01*
X196000Y226800D02*
X201000D01*
X198500Y224300D02*
Y229300D01*
X342004Y241894D02*
X347005D01*
X344504Y239394D02*
Y244394D01*
M02*
