%FSLAX25Y25*%
%MOIN*%
G70*
G01*
G75*
G04 Layer_Color=16711935*
%ADD10C,0.01000*%
%ADD11C,0.04000*%
%ADD12C,0.02000*%
%ADD13R,0.08661X0.03937*%
%ADD14R,0.08661X0.12992*%
G04:AMPARAMS|DCode=15|XSize=62.99mil|YSize=39.37mil|CornerRadius=9.84mil|HoleSize=0mil|Usage=FLASHONLY|Rotation=0.000|XOffset=0mil|YOffset=0mil|HoleType=Round|Shape=RoundedRectangle|*
%AMROUNDEDRECTD15*
21,1,0.06299,0.01969,0,0,0.0*
21,1,0.04331,0.03937,0,0,0.0*
1,1,0.01969,0.02165,-0.00984*
1,1,0.01969,-0.02165,-0.00984*
1,1,0.01969,-0.02165,0.00984*
1,1,0.01969,0.02165,0.00984*
%
%ADD15ROUNDEDRECTD15*%
G04:AMPARAMS|DCode=16|XSize=62.99mil|YSize=39.37mil|CornerRadius=9.84mil|HoleSize=0mil|Usage=FLASHONLY|Rotation=90.000|XOffset=0mil|YOffset=0mil|HoleType=Round|Shape=RoundedRectangle|*
%AMROUNDEDRECTD16*
21,1,0.06299,0.01969,0,0,90.0*
21,1,0.04331,0.03937,0,0,90.0*
1,1,0.01969,0.00984,0.02165*
1,1,0.01969,0.00984,-0.02165*
1,1,0.01969,-0.00984,-0.02165*
1,1,0.01969,-0.00984,0.02165*
%
%ADD16ROUNDEDRECTD16*%
%ADD17R,0.01378X0.04921*%
G04:AMPARAMS|DCode=18|XSize=47.24mil|YSize=59.06mil|CornerRadius=11.81mil|HoleSize=0mil|Usage=FLASHONLY|Rotation=0.000|XOffset=0mil|YOffset=0mil|HoleType=Round|Shape=RoundedRectangle|*
%AMROUNDEDRECTD18*
21,1,0.04724,0.03543,0,0,0.0*
21,1,0.02362,0.05906,0,0,0.0*
1,1,0.02362,0.01181,-0.01772*
1,1,0.02362,-0.01181,-0.01772*
1,1,0.02362,-0.01181,0.01772*
1,1,0.02362,0.01181,0.01772*
%
%ADD18ROUNDEDRECTD18*%
G04:AMPARAMS|DCode=19|XSize=47.24mil|YSize=59.06mil|CornerRadius=11.81mil|HoleSize=0mil|Usage=FLASHONLY|Rotation=270.000|XOffset=0mil|YOffset=0mil|HoleType=Round|Shape=RoundedRectangle|*
%AMROUNDEDRECTD19*
21,1,0.04724,0.03543,0,0,270.0*
21,1,0.02362,0.05906,0,0,270.0*
1,1,0.02362,-0.01772,-0.01181*
1,1,0.02362,-0.01772,0.01181*
1,1,0.02362,0.01772,0.01181*
1,1,0.02362,0.01772,-0.01181*
%
%ADD19ROUNDEDRECTD19*%
%ADD20O,0.06890X0.01772*%
%ADD21R,0.02362X0.01969*%
%ADD22R,0.04921X0.01378*%
%ADD23R,0.13780X0.04724*%
%ADD24R,0.04331X0.02559*%
%ADD25R,0.03937X0.08661*%
%ADD26R,0.12992X0.08661*%
%ADD27R,0.10236X0.06102*%
%ADD28R,0.04724X0.13780*%
%ADD29R,0.03937X0.01969*%
%ADD30C,0.11811*%
%ADD31C,0.00800*%
%ADD32C,0.23622*%
%ADD33C,0.05000*%
%ADD34R,0.05906X0.03150*%
%ADD35R,0.11811X0.08268*%
%ADD36R,0.07874X0.14764*%
%ADD37R,0.05118X0.02362*%
%ADD38R,0.12992X0.05512*%
%ADD39R,0.02559X0.04331*%
%ADD40R,0.07874X0.05906*%
%ADD41O,0.05000X0.02992*%
%ADD42R,0.03543X0.03740*%
%ADD43R,0.03543X0.03740*%
%ADD44O,0.07087X0.01181*%
%ADD45O,0.01181X0.07087*%
%ADD46O,0.08661X0.02362*%
%ADD47R,0.07480X0.13386*%
%ADD48R,0.13386X0.07480*%
%ADD49R,0.08268X0.11811*%
%ADD50R,0.03150X0.05906*%
%ADD51R,0.05512X0.03937*%
%ADD52R,0.03937X0.03347*%
%ADD53R,0.03937X0.05512*%
%ADD54R,0.01969X0.03937*%
%ADD55R,0.06299X0.13386*%
%ADD56R,0.13386X0.06299*%
%ADD57R,0.02362X0.05118*%
%ADD58O,0.09055X0.02362*%
%ADD59R,0.14764X0.07874*%
%ADD60C,0.00984*%
%ADD61C,0.00394*%
%ADD62C,0.02362*%
%ADD63C,0.00787*%
%ADD64R,0.09461X0.04737*%
%ADD65R,0.09461X0.13792*%
G04:AMPARAMS|DCode=66|XSize=70.99mil|YSize=47.37mil|CornerRadius=13.84mil|HoleSize=0mil|Usage=FLASHONLY|Rotation=0.000|XOffset=0mil|YOffset=0mil|HoleType=Round|Shape=RoundedRectangle|*
%AMROUNDEDRECTD66*
21,1,0.07099,0.01969,0,0,0.0*
21,1,0.04331,0.04737,0,0,0.0*
1,1,0.02769,0.02165,-0.00984*
1,1,0.02769,-0.02165,-0.00984*
1,1,0.02769,-0.02165,0.00984*
1,1,0.02769,0.02165,0.00984*
%
%ADD66ROUNDEDRECTD66*%
G04:AMPARAMS|DCode=67|XSize=70.99mil|YSize=47.37mil|CornerRadius=13.84mil|HoleSize=0mil|Usage=FLASHONLY|Rotation=90.000|XOffset=0mil|YOffset=0mil|HoleType=Round|Shape=RoundedRectangle|*
%AMROUNDEDRECTD67*
21,1,0.07099,0.01969,0,0,90.0*
21,1,0.04331,0.04737,0,0,90.0*
1,1,0.02769,0.00984,0.02165*
1,1,0.02769,0.00984,-0.02165*
1,1,0.02769,-0.00984,-0.02165*
1,1,0.02769,-0.00984,0.02165*
%
%ADD67ROUNDEDRECTD67*%
%ADD68R,0.02178X0.05721*%
G04:AMPARAMS|DCode=69|XSize=55.24mil|YSize=67.06mil|CornerRadius=15.81mil|HoleSize=0mil|Usage=FLASHONLY|Rotation=0.000|XOffset=0mil|YOffset=0mil|HoleType=Round|Shape=RoundedRectangle|*
%AMROUNDEDRECTD69*
21,1,0.05524,0.03543,0,0,0.0*
21,1,0.02362,0.06706,0,0,0.0*
1,1,0.03162,0.01181,-0.01772*
1,1,0.03162,-0.01181,-0.01772*
1,1,0.03162,-0.01181,0.01772*
1,1,0.03162,0.01181,0.01772*
%
%ADD69ROUNDEDRECTD69*%
G04:AMPARAMS|DCode=70|XSize=55.24mil|YSize=67.06mil|CornerRadius=15.81mil|HoleSize=0mil|Usage=FLASHONLY|Rotation=270.000|XOffset=0mil|YOffset=0mil|HoleType=Round|Shape=RoundedRectangle|*
%AMROUNDEDRECTD70*
21,1,0.05524,0.03543,0,0,270.0*
21,1,0.02362,0.06706,0,0,270.0*
1,1,0.03162,-0.01772,-0.01181*
1,1,0.03162,-0.01772,0.01181*
1,1,0.03162,0.01772,0.01181*
1,1,0.03162,0.01772,-0.01181*
%
%ADD70ROUNDEDRECTD70*%
%ADD71O,0.07690X0.02572*%
%ADD72R,0.03162X0.02769*%
%ADD73R,0.05721X0.02178*%
%ADD74R,0.14579X0.05524*%
%ADD75R,0.05131X0.03359*%
%ADD76R,0.04737X0.09461*%
%ADD77R,0.13792X0.09461*%
%ADD78R,0.11036X0.06902*%
%ADD79R,0.05524X0.14579*%
%ADD80R,0.04737X0.02769*%
%ADD81C,0.12611*%
%ADD82C,0.24422*%
%ADD83C,0.05800*%
%ADD84R,0.06706X0.03950*%
%ADD85R,0.12611X0.09068*%
%ADD86R,0.08674X0.15564*%
%ADD87R,0.05918X0.03162*%
%ADD88R,0.13792X0.06312*%
%ADD89R,0.03359X0.05131*%
%ADD90R,0.08674X0.06706*%
%ADD91O,0.05800X0.03792*%
%ADD92R,0.04343X0.04540*%
%ADD93R,0.04343X0.04540*%
%ADD94O,0.07887X0.01981*%
%ADD95O,0.01981X0.07887*%
%ADD96O,0.09461X0.03162*%
%ADD97R,0.08280X0.14186*%
%ADD98R,0.14186X0.08280*%
%ADD99R,0.09068X0.12611*%
%ADD100R,0.03950X0.06706*%
%ADD101R,0.06312X0.04737*%
%ADD102R,0.04737X0.04147*%
%ADD103R,0.04737X0.06312*%
%ADD104R,0.02769X0.04737*%
%ADD105R,0.07099X0.14186*%
%ADD106R,0.14186X0.07099*%
%ADD107R,0.03162X0.05918*%
%ADD108O,0.09855X0.03162*%
%ADD109R,0.15564X0.08674*%
D66*
X278000Y266094D02*
D03*
Y277906D02*
D03*
X269000D02*
D03*
Y266094D02*
D03*
X246500Y285094D02*
D03*
Y296905D02*
D03*
X237000D02*
D03*
Y285094D02*
D03*
X247500Y278457D02*
D03*
Y266646D02*
D03*
X238500D02*
D03*
Y278457D02*
D03*
X303000Y270094D02*
D03*
Y281906D02*
D03*
X316000D02*
D03*
Y270094D02*
D03*
X316500Y245905D02*
D03*
Y234095D02*
D03*
X260000Y283095D02*
D03*
Y294905D02*
D03*
D67*
X279906Y287000D02*
D03*
X268094D02*
D03*
X287094Y289000D02*
D03*
X298905D02*
D03*
X305894Y290000D02*
D03*
X317705D02*
D03*
X277095Y255000D02*
D03*
X288906D02*
D03*
X219905Y265500D02*
D03*
X208095D02*
D03*
D68*
X293559Y274949D02*
D03*
X291000D02*
D03*
X288441D02*
D03*
X293559Y281051D02*
D03*
X291000D02*
D03*
X288441D02*
D03*
X255941Y275051D02*
D03*
X258500D02*
D03*
X261059D02*
D03*
X255941Y268949D02*
D03*
X258500D02*
D03*
X261059D02*
D03*
X231059Y270000D02*
D03*
X228500D02*
D03*
X225941D02*
D03*
X231059Y276102D02*
D03*
X228500D02*
D03*
X225941D02*
D03*
D69*
X356331Y191382D02*
D03*
X365543D02*
D03*
X333350Y197000D02*
D03*
X324138D02*
D03*
X314606Y183000D02*
D03*
X305394D02*
D03*
X213394Y165000D02*
D03*
X222606D02*
D03*
X324394Y290000D02*
D03*
X333606D02*
D03*
X301294Y126900D02*
D03*
X310506D02*
D03*
X315606Y140000D02*
D03*
X306394D02*
D03*
D70*
X354000Y204394D02*
D03*
Y213606D02*
D03*
X356500Y224394D02*
D03*
Y233606D02*
D03*
X256000Y219606D02*
D03*
Y210394D02*
D03*
X266000Y175394D02*
D03*
Y184606D02*
D03*
X342500Y262394D02*
D03*
Y271606D02*
D03*
X345000Y289606D02*
D03*
Y280394D02*
D03*
X246000Y219606D02*
D03*
Y210394D02*
D03*
X237000D02*
D03*
Y219606D02*
D03*
X343000Y213606D02*
D03*
Y204394D02*
D03*
X328000Y234606D02*
D03*
Y225394D02*
D03*
D72*
X214506Y146782D02*
D03*
Y153081D02*
D03*
Y156231D02*
D03*
X221592Y146782D02*
D03*
Y153081D02*
D03*
Y156231D02*
D03*
X214506Y149932D02*
D03*
X221592D02*
D03*
D75*
X227724Y218740D02*
D03*
Y215000D02*
D03*
Y211260D02*
D03*
X218276D02*
D03*
Y218740D02*
D03*
D82*
X284000Y118500D02*
D03*
Y311500D02*
D03*
D83*
X315300Y165200D02*
D03*
X245300Y133600D02*
D03*
X239900Y142300D02*
D03*
X342000Y193000D02*
D03*
X366000Y158000D02*
D03*
X205000Y151000D02*
D03*
X255000Y130000D02*
D03*
X316000Y149000D02*
D03*
X200000Y157000D02*
D03*
X208000Y273000D02*
D03*
X298000Y135000D02*
D03*
X345500Y160000D02*
D03*
X248000Y125000D02*
D03*
X221000Y243000D02*
D03*
X219000Y255000D02*
D03*
X339000Y170000D02*
D03*
X356000Y155000D02*
D03*
X293000Y191000D02*
D03*
X292000Y158000D02*
D03*
X206500Y171500D02*
D03*
D84*
X197445Y222209D02*
D03*
Y227130D02*
D03*
Y207445D02*
D03*
Y202524D02*
D03*
Y217287D02*
D03*
Y212366D02*
D03*
D85*
X186815Y192287D02*
D03*
Y237661D02*
D03*
D86*
X372000Y177000D02*
D03*
X352000D02*
D03*
X232000Y250000D02*
D03*
X252000D02*
D03*
D87*
X372134Y204000D02*
D03*
X363866Y207740D02*
D03*
Y200260D02*
D03*
X245066Y231000D02*
D03*
X253334Y227260D02*
D03*
Y234740D02*
D03*
X227634Y204740D02*
D03*
Y197260D02*
D03*
X219366Y201000D02*
D03*
D88*
X383000Y229480D02*
D03*
Y214520D02*
D03*
D89*
X371740Y218276D02*
D03*
X368000D02*
D03*
X364260D02*
D03*
Y227724D02*
D03*
X371740D02*
D03*
D90*
X324000Y161000D02*
D03*
Y173500D02*
D03*
X208500Y241800D02*
D03*
Y229300D02*
D03*
D91*
X266941Y135500D02*
D03*
Y130500D02*
D03*
Y125500D02*
D03*
Y120500D02*
D03*
X237059Y135500D02*
D03*
Y130500D02*
D03*
Y125500D02*
D03*
Y120500D02*
D03*
D92*
X331740Y272079D02*
D03*
X328000Y281921D02*
D03*
D93*
X324260Y272079D02*
D03*
D94*
X304945Y171827D02*
D03*
Y169858D02*
D03*
Y167890D02*
D03*
Y165921D02*
D03*
Y163953D02*
D03*
Y161984D02*
D03*
Y160016D02*
D03*
Y158047D02*
D03*
Y156079D02*
D03*
Y154110D02*
D03*
Y152142D02*
D03*
Y150173D02*
D03*
X273055D02*
D03*
Y152142D02*
D03*
Y154110D02*
D03*
Y156079D02*
D03*
Y158047D02*
D03*
Y160016D02*
D03*
Y161984D02*
D03*
Y163953D02*
D03*
Y165921D02*
D03*
Y167890D02*
D03*
Y169858D02*
D03*
Y171827D02*
D03*
D95*
X299827Y145055D02*
D03*
X297858D02*
D03*
X295890D02*
D03*
X293921D02*
D03*
X291953D02*
D03*
X289984D02*
D03*
X288016D02*
D03*
X286047D02*
D03*
X284079D02*
D03*
X282110D02*
D03*
X280142D02*
D03*
X278173D02*
D03*
Y176945D02*
D03*
X280142D02*
D03*
X282110D02*
D03*
X284079D02*
D03*
X286047D02*
D03*
X288016D02*
D03*
X289984D02*
D03*
X291953D02*
D03*
X293921D02*
D03*
X295890D02*
D03*
X297858D02*
D03*
X299827D02*
D03*
D96*
X232994Y149006D02*
D03*
Y154007D02*
D03*
Y159007D02*
D03*
Y164006D02*
D03*
X251892Y149006D02*
D03*
Y154007D02*
D03*
Y159007D02*
D03*
Y164006D02*
D03*
D97*
X219323Y232000D02*
D03*
X234677D02*
D03*
D98*
X330000Y133323D02*
D03*
Y148677D02*
D03*
D99*
X254736Y177370D02*
D03*
X219500D02*
D03*
D100*
X239579Y188000D02*
D03*
X244500D02*
D03*
X229736D02*
D03*
X234658D02*
D03*
D101*
X354661Y147240D02*
D03*
X346000Y143500D02*
D03*
Y150980D02*
D03*
D102*
X324276Y210000D02*
D03*
X333724Y206260D02*
D03*
Y213740D02*
D03*
D103*
X342740Y223339D02*
D03*
X339000Y232000D02*
D03*
X346480D02*
D03*
D104*
X333141Y156551D02*
D03*
X336882D02*
D03*
X340622D02*
D03*
X340622Y164032D02*
D03*
X336882D02*
D03*
X333142D02*
D03*
D105*
X314071Y258000D02*
D03*
X297929D02*
D03*
D106*
X329000Y263071D02*
D03*
Y246929D02*
D03*
D107*
X212240Y193366D02*
D03*
X204760D02*
D03*
X208500Y201634D02*
D03*
D108*
X268087Y201500D02*
D03*
Y206500D02*
D03*
Y211500D02*
D03*
Y216500D02*
D03*
Y221500D02*
D03*
Y226500D02*
D03*
Y231500D02*
D03*
Y236500D02*
D03*
Y241500D02*
D03*
Y246500D02*
D03*
X303913Y201500D02*
D03*
Y206500D02*
D03*
Y211500D02*
D03*
Y216500D02*
D03*
Y221500D02*
D03*
Y226500D02*
D03*
Y231500D02*
D03*
Y236500D02*
D03*
Y241500D02*
D03*
Y246500D02*
D03*
D109*
X357004Y264394D02*
D03*
Y244394D02*
D03*
M02*
