M48
;Layer_Color=9474304
;FILE_FORMAT=2:5
INCH,LZ
;TYPE=PLATED
T1F00S00C0.02800
T2F00S00C0.11811
%
T01
X0205Y0151
X02399Y01423
X02453Y01336
X0248Y0125
X0255Y013
X0298Y0135
X0316Y0149
X0356Y0155
X0366Y0158
X03455Y016
X0339Y017
X0342Y0193
X03153Y01652
X0292Y0158
X0293Y0191
X02065Y01715
X02Y0157
X0221Y0243
X0219Y0255
X0208Y0273
T02
X0284Y01185
Y03115
M30
