M48
;Layer_Color=9474304
;FILE_FORMAT=2:5
INCH,LZ
;TYPE=PLATED
T1F00S00C0.02500
T2F00S00C0.02800
T3F00S00C0.03150
T4F00S00C0.03543
T5F00S00C0.03800
T6F00S00C0.03937
T7F00S00C0.04000
T8F00S00C0.04331
T9F00S00C0.05118
T10F00S00C0.06200
T11F00S00C0.13780
%
T01
X037174Y0201
Y0211
X0356Y0296394
Y0306394
X041025Y0355
X042025
X0418Y0371
Y0381
X0432Y0387
X0442
X0392Y0432
X0382
X0372
X0362
Y0462
X0372
X0382
X0392
T02
X0478Y0259375
X0484559Y0259669
X0467331Y0312
X0371687Y0261634
X0386Y0234231
X0349Y0231
X0347485Y0218394
X0317686Y0212
X0313493Y0229
X03145Y0236
X033Y024
X0332894Y0250894
X03135Y0255
X0314Y0289238
X0321174Y029
X0443Y018
X0305Y0283
X0290697Y0295197
X02825Y0307
X0276039Y0263545
X0318228Y0314
X03815Y0328456
X0377167Y0360118
X03675Y0361
X04005Y03605
X042025Y0332
X0447Y0321253
X0453092Y0348111
X0451394Y03742
X045036Y0393
X0386384Y0399376
X0342471Y0398
X0347602Y0374778
X0336853Y0373395
X0318216Y0409
X0407Y046541
X0414Y0461
X0515Y038486
X0556Y0347783
T03
X038174Y0201
X0346Y0306394
X041025Y0345
X0408Y0381
X0442Y0397
T04
X0413Y0230685
Y0260528
T05
X0314Y0221
X0324
X0334
X0332Y0293394
Y0303394
X0304Y0348
X0294
Y0358
X0284
Y0348
Y0376961
X0274
X0304Y0358
X0314
X0324
Y0348
X0314
X0334
Y0358
X0344
Y0348
X0332Y0313394
X0459Y0364
Y0374
Y0384
T06
X0472Y0215
X0482
X0492
X0435Y0215017
X0425
X0415
T07
X0454339Y0261784
T08
X0485858Y0407
X05
X0492929Y0399929
X0485858Y0435284
X0492929Y0442355
X05Y0435284
T09
X0471716Y0421142
X0514142
T10
X03335Y0277606
X0391
X04035
X0403894Y0298
X0461394
X0461Y0277606
T11
X04125Y0184268
X0289756Y0396866
X0535244
M30
