%FSLAX25Y25*%
%MOIN*%
G70*
G01*
G75*
G04 Layer_Physical_Order=1*
G04 Layer_Color=255*
%ADD10C,0.04000*%
%ADD11C,0.02000*%
G04:AMPARAMS|DCode=12|XSize=47.24mil|YSize=59.06mil|CornerRadius=11.81mil|HoleSize=0mil|Usage=FLASHONLY|Rotation=90.000|XOffset=0mil|YOffset=0mil|HoleType=Round|Shape=RoundedRectangle|*
%AMROUNDEDRECTD12*
21,1,0.04724,0.03543,0,0,90.0*
21,1,0.02362,0.05906,0,0,90.0*
1,1,0.02362,0.01772,0.01181*
1,1,0.02362,0.01772,-0.01181*
1,1,0.02362,-0.01772,-0.01181*
1,1,0.02362,-0.01772,0.01181*
%
%ADD12ROUNDEDRECTD12*%
%ADD13R,0.13386X0.07480*%
G04:AMPARAMS|DCode=14|XSize=47.24mil|YSize=59.06mil|CornerRadius=11.81mil|HoleSize=0mil|Usage=FLASHONLY|Rotation=180.000|XOffset=0mil|YOffset=0mil|HoleType=Round|Shape=RoundedRectangle|*
%AMROUNDEDRECTD14*
21,1,0.04724,0.03543,0,0,180.0*
21,1,0.02362,0.05906,0,0,180.0*
1,1,0.02362,-0.01181,0.01772*
1,1,0.02362,0.01181,0.01772*
1,1,0.02362,0.01181,-0.01772*
1,1,0.02362,-0.01181,-0.01772*
%
%ADD14ROUNDEDRECTD14*%
%ADD15R,0.04331X0.02559*%
%ADD16R,0.13780X0.04724*%
%ADD17R,0.08268X0.07284*%
%ADD18R,0.04724X0.13780*%
%ADD19R,0.07284X0.08268*%
%ADD20R,0.14764X0.07874*%
%ADD21R,0.02362X0.05118*%
%ADD22R,0.08465X0.13780*%
%ADD23R,0.08465X0.04331*%
%ADD24R,0.08465X0.04331*%
%ADD25O,0.02362X0.08661*%
%ADD26R,0.05118X0.02362*%
%ADD27O,0.08661X0.02362*%
%ADD28R,0.03937X0.03347*%
%ADD29R,0.03937X0.03347*%
%ADD30O,0.09055X0.02362*%
%ADD31R,0.07874X0.14764*%
%ADD32R,0.05906X0.07874*%
%ADD33C,0.01000*%
%ADD34C,0.00394*%
%ADD35C,0.06000*%
%ADD36R,0.06000X0.06000*%
%ADD37R,0.10000X0.10000*%
%ADD38C,0.10000*%
%ADD39C,0.20000*%
%ADD40C,0.07087*%
%ADD41R,0.06000X0.06000*%
%ADD42R,0.06299X0.06299*%
%ADD43C,0.06299*%
%ADD44C,0.05000*%
%ADD45R,0.05000X0.05000*%
%ADD46C,0.04000*%
%ADD47C,0.04724*%
%ADD48R,0.05906X0.05906*%
%ADD49C,0.05906*%
G36*
X304063Y434209D02*
Y428978D01*
X303957Y427628D01*
X303965D01*
Y388726D01*
X281147Y365908D01*
X280506Y365072D01*
X280103Y364099D01*
X279965Y363055D01*
X279965Y363055D01*
Y360956D01*
X279632Y360522D01*
X279129Y359305D01*
X278957Y358000D01*
X279129Y356695D01*
X279632Y355478D01*
X280434Y354434D01*
X281478Y353632D01*
X282402Y353250D01*
Y352750D01*
X281478Y352367D01*
X281394Y352303D01*
X280822Y352476D01*
X279788Y353029D01*
X278927Y353735D01*
X278892Y353782D01*
X278782Y353892D01*
X278735Y353927D01*
X278029Y354788D01*
X277476Y355822D01*
X277136Y356944D01*
X277027Y358052D01*
X277034Y358110D01*
Y371961D01*
X279000D01*
Y374685D01*
X279490Y374782D01*
X279632Y374439D01*
X280434Y373395D01*
X281478Y372593D01*
X282695Y372089D01*
X283500Y371983D01*
Y376960D01*
Y381938D01*
X282695Y381832D01*
X281478Y381328D01*
X280434Y380527D01*
X279632Y379482D01*
X279490Y379139D01*
X279000Y379237D01*
Y379562D01*
X279977Y381156D01*
X281464Y382897D01*
X281587Y382992D01*
X284606Y386011D01*
X286037Y385418D01*
X287873Y384977D01*
X289756Y384829D01*
X291639Y384977D01*
X293476Y385418D01*
X295221Y386141D01*
X296831Y387128D01*
X298268Y388355D01*
X299495Y389791D01*
X300481Y391401D01*
X301204Y393146D01*
X301645Y394983D01*
X301793Y396866D01*
X301645Y398749D01*
X301204Y400586D01*
X300481Y402331D01*
X299495Y403941D01*
X298268Y405378D01*
X296831Y406604D01*
X295221Y407591D01*
X293476Y408314D01*
X291639Y408755D01*
X289756Y408903D01*
X287873Y408755D01*
X286037Y408314D01*
X284292Y407591D01*
X282681Y406604D01*
X281245Y405378D01*
X280018Y403941D01*
X279031Y402331D01*
X278308Y400586D01*
X277867Y398749D01*
X277719Y396866D01*
X277867Y394983D01*
X278308Y393146D01*
X278901Y391716D01*
X275882Y388697D01*
X275880Y388699D01*
X274115Y386724D01*
X272583Y384565D01*
X271302Y382247D01*
X271183Y381961D01*
X269000D01*
Y372661D01*
X268963Y372000D01*
X268966D01*
Y358110D01*
X268957D01*
X269130Y355913D01*
X269644Y353770D01*
X270487Y351734D01*
X271639Y349856D01*
X273070Y348180D01*
X273070Y348180D01*
X273070Y348180D01*
X273070Y348180D01*
X273180Y348070D01*
X273180Y348070D01*
X274856Y346639D01*
X276734Y345487D01*
X278770Y344644D01*
X280793Y344159D01*
X281478Y343633D01*
X282695Y343129D01*
X284000Y342957D01*
X285305Y343129D01*
X286522Y343633D01*
X287566Y344434D01*
X288368Y345478D01*
X288871Y346695D01*
X289043Y348000D01*
X288871Y349305D01*
X288368Y350522D01*
X287566Y351566D01*
X286522Y352367D01*
X285305Y352871D01*
Y353129D01*
X286522Y353632D01*
X287566Y354434D01*
X288368Y355478D01*
X288750Y356402D01*
X289250D01*
X289633Y355478D01*
X290434Y354434D01*
X291478Y353632D01*
X292695Y353129D01*
X294000Y352957D01*
X295305Y353129D01*
X296522Y353632D01*
X297566Y354434D01*
X298368Y355478D01*
X298750Y356402D01*
X299250D01*
X299633Y355478D01*
X300434Y354434D01*
X301478Y353632D01*
X302695Y353129D01*
X304000Y352957D01*
X305305Y353129D01*
X306522Y353632D01*
X307566Y354434D01*
X308367Y355478D01*
X308871Y356695D01*
X309043Y358000D01*
X308954Y358675D01*
X309748Y359469D01*
X310164Y359191D01*
X310103Y359044D01*
X309965Y358000D01*
X310103Y356956D01*
X310506Y355983D01*
X311147Y355147D01*
X311983Y354506D01*
X312956Y354103D01*
X314000Y353965D01*
X315044Y354103D01*
X316017Y354506D01*
X316853Y355147D01*
X317494Y355983D01*
X317897Y356956D01*
X318035Y358000D01*
X317897Y359044D01*
X317494Y360017D01*
X316853Y360853D01*
X316017Y361494D01*
X315044Y361897D01*
X314000Y362035D01*
X312956Y361897D01*
X312809Y361836D01*
X312531Y362252D01*
X326399Y376120D01*
X326880Y376747D01*
X326969Y376961D01*
X327112Y377307D01*
X327441D01*
Y385575D01*
X327500D01*
Y389634D01*
X324819D01*
Y386425D01*
X321079D01*
Y379358D01*
X304675Y362954D01*
X304000Y363043D01*
X302695Y362871D01*
X301478Y362368D01*
X300434Y361566D01*
X299633Y360522D01*
X299250Y359598D01*
X298750D01*
X298368Y360522D01*
X298035Y360956D01*
Y361329D01*
X317853Y381147D01*
X317853Y381147D01*
X318216Y381620D01*
X318494Y381983D01*
X318897Y382956D01*
X319035Y384000D01*
X319035Y384000D01*
X319035Y384000D01*
Y384000D01*
Y389329D01*
X324357Y394651D01*
X324819Y394460D01*
Y390634D01*
X327500D01*
Y394693D01*
X325052D01*
X324861Y395155D01*
X333671Y403966D01*
X384424D01*
X384521Y403475D01*
X384115Y403307D01*
X383175Y402585D01*
X382453Y401645D01*
X382000Y400551D01*
X381911Y399876D01*
X390857D01*
X390768Y400551D01*
X390315Y401645D01*
X389594Y402585D01*
X388654Y403307D01*
X388247Y403475D01*
X388345Y403966D01*
X404677D01*
X404677Y403966D01*
X405721Y404103D01*
X406694Y404506D01*
X407530Y405147D01*
X411966Y409583D01*
X420693D01*
Y412100D01*
X421176Y412470D01*
X422593Y413888D01*
X423009Y413610D01*
X422924Y413405D01*
X422815Y412575D01*
Y410213D01*
X422924Y409382D01*
X423245Y408608D01*
X423755Y407944D01*
X424419Y407434D01*
X425193Y407113D01*
X426024Y407004D01*
X426523D01*
X427172Y406506D01*
X428145Y406103D01*
X429189Y405966D01*
X429189Y405966D01*
X434618D01*
Y404063D01*
X453382D01*
Y405966D01*
X468478D01*
Y394488D01*
X468478Y394488D01*
X468615Y393444D01*
X469018Y392471D01*
X469659Y391635D01*
X479965Y381329D01*
Y364480D01*
X475110D01*
Y355756D01*
X492890D01*
D01*
X492890D01*
X493032Y355614D01*
Y352642D01*
X492866D01*
Y348874D01*
X471110D01*
Y332150D01*
X471189D01*
Y320500D01*
X491685D01*
Y317618D01*
X471189D01*
Y315142D01*
X470716Y314981D01*
X470540Y315209D01*
X469600Y315931D01*
X468505Y316384D01*
X467831Y316473D01*
Y311999D01*
X467332D01*
Y311500D01*
X462858D01*
X462947Y310825D01*
X463400Y309731D01*
X463790Y309222D01*
X463518Y308803D01*
X463120Y308898D01*
X461394Y309034D01*
X459668Y308898D01*
X457984Y308494D01*
X456384Y307831D01*
X454908Y306927D01*
X453868Y306039D01*
X451552D01*
X449983Y305884D01*
X448475Y305427D01*
X447086Y304684D01*
X445867Y303684D01*
X434316Y292132D01*
X433316Y290914D01*
X432573Y289525D01*
X432116Y288017D01*
X431961Y286448D01*
X431961Y286448D01*
Y270256D01*
X427110D01*
Y268744D01*
X426740Y268408D01*
X425772Y268503D01*
X422228D01*
X421953Y268753D01*
Y269480D01*
X414500D01*
Y288606D01*
X392500D01*
Y288606D01*
X392416Y288529D01*
X391000Y288640D01*
X389274Y288505D01*
X387590Y288100D01*
X385991Y287438D01*
X384514Y286533D01*
X383198Y285408D01*
X382073Y284092D01*
X381169Y282616D01*
X380506Y281016D01*
X380102Y279332D01*
X379966Y277606D01*
X380102Y275880D01*
X380506Y274197D01*
X381169Y272597D01*
X382073Y271121D01*
X383198Y269804D01*
X384514Y268680D01*
X385991Y267775D01*
X387590Y267112D01*
X389274Y266708D01*
X391000Y266572D01*
X392416Y266684D01*
X392500Y266606D01*
Y266606D01*
X404047D01*
Y262262D01*
X403922Y262153D01*
X403924Y262151D01*
X403082Y261309D01*
X402583Y261334D01*
X402362Y261602D01*
X401269Y262500D01*
X400021Y263167D01*
X398668Y263577D01*
X397260Y263716D01*
X390567D01*
X389159Y263577D01*
X389016Y263534D01*
X387699D01*
Y263545D01*
X385389Y263364D01*
X383135Y262823D01*
X380994Y261936D01*
X379018Y260725D01*
X377256Y259220D01*
X377264Y259211D01*
X371955Y253903D01*
X371953Y253905D01*
X370484Y252229D01*
X369246Y250376D01*
X368260Y248377D01*
X367544Y246267D01*
X367109Y244082D01*
X366964Y241858D01*
X366966D01*
Y227146D01*
X366964D01*
X367109Y224923D01*
X367544Y222737D01*
X368260Y220627D01*
X369246Y218628D01*
X370484Y216775D01*
X371953Y215100D01*
X371955Y215102D01*
X372677Y214380D01*
X372456Y213932D01*
X371740Y214026D01*
X370957Y213923D01*
X370227Y213620D01*
X369601Y213140D01*
X369120Y212513D01*
X368817Y211783D01*
X368817Y211779D01*
X357890D01*
Y212020D01*
X351559D01*
Y211779D01*
X350740D01*
X349960Y211624D01*
X349298Y211182D01*
X348903Y210787D01*
X348441Y210978D01*
Y212020D01*
X345880D01*
X337902Y219997D01*
X338035Y221000D01*
X337897Y222044D01*
X337494Y223017D01*
X336853Y223853D01*
X336017Y224494D01*
X335044Y224897D01*
X334000Y225034D01*
X332956Y224897D01*
X331983Y224494D01*
X331147Y223853D01*
X330506Y223017D01*
X330103Y222044D01*
X329965Y221000D01*
X330103Y219956D01*
X330506Y218983D01*
X331147Y218147D01*
X331983Y217506D01*
X332956Y217103D01*
X334000Y216966D01*
X335031Y217101D01*
X342110Y210022D01*
Y208039D01*
X339996D01*
Y208047D01*
X339826Y208898D01*
X339344Y209620D01*
X338623Y210102D01*
X337772Y210271D01*
X334228D01*
X333377Y210102D01*
X332656Y209620D01*
X332174Y208898D01*
X332004Y208047D01*
Y205685D01*
X332174Y204834D01*
X332656Y204113D01*
X333377Y203630D01*
X334228Y203461D01*
X337772D01*
X338623Y203630D01*
X339117Y203961D01*
X342110D01*
Y203720D01*
Y199980D01*
X348441D01*
Y200257D01*
X349040Y200376D01*
X349702Y200818D01*
X351097Y202213D01*
X351559Y202022D01*
Y199980D01*
X356136D01*
X357961Y198155D01*
Y194903D01*
X357574Y194826D01*
X356853Y194344D01*
X356371Y193623D01*
X356201Y192772D01*
Y189228D01*
X356371Y188377D01*
X356853Y187656D01*
X357574Y187174D01*
X358425Y187004D01*
X360787D01*
X361638Y187174D01*
X362360Y187656D01*
X362842Y188377D01*
X362958Y188961D01*
X365155D01*
X369989Y184127D01*
Y183228D01*
X370158Y182377D01*
X370640Y181656D01*
X371362Y181174D01*
X372213Y181005D01*
X374575D01*
X375426Y181174D01*
X376147Y181656D01*
X376629Y182377D01*
X376799Y183228D01*
Y186772D01*
X376629Y187623D01*
X376147Y188344D01*
X375426Y188826D01*
X374575Y188996D01*
X372213D01*
X371362Y188826D01*
X371179Y188705D01*
X367442Y192442D01*
X366780Y192884D01*
X366000Y193039D01*
X362958D01*
X362842Y193623D01*
X362360Y194344D01*
X362039Y194558D01*
Y199000D01*
X361884Y199780D01*
X361442Y200442D01*
X358890Y202994D01*
Y205500D01*
X354723D01*
Y206500D01*
X358890D01*
Y207701D01*
X370701D01*
Y203817D01*
X370227Y203621D01*
X369601Y203140D01*
X369120Y202513D01*
X368817Y201783D01*
X368714Y201000D01*
X368817Y200217D01*
X369120Y199487D01*
X369601Y198860D01*
X370227Y198380D01*
X370957Y198077D01*
X371740Y197974D01*
X372523Y198077D01*
X373253Y198380D01*
X373880Y198860D01*
X374361Y199487D01*
X374663Y200217D01*
X374766Y201000D01*
X374692Y201561D01*
X374779Y202000D01*
Y209707D01*
X374669Y210262D01*
X374766Y211000D01*
X374672Y211715D01*
X375120Y211936D01*
X377920Y209137D01*
X377918Y209136D01*
X379593Y207666D01*
X381446Y206428D01*
X383445Y205442D01*
X385555Y204726D01*
X387741Y204291D01*
X389964Y204146D01*
Y204148D01*
X397039D01*
X397079Y204152D01*
X397809Y204056D01*
X398527Y203759D01*
X399110Y203311D01*
X399136Y203279D01*
X399128Y203271D01*
X401249Y201411D01*
X403594Y199843D01*
X406124Y198595D01*
X408796Y197689D01*
X411563Y197138D01*
X414190Y196966D01*
D01*
X414190D01*
X414190D01*
Y196966D01*
X414190Y196966D01*
X414378Y196954D01*
Y196966D01*
D01*
Y196966D01*
X414497Y196978D01*
X415699Y196820D01*
X416929Y196310D01*
X417891Y195572D01*
X417920Y195536D01*
X417624Y195136D01*
X417622Y195135D01*
X416220Y195716D01*
X414383Y196157D01*
X412500Y196305D01*
X410617Y196157D01*
X408780Y195716D01*
X407035Y194993D01*
X405425Y194006D01*
X403989Y192779D01*
X402762Y191343D01*
X401775Y189732D01*
X401052Y187987D01*
X400611Y186151D01*
X400463Y184268D01*
X400611Y182385D01*
X401052Y180548D01*
X401775Y178803D01*
X402762Y177192D01*
X403989Y175756D01*
X405425Y174530D01*
X407035Y173543D01*
X408780Y172820D01*
X410617Y172379D01*
X412500Y172231D01*
X414383Y172379D01*
X416220Y172820D01*
X417965Y173543D01*
X419575Y174530D01*
X421011Y175756D01*
X422238Y177192D01*
X423225Y178803D01*
X423948Y180548D01*
X424389Y182385D01*
X424537Y184268D01*
X424389Y186151D01*
X423948Y187987D01*
X423370Y189383D01*
X423786Y189661D01*
X424489Y188957D01*
Y188953D01*
Y188953D01*
X426165Y187484D01*
X428018Y186246D01*
X430016Y185260D01*
X432127Y184544D01*
X434312Y184109D01*
X436536Y183964D01*
Y183966D01*
X439999D01*
X440160Y183493D01*
X439791Y183209D01*
X439069Y182269D01*
X438616Y181175D01*
X438527Y180500D01*
X447473D01*
X447384Y181175D01*
X446931Y182269D01*
X446209Y183209D01*
X445269Y183931D01*
X445276Y183966D01*
X458000D01*
Y183965D01*
X460161Y184106D01*
X462285Y184529D01*
X464336Y185225D01*
X466279Y186183D01*
X467521Y187013D01*
X468125D01*
X469533Y187151D01*
X470887Y187562D01*
X471551Y187917D01*
X472214Y187562D01*
X473568Y187151D01*
X474976Y187013D01*
X475169D01*
X475287Y186527D01*
X466500Y182000D01*
X448000Y175500D01*
X427000Y171500D01*
X401000Y171000D01*
X370500Y177500D01*
X350740Y185500D01*
X350672Y185531D01*
X350778Y186020D01*
X349894D01*
Y190500D01*
X346004D01*
Y189228D01*
X346113Y188398D01*
X346255Y188056D01*
X345895Y187709D01*
X334169Y193055D01*
X334228Y193264D01*
X335500D01*
Y197153D01*
X331020D01*
Y196472D01*
X331129Y195642D01*
X331450Y194868D01*
X331497Y194807D01*
X331186Y194415D01*
X331000Y194500D01*
X326675Y197713D01*
X326772Y198004D01*
X327602Y198113D01*
X328376Y198434D01*
X329040Y198944D01*
X329550Y199608D01*
X329871Y200382D01*
X329980Y201213D01*
Y201894D01*
X324999D01*
Y202393D01*
X324500D01*
Y206783D01*
X323228D01*
X322398Y206674D01*
X321624Y206353D01*
X320960Y205844D01*
X320450Y205179D01*
X320129Y204405D01*
X320020Y203575D01*
Y203213D01*
X319573Y202989D01*
X313500Y207500D01*
X294000Y227000D01*
X279000Y248000D01*
X273332Y259337D01*
X273717Y259655D01*
X273769Y259615D01*
X274864Y259161D01*
X275539Y259072D01*
Y263046D01*
X271566D01*
X271500Y263545D01*
X271554Y263960D01*
X271061Y263877D01*
X269500Y267000D01*
X263578Y286245D01*
X264007Y286503D01*
X269952Y280558D01*
X270613Y280116D01*
X271166Y280006D01*
X271174Y279968D01*
X271656Y279246D01*
X272377Y278764D01*
X273228Y278595D01*
X276772D01*
X277623Y278764D01*
X278344Y279246D01*
X278826Y279968D01*
X278903Y280354D01*
X283776D01*
Y279244D01*
X283945Y278393D01*
X284427Y277672D01*
X285149Y277189D01*
X286000Y277020D01*
X286851Y277189D01*
X287573Y277672D01*
X288055Y278393D01*
X288224Y279244D01*
Y285543D01*
X288055Y286394D01*
X287573Y287116D01*
X286851Y287598D01*
X286000Y287767D01*
X285149Y287598D01*
X284427Y287116D01*
X283945Y286394D01*
X283776Y285543D01*
Y284433D01*
X278558D01*
X278344Y284754D01*
X277623Y285236D01*
X276772Y285405D01*
X273228D01*
X272377Y285236D01*
X271656Y284754D01*
X271536Y284742D01*
X267039Y289238D01*
Y300648D01*
X267623Y300764D01*
X268344Y301246D01*
X268826Y301968D01*
X268995Y302819D01*
Y305181D01*
X268826Y306032D01*
X268344Y306754D01*
X267623Y307236D01*
X266772Y307405D01*
X263228D01*
X262377Y307236D01*
X261656Y306754D01*
X261174Y306032D01*
X261004Y305181D01*
Y302819D01*
X261174Y301968D01*
X261656Y301246D01*
X262377Y300764D01*
X262961Y300648D01*
Y289934D01*
X262466Y289859D01*
X261500Y293000D01*
X259038Y317129D01*
X259373Y317500D01*
X273920D01*
X274065Y317021D01*
X273640Y316738D01*
X273158Y316016D01*
X273006Y315252D01*
X268822D01*
X268344Y315966D01*
X267623Y316448D01*
X266772Y316617D01*
X263228D01*
X262377Y316448D01*
X261656Y315966D01*
X261174Y315245D01*
X261004Y314394D01*
Y312032D01*
X261174Y311180D01*
X261656Y310459D01*
X262377Y309977D01*
X263228Y309808D01*
X266772D01*
X267623Y309977D01*
X268344Y310459D01*
X268822Y311173D01*
X273078D01*
X273158Y310771D01*
X273640Y310050D01*
X274362Y309567D01*
X275213Y309398D01*
X277575D01*
X278426Y309567D01*
X279147Y310050D01*
X279629Y310771D01*
X279799Y311622D01*
Y315165D01*
X279629Y316016D01*
X279147Y316738D01*
X278723Y317021D01*
X278868Y317500D01*
X283132D01*
X283277Y317021D01*
X282853Y316738D01*
X282371Y316016D01*
X282201Y315165D01*
Y311622D01*
X282349Y310878D01*
X282182Y310645D01*
X281890Y310450D01*
X281586Y310410D01*
X280735Y310057D01*
X280004Y309496D01*
X279443Y308765D01*
X279090Y307914D01*
X278970Y307000D01*
X279050Y306387D01*
X278721Y306011D01*
X275228D01*
X274377Y305842D01*
X273656Y305360D01*
X273174Y304638D01*
X273005Y303787D01*
Y301425D01*
X273174Y300574D01*
X273656Y299853D01*
X274377Y299371D01*
X275228Y299201D01*
X278772D01*
X279623Y299371D01*
X280344Y299853D01*
X280821Y300567D01*
X283776D01*
Y298142D01*
X283945Y297291D01*
X284427Y296569D01*
X285149Y296087D01*
X286000Y295918D01*
X286851Y296087D01*
X287213Y295546D01*
X287167Y295197D01*
X287287Y294283D01*
X287640Y293432D01*
X288201Y292701D01*
X288932Y292140D01*
X289783Y291787D01*
X290697Y291667D01*
X291611Y291787D01*
X292462Y292140D01*
X293193Y292701D01*
X293695Y293355D01*
X294000D01*
X294500Y293454D01*
X294735Y293013D01*
X289558Y287836D01*
X289116Y287174D01*
X288967Y286427D01*
X288945Y286394D01*
X288776Y285543D01*
Y279244D01*
X288945Y278393D01*
X288967Y278360D01*
X289047Y277960D01*
X289116Y277613D01*
X289558Y276952D01*
X292952Y273558D01*
X293613Y273116D01*
X294394Y272961D01*
X294394Y272961D01*
X327500D01*
Y271606D01*
X339500D01*
Y283606D01*
X327500D01*
Y277039D01*
X322134D01*
X321974Y277513D01*
X322556Y277960D01*
X323066Y278624D01*
X323387Y279398D01*
X323496Y280228D01*
Y281500D01*
X319105D01*
Y282500D01*
X323496D01*
Y283772D01*
X323387Y284602D01*
X323066Y285376D01*
X322556Y286040D01*
X321892Y286550D01*
X321894Y286565D01*
X322088Y286590D01*
X322939Y286943D01*
X323670Y287504D01*
X324231Y288235D01*
X324584Y289086D01*
X324704Y290000D01*
X324584Y290914D01*
X324231Y291765D01*
X323670Y292496D01*
X323213Y292847D01*
Y292946D01*
X323344Y293034D01*
X323826Y293755D01*
X323995Y294606D01*
Y295151D01*
X329282Y300437D01*
X329983Y299900D01*
X330956Y299497D01*
X332000Y299359D01*
X333044Y299497D01*
X334017Y299900D01*
X334853Y300541D01*
X335494Y301376D01*
X335897Y302349D01*
X336034Y303394D01*
X335897Y304438D01*
X335494Y305411D01*
X334853Y306246D01*
X334017Y306888D01*
X333044Y307291D01*
X332000Y307428D01*
X330956Y307291D01*
X329983Y306888D01*
X329147Y306246D01*
X328506Y305411D01*
X328404Y305164D01*
X327912Y304836D01*
X324809Y301732D01*
X324433Y302062D01*
X324550Y302215D01*
X324871Y302989D01*
X324980Y303819D01*
Y304500D01*
X320500D01*
Y300610D01*
X321772D01*
X322602Y300720D01*
X323376Y301040D01*
X323529Y301157D01*
X323858Y300781D01*
X322187Y299110D01*
X321772Y299192D01*
X318228D01*
X317377Y299023D01*
X316656Y298541D01*
X316178Y297827D01*
X313822D01*
X313344Y298541D01*
X312623Y299023D01*
X311772Y299192D01*
X308228D01*
X307377Y299023D01*
X306656Y298541D01*
X306178Y297827D01*
X305394D01*
X304613Y297671D01*
X303952Y297229D01*
X303501Y296779D01*
X303039Y296970D01*
Y297268D01*
X303055Y297291D01*
X303224Y298142D01*
Y304441D01*
X303055Y305292D01*
X303039Y305315D01*
Y312339D01*
X303046Y312348D01*
X303222Y312613D01*
X303378Y313394D01*
X303222Y314174D01*
X302799Y314809D01*
Y315165D01*
X302629Y316016D01*
X302147Y316738D01*
X301723Y317021D01*
X301868Y317500D01*
X304642D01*
X304863Y317052D01*
X304646Y316770D01*
X304326Y315996D01*
X304217Y315165D01*
Y313894D01*
X308607D01*
Y312894D01*
X304217D01*
Y311622D01*
X304326Y310792D01*
X304646Y310018D01*
X305156Y309353D01*
X305818Y308846D01*
X305883Y308350D01*
X305450Y307785D01*
X305129Y307012D01*
X305020Y306181D01*
Y305500D01*
X310001D01*
Y305001D01*
X310500D01*
Y300610D01*
X311772D01*
X312602Y300720D01*
X313376Y301040D01*
X314040Y301550D01*
X314550Y302215D01*
X314750Y302697D01*
X315250D01*
X315450Y302215D01*
X315960Y301550D01*
X316624Y301040D01*
X317398Y300720D01*
X318228Y300610D01*
X319500D01*
Y304999D01*
Y309390D01*
X320139D01*
X320041Y309880D01*
X320498Y310069D01*
X321438Y310791D01*
X322159Y311731D01*
X322613Y312825D01*
X322701Y313500D01*
X318227D01*
Y314500D01*
X322701D01*
X322613Y315175D01*
X322159Y316269D01*
X321438Y317209D01*
X321536Y317500D01*
X328000D01*
Y317394D01*
X328000D01*
Y309394D01*
X336000D01*
Y312961D01*
X366500D01*
X367280Y313116D01*
X367942Y313558D01*
X374442Y320058D01*
X374884Y320720D01*
X375039Y321500D01*
Y335042D01*
X375623Y335158D01*
X376344Y335640D01*
X376826Y336362D01*
X376995Y337213D01*
Y339575D01*
X376826Y340426D01*
X376344Y341147D01*
X375623Y341629D01*
X374772Y341799D01*
X371228D01*
X370377Y341629D01*
X369656Y341147D01*
X369174Y340426D01*
X369005Y339575D01*
Y337998D01*
X258387Y337894D01*
X258063Y338275D01*
X261000Y356000D01*
X268000Y386000D01*
X287500Y418000D01*
X303600Y434398D01*
X304063Y434209D01*
D02*
G37*
G36*
X306421Y293385D02*
X306656Y293034D01*
X307377Y292552D01*
X308228Y292383D01*
X310175D01*
X310396Y291934D01*
X310069Y291508D01*
X309616Y290413D01*
X309527Y289738D01*
X314001D01*
Y288738D01*
X309527D01*
X309616Y288064D01*
X309878Y287430D01*
X309643Y286989D01*
X309113Y286884D01*
X308452Y286442D01*
X307785Y285775D01*
X307436Y285542D01*
X306765Y286057D01*
X305914Y286410D01*
X305000Y286530D01*
X304086Y286410D01*
X303235Y286057D01*
X303055Y286394D01*
Y286394D01*
X303054Y286394D01*
X302572Y287116D01*
X301851Y287598D01*
X301000Y287767D01*
X300918Y287751D01*
X300682Y288192D01*
X305924Y293434D01*
X306421Y293385D01*
D02*
G37*
G36*
X500634Y412864D02*
X501756Y412524D01*
X502789Y411971D01*
X503651Y411265D01*
X503686Y411218D01*
X505952Y408952D01*
X505952Y408952D01*
X505955Y408950D01*
X505955Y408950D01*
X505997Y408917D01*
X506514Y408243D01*
X506861Y407405D01*
X506973Y406560D01*
X506965Y406506D01*
X506964D01*
X507107Y404693D01*
X507532Y402924D01*
X508228Y401243D01*
X509178Y399692D01*
X510360Y398309D01*
X510357Y398306D01*
X512196Y396692D01*
X514231Y395333D01*
X516426Y394250D01*
X518744Y393464D01*
X521144Y392986D01*
X523586Y392826D01*
Y392832D01*
X523926D01*
X524519Y391401D01*
X525505Y389791D01*
X526732Y388355D01*
X528168Y387128D01*
X529779Y386141D01*
X531524Y385418D01*
X531965Y385312D01*
Y377189D01*
X530358D01*
Y364921D01*
X541642D01*
Y377189D01*
X540034D01*
Y385862D01*
X540708Y386141D01*
X542319Y387128D01*
X543755Y388355D01*
X544982Y389791D01*
X545969Y391401D01*
X546692Y393146D01*
X547133Y394983D01*
X547281Y396866D01*
X547133Y398749D01*
X547095Y398905D01*
X547549Y399115D01*
X548000Y398500D01*
X557000Y383000D01*
X561500Y361500D01*
X565000Y338000D01*
Y313500D01*
X561500Y287500D01*
X553500Y263500D01*
X552371Y261649D01*
X551890Y261784D01*
Y267362D01*
X530063D01*
Y268558D01*
X531244D01*
Y270244D01*
X551890D01*
Y281138D01*
Y297862D01*
X530063D01*
Y300744D01*
X551890D01*
Y311638D01*
Y328362D01*
X530063D01*
Y331244D01*
X551890D01*
Y344970D01*
X552363Y345131D01*
X552791Y344574D01*
X553731Y343853D01*
X554825Y343399D01*
X555500Y343310D01*
Y347283D01*
X551890D01*
Y347969D01*
X551486D01*
X551485Y347969D01*
X547039D01*
Y348000D01*
Y352945D01*
X546884Y354513D01*
X546427Y356021D01*
X545684Y357411D01*
X545642Y357462D01*
Y363079D01*
X529362D01*
Y374890D01*
X512638D01*
Y352642D01*
X509756D01*
Y374890D01*
X509039D01*
Y391858D01*
X509039Y391858D01*
X508884Y393426D01*
X508427Y394934D01*
X507684Y396324D01*
X506684Y397542D01*
X506684Y397542D01*
X501479Y402747D01*
X501335Y403223D01*
X502017Y403506D01*
X502853Y404147D01*
X503494Y404983D01*
X503897Y405956D01*
X504035Y407000D01*
X503897Y408044D01*
X503494Y409017D01*
X502853Y409853D01*
X502017Y410494D01*
X501044Y410897D01*
X500000Y411034D01*
X498956Y410897D01*
X497983Y410494D01*
X497147Y409853D01*
X496506Y409017D01*
X496223Y408335D01*
X494693Y408799D01*
X492929Y408973D01*
X491165Y408799D01*
X489635Y408335D01*
X489352Y409017D01*
X488711Y409853D01*
X487875Y410494D01*
X486902Y410897D01*
X485858Y411034D01*
X484814Y410897D01*
X483841Y410494D01*
X483005Y409853D01*
X482364Y409017D01*
X481961Y408044D01*
X481823Y407000D01*
X481961Y405956D01*
X482364Y404983D01*
X483005Y404147D01*
X483841Y403506D01*
X484523Y403223D01*
X484059Y401693D01*
X483885Y399929D01*
X484059Y398165D01*
X484574Y396468D01*
X485409Y394905D01*
X486534Y393534D01*
X487905Y392409D01*
X489468Y391574D01*
X490110Y391379D01*
X492961Y388528D01*
Y364480D01*
X492890D01*
Y364480D01*
X488034D01*
Y383000D01*
X487897Y384044D01*
X487730Y384447D01*
X487494Y385017D01*
X486853Y385853D01*
X486853Y385853D01*
X476547Y396159D01*
Y406912D01*
X476853Y407147D01*
X482671Y412965D01*
X499468D01*
X499526Y412973D01*
X500634Y412864D01*
D02*
G37*
G36*
X413220Y470965D02*
X429130D01*
X429231Y470979D01*
X431287Y470844D01*
X433407Y470422D01*
X433522Y470383D01*
X433441Y469890D01*
X417563D01*
Y464503D01*
X417114Y464282D01*
X416269Y464931D01*
X415175Y465384D01*
X414000Y465539D01*
X412825Y465384D01*
X411923Y465010D01*
X411526Y465315D01*
X411473Y464910D01*
X407500D01*
Y460937D01*
X408175Y461026D01*
X409077Y461400D01*
X409474Y461095D01*
X409461Y461000D01*
X409616Y459825D01*
X410069Y458731D01*
X410791Y457791D01*
X411731Y457069D01*
X412825Y456616D01*
X412926Y456603D01*
X412978Y456204D01*
X412974Y456172D01*
Y455617D01*
X412501Y455456D01*
X412040Y456056D01*
X411376Y456566D01*
X410602Y456887D01*
X409772Y456996D01*
X408500D01*
Y452605D01*
X408001D01*
Y452106D01*
X403020D01*
Y451425D01*
X403129Y450595D01*
X403450Y449821D01*
X403960Y449156D01*
X404624Y448646D01*
X405398Y448326D01*
X405975Y448250D01*
Y447750D01*
X405398Y447674D01*
X404624Y447354D01*
X404208Y447035D01*
X403000D01*
X403000Y447035D01*
X401956Y446897D01*
X400983Y446494D01*
X400147Y445853D01*
X390575Y436280D01*
X389731Y435931D01*
X388791Y435209D01*
X388069Y434269D01*
X387616Y433175D01*
X387461Y432000D01*
X387572Y431160D01*
Y423827D01*
X386547D01*
Y412035D01*
X383953D01*
Y417390D01*
X374047D01*
Y412035D01*
X366953D01*
Y412035D01*
Y412063D01*
X366953Y412388D01*
X366953Y412388D01*
X366953D01*
Y423937D01*
X366035D01*
Y429981D01*
X366384Y430825D01*
X366539Y432000D01*
X366384Y433175D01*
X365931Y434269D01*
X365209Y435209D01*
X364269Y435931D01*
X363175Y436384D01*
X362000Y436539D01*
X361160Y436428D01*
X348471D01*
X347878Y436674D01*
X347301Y436750D01*
Y437250D01*
X347878Y437326D01*
X348652Y437646D01*
X349316Y438156D01*
X349826Y438821D01*
X350147Y439595D01*
X350256Y440425D01*
Y441106D01*
X340295D01*
Y440425D01*
X340405Y439595D01*
X340725Y438821D01*
X341235Y438156D01*
X341900Y437646D01*
X342673Y437326D01*
X343251Y437250D01*
Y436750D01*
X342673Y436674D01*
X341900Y436353D01*
X341235Y435844D01*
X340725Y435179D01*
X340405Y434405D01*
X340295Y433575D01*
Y431213D01*
X340405Y430382D01*
X340725Y429608D01*
X341235Y428944D01*
X341900Y428434D01*
X342673Y428113D01*
X343504Y428004D01*
X347047D01*
X347878Y428113D01*
X348471Y428359D01*
X357965D01*
Y423937D01*
X357047D01*
Y412388D01*
X357047Y412388D01*
X357047D01*
X357047Y412063D01*
X357019Y412035D01*
X354453D01*
Y412035D01*
Y412063D01*
X354453Y412388D01*
X354453Y412388D01*
X354453D01*
Y417500D01*
X344547D01*
Y412388D01*
X344547Y412388D01*
X344547D01*
X344547Y412063D01*
X344519Y412035D01*
X332000D01*
X330956Y411897D01*
X329983Y411494D01*
X329147Y410853D01*
X312496Y394202D01*
X312035Y394393D01*
Y416618D01*
X315937D01*
Y434001D01*
X335761Y453825D01*
X335796Y453871D01*
X336657Y454577D01*
X337691Y455130D01*
X338812Y455470D01*
X339921Y455579D01*
X339979Y455572D01*
X341805D01*
X342398Y455326D01*
X342975Y455250D01*
Y454750D01*
X342398Y454674D01*
X341624Y454354D01*
X340960Y453844D01*
X340872Y453730D01*
X339219Y453045D01*
X337516Y452001D01*
X335996Y450704D01*
X335996Y450704D01*
X336000Y450700D01*
X330076Y444776D01*
X330070Y444783D01*
X328639Y443107D01*
X327487Y441228D01*
X326644Y439192D01*
X326130Y437049D01*
X325998Y435382D01*
X324063D01*
Y416618D01*
X335937D01*
Y435382D01*
X334446D01*
X334110Y435752D01*
X334136Y436019D01*
X334476Y437141D01*
X335029Y438174D01*
X335736Y439035D01*
X335782Y439071D01*
X339866Y443155D01*
X340315Y442934D01*
X340295Y442787D01*
Y442106D01*
X350256D01*
Y442787D01*
X350147Y443618D01*
X349826Y444392D01*
X349316Y445056D01*
X348652Y445566D01*
X347878Y445887D01*
X347234Y445971D01*
Y445971D01*
X347234Y445971D01*
X347047Y445996D01*
Y446040D01*
X347602Y446113D01*
X348196Y446359D01*
X376252D01*
Y446350D01*
X378448Y446523D01*
X380591Y447038D01*
X382627Y447881D01*
X384506Y449032D01*
X386182Y450464D01*
X386175Y450470D01*
X393206Y457500D01*
X396500D01*
Y460794D01*
X401891Y466185D01*
X402390Y466165D01*
X402538Y465993D01*
X402527Y465910D01*
X411473D01*
X411384Y466585D01*
X410931Y467679D01*
X410209Y468619D01*
X409269Y469341D01*
X408175Y469794D01*
X408129Y470143D01*
X408324Y470223D01*
X410742Y470804D01*
X413062Y470986D01*
X413220Y470965D01*
D02*
G37*
%LPC*%
G36*
X379980Y310500D02*
X375500D01*
Y306610D01*
X376772D01*
X377602Y306720D01*
X378376Y307040D01*
X379040Y307550D01*
X379550Y308215D01*
X379871Y308988D01*
X379980Y309819D01*
Y310500D01*
D02*
G37*
G36*
X374500D02*
X370020D01*
Y309819D01*
X370129Y308988D01*
X370450Y308215D01*
X370960Y307550D01*
X371624Y307040D01*
X372398Y306720D01*
X373228Y306610D01*
X374500D01*
Y310500D01*
D02*
G37*
G36*
X321772Y309390D02*
X320500D01*
Y305500D01*
X324980D01*
Y306181D01*
X324871Y307012D01*
X324550Y307785D01*
X324040Y308450D01*
X323376Y308960D01*
X322602Y309280D01*
X321772Y309390D01*
D02*
G37*
G36*
X374500Y315390D02*
X373228D01*
X372398Y315280D01*
X371624Y314960D01*
X370960Y314450D01*
X370450Y313785D01*
X370129Y313012D01*
X370020Y312181D01*
Y311500D01*
X374500D01*
Y315390D01*
D02*
G37*
G36*
X376772D02*
X375500D01*
Y311500D01*
X379980D01*
Y312181D01*
X379871Y313012D01*
X379550Y313785D01*
X379040Y314450D01*
X378376Y314960D01*
X377602Y315280D01*
X376772Y315390D01*
D02*
G37*
G36*
X345500Y310728D02*
X344861Y310644D01*
X343800Y310204D01*
X342889Y309505D01*
X342190Y308594D01*
X341750Y307533D01*
X341666Y306894D01*
X345500D01*
Y310728D01*
D02*
G37*
G36*
X346500D02*
Y306894D01*
X350334D01*
X350250Y307533D01*
X349810Y308594D01*
X349111Y309505D01*
X348200Y310204D01*
X347139Y310644D01*
X346500Y310728D01*
D02*
G37*
G36*
X392224Y297500D02*
X388756D01*
Y294327D01*
X392224D01*
Y297500D01*
D02*
G37*
G36*
Y301673D02*
X388756D01*
Y298500D01*
X392224D01*
Y301673D01*
D02*
G37*
G36*
X278772Y297783D02*
X277500D01*
Y293894D01*
X281980D01*
Y294575D01*
X281871Y295405D01*
X281550Y296179D01*
X281040Y296844D01*
X280376Y297354D01*
X279602Y297674D01*
X278772Y297783D01*
D02*
G37*
G36*
X386244Y296933D02*
X380307D01*
Y294524D01*
X379937Y294188D01*
X379788Y294203D01*
X379360Y294844D01*
X378638Y295326D01*
X377787Y295496D01*
X375425D01*
X374574Y295326D01*
X373853Y294844D01*
X373371Y294123D01*
X373201Y293272D01*
Y289728D01*
X373371Y288877D01*
X373853Y288156D01*
X374574Y287674D01*
X375425Y287505D01*
X377787D01*
X378638Y287674D01*
X379360Y288156D01*
X379842Y288877D01*
X379958Y289461D01*
X380516D01*
X381296Y289616D01*
X381958Y290058D01*
X383486Y291587D01*
X386244D01*
Y296933D01*
D02*
G37*
G36*
X345500Y305894D02*
X341666D01*
X341750Y305255D01*
X342190Y304194D01*
X342889Y303282D01*
X343800Y302583D01*
X344861Y302144D01*
X345500Y302060D01*
Y305894D01*
D02*
G37*
G36*
X356000Y309420D02*
X355217Y309316D01*
X354487Y309014D01*
X353860Y308533D01*
X353380Y307907D01*
X353077Y307177D01*
X352985Y306475D01*
X349567Y303058D01*
X349488Y303127D01*
X349191Y303387D01*
X349810Y304194D01*
X350250Y305255D01*
X350334Y305894D01*
X346500D01*
Y302060D01*
X347139Y302144D01*
X348200Y302583D01*
X349007Y303202D01*
X349007Y303202D01*
D01*
X349336Y302826D01*
X341943Y295433D01*
X335477D01*
X334853Y296247D01*
X334017Y296888D01*
X333044Y297291D01*
X332000Y297428D01*
X330956Y297291D01*
X329983Y296888D01*
X329147Y296247D01*
X328506Y295411D01*
X328103Y294438D01*
X327965Y293394D01*
X328103Y292350D01*
X328506Y291376D01*
X329147Y290541D01*
X329983Y289900D01*
X330956Y289497D01*
X332000Y289359D01*
X333044Y289497D01*
X334017Y289900D01*
X334853Y290541D01*
X335477Y291354D01*
X342787D01*
X343568Y291510D01*
X344229Y291952D01*
X355687Y303409D01*
X356000Y303368D01*
X356783Y303471D01*
X357513Y303773D01*
X358140Y304254D01*
X358621Y304881D01*
X358923Y305610D01*
X359026Y306394D01*
X358923Y307177D01*
X358621Y307907D01*
X358140Y308533D01*
X357513Y309014D01*
X356783Y309316D01*
X356000Y309420D01*
D02*
G37*
G36*
X376772Y305192D02*
X373228D01*
X372377Y305023D01*
X371656Y304541D01*
X371174Y303819D01*
X371005Y302969D01*
Y300606D01*
X371174Y299755D01*
X371656Y299034D01*
X372377Y298552D01*
X373228Y298382D01*
X376772D01*
X377623Y298552D01*
X378344Y299034D01*
X378790Y299701D01*
X380307D01*
Y299067D01*
X386244D01*
Y304413D01*
X380307D01*
Y303779D01*
X378834D01*
X378826Y303819D01*
X378344Y304541D01*
X377623Y305023D01*
X376772Y305192D01*
D02*
G37*
G36*
X309500Y304500D02*
X305020D01*
Y303819D01*
X305129Y302989D01*
X305450Y302215D01*
X305960Y301550D01*
X306624Y301040D01*
X307398Y300720D01*
X308228Y300610D01*
X309500D01*
Y304500D01*
D02*
G37*
G36*
X422980Y315500D02*
X418500D01*
Y311610D01*
X419772D01*
X420602Y311720D01*
X421376Y312040D01*
X422040Y312550D01*
X422550Y313215D01*
X422871Y313988D01*
X422980Y314819D01*
Y315500D01*
D02*
G37*
G36*
X560473Y347283D02*
X556500D01*
Y343310D01*
X557175Y343399D01*
X558269Y343853D01*
X559209Y344574D01*
X559931Y345514D01*
X560384Y346609D01*
X560473Y347283D01*
D02*
G37*
G36*
X294000Y352034D02*
X292956Y351897D01*
X291983Y351494D01*
X291147Y350853D01*
X290506Y350017D01*
X290103Y349044D01*
X289966Y348000D01*
X290103Y346956D01*
X290506Y345983D01*
X291147Y345147D01*
X291983Y344506D01*
X292956Y344103D01*
X294000Y343966D01*
X295044Y344103D01*
X296017Y344506D01*
X296853Y345147D01*
X297494Y345983D01*
X297897Y346956D01*
X298035Y348000D01*
X297897Y349044D01*
X297494Y350017D01*
X296853Y350853D01*
X296017Y351494D01*
X295044Y351897D01*
X294000Y352034D01*
D02*
G37*
G36*
X313500Y347500D02*
X309023D01*
X309129Y346695D01*
X309632Y345478D01*
X310434Y344434D01*
X311478Y343633D01*
X312695Y343129D01*
X313500Y343023D01*
Y347500D01*
D02*
G37*
G36*
X338977D02*
X334500D01*
Y343023D01*
X335305Y343129D01*
X336522Y343633D01*
X337566Y344434D01*
X338368Y345478D01*
X338871Y346695D01*
X338977Y347500D01*
D02*
G37*
G36*
X344000Y352034D02*
X342956Y351897D01*
X341983Y351494D01*
X341147Y350853D01*
X340506Y350017D01*
X340103Y349044D01*
X339966Y348000D01*
X340103Y346956D01*
X340506Y345983D01*
X341147Y345147D01*
X341983Y344506D01*
X342956Y344103D01*
X344000Y343966D01*
X345044Y344103D01*
X346017Y344506D01*
X346853Y345147D01*
X347175Y345567D01*
X369179D01*
X369656Y344853D01*
X370377Y344371D01*
X371228Y344201D01*
X374772D01*
X375623Y344371D01*
X376344Y344853D01*
X376826Y345574D01*
X376995Y346425D01*
Y348787D01*
X376826Y349638D01*
X376344Y350360D01*
X375623Y350842D01*
X374772Y351011D01*
X371228D01*
X370377Y350842D01*
X369656Y350360D01*
X369179Y349645D01*
X347648D01*
X347494Y350017D01*
X346853Y350853D01*
X346017Y351494D01*
X345044Y351897D01*
X344000Y352034D01*
D02*
G37*
G36*
X555500Y352256D02*
X554825Y352168D01*
X553731Y351714D01*
X552791Y350993D01*
X552069Y350053D01*
X551616Y348958D01*
X551527Y348283D01*
X555500D01*
Y352256D01*
D02*
G37*
G36*
X304000Y352034D02*
X302956Y351897D01*
X301983Y351494D01*
X301147Y350853D01*
X300506Y350017D01*
X300103Y349044D01*
X299966Y348000D01*
X300103Y346956D01*
X300506Y345983D01*
X301147Y345147D01*
X301983Y344506D01*
X302956Y344103D01*
X304000Y343966D01*
X305044Y344103D01*
X306017Y344506D01*
X306853Y345147D01*
X307494Y345983D01*
X307897Y346956D01*
X308034Y348000D01*
X307897Y349044D01*
X307494Y350017D01*
X306853Y350853D01*
X306017Y351494D01*
X305044Y351897D01*
X304000Y352034D01*
D02*
G37*
G36*
X386500Y347996D02*
X385228D01*
X384398Y347887D01*
X383624Y347566D01*
X382960Y347056D01*
X382450Y346392D01*
X382129Y345618D01*
X382020Y344787D01*
Y344106D01*
X386500D01*
Y347996D01*
D02*
G37*
G36*
X447500Y325726D02*
Y321753D01*
X451473D01*
X451384Y322428D01*
X450931Y323522D01*
X450209Y324462D01*
X449269Y325184D01*
X448175Y325637D01*
X447500Y325726D01*
D02*
G37*
G36*
X446500Y320753D02*
X442527D01*
X442616Y320078D01*
X443069Y318983D01*
X443791Y318043D01*
X444731Y317322D01*
X445825Y316869D01*
X446500Y316780D01*
Y320753D01*
D02*
G37*
G36*
X451473D02*
X447500D01*
Y316780D01*
X448175Y316869D01*
X449269Y317322D01*
X450209Y318043D01*
X450931Y318983D01*
X451384Y320078D01*
X451473Y320753D01*
D02*
G37*
G36*
X466831Y316473D02*
X466156Y316384D01*
X465061Y315931D01*
X464121Y315209D01*
X463400Y314269D01*
X462947Y313175D01*
X462858Y312500D01*
X466831D01*
Y316473D01*
D02*
G37*
G36*
X441996Y317500D02*
X438106D01*
Y313020D01*
X438787D01*
X439618Y313129D01*
X440392Y313450D01*
X441056Y313960D01*
X441566Y314624D01*
X441887Y315398D01*
X441996Y316228D01*
Y317500D01*
D02*
G37*
G36*
X465374Y322894D02*
X460894D01*
Y319004D01*
X462165D01*
X462996Y319113D01*
X463770Y319434D01*
X464434Y319944D01*
X464944Y320608D01*
X465265Y321382D01*
X465374Y322213D01*
Y322894D01*
D02*
G37*
G36*
X446500Y325726D02*
X445825Y325637D01*
X444731Y325184D01*
X443791Y324462D01*
X443069Y323522D01*
X442616Y322428D01*
X442527Y321753D01*
X446500D01*
Y325726D01*
D02*
G37*
G36*
X438787Y322980D02*
X438106D01*
Y318500D01*
X441996D01*
Y319772D01*
X441887Y320602D01*
X441566Y321376D01*
X441056Y322040D01*
X440392Y322550D01*
X439618Y322871D01*
X438787Y322980D01*
D02*
G37*
G36*
X459894Y322894D02*
X455413D01*
Y322213D01*
X455523Y321382D01*
X455843Y320608D01*
X456353Y319944D01*
X457018Y319434D01*
X457792Y319113D01*
X458622Y319004D01*
X459894D01*
Y322894D01*
D02*
G37*
G36*
X276500Y297783D02*
X275228D01*
X274398Y297674D01*
X273624Y297354D01*
X272960Y296844D01*
X272450Y296179D01*
X272129Y295405D01*
X272020Y294575D01*
Y293894D01*
X276500D01*
Y297783D01*
D02*
G37*
G36*
X351958Y217894D02*
X347986D01*
Y213921D01*
X348660Y214009D01*
X349755Y214463D01*
X350695Y215184D01*
X351416Y216124D01*
X351870Y217219D01*
X351958Y217894D01*
D02*
G37*
G36*
X346986Y222867D02*
X346311Y222778D01*
X345216Y222324D01*
X344276Y221603D01*
X343555Y220663D01*
X343101Y219568D01*
X343012Y218894D01*
X346986D01*
Y222867D01*
D02*
G37*
G36*
X326772Y206783D02*
X325500D01*
Y202894D01*
X329980D01*
Y203575D01*
X329871Y204405D01*
X329550Y205179D01*
X329040Y205844D01*
X328376Y206353D01*
X327602Y206674D01*
X326772Y206783D01*
D02*
G37*
G36*
X346986Y217894D02*
X343012D01*
X343101Y217219D01*
X343555Y216124D01*
X344276Y215184D01*
X345216Y214463D01*
X346311Y214009D01*
X346986Y213921D01*
Y217894D01*
D02*
G37*
G36*
X292787Y246351D02*
X288898D01*
Y245079D01*
X289007Y244249D01*
X289328Y243475D01*
X289838Y242811D01*
X290502Y242301D01*
X291276Y241980D01*
X292106Y241871D01*
X292787D01*
Y246351D01*
D02*
G37*
G36*
X297677D02*
X293787D01*
Y241871D01*
X294468D01*
X295299Y241980D01*
X296073Y242301D01*
X296737Y242811D01*
X297247Y243475D01*
X297568Y244249D01*
X297677Y245079D01*
Y246351D01*
D02*
G37*
G36*
X347986Y222867D02*
Y218894D01*
X351958D01*
X351870Y219568D01*
X351416Y220663D01*
X350695Y221603D01*
X349755Y222324D01*
X348660Y222778D01*
X347986Y222867D01*
D02*
G37*
G36*
X364576Y226000D02*
X351597D01*
X351641Y225670D01*
X351961Y224896D01*
X352471Y224231D01*
X353136Y223721D01*
X353265Y223668D01*
X353314Y223170D01*
X353168Y223073D01*
X352686Y222351D01*
X352516Y221500D01*
X352686Y220649D01*
X353168Y219928D01*
X353889Y219445D01*
X354740Y219276D01*
X361433D01*
X362284Y219445D01*
X363006Y219928D01*
X363488Y220649D01*
X363657Y221500D01*
X363488Y222351D01*
X363006Y223073D01*
X362859Y223170D01*
X362908Y223668D01*
X363037Y223721D01*
X363702Y224231D01*
X364212Y224896D01*
X364532Y225670D01*
X364576Y226000D01*
D02*
G37*
G36*
X337772Y202043D02*
X336500D01*
Y198153D01*
X340980D01*
Y198835D01*
X340871Y199665D01*
X340550Y200439D01*
X340040Y201103D01*
X339376Y201613D01*
X338602Y201934D01*
X337772Y202043D01*
D02*
G37*
G36*
X381740Y204391D02*
X380862Y204276D01*
X380045Y203937D01*
X379342Y203398D01*
X378803Y202696D01*
X378465Y201878D01*
X378349Y201000D01*
X378465Y200122D01*
X378714Y199519D01*
Y187091D01*
X378711D01*
X378826Y185923D01*
X379167Y184800D01*
X379201Y184736D01*
Y183228D01*
X379371Y182377D01*
X379853Y181656D01*
X380574Y181174D01*
X381425Y181005D01*
X383787D01*
X384638Y181174D01*
X385360Y181656D01*
X385842Y182377D01*
X386011Y183228D01*
Y186772D01*
X385842Y187623D01*
X385360Y188344D01*
X384766Y188741D01*
Y199519D01*
X385016Y200122D01*
X385131Y201000D01*
X385016Y201878D01*
X384677Y202696D01*
X384138Y203398D01*
X383436Y203937D01*
X382618Y204276D01*
X381740Y204391D01*
D02*
G37*
G36*
X354783Y190500D02*
X350894D01*
Y186020D01*
X351575D01*
X352405Y186129D01*
X353179Y186450D01*
X353844Y186960D01*
X354353Y187624D01*
X354674Y188398D01*
X354783Y189228D01*
Y190500D01*
D02*
G37*
G36*
X442500Y179500D02*
X438527D01*
X438616Y178825D01*
X439069Y177731D01*
X439791Y176791D01*
X440731Y176069D01*
X441825Y175616D01*
X442500Y175527D01*
Y179500D01*
D02*
G37*
G36*
X447473D02*
X443500D01*
Y175527D01*
X444175Y175616D01*
X445269Y176069D01*
X446209Y176791D01*
X446931Y177731D01*
X447384Y178825D01*
X447473Y179500D01*
D02*
G37*
G36*
X340980Y197153D02*
X336500D01*
Y193264D01*
X337772D01*
X338602Y193373D01*
X339376Y193694D01*
X340040Y194204D01*
X340550Y194868D01*
X340871Y195642D01*
X340980Y196472D01*
Y197153D01*
D02*
G37*
G36*
X335500Y202043D02*
X334228D01*
X333398Y201934D01*
X332624Y201613D01*
X331960Y201103D01*
X331450Y200439D01*
X331129Y199665D01*
X331020Y198835D01*
Y198153D01*
X335500D01*
Y202043D01*
D02*
G37*
G36*
X349894Y195980D02*
X349213D01*
X348382Y195871D01*
X347608Y195550D01*
X346944Y195040D01*
X346434Y194376D01*
X346113Y193602D01*
X346004Y192772D01*
Y191500D01*
X349894D01*
Y195980D01*
D02*
G37*
G36*
X351575D02*
X350894D01*
Y191500D01*
X354783D01*
Y192772D01*
X354674Y193602D01*
X354353Y194376D01*
X353844Y195040D01*
X353179Y195550D01*
X352405Y195871D01*
X351575Y195980D01*
D02*
G37*
G36*
X292787Y251831D02*
X292106D01*
X291276Y251722D01*
X290502Y251401D01*
X289838Y250891D01*
X289328Y250227D01*
X289007Y249453D01*
X288898Y248623D01*
Y247351D01*
X292787D01*
Y251831D01*
D02*
G37*
G36*
X361007Y268980D02*
X360326D01*
X359495Y268871D01*
X358721Y268550D01*
X358057Y268040D01*
X357547Y267376D01*
X357226Y266602D01*
X357117Y265772D01*
Y264500D01*
X361007D01*
Y268980D01*
D02*
G37*
G36*
X362688D02*
X362007D01*
Y264500D01*
X365896D01*
Y265772D01*
X365787Y266602D01*
X365466Y267376D01*
X364956Y268040D01*
X364292Y268550D01*
X363518Y268871D01*
X362688Y268980D01*
D02*
G37*
G36*
X372187Y266107D02*
Y262134D01*
X376160D01*
X376071Y262809D01*
X375618Y263903D01*
X374897Y264843D01*
X373956Y265565D01*
X372862Y266018D01*
X372187Y266107D01*
D02*
G37*
G36*
X275539Y268019D02*
X274864Y267930D01*
X273769Y267476D01*
X272830Y266755D01*
X272108Y265815D01*
X271655Y264720D01*
X271566Y264046D01*
X275539D01*
Y268019D01*
D02*
G37*
G36*
X276500Y292894D02*
X272020D01*
Y292213D01*
X272129Y291382D01*
X272450Y290608D01*
X272960Y289944D01*
X273624Y289434D01*
X274398Y289113D01*
X275228Y289004D01*
X276500D01*
Y292894D01*
D02*
G37*
G36*
X281980D02*
X277500D01*
Y289004D01*
X278772D01*
X279602Y289113D01*
X280376Y289434D01*
X281040Y289944D01*
X281550Y290608D01*
X281871Y291382D01*
X281980Y292213D01*
Y292894D01*
D02*
G37*
G36*
X276772Y276192D02*
X273228D01*
X272377Y276023D01*
X271656Y275541D01*
X271174Y274819D01*
X271005Y273969D01*
Y271606D01*
X271174Y270755D01*
X271656Y270034D01*
X272377Y269552D01*
X273228Y269383D01*
X275521D01*
X276105Y268798D01*
X276537Y268510D01*
X276361Y268042D01*
X276539Y268019D01*
Y263545D01*
Y259072D01*
X277214Y259161D01*
X278308Y259615D01*
X279248Y260336D01*
X279546Y260724D01*
X280020Y260564D01*
Y260894D01*
X284500D01*
Y264783D01*
X283228D01*
X282398Y264674D01*
X281624Y264353D01*
X280974Y263855D01*
X280912Y263880D01*
X280491Y264203D01*
X280423Y264720D01*
X279970Y265815D01*
X279248Y266755D01*
X278308Y267476D01*
X277472Y267823D01*
X277547Y268201D01*
X281049D01*
X281174Y267574D01*
X281656Y266853D01*
X282377Y266371D01*
X283228Y266201D01*
X286772D01*
X287623Y266371D01*
X288344Y266853D01*
X288826Y267574D01*
X288951Y268201D01*
X290807D01*
Y268059D01*
X297925D01*
Y272421D01*
X290807D01*
Y272279D01*
X288398D01*
X288344Y272360D01*
X287623Y272842D01*
X286772Y273011D01*
X283228D01*
X282377Y272842D01*
X281656Y272360D01*
X281602Y272279D01*
X278995D01*
Y273969D01*
X278826Y274819D01*
X278344Y275541D01*
X277623Y276023D01*
X276772Y276192D01*
D02*
G37*
G36*
X356000Y299420D02*
X355217Y299317D01*
X354487Y299014D01*
X353860Y298533D01*
X353380Y297907D01*
X353077Y297177D01*
X352974Y296394D01*
X353077Y295610D01*
X353380Y294881D01*
X353860Y294254D01*
X354487Y293773D01*
X355217Y293471D01*
X356000Y293368D01*
X356125Y293384D01*
X359452Y290058D01*
X360113Y289616D01*
X360894Y289461D01*
X360894Y289461D01*
X364042D01*
X364158Y288877D01*
X364640Y288156D01*
X365362Y287674D01*
X366213Y287505D01*
X368575D01*
X369426Y287674D01*
X370147Y288156D01*
X370629Y288877D01*
X370799Y289728D01*
Y293272D01*
X370629Y294123D01*
X370147Y294844D01*
X369426Y295326D01*
X368575Y295496D01*
X366213D01*
X365362Y295326D01*
X364640Y294844D01*
X364158Y294123D01*
X364042Y293539D01*
X361738D01*
X359009Y296268D01*
X359026Y296394D01*
X358923Y297177D01*
X358621Y297907D01*
X358140Y298533D01*
X357513Y299014D01*
X356783Y299317D01*
X356000Y299420D01*
D02*
G37*
G36*
X371187Y266107D02*
X370512Y266018D01*
X369418Y265565D01*
X368478Y264843D01*
X367756Y263903D01*
X367303Y262809D01*
X367214Y262134D01*
X371187D01*
Y266107D01*
D02*
G37*
G36*
X284500Y259894D02*
X280020D01*
Y259213D01*
X280129Y258382D01*
X280450Y257608D01*
X280960Y256944D01*
X281624Y256434D01*
X282398Y256113D01*
X283228Y256004D01*
X284500D01*
Y259894D01*
D02*
G37*
G36*
X289980D02*
X285500D01*
Y256004D01*
X286772D01*
X287602Y256113D01*
X288376Y256434D01*
X289040Y256944D01*
X289550Y257608D01*
X289871Y258382D01*
X289980Y259213D01*
Y259894D01*
D02*
G37*
G36*
X294468Y251831D02*
X293787D01*
Y247351D01*
X297677D01*
Y248623D01*
X297568Y249453D01*
X297247Y250227D01*
X296737Y250891D01*
X296073Y251401D01*
X295299Y251722D01*
X294468Y251831D01*
D02*
G37*
G36*
X306193Y268681D02*
X299075D01*
Y264319D01*
X300595D01*
Y262478D01*
X300558Y262442D01*
X300116Y261780D01*
X299961Y261000D01*
X300116Y260220D01*
X300461Y259704D01*
Y250673D01*
X299746Y250195D01*
X299264Y249474D01*
X299095Y248623D01*
Y245079D01*
X299264Y244228D01*
X299746Y243507D01*
X300353Y243102D01*
X300402Y242604D01*
X296452Y238654D01*
X296010Y237992D01*
X295982Y237850D01*
X295862Y237826D01*
X295140Y237344D01*
X294658Y236623D01*
X294489Y235772D01*
Y232228D01*
X294658Y231377D01*
X295140Y230656D01*
X295862Y230174D01*
X296713Y230005D01*
X299075D01*
X299926Y230174D01*
X300647Y230656D01*
X301129Y231377D01*
X301299Y232228D01*
Y235772D01*
X301129Y236623D01*
X300752Y237187D01*
X303942Y240376D01*
X304384Y241038D01*
X304539Y241818D01*
Y243029D01*
X305254Y243507D01*
X305736Y244228D01*
X305905Y245079D01*
Y248623D01*
X305736Y249474D01*
X305254Y250195D01*
X304539Y250673D01*
Y258961D01*
X312948D01*
X312981Y258462D01*
X312586Y258410D01*
X311735Y258057D01*
X311004Y257496D01*
X310443Y256765D01*
X310090Y255914D01*
X309970Y255000D01*
X310090Y254086D01*
X310443Y253235D01*
X311004Y252504D01*
X311735Y251943D01*
X312586Y251590D01*
X312961Y251541D01*
Y247000D01*
X313116Y246220D01*
X313558Y245558D01*
X314558Y244558D01*
X315220Y244116D01*
X316000Y243961D01*
X317257D01*
X317418Y243487D01*
X317133Y243269D01*
X316623Y242604D01*
X316302Y241830D01*
X316193Y241000D01*
X316302Y240170D01*
X316616Y239412D01*
X316263Y239058D01*
X315414Y239410D01*
X314500Y239530D01*
X313586Y239410D01*
X312735Y239057D01*
X312004Y238496D01*
X311647Y238031D01*
X311606Y238039D01*
X310826Y237884D01*
X310164Y237442D01*
X310048Y237326D01*
X309860Y237344D01*
X309138Y237826D01*
X308287Y237996D01*
X305925D01*
X305074Y237826D01*
X304353Y237344D01*
X303871Y236623D01*
X303701Y235772D01*
Y232228D01*
X303871Y231377D01*
X304353Y230656D01*
X305074Y230174D01*
X305925Y230005D01*
X308287D01*
X308687Y230084D01*
X309052Y229742D01*
X309020Y229500D01*
X313494D01*
Y228500D01*
X309020D01*
X309109Y227825D01*
X309562Y226731D01*
X310283Y225791D01*
X310697Y225473D01*
X310536Y225000D01*
X310000D01*
Y217000D01*
X318000D01*
Y225000D01*
X316450D01*
X316289Y225473D01*
X316702Y225791D01*
X317424Y226731D01*
X317870Y227808D01*
X318332Y228000D01*
X318571Y227901D01*
X319402Y227791D01*
X322051D01*
Y231001D01*
X323051D01*
Y227791D01*
X325701D01*
X325866Y227813D01*
X326087Y227365D01*
X323720Y224998D01*
X322956Y224897D01*
X321983Y224494D01*
X321147Y223853D01*
X320506Y223017D01*
X320103Y222044D01*
X319966Y221000D01*
X320103Y219956D01*
X320506Y218983D01*
X321147Y218147D01*
X321983Y217506D01*
X322956Y217103D01*
X322961Y217102D01*
Y214958D01*
X322377Y214842D01*
X321656Y214360D01*
X321510Y214142D01*
X320455D01*
X320182Y214496D01*
X319451Y215057D01*
X318600Y215410D01*
X317686Y215530D01*
X316773Y215410D01*
X315921Y215057D01*
X315190Y214496D01*
X314629Y213765D01*
X314276Y212914D01*
X314156Y212000D01*
X314276Y211086D01*
X314629Y210235D01*
X315190Y209504D01*
X315921Y208943D01*
X316773Y208590D01*
X317686Y208470D01*
X318600Y208590D01*
X319451Y208943D01*
X320182Y209504D01*
X320612Y210063D01*
X320612Y210063D01*
Y210063D01*
X321099Y209950D01*
X321174Y209574D01*
X321656Y208853D01*
X322377Y208371D01*
X323228Y208201D01*
X326772D01*
X327623Y208371D01*
X328344Y208853D01*
X328826Y209574D01*
X328995Y210425D01*
Y212787D01*
X328826Y213638D01*
X328344Y214360D01*
X327623Y214842D01*
X327039Y214958D01*
Y218390D01*
X327494Y218983D01*
X327897Y219956D01*
X328034Y221000D01*
X327897Y222044D01*
X327498Y223008D01*
X335603Y231113D01*
X336082Y230968D01*
X336245Y230149D01*
X336727Y229428D01*
X337448Y228945D01*
X338299Y228776D01*
X344598D01*
X345449Y228945D01*
X345901Y229247D01*
X345943Y229235D01*
X346504Y228504D01*
X347235Y227943D01*
X348086Y227590D01*
X349000Y227470D01*
X349914Y227590D01*
X350765Y227943D01*
X351496Y228504D01*
X352057Y229235D01*
X352124Y229395D01*
X352623Y229379D01*
X352756Y228987D01*
X352471Y228769D01*
X351961Y228104D01*
X351641Y227330D01*
X351597Y227000D01*
X364576D01*
X364532Y227330D01*
X364212Y228104D01*
X363702Y228769D01*
X363037Y229279D01*
X362908Y229332D01*
X362859Y229830D01*
X363006Y229927D01*
X363488Y230649D01*
X363657Y231500D01*
X363488Y232351D01*
X363006Y233072D01*
X362859Y233170D01*
X362908Y233668D01*
X363037Y233721D01*
X363702Y234231D01*
X364212Y234896D01*
X364532Y235670D01*
X364576Y236000D01*
X358086D01*
Y237000D01*
X364576D01*
X364532Y237330D01*
X364212Y238104D01*
X363702Y238769D01*
X363037Y239279D01*
X362908Y239332D01*
X362859Y239830D01*
X363006Y239928D01*
X363488Y240649D01*
X363657Y241500D01*
X363488Y242351D01*
X363006Y243073D01*
X362284Y243555D01*
X361433Y243724D01*
X354740D01*
X353889Y243555D01*
X353866Y243539D01*
X352500D01*
X351720Y243384D01*
X351455Y243207D01*
X351058Y242942D01*
X351058Y242942D01*
X348158Y240042D01*
X347710Y240263D01*
X347741Y240500D01*
X341448D01*
Y241500D01*
X347741D01*
X347698Y241830D01*
X347377Y242604D01*
X346867Y243269D01*
X346203Y243779D01*
X346074Y243832D01*
X346025Y244330D01*
X346171Y244427D01*
X346653Y245149D01*
X346822Y246000D01*
X346653Y246851D01*
X346171Y247572D01*
X345449Y248055D01*
X344598Y248224D01*
X338299D01*
X337448Y248055D01*
X337425Y248039D01*
X335680D01*
X335459Y248488D01*
X335822Y248961D01*
X337425D01*
X337448Y248945D01*
X338299Y248776D01*
X344598D01*
X345449Y248945D01*
X346171Y249428D01*
X346653Y250149D01*
X346822Y251000D01*
X346653Y251851D01*
X346171Y252572D01*
X345449Y253055D01*
X344598Y253224D01*
X338299D01*
X337448Y253055D01*
X337425Y253039D01*
X335659D01*
X335390Y253390D01*
X334659Y253951D01*
X334661Y253961D01*
X337425D01*
X337448Y253945D01*
X338299Y253776D01*
X344598D01*
X345449Y253945D01*
X345472Y253961D01*
X347961D01*
Y248000D01*
X348116Y247220D01*
X348558Y246558D01*
X350058Y245058D01*
X350720Y244616D01*
X351500Y244461D01*
X353866D01*
X353889Y244445D01*
X354740Y244276D01*
X361433D01*
X362284Y244445D01*
X363006Y244928D01*
X363488Y245649D01*
X363657Y246500D01*
X363488Y247351D01*
X363006Y248073D01*
X362284Y248555D01*
X361433Y248724D01*
X354740D01*
X353889Y248555D01*
X353866Y248539D01*
X352345D01*
X352039Y248845D01*
Y251348D01*
X352537Y251397D01*
X352537Y251397D01*
X352537Y251397D01*
X352686Y250649D01*
X353168Y249927D01*
X353889Y249445D01*
X354740Y249276D01*
X361433D01*
X362284Y249445D01*
X363006Y249927D01*
X363488Y250649D01*
X363657Y251500D01*
X363488Y252351D01*
X363006Y253073D01*
X362284Y253555D01*
X361433Y253724D01*
X354740D01*
X353889Y253555D01*
X353168Y253073D01*
X352686Y252351D01*
X352537Y251603D01*
X352039Y251652D01*
Y256000D01*
Y256348D01*
X352537Y256397D01*
X352686Y255649D01*
X353168Y254927D01*
X353889Y254445D01*
X354740Y254276D01*
X361433D01*
X362284Y254445D01*
X363006Y254927D01*
X363488Y255649D01*
X363657Y256500D01*
X363488Y257351D01*
X363006Y258072D01*
X362304Y258541D01*
X362449Y259020D01*
X362688D01*
X363518Y259129D01*
X364292Y259450D01*
X364956Y259960D01*
X365466Y260624D01*
X365787Y261398D01*
X365896Y262228D01*
Y263500D01*
X357117D01*
Y262228D01*
X357226Y261398D01*
X357547Y260624D01*
X358057Y259960D01*
X358721Y259450D01*
X359290Y259214D01*
X359192Y258724D01*
X354740D01*
X353889Y258555D01*
X353168Y258072D01*
X352686Y257351D01*
X352537Y256603D01*
X352039Y256652D01*
Y260004D01*
X353475D01*
X354326Y260174D01*
X355048Y260656D01*
X355530Y261377D01*
X355699Y262228D01*
Y265772D01*
X355530Y266623D01*
X355048Y267344D01*
X354326Y267826D01*
X353475Y267996D01*
X351113D01*
X350262Y267826D01*
X349540Y267344D01*
X349058Y266623D01*
X348889Y265772D01*
Y263479D01*
X348558Y263148D01*
X348449Y263039D01*
X345472D01*
X345449Y263055D01*
X344598Y263224D01*
X338299D01*
X337448Y263055D01*
X336727Y262573D01*
X336245Y261851D01*
X336075Y261000D01*
X336245Y260149D01*
X336727Y259427D01*
X337448Y258945D01*
X338299Y258776D01*
X344598D01*
X345449Y258945D01*
X345472Y258961D01*
X347961D01*
Y258039D01*
X345472D01*
X345449Y258055D01*
X344598Y258224D01*
X338299D01*
X337448Y258055D01*
X337425Y258039D01*
X326575D01*
X326552Y258055D01*
X325701Y258224D01*
X319402D01*
X318551Y258055D01*
X318528Y258039D01*
X316000D01*
X315435Y257927D01*
X315265Y258057D01*
X314414Y258410D01*
X313500Y258530D01*
Y258607D01*
X313854Y258961D01*
X318528D01*
X318551Y258945D01*
X319402Y258776D01*
X325701D01*
X326552Y258945D01*
X327273Y259427D01*
X327755Y260149D01*
X327925Y261000D01*
X327755Y261851D01*
X327273Y262573D01*
X326552Y263055D01*
X325701Y263224D01*
X319402D01*
X318551Y263055D01*
X318528Y263039D01*
X304673D01*
Y264319D01*
X306193D01*
Y268681D01*
D02*
G37*
G36*
X297925Y264941D02*
X290807D01*
Y260579D01*
X297925D01*
Y264941D01*
D02*
G37*
G36*
X286772Y264783D02*
X285500D01*
Y260894D01*
X289980D01*
Y261575D01*
X289871Y262405D01*
X289550Y263179D01*
X289040Y263844D01*
X288376Y264353D01*
X287602Y264674D01*
X286772Y264783D01*
D02*
G37*
G36*
X371187Y261134D02*
X367214D01*
X367303Y260459D01*
X367756Y259364D01*
X368478Y258424D01*
X369418Y257703D01*
X370512Y257250D01*
X371187Y257161D01*
Y261134D01*
D02*
G37*
G36*
X376160D02*
X372187D01*
Y257161D01*
X372862Y257250D01*
X373956Y257703D01*
X374897Y258424D01*
X375618Y259364D01*
X376071Y260459D01*
X376160Y261134D01*
D02*
G37*
G36*
X556500Y352256D02*
Y348283D01*
X560473D01*
X560384Y348958D01*
X559931Y350053D01*
X559209Y350993D01*
X558269Y351714D01*
X557175Y352168D01*
X556500Y352256D01*
D02*
G37*
G36*
X450860Y397473D02*
Y393500D01*
X454833D01*
X454744Y394175D01*
X454290Y395269D01*
X453569Y396209D01*
X452629Y396931D01*
X451534Y397384D01*
X450860Y397473D01*
D02*
G37*
G36*
X385884Y398876D02*
X381911D01*
X382000Y398201D01*
X382453Y397107D01*
X383175Y396166D01*
X384115Y395445D01*
X385209Y394992D01*
X385884Y394903D01*
Y398876D01*
D02*
G37*
G36*
X390857D02*
X386884D01*
Y394903D01*
X387559Y394992D01*
X387588Y395004D01*
X388004Y394726D01*
Y393500D01*
X391894D01*
Y397980D01*
X391213D01*
X391138Y397970D01*
X390785Y398324D01*
X390857Y398876D01*
D02*
G37*
G36*
X393575Y397980D02*
X392894D01*
Y393500D01*
X396783D01*
Y394772D01*
X396674Y395602D01*
X396354Y396376D01*
X395844Y397040D01*
X395179Y397550D01*
X394405Y397871D01*
X393575Y397980D01*
D02*
G37*
G36*
X449860Y397473D02*
X449185Y397384D01*
X448090Y396931D01*
X447150Y396209D01*
X446673Y395588D01*
X446240Y395838D01*
X446250Y395861D01*
X446334Y396500D01*
X442500D01*
Y392666D01*
X443139Y392750D01*
X444200Y393190D01*
X445111Y393889D01*
X445566Y394482D01*
X445999Y394232D01*
X445975Y394175D01*
X445887Y393500D01*
X449860D01*
Y397473D01*
D02*
G37*
G36*
X441500Y401334D02*
X440861Y401250D01*
X439800Y400810D01*
X438889Y400111D01*
X438190Y399200D01*
X437750Y398139D01*
X437666Y397500D01*
X441500D01*
Y401334D01*
D02*
G37*
G36*
X442500D02*
Y397500D01*
X446334D01*
X446250Y398139D01*
X445810Y399200D01*
X445111Y400111D01*
X444200Y400810D01*
X443139Y401250D01*
X442500Y401334D01*
D02*
G37*
G36*
X412894Y400980D02*
X412213D01*
X411382Y400871D01*
X410608Y400550D01*
X409944Y400040D01*
X409434Y399376D01*
X409113Y398602D01*
X409004Y397772D01*
Y396500D01*
X412894D01*
Y400980D01*
D02*
G37*
G36*
X414575D02*
X413894D01*
Y396500D01*
X417783D01*
Y397772D01*
X417674Y398602D01*
X417353Y399376D01*
X416844Y400040D01*
X416179Y400550D01*
X415405Y400871D01*
X414575Y400980D01*
D02*
G37*
G36*
X412894Y395500D02*
X409004D01*
Y394228D01*
X409113Y393398D01*
X409434Y392624D01*
X409944Y391960D01*
X410608Y391450D01*
X411382Y391129D01*
X412213Y391020D01*
X412894D01*
Y395500D01*
D02*
G37*
G36*
X417783D02*
X413894D01*
Y391020D01*
X414575D01*
X415405Y391129D01*
X416179Y391450D01*
X416844Y391960D01*
X417353Y392624D01*
X417674Y393398D01*
X417783Y394228D01*
Y395500D01*
D02*
G37*
G36*
X454833Y392500D02*
X450860D01*
Y388527D01*
X451534Y388616D01*
X452629Y389069D01*
X453569Y389791D01*
X454290Y390731D01*
X454744Y391825D01*
X454833Y392500D01*
D02*
G37*
G36*
X331181Y394693D02*
X328500D01*
Y390634D01*
X331181D01*
Y394693D01*
D02*
G37*
G36*
X368500Y395193D02*
X365819D01*
Y391134D01*
X368500D01*
Y395193D01*
D02*
G37*
G36*
X355165Y395496D02*
X353894D01*
Y391606D01*
X358374D01*
Y392287D01*
X358265Y393118D01*
X357944Y393892D01*
X357434Y394556D01*
X356770Y395066D01*
X355996Y395387D01*
X355165Y395496D01*
D02*
G37*
G36*
X441500Y396500D02*
X437666D01*
X437750Y395861D01*
X438190Y394800D01*
X438889Y393889D01*
X439800Y393190D01*
X440861Y392750D01*
X441500Y392666D01*
Y396500D01*
D02*
G37*
G36*
X372181Y395193D02*
X369500D01*
Y391134D01*
X372181D01*
Y395193D01*
D02*
G37*
G36*
X352894Y395496D02*
X351622D01*
X350792Y395387D01*
X350018Y395066D01*
X349353Y394556D01*
X348843Y393892D01*
X348523Y393118D01*
X348413Y392287D01*
Y391606D01*
X352894D01*
Y395496D01*
D02*
G37*
G36*
X386473Y431500D02*
X382500D01*
Y427527D01*
X383175Y427616D01*
X384269Y428069D01*
X385209Y428791D01*
X385931Y429731D01*
X386384Y430825D01*
X386473Y431500D01*
D02*
G37*
G36*
X371500Y436473D02*
X370825Y436384D01*
X369731Y435931D01*
X368791Y435209D01*
X368069Y434269D01*
X367616Y433175D01*
X367527Y432500D01*
X371500D01*
Y436473D01*
D02*
G37*
G36*
X376473Y431500D02*
X372500D01*
Y427527D01*
X373175Y427616D01*
X374269Y428069D01*
X375209Y428791D01*
X375931Y429731D01*
X376384Y430825D01*
X376473Y431500D01*
D02*
G37*
G36*
X381500D02*
X377527D01*
X377616Y430825D01*
X378069Y429731D01*
X378791Y428791D01*
X379731Y428069D01*
X380825Y427616D01*
X381500Y427527D01*
Y431500D01*
D02*
G37*
G36*
X372500Y436473D02*
Y432500D01*
X376473D01*
X376384Y433175D01*
X375931Y434269D01*
X375209Y435209D01*
X374269Y435931D01*
X373175Y436384D01*
X372500Y436473D01*
D02*
G37*
G36*
X407500Y456996D02*
X406228D01*
X405398Y456887D01*
X404624Y456566D01*
X403960Y456056D01*
X403450Y455392D01*
X403129Y454618D01*
X403020Y453787D01*
Y453106D01*
X407500D01*
Y456996D01*
D02*
G37*
G36*
X406500Y464910D02*
X402527D01*
X402616Y464235D01*
X403069Y463140D01*
X403791Y462200D01*
X404731Y461479D01*
X405825Y461026D01*
X406500Y460937D01*
Y464910D01*
D02*
G37*
G36*
X381500Y436473D02*
X380825Y436384D01*
X379731Y435931D01*
X378791Y435209D01*
X378069Y434269D01*
X377616Y433175D01*
X377527Y432500D01*
X381500D01*
Y436473D01*
D02*
G37*
G36*
X382500D02*
Y432500D01*
X386473D01*
X386384Y433175D01*
X385931Y434269D01*
X385209Y435209D01*
X384269Y435931D01*
X383175Y436384D01*
X382500Y436473D01*
D02*
G37*
G36*
X317716Y413473D02*
X317041Y413384D01*
X315946Y412931D01*
X315006Y412209D01*
X314285Y411269D01*
X313831Y410175D01*
X313743Y409500D01*
X317716D01*
Y413473D01*
D02*
G37*
G36*
X318716D02*
Y409500D01*
X322689D01*
X322600Y410175D01*
X322146Y411269D01*
X321425Y412209D01*
X320485Y412931D01*
X319390Y413384D01*
X318716Y413473D01*
D02*
G37*
G36*
X317716Y408500D02*
X313743D01*
X313831Y407825D01*
X314285Y406731D01*
X315006Y405791D01*
X315946Y405069D01*
X317041Y404616D01*
X317716Y404527D01*
Y408500D01*
D02*
G37*
G36*
X322689D02*
X318716D01*
Y404527D01*
X319390Y404616D01*
X320485Y405069D01*
X321425Y405791D01*
X322146Y406731D01*
X322600Y407825D01*
X322689Y408500D01*
D02*
G37*
G36*
X378500Y423827D02*
X374047D01*
Y418390D01*
X378500D01*
Y423827D01*
D02*
G37*
G36*
X354453Y423937D02*
X350000D01*
Y418500D01*
X354453D01*
Y423937D01*
D02*
G37*
G36*
X371500Y431500D02*
X367527D01*
X367616Y430825D01*
X368069Y429731D01*
X368791Y428791D01*
X369731Y428069D01*
X370825Y427616D01*
X371500Y427527D01*
Y431500D01*
D02*
G37*
G36*
X383953Y423827D02*
X379500D01*
Y418390D01*
X383953D01*
Y423827D01*
D02*
G37*
G36*
X349000Y423937D02*
X344547D01*
Y418500D01*
X349000D01*
Y423937D01*
D02*
G37*
G36*
X410750Y358969D02*
Y355500D01*
X414219D01*
X414147Y356044D01*
X413744Y357017D01*
X413103Y357853D01*
X412267Y358494D01*
X411294Y358897D01*
X410750Y358969D01*
D02*
G37*
G36*
X419750D02*
X419206Y358897D01*
X418233Y358494D01*
X417397Y357853D01*
X416756Y357017D01*
X416353Y356044D01*
X416281Y355500D01*
X419750D01*
Y358969D01*
D02*
G37*
G36*
X462772Y356996D02*
X461500D01*
Y353106D01*
X465980D01*
Y353787D01*
X465871Y354618D01*
X465550Y355392D01*
X465040Y356056D01*
X464376Y356566D01*
X463602Y356887D01*
X462772Y356996D01*
D02*
G37*
G36*
X409750Y358969D02*
X409206Y358897D01*
X408233Y358494D01*
X407397Y357853D01*
X406756Y357017D01*
X406353Y356044D01*
X406281Y355500D01*
X409750D01*
Y358969D01*
D02*
G37*
G36*
X420750D02*
Y355500D01*
X424219D01*
X424147Y356044D01*
X423744Y357017D01*
X423103Y357853D01*
X422267Y358494D01*
X421294Y358897D01*
X420750Y358969D01*
D02*
G37*
G36*
X376667Y364591D02*
X375992Y364502D01*
X374898Y364049D01*
X373958Y363327D01*
X373236Y362387D01*
X372783Y361293D01*
X372694Y360618D01*
X376667D01*
Y364591D01*
D02*
G37*
G36*
X377667D02*
Y360618D01*
X381640D01*
X381551Y361293D01*
X381098Y362387D01*
X380377Y363327D01*
X379437Y364049D01*
X378342Y364502D01*
X377667Y364591D01*
D02*
G37*
G36*
X400500Y364030D02*
X399586Y363910D01*
X398735Y363557D01*
X398004Y362996D01*
X397443Y362265D01*
X397090Y361414D01*
X396970Y360500D01*
X397045Y359929D01*
X393155Y356039D01*
X380021D01*
X379861Y356513D01*
X380377Y356908D01*
X381098Y357849D01*
X381551Y358943D01*
X381640Y359618D01*
X372694D01*
X372783Y358943D01*
X373236Y357849D01*
X373958Y356908D01*
X374474Y356513D01*
X374313Y356039D01*
X348845D01*
X348000Y356884D01*
Y362000D01*
X340000D01*
Y354000D01*
X345116D01*
X346558Y352558D01*
X347220Y352116D01*
X348000Y351961D01*
X394000D01*
X394780Y352116D01*
X395442Y352558D01*
X399929Y357045D01*
X400500Y356970D01*
X401414Y357090D01*
X402265Y357443D01*
X402996Y358004D01*
X403557Y358735D01*
X403910Y359586D01*
X404030Y360500D01*
X403910Y361414D01*
X403557Y362265D01*
X402996Y362996D01*
X402265Y363557D01*
X401414Y363910D01*
X400500Y364030D01*
D02*
G37*
G36*
X463000Y368000D02*
X455000D01*
Y360000D01*
X463000D01*
Y368000D01*
D02*
G37*
G36*
X323500Y352977D02*
X322695Y352871D01*
X321478Y352367D01*
X320434Y351566D01*
X319633Y350522D01*
X319250Y349598D01*
X318750D01*
X318368Y350522D01*
X317566Y351566D01*
X316522Y352367D01*
X315305Y352871D01*
X314500Y352977D01*
Y347999D01*
Y343023D01*
X315305Y343129D01*
X316522Y343633D01*
X317566Y344434D01*
X318368Y345478D01*
X318750Y346402D01*
X319250D01*
X319633Y345478D01*
X320434Y344434D01*
X321478Y343633D01*
X322695Y343129D01*
X323500Y343023D01*
Y347999D01*
Y352977D01*
D02*
G37*
G36*
X333500D02*
X332695Y352871D01*
X331478Y352367D01*
X330434Y351566D01*
X329632Y350522D01*
X329250Y349598D01*
X328750D01*
X328367Y350522D01*
X327566Y351566D01*
X326522Y352367D01*
X325305Y352871D01*
X324500Y352977D01*
Y347999D01*
Y343023D01*
X325305Y343129D01*
X326522Y343633D01*
X327566Y344434D01*
X328367Y345478D01*
X328750Y346402D01*
X329250D01*
X329632Y345478D01*
X330434Y344434D01*
X331478Y343633D01*
X332695Y343129D01*
X333500Y343023D01*
Y347999D01*
Y352977D01*
D02*
G37*
G36*
X313500D02*
X312695Y352871D01*
X311478Y352367D01*
X310434Y351566D01*
X309632Y350522D01*
X309129Y349305D01*
X309023Y348500D01*
X313500D01*
Y352977D01*
D02*
G37*
G36*
X334500D02*
Y348500D01*
X338977D01*
X338871Y349305D01*
X338368Y350522D01*
X337566Y351566D01*
X336522Y352367D01*
X335305Y352871D01*
X334500Y352977D01*
D02*
G37*
G36*
X409750Y354500D02*
X406281D01*
X406353Y353956D01*
X406756Y352983D01*
X407397Y352147D01*
X408233Y351506D01*
X409206Y351103D01*
X409750Y351031D01*
Y354500D01*
D02*
G37*
G36*
X424219D02*
X420750D01*
Y351031D01*
X421294Y351103D01*
X422267Y351506D01*
X423103Y352147D01*
X423744Y352983D01*
X424147Y353956D01*
X424219Y354500D01*
D02*
G37*
G36*
X460500Y356996D02*
X459228D01*
X458398Y356887D01*
X457624Y356566D01*
X456960Y356056D01*
X456450Y355392D01*
X456129Y354618D01*
X456020Y353787D01*
Y353106D01*
X460500D01*
Y356996D01*
D02*
G37*
G36*
X414219Y354500D02*
X410750D01*
Y351031D01*
X411294Y351103D01*
X412267Y351506D01*
X413103Y352147D01*
X413744Y352983D01*
X414147Y353956D01*
X414219Y354500D01*
D02*
G37*
G36*
X419750D02*
X416281D01*
X416353Y353956D01*
X416756Y352983D01*
X417397Y352147D01*
X418233Y351506D01*
X419206Y351103D01*
X419750Y351031D01*
Y354500D01*
D02*
G37*
G36*
X515500Y389333D02*
Y385360D01*
X519473D01*
X519384Y386035D01*
X518931Y387130D01*
X518209Y388070D01*
X517269Y388791D01*
X516175Y389245D01*
X515500Y389333D01*
D02*
G37*
G36*
X352894Y390606D02*
X348413D01*
Y389925D01*
X348523Y389095D01*
X348843Y388321D01*
X349353Y387656D01*
X350018Y387146D01*
X350792Y386826D01*
X351622Y386717D01*
X352894D01*
Y390606D01*
D02*
G37*
G36*
X423787Y399995D02*
X421425D01*
X420574Y399826D01*
X419853Y399344D01*
X419371Y398623D01*
X419201Y397772D01*
Y394228D01*
X419371Y393377D01*
X419853Y392656D01*
X420574Y392174D01*
X421425Y392004D01*
X422716D01*
X429860Y384860D01*
X430487Y384380D01*
X430701Y384291D01*
X431217Y384077D01*
X432000Y383974D01*
X432783Y384077D01*
X433299Y384291D01*
X433513Y384380D01*
X434140Y384860D01*
X434621Y385487D01*
X434709Y385701D01*
X434923Y386217D01*
X435026Y387000D01*
X434923Y387783D01*
X434709Y388299D01*
X434621Y388513D01*
X434140Y389140D01*
X426011Y397268D01*
Y397772D01*
X425842Y398623D01*
X425360Y399344D01*
X424638Y399826D01*
X423787Y399995D01*
D02*
G37*
G36*
X514500Y389333D02*
X513825Y389245D01*
X512731Y388791D01*
X511791Y388070D01*
X511069Y387130D01*
X510616Y386035D01*
X510527Y385360D01*
X514500D01*
Y389333D01*
D02*
G37*
G36*
X358374Y390606D02*
X353894D01*
Y386717D01*
X355165D01*
X355996Y386826D01*
X356770Y387146D01*
X357434Y387656D01*
X357944Y388321D01*
X358265Y389095D01*
X358374Y389925D01*
Y390606D01*
D02*
G37*
G36*
X396783Y392500D02*
X392894D01*
Y388020D01*
X393575D01*
X394405Y388129D01*
X395179Y388450D01*
X395844Y388960D01*
X396354Y389624D01*
X396674Y390398D01*
X396783Y391228D01*
Y392500D01*
D02*
G37*
G36*
X449860D02*
X445887D01*
X445975Y391825D01*
X446429Y390731D01*
X447150Y389791D01*
X448090Y389069D01*
X449185Y388616D01*
X449860Y388527D01*
Y392500D01*
D02*
G37*
G36*
X342471Y401530D02*
X341557Y401410D01*
X340705Y401057D01*
X339974Y400496D01*
X339413Y399765D01*
X339061Y398914D01*
X338940Y398000D01*
X339061Y397086D01*
X339410Y396244D01*
Y394352D01*
X338826Y394236D01*
X338105Y393754D01*
X337623Y393032D01*
X337453Y392181D01*
Y389819D01*
X337623Y388968D01*
X338105Y388246D01*
X338826Y387764D01*
X339677Y387595D01*
X343220D01*
X344072Y387764D01*
X344793Y388246D01*
X345275Y388968D01*
X345444Y389819D01*
Y392181D01*
X345275Y393032D01*
X344793Y393754D01*
X344072Y394236D01*
X343488Y394352D01*
Y394633D01*
X344236Y394943D01*
X344967Y395504D01*
X345528Y396235D01*
X345881Y397086D01*
X346001Y398000D01*
X345881Y398914D01*
X345528Y399765D01*
X344967Y400496D01*
X344236Y401057D01*
X343384Y401410D01*
X342471Y401530D01*
D02*
G37*
G36*
X391894Y392500D02*
X388004D01*
Y391228D01*
X388113Y390398D01*
X388434Y389624D01*
X388944Y388960D01*
X389608Y388450D01*
X390382Y388129D01*
X391213Y388020D01*
X391894D01*
Y392500D01*
D02*
G37*
G36*
X284500Y381938D02*
Y377461D01*
X288977D01*
X288871Y378266D01*
X288368Y379482D01*
X287566Y380527D01*
X286522Y381328D01*
X285305Y381832D01*
X284500Y381938D01*
D02*
G37*
G36*
X442000Y391035D02*
X440956Y390897D01*
X439983Y390494D01*
X439147Y389853D01*
X438506Y389017D01*
X438103Y388044D01*
X437965Y387000D01*
X438103Y385956D01*
X438506Y384983D01*
X439147Y384147D01*
X439983Y383506D01*
X440956Y383103D01*
X441718Y383003D01*
X442860Y381860D01*
X443487Y381380D01*
X443701Y381291D01*
X444217Y381077D01*
X445000Y380974D01*
X455020D01*
X455434Y380434D01*
X456478Y379632D01*
X457402Y379250D01*
Y378750D01*
X456478Y378367D01*
X455434Y377566D01*
X455364Y377475D01*
X454518D01*
X453663Y378131D01*
X452568Y378584D01*
X451394Y378739D01*
X450219Y378584D01*
X449124Y378131D01*
X448269Y377475D01*
X446685D01*
X446685Y377475D01*
X445902Y377372D01*
X445172Y377069D01*
X445009Y376944D01*
X444614Y376996D01*
X441071D01*
X440240Y376887D01*
X439467Y376566D01*
X438802Y376056D01*
X438292Y375392D01*
X437972Y374618D01*
X437953Y374473D01*
X437453Y374457D01*
X437417Y374638D01*
X436935Y375360D01*
X436213Y375842D01*
X435362Y376011D01*
X431819D01*
X430968Y375842D01*
X430246Y375360D01*
X429769Y374645D01*
X420039D01*
Y378783D01*
X420140Y378860D01*
X420620Y379487D01*
X420923Y380217D01*
X421026Y381000D01*
X420923Y381783D01*
X420620Y382513D01*
X420140Y383140D01*
X419513Y383621D01*
X418783Y383923D01*
X418000Y384026D01*
X417217Y383923D01*
X416487Y383621D01*
X415860Y383140D01*
X415379Y382513D01*
X415077Y381783D01*
X414974Y381000D01*
X415077Y380217D01*
X415379Y379487D01*
X415860Y378860D01*
X415961Y378783D01*
Y373217D01*
X415860Y373140D01*
X415379Y372513D01*
X415077Y371783D01*
X414974Y371000D01*
X415077Y370217D01*
X415379Y369487D01*
X415860Y368860D01*
X416487Y368379D01*
X417217Y368077D01*
X418000Y367974D01*
X418783Y368077D01*
X419513Y368379D01*
X420140Y368860D01*
X420620Y369487D01*
X420923Y370217D01*
X420969Y370567D01*
X429769D01*
X430246Y369853D01*
X430968Y369371D01*
X431819Y369201D01*
X435362D01*
X436213Y369371D01*
X436935Y369853D01*
X437417Y370574D01*
X437453Y370756D01*
X437953Y370739D01*
X437972Y370595D01*
X438292Y369821D01*
X438802Y369156D01*
X439467Y368647D01*
X440240Y368326D01*
X440818Y368250D01*
Y367750D01*
X440240Y367674D01*
X439467Y367354D01*
X438802Y366844D01*
X438477Y366420D01*
X437956D01*
X437631Y366844D01*
X436967Y367354D01*
X436193Y367674D01*
X435362Y367783D01*
X431819D01*
X430989Y367674D01*
X430215Y367354D01*
X429550Y366844D01*
X429040Y366179D01*
X428720Y365405D01*
X428610Y364575D01*
Y362213D01*
X428720Y361382D01*
X429040Y360608D01*
X429550Y359944D01*
X430215Y359434D01*
X430989Y359113D01*
X431819Y359004D01*
X435362D01*
X436193Y359113D01*
X436967Y359434D01*
X437631Y359944D01*
X437956Y360368D01*
X438477D01*
X438802Y359944D01*
X439467Y359434D01*
X440240Y359113D01*
X441071Y359004D01*
X442187D01*
Y357366D01*
X441763Y357040D01*
X441253Y356376D01*
X440932Y355602D01*
X440856Y355025D01*
X440356D01*
X440280Y355602D01*
X439960Y356376D01*
X439450Y357040D01*
X438785Y357550D01*
X438012Y357871D01*
X437181Y357980D01*
X434819D01*
X433989Y357871D01*
X433215Y357550D01*
X432550Y357040D01*
X432040Y356376D01*
X431720Y355602D01*
X431610Y354772D01*
Y351228D01*
X431720Y350398D01*
X432040Y349624D01*
X432550Y348960D01*
X433215Y348450D01*
X433989Y348129D01*
X434819Y348020D01*
X434974D01*
Y345780D01*
X434552Y345555D01*
X433701Y345724D01*
X427402D01*
X426551Y345555D01*
X425829Y345073D01*
X425347Y344351D01*
X425178Y343500D01*
X425347Y342649D01*
X425803Y341967D01*
X425593Y341574D01*
X425561Y341526D01*
X417500D01*
X416717Y341423D01*
X415987Y341121D01*
X415360Y340640D01*
X405860Y331140D01*
X405379Y330513D01*
X405291Y330299D01*
X405077Y329783D01*
X404974Y329000D01*
Y328711D01*
X404624Y328566D01*
X403960Y328056D01*
X403450Y327392D01*
X403129Y326618D01*
X403020Y325787D01*
Y323425D01*
X403129Y322595D01*
X403450Y321821D01*
X403960Y321156D01*
X404624Y320647D01*
X405398Y320326D01*
X405975Y320250D01*
Y319750D01*
X405398Y319674D01*
X404624Y319354D01*
X403960Y318844D01*
X403634Y318420D01*
X401366D01*
X401040Y318844D01*
X400376Y319354D01*
X399602Y319674D01*
X398772Y319783D01*
Y320217D01*
X399602Y320326D01*
X400376Y320647D01*
X401040Y321156D01*
X401550Y321821D01*
X401871Y322595D01*
X401980Y323425D01*
Y325787D01*
X401871Y326618D01*
X401550Y327392D01*
X401040Y328056D01*
X400376Y328566D01*
X400026Y328711D01*
Y329500D01*
Y330289D01*
X400376Y330434D01*
X401040Y330944D01*
X401550Y331608D01*
X401871Y332382D01*
X401980Y333213D01*
Y335575D01*
X401871Y336405D01*
X401550Y337179D01*
X401040Y337844D01*
X400376Y338353D01*
X399602Y338674D01*
X399025Y338750D01*
Y339250D01*
X399602Y339326D01*
X400376Y339647D01*
X401040Y340156D01*
X401366Y340580D01*
X408856D01*
X409628Y340682D01*
X410250Y340600D01*
X411389Y340750D01*
X412450Y341190D01*
X413361Y341889D01*
X414060Y342800D01*
X414500Y343861D01*
X414650Y345000D01*
X414500Y346139D01*
X414060Y347200D01*
X413361Y348111D01*
X412450Y348810D01*
X411389Y349250D01*
X410250Y349400D01*
X409111Y349250D01*
X408050Y348810D01*
X407139Y348111D01*
X406440Y347200D01*
X406205Y346632D01*
X401366D01*
X401040Y347056D01*
X400376Y347566D01*
X399602Y347887D01*
X398772Y347996D01*
X395228D01*
X394398Y347887D01*
X393624Y347566D01*
X392960Y347056D01*
X392450Y346392D01*
X392250Y345910D01*
X391750D01*
X391550Y346392D01*
X391040Y347056D01*
X390376Y347566D01*
X389602Y347887D01*
X388772Y347996D01*
X387500D01*
Y343605D01*
X387001D01*
Y343106D01*
X382020D01*
Y342425D01*
X382129Y341595D01*
X382450Y340821D01*
X382960Y340156D01*
X383624Y339647D01*
X384398Y339326D01*
X384975Y339250D01*
Y338750D01*
X384398Y338674D01*
X383624Y338353D01*
X382960Y337844D01*
X382450Y337179D01*
X382129Y336405D01*
X382020Y335575D01*
Y333306D01*
X381644Y332976D01*
X381500Y332995D01*
X380325Y332840D01*
X379231Y332387D01*
X378291Y331666D01*
X377569Y330726D01*
X377116Y329631D01*
X376961Y328456D01*
X377116Y327282D01*
X377569Y326187D01*
X378291Y325247D01*
X379231Y324526D01*
X380325Y324072D01*
X381500Y323918D01*
X381627Y323791D01*
X381626Y323787D01*
Y323106D01*
X386607D01*
Y322106D01*
X381626D01*
Y321425D01*
X381735Y320595D01*
X382056Y319821D01*
X382566Y319156D01*
X383230Y318647D01*
X383864Y318384D01*
X383929Y317888D01*
X383467Y317533D01*
X383375Y317413D01*
X383230Y317354D01*
X382566Y316844D01*
X382056Y316179D01*
X381735Y315405D01*
X381626Y314575D01*
Y312213D01*
X381735Y311382D01*
X382056Y310608D01*
X382566Y309944D01*
X383230Y309434D01*
X384004Y309113D01*
X384835Y309004D01*
X388378D01*
X389208Y309113D01*
X389982Y309434D01*
X390647Y309944D01*
X391157Y310608D01*
X391477Y311382D01*
X391586Y312213D01*
Y312368D01*
X392634D01*
X392960Y311944D01*
X393624Y311434D01*
X394398Y311113D01*
X395228Y311004D01*
X398772D01*
X399602Y311113D01*
X400376Y311434D01*
X400419Y311467D01*
X400868Y311246D01*
Y305000D01*
X396894D01*
Y301673D01*
X396894D01*
X396693D01*
X396540Y301673D01*
X396540Y301673D01*
Y301673D01*
X393224D01*
Y297999D01*
Y294327D01*
X396540D01*
X396894Y293973D01*
Y291000D01*
X410894D01*
Y305000D01*
X406920D01*
Y311004D01*
X409772D01*
X410602Y311113D01*
X411376Y311434D01*
X412040Y311944D01*
X412550Y312608D01*
X412871Y313382D01*
X413410Y313311D01*
X413450Y313215D01*
X413960Y312550D01*
X414624Y312040D01*
X415398Y311720D01*
X416228Y311610D01*
X417500D01*
Y316001D01*
X417999D01*
Y316500D01*
X422980D01*
Y317181D01*
X422871Y318011D01*
X422550Y318785D01*
X422040Y319450D01*
X421376Y319960D01*
X420602Y320280D01*
X420025Y320356D01*
Y320856D01*
X420602Y320932D01*
X421376Y321253D01*
X422040Y321763D01*
X422550Y322427D01*
X422871Y323201D01*
X422980Y324031D01*
Y326394D01*
X422871Y327224D01*
X422550Y327998D01*
X422513Y328046D01*
X422519Y328069D01*
X423459Y328791D01*
X423803Y329238D01*
X424265Y329047D01*
X424193Y328500D01*
X424302Y327670D01*
X424623Y326896D01*
X425133Y326231D01*
X425368Y326051D01*
Y322366D01*
X424944Y322040D01*
X424434Y321376D01*
X424113Y320602D01*
X424004Y319772D01*
Y316228D01*
X424113Y315398D01*
X424434Y314624D01*
X424944Y313960D01*
X425608Y313450D01*
X426382Y313129D01*
X427213Y313020D01*
X429575D01*
X430405Y313129D01*
X431179Y313450D01*
X431844Y313960D01*
X432353Y314624D01*
X432674Y315398D01*
X432750Y315975D01*
X433250D01*
X433326Y315398D01*
X433646Y314624D01*
X434156Y313960D01*
X434821Y313450D01*
X435595Y313129D01*
X436425Y313020D01*
X437106D01*
Y317999D01*
Y322980D01*
X436425D01*
X435595Y322871D01*
X434821Y322550D01*
X434156Y322040D01*
X433646Y321376D01*
X433326Y320602D01*
X433250Y320025D01*
X432750D01*
X432674Y320602D01*
X432353Y321376D01*
X431844Y322040D01*
X431420Y322366D01*
Y325089D01*
X431622Y325291D01*
X433701D01*
X434531Y325401D01*
X435305Y325721D01*
X435970Y326231D01*
X436480Y326896D01*
X436800Y327670D01*
X436909Y328500D01*
X436800Y329330D01*
X436480Y330104D01*
X435970Y330769D01*
Y331231D01*
X436480Y331896D01*
X436800Y332670D01*
X436909Y333500D01*
X436800Y334330D01*
X436480Y335104D01*
X436381Y335233D01*
X436500Y335474D01*
X437283Y335577D01*
X437799Y335791D01*
X438013Y335879D01*
X438526Y336273D01*
X438974Y336052D01*
Y336000D01*
X439077Y335217D01*
X439291Y334701D01*
X439380Y334487D01*
X439860Y333860D01*
X442360Y331360D01*
X442360Y331360D01*
X442715Y331088D01*
X442987Y330879D01*
X443717Y330577D01*
X444486Y330476D01*
X444500Y330444D01*
X444500Y329733D01*
X444245Y329351D01*
X444075Y328500D01*
X444245Y327649D01*
X444727Y326927D01*
X445448Y326445D01*
X446299Y326276D01*
X446858D01*
X446891Y325777D01*
X447000Y325792D01*
X447109Y325777D01*
X447142Y326276D01*
X452598D01*
X453449Y326445D01*
X454171Y326927D01*
X454653Y327649D01*
X454822Y328500D01*
X454653Y329351D01*
X454171Y330072D01*
X453604Y330451D01*
X453606Y330474D01*
X455573D01*
X455843Y329821D01*
X456353Y329156D01*
X457018Y328646D01*
X457792Y328326D01*
X458369Y328250D01*
Y327750D01*
X457792Y327674D01*
X457018Y327354D01*
X456353Y326844D01*
X455843Y326179D01*
X455523Y325405D01*
X455413Y324575D01*
Y323894D01*
X465374D01*
Y324575D01*
X465265Y325405D01*
X464944Y326179D01*
X464434Y326844D01*
X463770Y327354D01*
X462996Y327674D01*
X462419Y327750D01*
Y328250D01*
X462996Y328326D01*
X463770Y328646D01*
X464434Y329156D01*
X464944Y329821D01*
X465265Y330595D01*
X465374Y331425D01*
Y333787D01*
X465265Y334618D01*
X464944Y335392D01*
X464434Y336056D01*
X463770Y336566D01*
X462996Y336887D01*
X462165Y336996D01*
X458622D01*
X457792Y336887D01*
X457018Y336566D01*
X456965Y336526D01*
X455674D01*
X455396Y336942D01*
X455698Y337670D01*
X455741Y338000D01*
X449448D01*
Y339000D01*
X455741D01*
X455698Y339330D01*
X455377Y340104D01*
X455507Y340368D01*
X456634D01*
X456960Y339944D01*
X457624Y339434D01*
X458398Y339113D01*
X459228Y339004D01*
X462772D01*
X463602Y339113D01*
X464376Y339434D01*
X465040Y339944D01*
X465550Y340608D01*
X465871Y341382D01*
X465980Y342213D01*
Y344575D01*
X465871Y345405D01*
X465550Y346179D01*
X465040Y346844D01*
X464376Y347354D01*
X463602Y347674D01*
X462772Y347783D01*
Y348217D01*
X463602Y348326D01*
X464376Y348646D01*
X465040Y349156D01*
X465550Y349821D01*
X465871Y350595D01*
X465980Y351425D01*
Y352106D01*
X456020D01*
Y352102D01*
X455571Y351881D01*
X455361Y352042D01*
X454266Y352495D01*
X453092Y352650D01*
X451917Y352495D01*
X450822Y352042D01*
X450051Y351450D01*
X449602Y351671D01*
Y354772D01*
X449493Y355602D01*
X449172Y356376D01*
X448663Y357040D01*
X448239Y357366D01*
Y363024D01*
X448135Y363807D01*
X447833Y364537D01*
X447823Y364550D01*
Y364575D01*
X447713Y365405D01*
X447393Y366179D01*
X446883Y366844D01*
X446218Y367354D01*
X445445Y367674D01*
X444868Y367750D01*
Y368250D01*
X445445Y368326D01*
X446218Y368647D01*
X446883Y369156D01*
X447393Y369821D01*
X447713Y370595D01*
X447718Y370633D01*
X448130Y370949D01*
X448201Y370978D01*
X449124Y370269D01*
X450219Y369816D01*
X451394Y369661D01*
X452568Y369816D01*
X453663Y370269D01*
X454577Y370970D01*
X455072Y370905D01*
X455434Y370434D01*
X456478Y369633D01*
X457695Y369129D01*
X459000Y368957D01*
X460305Y369129D01*
X461522Y369633D01*
X462566Y370434D01*
X463368Y371478D01*
X463871Y372695D01*
X464043Y374000D01*
X464005Y374290D01*
X464026Y374449D01*
X463923Y375232D01*
X463621Y375962D01*
X463575Y376022D01*
X463368Y376522D01*
X462566Y377566D01*
X461522Y378367D01*
X460305Y378871D01*
Y379129D01*
X461522Y379632D01*
X462566Y380434D01*
X463368Y381478D01*
X463871Y382695D01*
X464043Y384000D01*
X463871Y385305D01*
X463368Y386522D01*
X462566Y387566D01*
X461522Y388368D01*
X460305Y388871D01*
X459000Y389043D01*
X457695Y388871D01*
X456478Y388368D01*
X455434Y387566D01*
X455020Y387026D01*
X446253D01*
X445997Y387282D01*
X445897Y388044D01*
X445494Y389017D01*
X444853Y389853D01*
X444017Y390494D01*
X443044Y390897D01*
X442000Y391035D01*
D02*
G37*
G36*
X384772Y376299D02*
X381228D01*
X380377Y376129D01*
X379656Y375647D01*
X379174Y374926D01*
X379166Y374888D01*
X378613Y374778D01*
X377952Y374336D01*
X368071Y364455D01*
X367500Y364530D01*
X366586Y364410D01*
X365735Y364057D01*
X365004Y363496D01*
X364443Y362765D01*
X364090Y361914D01*
X363970Y361000D01*
X364090Y360086D01*
X364443Y359235D01*
X365004Y358504D01*
X365735Y357943D01*
X366586Y357590D01*
X367500Y357470D01*
X368414Y357590D01*
X369265Y357943D01*
X369996Y358504D01*
X370557Y359235D01*
X370910Y360086D01*
X371030Y361000D01*
X370955Y361571D01*
X379536Y370152D01*
X379656Y370140D01*
X380377Y369658D01*
X381228Y369489D01*
X384772D01*
X385623Y369658D01*
X386344Y370140D01*
X386826Y370862D01*
X386996Y371713D01*
Y374075D01*
X386826Y374926D01*
X386344Y375647D01*
X385623Y376129D01*
X384772Y376299D01*
D02*
G37*
G36*
X288977Y376461D02*
X284500D01*
Y371983D01*
X285305Y372089D01*
X286522Y372593D01*
X287566Y373395D01*
X288368Y374439D01*
X288871Y375655D01*
X288977Y376461D01*
D02*
G37*
G36*
X402787Y396995D02*
X400425D01*
X399574Y396826D01*
X398853Y396344D01*
X398371Y395623D01*
X398201Y394772D01*
Y391228D01*
X398371Y390377D01*
X398853Y389656D01*
X398974Y389575D01*
Y387000D01*
X399077Y386217D01*
X399291Y385701D01*
X399379Y385487D01*
X399860Y384860D01*
X404813Y379907D01*
X405063Y379304D01*
X405602Y378602D01*
X406304Y378063D01*
X407122Y377724D01*
X408000Y377609D01*
X408878Y377724D01*
X409696Y378063D01*
X410398Y378602D01*
X410937Y379304D01*
X411276Y380122D01*
X411391Y381000D01*
X411276Y381878D01*
X410937Y382696D01*
X410398Y383398D01*
X409696Y383937D01*
X409093Y384187D01*
X405026Y388253D01*
Y392394D01*
X405011Y392505D01*
Y394772D01*
X404842Y395623D01*
X404360Y396344D01*
X403638Y396826D01*
X402787Y396995D01*
D02*
G37*
G36*
X519473Y384360D02*
X515500D01*
Y380387D01*
X516175Y380476D01*
X517269Y380930D01*
X518209Y381651D01*
X518931Y382591D01*
X519384Y383686D01*
X519473Y384360D01*
D02*
G37*
G36*
X372181Y390134D02*
X365819D01*
Y386279D01*
X365819Y386279D01*
X365819D01*
X365819Y386075D01*
X365669Y385925D01*
X363079D01*
Y383933D01*
X357215D01*
X356738Y384647D01*
X356016Y385129D01*
X355165Y385299D01*
X351622D01*
X350771Y385129D01*
X350050Y384647D01*
X349568Y383926D01*
X349398Y383075D01*
Y380782D01*
X346821Y378205D01*
X346688Y378188D01*
X345837Y377835D01*
X345106Y377274D01*
X344545Y376543D01*
X344192Y375691D01*
X344189Y375664D01*
X343756Y375414D01*
X343488Y375525D01*
Y378436D01*
X344072Y378552D01*
X344793Y379034D01*
X345275Y379755D01*
X345444Y380606D01*
Y382968D01*
X345275Y383820D01*
X344793Y384541D01*
X344072Y385023D01*
X343220Y385192D01*
X339677D01*
X338826Y385023D01*
X338105Y384541D01*
X337623Y383820D01*
X337453Y382968D01*
Y380606D01*
X337623Y379755D01*
X338105Y379034D01*
X338826Y378552D01*
X339410Y378436D01*
Y376410D01*
X338961Y376188D01*
X338618Y376452D01*
X337767Y376804D01*
X336853Y376925D01*
X335939Y376804D01*
X335088Y376452D01*
X334357Y375891D01*
X333796Y375160D01*
X333443Y374308D01*
X333323Y373395D01*
X333443Y372481D01*
X333796Y371630D01*
X334208Y371092D01*
X325017Y361901D01*
X324000Y362035D01*
X322956Y361897D01*
X321983Y361494D01*
X321147Y360853D01*
X320506Y360017D01*
X320103Y359044D01*
X319966Y358000D01*
X320103Y356956D01*
X320506Y355983D01*
X321147Y355147D01*
X321983Y354506D01*
X322956Y354103D01*
X324000Y353965D01*
X325044Y354103D01*
X326017Y354506D01*
X326853Y355147D01*
X327494Y355983D01*
X327897Y356956D01*
X328034Y358000D01*
X327901Y359017D01*
X331480Y362596D01*
X331606Y362571D01*
X331961Y362424D01*
Y361477D01*
X331147Y360853D01*
X330506Y360017D01*
X330103Y359044D01*
X329965Y358000D01*
X330103Y356956D01*
X330506Y355983D01*
X331147Y355147D01*
X331983Y354506D01*
X332956Y354103D01*
X334000Y353965D01*
X335044Y354103D01*
X336017Y354506D01*
X336853Y355147D01*
X337494Y355983D01*
X337897Y356956D01*
X338035Y358000D01*
X337897Y359044D01*
X337494Y360017D01*
X336853Y360853D01*
X336039Y361477D01*
Y361655D01*
X346026Y371642D01*
X346688Y371368D01*
X347602Y371248D01*
X348516Y371368D01*
X349367Y371720D01*
X350098Y372281D01*
X350659Y373013D01*
X351012Y373864D01*
X351132Y374778D01*
X351012Y375691D01*
X350738Y376354D01*
X352873Y378489D01*
X355165D01*
X356016Y378658D01*
X356738Y379140D01*
X357215Y379854D01*
X363079D01*
Y378807D01*
X367441D01*
Y379854D01*
X370559D01*
Y378807D01*
X374921D01*
Y379854D01*
X379321D01*
X379656Y379353D01*
X380377Y378871D01*
X381228Y378701D01*
X384772D01*
X385623Y378871D01*
X386344Y379353D01*
X386826Y380074D01*
X386996Y380925D01*
Y383287D01*
X386826Y384138D01*
X386344Y384860D01*
X385623Y385342D01*
X384772Y385511D01*
X381228D01*
X380377Y385342D01*
X379656Y384860D01*
X379174Y384138D01*
X379133Y383933D01*
X374921D01*
Y385925D01*
X372331D01*
X372181Y386075D01*
X372181Y386279D01*
X372181Y386279D01*
X372181D01*
Y390134D01*
D02*
G37*
G36*
X331181Y389634D02*
X328500D01*
Y385575D01*
X329205D01*
X329559Y385221D01*
Y378307D01*
X333921D01*
Y385425D01*
X331331D01*
X331181Y385575D01*
X331181Y385779D01*
X331181Y385779D01*
X331181D01*
Y389634D01*
D02*
G37*
G36*
X514500Y384360D02*
X510527D01*
X510616Y383686D01*
X511069Y382591D01*
X511791Y381651D01*
X512731Y380930D01*
X513825Y380476D01*
X514500Y380387D01*
Y384360D01*
D02*
G37*
%LPD*%
D10*
X339979Y459606D02*
G03*
X332908Y456677I0J-10000D01*
G01*
X310929Y434699D02*
G03*
X308000Y427628I7071J-7071D01*
G01*
X506539Y414071D02*
G03*
X499468Y417000I-7071J-7071D01*
G01*
X535244Y412008D02*
G03*
X532315Y419079I-10000J0D01*
G01*
X502653Y448741D02*
G03*
X480299Y458000I-22354J-22354D01*
G01*
X511000Y406506D02*
G03*
X513213Y401163I7557J0D01*
G01*
X508808Y411802D02*
G03*
X508805Y411805I-5301J-5296D01*
G01*
X511000Y406506D02*
G03*
X508808Y411802I-7494J0D01*
G01*
X469271Y463126D02*
G03*
X462200Y466055I-7071J-7071D01*
G01*
X443654Y468984D02*
G03*
X450725Y466055I7071J7071D01*
G01*
X471468Y460929D02*
G03*
X478539Y458000I7071J7071D01*
G01*
X536000Y395040D02*
G03*
X535244Y396866I-2582J0D01*
G01*
X513213Y401163D02*
G03*
X523586Y396866I10373J10373D01*
G01*
X413220Y475000D02*
G03*
X399187Y469187I0J-19845D01*
G01*
X376252Y450394D02*
G03*
X383323Y453323I0J10000D01*
G01*
X345000Y450394D02*
G03*
X338853Y447847I0J-8694D01*
G01*
X332929Y441924D02*
G03*
X330000Y434853I7071J-7071D01*
G01*
X276039Y350929D02*
G03*
X283110Y348000I7071J7071D01*
G01*
X278735Y385844D02*
G03*
X273000Y372000I13845J-13845D01*
G01*
Y358110D02*
G03*
X275929Y351039I10000J0D01*
G01*
X446843Y447945D02*
G03*
X439772Y445016I0J-10000D01*
G01*
X432614Y442000D02*
G03*
X439685Y444929I0J10000D01*
G01*
X381740Y187091D02*
G03*
X382606Y185000I2957J0D01*
G01*
X491213Y444071D02*
G03*
X484142Y447000I-7071J-7071D01*
G01*
X468628Y449156D02*
G03*
X473834Y447000I5206J5206D01*
G01*
X463714Y454071D02*
G03*
X456643Y457000I-7071J-7071D01*
G01*
X443654Y468984D02*
G03*
X429130Y475000I-14524J-14524D01*
G01*
X339979Y459606D02*
X345000D01*
X310929Y434699D02*
X332908Y456677D01*
X308000Y387055D02*
Y427628D01*
X502653Y448741D02*
X532315Y419079D01*
X506539Y414071D02*
X508805Y411805D01*
X481000Y417000D02*
X499468D01*
X523586Y396866D02*
X535244D01*
Y412008D01*
X508805Y411805D02*
X508808Y411802D01*
X452205Y466055D02*
X462200D01*
X450725D02*
X452205D01*
X469271Y463126D02*
X471468Y460929D01*
X478539Y458000D02*
X480299D01*
X536000Y371055D02*
Y395040D01*
X481000Y248606D02*
Y259464D01*
X413220Y475000D02*
X429130D01*
X392000Y462000D02*
X399187Y469187D01*
X383323Y453323D02*
X392000Y462000D01*
X345000Y450394D02*
X376252D01*
X332929Y441924D02*
X338853Y447847D01*
X330000Y426000D02*
Y434853D01*
X278735Y385844D02*
X289756Y396866D01*
X275929Y351039D02*
X276039Y350929D01*
X273000Y358110D02*
Y372000D01*
X283110Y348000D02*
X284000D01*
X520929Y315000D02*
X539000D01*
X413744Y430677D02*
X481251D01*
X446843Y447945D02*
X452205D01*
X439685Y444929D02*
X439772Y445016D01*
X428606Y442000D02*
X432614D01*
X539000Y348000D02*
Y352945D01*
X521000Y348000D02*
X539000D01*
X501945Y248606D02*
Y262126D01*
X501000Y362000D02*
Y391858D01*
X381740Y187091D02*
Y201000D01*
X491213Y444071D02*
X492929Y442355D01*
X473834Y447000D02*
X484142D01*
X452205Y457000D02*
X456643D01*
X463714Y454071D02*
X468628Y449156D01*
X478000Y259375D02*
X478089Y259464D01*
X481000D01*
X534763Y397347D02*
X535244Y396866D01*
X472512Y410000D02*
X474000D01*
X472512Y394488D02*
Y410000D01*
Y394488D02*
X484000Y383000D01*
X452205Y457000D02*
X452205Y457000D01*
X427795Y457000D02*
X452205D01*
X332000Y408000D02*
X404677D01*
X315000Y391000D02*
X332000Y408000D01*
X315000Y384000D02*
Y391000D01*
X404677Y408000D02*
X412000Y415323D01*
X422606Y396000D02*
X423000D01*
X432000Y387000D01*
X461000Y277606D02*
X466000Y272606D01*
Y240000D02*
Y272606D01*
Y240000D02*
X477000Y229000D01*
X444000Y410000D02*
X471000D01*
X484000Y360118D02*
Y383000D01*
X474000Y410000D02*
X481000Y417000D01*
X427795Y411394D02*
X429189Y410000D01*
X444000D01*
X502697Y304000D02*
X503000Y303697D01*
Y310600D01*
Y295581D02*
Y303697D01*
X484079Y304000D02*
X502697D01*
X484079D02*
Y309256D01*
Y297606D02*
Y304000D01*
X502500Y335000D02*
X503000Y335500D01*
Y343000D01*
Y327981D02*
Y335500D01*
X484079Y335000D02*
X502500D01*
X484079D02*
Y340433D01*
Y328862D02*
Y335000D01*
X484000Y340512D02*
X484079Y340433D01*
Y278000D02*
X484279Y278200D01*
X503000D01*
X501819Y262000D02*
X501945Y262126D01*
X503000Y263181D01*
X519929Y259375D02*
X520304Y259000D01*
X519929Y259375D02*
Y262000D01*
Y246984D02*
Y259375D01*
X520304Y259000D02*
X539000D01*
X538053Y285000D02*
X539000Y284053D01*
Y289500D01*
Y278606D02*
Y284053D01*
X519929Y285000D02*
X538053D01*
X519929D02*
Y294400D01*
Y279381D02*
Y285000D01*
X539000Y315000D02*
Y320000D01*
Y309106D02*
Y315000D01*
X519929Y316000D02*
X520929Y315000D01*
X519929Y316000D02*
Y326800D01*
Y311781D02*
Y316000D01*
X539000Y339606D02*
Y348000D01*
X521000D02*
Y362000D01*
Y343110D02*
Y348000D01*
X519000Y246055D02*
X519929Y246984D01*
X503000Y263181D02*
Y278200D01*
X519929Y279381D02*
X521110Y278200D01*
X501819Y294400D02*
X503000Y295581D01*
X519929Y311781D02*
X521110Y310600D01*
X501819Y326800D02*
X503000Y327981D01*
X521000Y343110D02*
X521110Y343000D01*
X492929Y399929D02*
X501000Y391858D01*
X481251Y430677D02*
X485858Y435284D01*
X492929Y442355D02*
X500000Y435284D01*
X402000Y387000D02*
Y392394D01*
Y387000D02*
X408000Y381000D01*
X391000Y277606D02*
X403500D01*
X423606Y420606D02*
X427795D01*
X418323Y415323D02*
X423606Y420606D01*
X412000Y415323D02*
X418323D01*
X294000Y363000D02*
X315000Y384000D01*
X294000Y358000D02*
Y363000D01*
X284000Y363055D02*
X308000Y387055D01*
X284000Y358000D02*
Y363055D01*
X407606Y443000D02*
X408000Y443394D01*
X403000Y443000D02*
X407606D01*
X392000Y432000D02*
X403000Y443000D01*
X391606Y431606D02*
X392000Y432000D01*
X362000Y420394D02*
X362394Y420000D01*
X362000Y420394D02*
Y432000D01*
X361606Y432394D02*
X362000Y432000D01*
X345276Y432394D02*
X361606D01*
X477000Y229000D02*
X481000D01*
X501945D02*
X517945D01*
X481000D02*
X501945D01*
X517945D02*
X519000Y227945D01*
X481000Y229000D02*
X482000Y228000D01*
Y215000D02*
Y228000D01*
X359606Y459606D02*
X362000Y462000D01*
X345000Y459606D02*
X359606D01*
X391606Y420000D02*
Y431606D01*
X440000Y261894D02*
X454229D01*
X454339Y261784D01*
X451552Y298000D02*
X461394D01*
X440000Y286448D02*
X451552Y298000D01*
X440000Y261894D02*
Y286448D01*
D11*
X446245Y202071D02*
G03*
X439174Y205000I-7071J-7071D01*
G01*
X446245Y202071D02*
G03*
X450294Y200394I4050J4050D01*
G01*
X425000Y211695D02*
G03*
X427000Y206866I6828J0D01*
G01*
X404110Y208253D02*
G03*
X414378Y204000I10268J10268D01*
G01*
X404110Y208253D02*
G03*
X397039Y211182I-7071J-7071D01*
G01*
X458000Y191000D02*
G03*
X464733Y193789I0J9522D01*
G01*
X429465Y193929D02*
G03*
X436536Y191000I7071J7071D01*
G01*
X387699Y256500D02*
G03*
X382238Y254238I0J-7724D01*
G01*
X376929Y248929D02*
G03*
X374000Y241858I7071J-7071D01*
G01*
X382893Y214111D02*
G03*
X389964Y211182I7071J7071D01*
G01*
X374000Y227146D02*
G03*
X376929Y220075I10000J0D01*
G01*
X489071Y200465D02*
G03*
X492000Y207536I-7071J7071D01*
G01*
X480464Y196000D02*
G03*
X487535Y198929I0J10000D01*
G01*
X423394Y229235D02*
G03*
X420380Y227987I0J-4261D01*
G01*
X414878Y224000D02*
G03*
X417465Y225072I0J3659D01*
G01*
X414878Y224000D02*
G03*
X411000Y222394I0J-5484D01*
G01*
X408842Y221500D02*
G03*
X411000Y222394I0J3051D01*
G01*
X416000Y449536D02*
G03*
X418929Y442465I10000J0D01*
G01*
X416000Y456172D02*
G03*
X414000Y461000I-6828J0D01*
G01*
X435000Y223456D02*
G03*
X432606Y229235I-8173J0D01*
G01*
X452205Y211526D02*
G03*
X453000Y209606I2715J0D01*
G01*
X440000Y242287D02*
G03*
X449396Y219604I32079J0D01*
G01*
X452205Y214308D02*
G03*
X450446Y218554I-6004J0D01*
G01*
X415969Y260106D02*
G03*
X408898Y257177I0J-10000D01*
G01*
X399078Y251500D02*
G03*
X406149Y254429I0J10000D01*
G01*
X455000Y231526D02*
G03*
X457929Y224455I10000J0D01*
G01*
X455000Y239858D02*
G03*
X452071Y246929I-10000J0D01*
G01*
X464455Y217929D02*
G03*
X471526Y215000I7071J7071D01*
G01*
X415112Y250894D02*
G03*
X410000Y248776I0J-7230D01*
G01*
X451035Y247965D02*
G03*
X443964Y250894I-7071J-7071D01*
G01*
X404505Y246500D02*
G03*
X410000Y248776I0J7771D01*
G01*
X422940Y200453D02*
G03*
X414378Y204000I-8563J-8563D01*
G01*
X427000Y206866D02*
G03*
X431505Y205000I4505J4505D01*
G01*
X380663Y329500D02*
X397000D01*
X446685Y374449D02*
X461000D01*
X307287Y282394D02*
X309894Y285000D01*
X301000Y282394D02*
X307287D01*
X360000Y191000D02*
Y199000D01*
X418000Y329000D02*
X422500Y333500D01*
X431505Y205000D02*
X439174D01*
X450294Y200394D02*
X453000D01*
X425000Y211695D02*
Y215017D01*
X422940Y200453D02*
X429465Y193929D01*
X436536Y191000D02*
X458000D01*
X387699Y256500D02*
X393913D01*
X376929Y248929D02*
X382238Y254238D01*
X374000Y227146D02*
Y241858D01*
X389964Y211182D02*
X397039D01*
X376929Y220075D02*
X382893Y214111D01*
X385606Y315394D02*
X397000D01*
X334606Y206000D02*
X345276D01*
X487535Y198929D02*
X489071Y200465D01*
X476157Y196000D02*
X480464D01*
X417465Y225072D02*
X420380Y227987D01*
X393913Y221500D02*
X408842D01*
X418929Y442465D02*
X419394Y442000D01*
X416000Y449536D02*
Y456172D01*
X322551Y241000D02*
X330000D01*
X315000Y247000D02*
Y255000D01*
X291000Y296394D02*
X292000Y295394D01*
X435000Y215017D02*
Y223456D01*
X324000Y358000D02*
X341449Y375449D01*
X341949Y231500D02*
X358087D01*
X382606Y185000D02*
X382740Y185134D01*
X354724Y209740D02*
X372707D01*
X353394Y381894D02*
X382000D01*
X382500Y381394D01*
X334000Y362500D02*
X353394Y381894D01*
X452205Y211526D02*
Y214308D01*
X449396Y219604D02*
X450446Y218554D01*
X277547Y270240D02*
X294366D01*
X415969Y260106D02*
X424000D01*
X406149Y254429D02*
X408898Y257177D01*
X393913Y251500D02*
X399078D01*
X317686Y212102D02*
X325000D01*
X455000Y231526D02*
Y239858D01*
X451035Y247965D02*
X452071Y246929D01*
X471526Y215000D02*
X472000D01*
X457929Y224455D02*
X464455Y217929D01*
X424000Y250894D02*
X443964D01*
X415112D02*
X424000D01*
X393913Y246500D02*
X404505D01*
X386000Y229389D02*
Y234231D01*
Y229389D02*
X388889Y226500D01*
X393913D01*
X403894D02*
X404000Y226394D01*
X393913Y226500D02*
X403894D01*
X404000Y232847D02*
X405347Y231500D01*
X412185D01*
X393913D02*
X405347D01*
X404000Y232847D02*
Y235606D01*
X350000Y256000D02*
Y261706D01*
X341449Y261000D02*
X349294D01*
X453092Y344302D02*
X454000Y343394D01*
X461000D01*
X449555D02*
X454000D01*
X453092Y344302D02*
Y348111D01*
X492000Y207536D02*
Y215000D01*
X464733Y193789D02*
X466944Y196000D01*
X341449Y396978D02*
X342471Y398000D01*
X341449Y391000D02*
Y396978D01*
X436000Y353000D02*
X438000Y351000D01*
Y340000D02*
Y351000D01*
X436500Y338500D02*
X438000Y340000D01*
X412185Y231500D02*
X413000Y230685D01*
X329354Y303394D02*
X332000D01*
X321748Y295787D02*
X329354Y303394D01*
X320000Y295787D02*
X321748D01*
X335000Y251000D02*
X341449D01*
X331055Y246000D02*
X334000D01*
X326055Y251000D02*
X331055Y246000D01*
X322551Y251000D02*
X326055D01*
X330000Y240000D02*
Y241000D01*
X356740Y202260D02*
X360000Y199000D01*
Y191000D02*
X366000D01*
X373394Y185000D02*
X374394D01*
X372000D02*
X373394D01*
X372707Y209740D02*
X372740Y209707D01*
Y202000D02*
Y209707D01*
X459000Y384000D02*
X461000D01*
X445000D02*
X459000D01*
X449449Y343500D02*
X449500D01*
X344000Y358000D02*
X348000Y354000D01*
X394000D01*
X400500Y360500D01*
X334000Y246000D02*
X341449D01*
X334000D02*
X335000Y245000D01*
Y233394D02*
Y245000D01*
X324000Y222394D02*
X335000Y233394D01*
X282500Y302606D02*
X284685D01*
X277000D02*
X282500D01*
Y307000D01*
X302634Y261634D02*
Y266500D01*
X275000Y272787D02*
X277547Y270240D01*
X379394Y372894D02*
X383000D01*
X367500Y361000D02*
X379394Y372894D01*
X290697Y295197D02*
X290894Y295394D01*
X290500Y295000D02*
X290697Y295197D01*
X290894Y295394D02*
X292000D01*
X334000Y358000D02*
Y362500D01*
X314500Y236000D02*
X322551D01*
X341449Y375449D02*
Y381787D01*
X324260Y378260D02*
Y381866D01*
X304000Y358000D02*
X324260Y378260D01*
X397000Y329500D02*
Y334394D01*
Y324606D02*
Y329500D01*
X344000Y348000D02*
X344394Y347606D01*
X373000D01*
X375000Y301787D02*
X375047Y301740D01*
X383276D01*
X380516Y291500D02*
X383276Y294260D01*
X376606Y291500D02*
X380516D01*
X356000Y296394D02*
X360894Y291500D01*
X367394D01*
X373000Y321500D02*
Y338394D01*
X366500Y315000D02*
X373000Y321500D01*
X333606Y315000D02*
X366500D01*
X332000Y313394D02*
X333606Y315000D01*
X284685Y302606D02*
X286000Y301291D01*
X276213Y313213D02*
X276394Y313394D01*
X265000Y313213D02*
X276213D01*
X265000Y288394D02*
Y304000D01*
Y288394D02*
X271394Y282000D01*
X275000D01*
X442000Y387000D02*
X445000Y384000D01*
X444842Y372606D02*
X446685Y374449D01*
X422500Y333500D02*
X430551D01*
X418000Y325213D02*
Y329000D01*
X408856Y343606D02*
X410250Y345000D01*
X397000Y343606D02*
X408856D01*
X417500Y338500D02*
X430551D01*
X408000Y329000D02*
X417500Y338500D01*
X408000Y324606D02*
Y329000D01*
X418000Y371000D02*
Y381000D01*
Y371000D02*
X419606Y372606D01*
X433591D01*
X444842Y363394D02*
X445213Y363024D01*
Y353000D02*
Y363024D01*
X403500Y315394D02*
X403894Y315000D01*
X403500Y315394D02*
X408000D01*
X397000D02*
X403500D01*
X403894Y298000D02*
Y315000D01*
X355787Y306394D02*
X356000D01*
X342787Y293394D02*
X355787Y306394D01*
X332000Y293394D02*
X342787D01*
X291000Y278394D02*
X294394Y275000D01*
X309606Y234000D02*
X311606Y236000D01*
X310000Y295787D02*
X320000D01*
X305394D02*
X310000D01*
X296000Y286394D02*
X305394Y295787D01*
X296000Y282394D02*
Y286394D01*
X299394Y313394D02*
X301339D01*
X285606D02*
X299394D01*
X301000Y296394D02*
Y301291D01*
X291000Y286394D02*
X301000Y296394D01*
X291000Y282394D02*
Y286394D01*
X296000Y297394D02*
Y301291D01*
X294000Y295394D02*
X296000Y297394D01*
X292000Y295394D02*
X294000D01*
X291000Y296394D02*
Y301291D01*
X301000Y313055D02*
X301339Y313394D01*
X301000Y301291D02*
Y313055D01*
X275000Y282000D02*
X275394Y282394D01*
X286000D01*
X291000Y278394D02*
Y282394D01*
X314500Y254500D02*
X315000Y255000D01*
X341449Y231000D02*
X341949Y231500D01*
X341449Y236000D02*
X347000D01*
X352500Y241500D01*
X358087D01*
X351500Y246500D02*
X358087D01*
X350000Y248000D02*
X351500Y246500D01*
X322551Y256000D02*
X341449D01*
X316000Y246000D02*
X322551D01*
X316000Y256000D02*
X322551D01*
X315000Y247000D02*
X316000Y246000D01*
X315000Y255000D02*
X316000Y256000D01*
X366000Y191000D02*
X372000Y185000D01*
X354724Y202260D02*
X356740D01*
X345276D02*
X348260D01*
X350000Y204000D01*
Y209000D01*
X350740Y209740D01*
X354724D01*
X334016Y221000D02*
X345276Y209740D01*
X334000Y221000D02*
X334016D01*
X324000D02*
Y222394D01*
Y221000D02*
X325000Y220000D01*
X428394Y318000D02*
Y326343D01*
X430551Y328500D01*
Y338500D02*
X436500D01*
X442000Y349787D02*
X445213Y353000D01*
X442000Y336000D02*
Y349787D01*
Y336000D02*
X444500Y333500D01*
X449449D01*
X459106D01*
X449449Y343500D02*
X449555Y343394D01*
X381500Y328456D02*
Y328663D01*
X386000Y334394D02*
X387000D01*
X397000D01*
X294394Y275000D02*
X330894D01*
X333500Y277606D01*
X350000Y261706D02*
X352294Y264000D01*
X350000Y248000D02*
Y256000D01*
X341449D02*
X350000D01*
X297894Y234000D02*
Y237212D01*
X302500Y241818D01*
Y246851D01*
X302000Y261000D02*
X302500Y261500D01*
X302634Y261634D01*
X302000Y261000D02*
X302500D01*
X322551D01*
X302500Y246851D02*
Y261000D01*
Y261500D01*
X349294Y261000D02*
X350000Y261706D01*
X320000Y295787D02*
X321174Y294614D01*
Y290000D02*
Y294614D01*
X433591Y363394D02*
X442842D01*
X444842D01*
X325000Y211606D02*
Y212102D01*
Y220000D01*
D12*
X404000Y235606D02*
D03*
Y226394D02*
D03*
X310000Y295787D02*
D03*
Y305000D02*
D03*
X373000Y338394D02*
D03*
Y347606D02*
D03*
X427795Y420606D02*
D03*
Y411394D02*
D03*
X383000Y372894D02*
D03*
Y382106D02*
D03*
X353394Y391106D02*
D03*
Y381894D02*
D03*
X265000Y304000D02*
D03*
Y313213D02*
D03*
X275000Y272787D02*
D03*
Y282000D02*
D03*
X285000Y260394D02*
D03*
Y269606D02*
D03*
X375000Y311000D02*
D03*
Y301787D02*
D03*
X341449Y391000D02*
D03*
Y381787D02*
D03*
X424000Y260106D02*
D03*
Y250894D02*
D03*
X336000Y197653D02*
D03*
Y206866D02*
D03*
X325000Y202394D02*
D03*
Y211606D02*
D03*
X453000Y227606D02*
D03*
Y218394D02*
D03*
Y200394D02*
D03*
Y209606D02*
D03*
X408000Y315394D02*
D03*
Y324606D02*
D03*
X386606Y313394D02*
D03*
Y322606D02*
D03*
X397000Y315394D02*
D03*
Y324606D02*
D03*
X418000Y325213D02*
D03*
Y316000D02*
D03*
X397000Y334394D02*
D03*
Y343606D02*
D03*
X387000Y334394D02*
D03*
Y343606D02*
D03*
X345000Y459606D02*
D03*
Y450394D02*
D03*
X460394Y332606D02*
D03*
Y323394D02*
D03*
X461000Y352606D02*
D03*
Y343394D02*
D03*
X345276Y432394D02*
D03*
Y441606D02*
D03*
X433591Y372606D02*
D03*
Y363394D02*
D03*
X320000Y305000D02*
D03*
Y295787D02*
D03*
X408000Y443394D02*
D03*
Y452606D02*
D03*
X442842Y372606D02*
D03*
Y363394D02*
D03*
X277000Y302606D02*
D03*
Y293394D02*
D03*
D13*
X412000Y430677D02*
D03*
Y415323D02*
D03*
D14*
X309894Y282000D02*
D03*
X319106D02*
D03*
X299394Y313394D02*
D03*
X308606D02*
D03*
X419394Y442000D02*
D03*
X428606D02*
D03*
X276394Y313394D02*
D03*
X285606D02*
D03*
X422606Y396000D02*
D03*
X413394D02*
D03*
X367394Y291500D02*
D03*
X376606D02*
D03*
X297894Y234000D02*
D03*
X307106D02*
D03*
X293287Y246851D02*
D03*
X302500D02*
D03*
X352294Y264000D02*
D03*
X361507D02*
D03*
X373394Y185000D02*
D03*
X382606D02*
D03*
X359606Y191000D02*
D03*
X350394D02*
D03*
X436000Y353000D02*
D03*
X445213D02*
D03*
X428394Y318000D02*
D03*
X437606D02*
D03*
X466944Y196000D02*
D03*
X476157D02*
D03*
X423394Y229235D02*
D03*
X432606D02*
D03*
X401606Y393000D02*
D03*
X392394D02*
D03*
D15*
X345276Y202260D02*
D03*
Y206000D02*
D03*
Y209740D02*
D03*
X354724D02*
D03*
Y206000D02*
D03*
Y202260D02*
D03*
D16*
X501945Y248606D02*
D03*
Y229000D02*
D03*
X484079Y297606D02*
D03*
Y278000D02*
D03*
Y328862D02*
D03*
Y309256D02*
D03*
X539000Y309106D02*
D03*
Y289500D02*
D03*
Y278606D02*
D03*
Y259000D02*
D03*
Y339606D02*
D03*
Y320000D02*
D03*
X440000Y242287D02*
D03*
Y261894D02*
D03*
X481000Y229000D02*
D03*
Y248606D02*
D03*
X484000Y360118D02*
D03*
Y340512D02*
D03*
D17*
X521110Y343000D02*
D03*
X503000D02*
D03*
X501819Y262000D02*
D03*
X519929D02*
D03*
X521110Y278200D02*
D03*
X503000D02*
D03*
X501819Y294400D02*
D03*
X519929D02*
D03*
X521110Y310600D02*
D03*
X503000D02*
D03*
X501819Y326800D02*
D03*
X519929D02*
D03*
D18*
X501394Y362000D02*
D03*
X521000D02*
D03*
D19*
X519000Y246055D02*
D03*
Y227945D02*
D03*
X536000Y371055D02*
D03*
Y352945D02*
D03*
D20*
X444000Y430000D02*
D03*
Y410000D02*
D03*
D21*
X365260Y382366D02*
D03*
X372740D02*
D03*
X369000Y390634D02*
D03*
X324260Y381866D02*
D03*
X331740D02*
D03*
X328000Y390134D02*
D03*
D22*
X427795Y457000D02*
D03*
D23*
X452205Y466055D02*
D03*
Y447945D02*
D03*
D24*
Y457000D02*
D03*
D25*
X286000Y282394D02*
D03*
X291000D02*
D03*
X296000D02*
D03*
X301000D02*
D03*
X286000Y301291D02*
D03*
X291000D02*
D03*
X296000D02*
D03*
X301000D02*
D03*
D26*
X294366Y270240D02*
D03*
Y262760D02*
D03*
X302634Y266500D02*
D03*
D27*
X341449Y231000D02*
D03*
Y236000D02*
D03*
Y241000D02*
D03*
Y246000D02*
D03*
Y251000D02*
D03*
Y256000D02*
D03*
Y261000D02*
D03*
X322551Y231000D02*
D03*
Y236000D02*
D03*
Y241000D02*
D03*
Y246000D02*
D03*
Y251000D02*
D03*
Y256000D02*
D03*
Y261000D02*
D03*
X430551Y343500D02*
D03*
Y338500D02*
D03*
Y333500D02*
D03*
Y328500D02*
D03*
X449449Y343500D02*
D03*
Y338500D02*
D03*
Y333500D02*
D03*
Y328500D02*
D03*
D28*
X383276Y301740D02*
D03*
X392724Y298000D02*
D03*
D29*
X383276Y294260D02*
D03*
D30*
X358087Y256500D02*
D03*
Y251500D02*
D03*
Y246500D02*
D03*
Y241500D02*
D03*
Y236500D02*
D03*
Y231500D02*
D03*
Y226500D02*
D03*
Y221500D02*
D03*
X393913Y256500D02*
D03*
Y251500D02*
D03*
Y246500D02*
D03*
Y241500D02*
D03*
Y236500D02*
D03*
Y231500D02*
D03*
Y226500D02*
D03*
Y221500D02*
D03*
D31*
X310000Y426000D02*
D03*
X330000D02*
D03*
D32*
X349500Y418000D02*
D03*
X362000D02*
D03*
X379000Y417890D02*
D03*
X391500D02*
D03*
D33*
X255116Y320504D02*
G03*
X255116Y331496I157384J5496D01*
G01*
Y320504D02*
X367004D01*
X370000Y323500D01*
Y329004D01*
X255116Y331496D02*
X367508D01*
X370000Y329004D01*
D34*
X511268Y343000D02*
X512843D01*
X512055Y342213D02*
Y343787D01*
X510087Y262000D02*
X511661D01*
X510874Y261213D02*
Y262787D01*
X511268Y278200D02*
X512843D01*
X512055Y277413D02*
Y278987D01*
X510087Y294400D02*
X511661D01*
X510874Y293613D02*
Y295187D01*
X511268Y310600D02*
X512843D01*
X512055Y309813D02*
Y311387D01*
X510087Y326800D02*
X511661D01*
X510874Y326013D02*
Y327587D01*
X519000Y236213D02*
Y237787D01*
X518213Y237000D02*
X519787D01*
X536000Y361213D02*
Y362787D01*
X535213Y362000D02*
X536787D01*
D35*
X284000Y376961D02*
D03*
X485858Y435284D02*
D03*
X492929Y442355D02*
D03*
X500000Y435284D02*
D03*
Y407000D02*
D03*
X485858D02*
D03*
X492929Y399929D02*
D03*
X332000Y303394D02*
D03*
Y293394D02*
D03*
X324000Y221000D02*
D03*
X334000D02*
D03*
X459000Y374000D02*
D03*
Y384000D02*
D03*
X324000Y348000D02*
D03*
Y358000D02*
D03*
X294000D02*
D03*
Y348000D02*
D03*
X284000Y358000D02*
D03*
Y348000D02*
D03*
X314000Y358000D02*
D03*
Y348000D02*
D03*
X304000Y358000D02*
D03*
Y348000D02*
D03*
X334000D02*
D03*
Y358000D02*
D03*
X344000Y348000D02*
D03*
X454339Y261784D02*
D03*
D36*
X274000Y376961D02*
D03*
X314000Y221000D02*
D03*
X344000Y358000D02*
D03*
D37*
X403894Y298000D02*
D03*
X333500Y277606D02*
D03*
X403500D02*
D03*
D38*
X461394Y298000D02*
D03*
X391000Y277606D02*
D03*
X461000D02*
D03*
D39*
X289756Y396866D02*
D03*
X535244D02*
D03*
X412500Y184268D02*
D03*
D40*
X471716Y421142D02*
D03*
X514142D02*
D03*
D41*
X332000Y313394D02*
D03*
X459000Y364000D02*
D03*
D42*
X492000Y215000D02*
D03*
X435000Y215017D02*
D03*
D43*
X482000Y215000D02*
D03*
X472000D02*
D03*
X425000Y215017D02*
D03*
X415000D02*
D03*
D44*
X362000Y432000D02*
D03*
X372000D02*
D03*
X382000D02*
D03*
X392000D02*
D03*
X362000Y462000D02*
D03*
X372000D02*
D03*
X382000D02*
D03*
X386000Y234231D02*
D03*
X453092Y348111D02*
D03*
X478000Y259375D02*
D03*
X484559Y259669D02*
D03*
X342471Y398000D02*
D03*
X414000Y461000D02*
D03*
X332894Y250894D02*
D03*
X330000Y240000D02*
D03*
X349000Y231000D02*
D03*
X420250Y332000D02*
D03*
X305000Y283000D02*
D03*
X400500Y360500D02*
D03*
X313500Y255000D02*
D03*
X282500Y307000D02*
D03*
X367500Y361000D02*
D03*
X290697Y295197D02*
D03*
X314500Y236000D02*
D03*
X381500Y328456D02*
D03*
X318216Y409000D02*
D03*
X371687Y261634D02*
D03*
X276039Y263545D02*
D03*
X347485Y218394D02*
D03*
X447000Y321253D02*
D03*
X386384Y399376D02*
D03*
X450360Y393000D02*
D03*
X377167Y360118D02*
D03*
X314000Y289238D02*
D03*
X318228Y314000D02*
D03*
X443000Y180000D02*
D03*
X407000Y465410D02*
D03*
X467331Y312000D02*
D03*
X515000Y384860D02*
D03*
X556000Y347783D02*
D03*
X313493Y229000D02*
D03*
X321174Y290000D02*
D03*
X347602Y374778D02*
D03*
X336853Y373395D02*
D03*
X451394Y374200D02*
D03*
X317686Y212000D02*
D03*
D45*
X392000Y462000D02*
D03*
D46*
X371740Y211000D02*
D03*
Y201000D02*
D03*
X418000Y371000D02*
D03*
Y381000D02*
D03*
X420250Y355000D02*
D03*
X410250D02*
D03*
X432000Y387000D02*
D03*
X442000D02*
D03*
X356000Y296394D02*
D03*
Y306394D02*
D03*
D47*
X381740Y201000D02*
D03*
X408000Y381000D02*
D03*
X410250Y345000D02*
D03*
X442000Y397000D02*
D03*
X346000Y306394D02*
D03*
D48*
X413000Y260528D02*
D03*
D49*
Y230685D02*
D03*
M02*
