%FSLAX25Y25*%
%MOIN*%
G70*
G01*
G75*
G04 Layer_Color=32896*
%ADD10C,0.04000*%
%ADD11C,0.02000*%
G04:AMPARAMS|DCode=12|XSize=47.24mil|YSize=59.06mil|CornerRadius=11.81mil|HoleSize=0mil|Usage=FLASHONLY|Rotation=90.000|XOffset=0mil|YOffset=0mil|HoleType=Round|Shape=RoundedRectangle|*
%AMROUNDEDRECTD12*
21,1,0.04724,0.03543,0,0,90.0*
21,1,0.02362,0.05906,0,0,90.0*
1,1,0.02362,0.01772,0.01181*
1,1,0.02362,0.01772,-0.01181*
1,1,0.02362,-0.01772,-0.01181*
1,1,0.02362,-0.01772,0.01181*
%
%ADD12ROUNDEDRECTD12*%
%ADD13R,0.13386X0.07480*%
G04:AMPARAMS|DCode=14|XSize=47.24mil|YSize=59.06mil|CornerRadius=11.81mil|HoleSize=0mil|Usage=FLASHONLY|Rotation=180.000|XOffset=0mil|YOffset=0mil|HoleType=Round|Shape=RoundedRectangle|*
%AMROUNDEDRECTD14*
21,1,0.04724,0.03543,0,0,180.0*
21,1,0.02362,0.05906,0,0,180.0*
1,1,0.02362,-0.01181,0.01772*
1,1,0.02362,0.01181,0.01772*
1,1,0.02362,0.01181,-0.01772*
1,1,0.02362,-0.01181,-0.01772*
%
%ADD14ROUNDEDRECTD14*%
%ADD15R,0.04331X0.02559*%
%ADD16R,0.13780X0.04724*%
%ADD17R,0.08268X0.07284*%
%ADD18R,0.04724X0.13780*%
%ADD19R,0.07284X0.08268*%
%ADD20R,0.14764X0.07874*%
%ADD21R,0.02362X0.05118*%
%ADD22R,0.08465X0.13780*%
%ADD23R,0.08465X0.04331*%
%ADD24R,0.08465X0.04331*%
%ADD25O,0.02362X0.08661*%
%ADD26R,0.05118X0.02362*%
%ADD27O,0.08661X0.02362*%
%ADD28R,0.03937X0.03347*%
%ADD29R,0.03937X0.03347*%
%ADD30O,0.09055X0.02362*%
%ADD31R,0.07874X0.14764*%
%ADD32R,0.05906X0.07874*%
%ADD33C,0.01000*%
%ADD34C,0.00394*%
%ADD35C,0.06000*%
%ADD36R,0.06000X0.06000*%
%ADD37R,0.10000X0.10000*%
%ADD38C,0.10000*%
%ADD39C,0.20000*%
%ADD40C,0.07087*%
%ADD41R,0.06000X0.06000*%
%ADD42R,0.06299X0.06299*%
%ADD43C,0.06299*%
%ADD44C,0.05000*%
%ADD45R,0.05000X0.05000*%
%ADD46C,0.04000*%
%ADD47C,0.04724*%
%ADD48R,0.05906X0.05906*%
%ADD49C,0.05906*%
%ADD50C,0.00984*%
%ADD51C,0.02362*%
%ADD52C,0.00787*%
%ADD53C,0.00500*%
%ADD54C,0.00800*%
%ADD55C,0.00591*%
%ADD56R,0.07480X0.02559*%
G04:AMPARAMS|DCode=57|XSize=55.24mil|YSize=67.06mil|CornerRadius=13.81mil|HoleSize=0mil|Usage=FLASHONLY|Rotation=90.000|XOffset=0mil|YOffset=0mil|HoleType=Round|Shape=RoundedRectangle|*
%AMROUNDEDRECTD57*
21,1,0.05524,0.03943,0,0,90.0*
21,1,0.02762,0.06706,0,0,90.0*
1,1,0.02762,0.01972,0.01381*
1,1,0.02762,0.01972,-0.01381*
1,1,0.02762,-0.01972,-0.01381*
1,1,0.02762,-0.01972,0.01381*
%
%ADD57ROUNDEDRECTD57*%
%ADD58R,0.14186X0.08280*%
G04:AMPARAMS|DCode=59|XSize=55.24mil|YSize=67.06mil|CornerRadius=13.81mil|HoleSize=0mil|Usage=FLASHONLY|Rotation=180.000|XOffset=0mil|YOffset=0mil|HoleType=Round|Shape=RoundedRectangle|*
%AMROUNDEDRECTD59*
21,1,0.05524,0.03943,0,0,180.0*
21,1,0.02762,0.06706,0,0,180.0*
1,1,0.02762,-0.01381,0.01972*
1,1,0.02762,0.01381,0.01972*
1,1,0.02762,0.01381,-0.01972*
1,1,0.02762,-0.01381,-0.01972*
%
%ADD59ROUNDEDRECTD59*%
%ADD60R,0.05131X0.03359*%
%ADD61R,0.14579X0.05524*%
%ADD62R,0.09068X0.08083*%
%ADD63R,0.05524X0.14579*%
%ADD64R,0.08083X0.09068*%
%ADD65R,0.15564X0.08674*%
%ADD66R,0.03162X0.05918*%
%ADD67R,0.09265X0.14579*%
%ADD68R,0.09265X0.05131*%
%ADD69R,0.09265X0.05131*%
%ADD70O,0.03162X0.09461*%
%ADD71R,0.05918X0.03162*%
%ADD72O,0.09461X0.03162*%
%ADD73R,0.04737X0.04147*%
%ADD74R,0.04737X0.04147*%
%ADD75O,0.09855X0.03162*%
%ADD76R,0.08674X0.15564*%
%ADD77R,0.06706X0.08674*%
%ADD78C,0.06800*%
%ADD79R,0.06800X0.06800*%
%ADD80R,0.10800X0.10800*%
%ADD81C,0.10800*%
%ADD82C,0.20800*%
%ADD83C,0.07887*%
%ADD84R,0.06800X0.06800*%
%ADD85R,0.07099X0.07099*%
%ADD86C,0.07099*%
%ADD87C,0.05800*%
%ADD88R,0.05800X0.05800*%
%ADD89C,0.04800*%
%ADD90C,0.05524*%
%ADD91R,0.06706X0.06706*%
%ADD92C,0.06706*%
D33*
X255116Y320504D02*
G03*
X255116Y331496I157384J5496D01*
G01*
Y320504D02*
X367004D01*
X370000Y323500D01*
Y329004D01*
X255116Y331496D02*
X367508D01*
X370000Y329004D01*
D34*
X511268Y343000D02*
X512843D01*
X512055Y342213D02*
Y343787D01*
X510087Y262000D02*
X511661D01*
X510874Y261213D02*
Y262787D01*
X511268Y278200D02*
X512843D01*
X512055Y277413D02*
Y278987D01*
X510087Y294400D02*
X511661D01*
X510874Y293613D02*
Y295187D01*
X511268Y310600D02*
X512843D01*
X512055Y309813D02*
Y311387D01*
X510087Y326800D02*
X511661D01*
X510874Y326013D02*
Y327587D01*
X519000Y236213D02*
Y237787D01*
X518213Y237000D02*
X519787D01*
X536000Y361213D02*
Y362787D01*
X535213Y362000D02*
X536787D01*
M02*
